<?xml version="1.0" encoding="UTF-8"?><svg id="Layer_2" xmlns="http://www.w3.org/2000/svg" xmlns:xlink="http://www.w3.org/1999/xlink" viewBox="0 0 1920 1081"><defs><style>.cls-1{fill:none;}.cls-2{clip-path:url(#clippath);}.cls-3{fill:#f7981d;}.cls-4{fill:#fff;}.cls-5{fill:#ffd9ea;}.cls-6{fill:#e74755;}.cls-7{fill:#fde855;}.cls-8{fill:#c1e7f7;}.cls-9{fill:#76bfb3;}.cls-10{fill:#4e7cbd;}.cls-11{clip-path:url(#clippath-1);}</style><clipPath id="clippath"><rect class="cls-1" x="1198.12" y="619.06" width="209.74" height="216.85"/></clipPath><clipPath id="clippath-1"><rect class="cls-1" x="155.73" y="483.17" width="479.46" height="240.29" transform="translate(-10.2 6.81) rotate(-.97)"/></clipPath></defs><g id="Layer_1-2"><rect id="Rectangle_6" class="cls-5" width="1920" height="1081"/><g id="Group_27"><path id="Path_6" class="cls-7" d="m1294.53,121.94s-28.46,11.36-21.8,34.17c6.65,22.81,48.81,15.94,48.81,15.94,0,0,31.21-20.76,6.51-40.67s-33.51-9.44-33.51-9.44"/><g id="Group_9"><path id="Path_10" d="m1263.46,414.28c-.15-6.38-.29-11.29-1.59-16.18-.75-2.84-.35-6-.31-9.02.02-1.4-.32-1.99-1.82-1.94-2.04.06-4.1-.02-6.14-.16-.84-.05-1.67-.27-2.42-.65-6.94-3.67-13.87-7.37-20.78-11.11-.65-.32-1.24-.73-1.77-1.23-4.81-4.93-9.64-9.85-14.36-14.87-3.19-3.49-5.38-7.77-6.36-12.4-1.38-5.77-2.19-11.66-2.42-17.59.02-1.45.18-2.89.47-4.31.52-3.46,1.1-6.91,1.62-10.37,0-.73.06-1.45.15-2.17,1.99-6.85,3.8-13.77,7.29-20.09.51-.81.85-1.71.99-2.66.19-2.97,2.06-4.99,3.48-7.38,2.13-3.59,4.72-6.85,6.83-10.43.54-1.07,1.2-2.07,1.98-2.99,3.74-3.95,7.88-7.49,12.36-10.58,2.9-1.96,5.68-4.12,8.48-6.21,2.97-2.21,6.54-3.01,9.87-4.37,4.15-1.69,8.18-3.64,12.31-5.35,1.23-.46,2.52-.71,3.83-.75,2.41-.14,4.85.17,7.12-1.02.57-.2,1.18-.28,1.78-.23,3.49-.08,6.98-.11,10.47-.21,2-.06,2.51-.51,2.15-2.39-.28-2.15-.15-4.33.38-6.44.39-2.22-.14-4.58-.02-6.87.17-1.91.45-3.8.85-5.68.1-.59.65-1.24.5-1.7-.75-2.36.41-4.49.59-6.71.14-3.39.83-6.73,2.04-9.9.34-.91.42-1.9.23-2.86-.4-2.64-.22-5.33.54-7.89.89-3.54.26-4.75-2.9-6.49-.8-.54-1.81-.64-2.7-.29-2.73.99-5.35.5-8.13-.37-3.01-.94-6.06-1.69-8.67-3.5-1.5-1.02-2.86-2.21-4.07-3.57-1.65-1.93-3.18-3.96-4.57-6.08-.66-1.01-1.11-2.15-1.33-3.35-.36-1.99-.22-4.04-2.19-5.49-.57-.42-.54-1.79-.59-2.73-.39-6.28-1.14-12.58-.96-18.85.14-4.72.66-9.73,5.22-12.89.55-.45.99-1.02,1.29-1.66,2.57-4.71,6.23-7.84,11.77-8.37.48.03.96-.08,1.39-.3,3.65-3.12,8.35-2.95,12.63-4.08,1.31-.25,2.63-.37,3.96-.35.48-.07.97.02,1.4.26,2.44,2.03,5.54,3.1,8.71,3.01.12,0,.29,0,.35.08,2.03,2.5,5.38,1.68,7.84,3.09,1.04.6,2.19,1.04,3.17,1.73,3.14,2.21,6.24,4.47,9.32,6.78,2.86,2.14,5.98,4.03,7.32,7.69.54,1.08,1.27,2.06,2.15,2.89,2.12,2.43,2.93,5.45,4.01,8.38,1.12,3.02,3.13,5.74,3.05,9.15.05,1.74-.05,3.48-.29,5.21-1.12,5.71-2.68,11.01-7.43,15.23-2.94,2.68-6.71,4.26-10.68,4.47-2.15.18-4.25.89-6.39,1.26-2.69.47-5.51.46-7.78,2.39-.53.29-1.12.45-1.72.47-2.99.53-3.95,1.9-3.85,4.89.2,5.78.43,11.56.26,17.33-.07,2.61-1.08,5.18-1.66,7.76-.08.35-.25.69-.31,1.05-.89,4.98-1.79,9.97-2.64,14.96-.05.72-.06,1.44-.04,2.17-.13,2.27-.15,4.55-.47,6.79-.31,2.17-.25,2.36,1.88,3.07,2.58.96,5.3,1.48,8.05,1.52,5.05-.07,9.56,2.02,14.25,3.65,4.32,1.5,7.92,4.4,12.33,5.56.35.09.67.28.91.56,2.24,3.02,5.91,4.14,8.6,6.54.88.78,1.57,1.78,2.39,2.63.55.59,1.16,1.12,1.82,1.58,1.94,1.27,3.83,2.55,4.61,4.91.13.47.39.89.76,1.2,3.51,2.33,5.15,6.08,7,9.55,2.03,3.79,4.06,7.71,4.06,12.23-.06.48,0,.97.17,1.43,2.97,4.93,1.94,10.62,2.85,15.93.84,4.95.57,10.13.39,15.19-.27,2.98-.78,5.93-1.51,8.82-.5,2.13-1.49,4.11-2.9,5.77-3.24,4.21-6.01,8.79-9.49,12.79-5.47,6.3-11.25,12.36-17.13,18.28-2.36,2.37-5.33,4.16-8.12,6.08-1.03.61-2.15,1.03-3.32,1.27-3.3.86-4.5,2.4-3.96,5.77.85,4.88.67,9.88-.51,14.69-.08.84-.03,1.69.15,2.51.11,1.67.31,3.35.31,5.02-.04,8.92-2.52,17.41-4.74,25.94-.15.46-.24.94-.27,1.43-.02,4.73-.11,9.45.02,14.18.07,2.67-2.29,5.71-4.94,5.14-3.28-.71-5.97.55-8.76,1.56-2.62.97-5.48,1.12-8.19.42-.55-.24-1.14-.37-1.74-.38-2.72.56-4.9-.48-7.07-1.94-1.62-1.1-2.04-2-.65-3.29,1.44-1.28,3.02-2.4,4.71-3.35,4.07-2.39,8.23-4.63,12.89-5.75,2.33-.56,3.42-2.05,3.83-4.6,1.01-6.32,2.59-12.55,3.67-18.86.52-3.35.79-6.73.82-10.12.14-6.06.12-12.12.09-18.19-.01-2.42-.4-2.64-2.54-1.66-1.09.5-2.03,1.34-3.13,1.79-.96.39-2.42.99-3.01.57-1.47-1.04-2.31-.84-3.26.5-1.03,1.45-2.59,1.63-4.22,1.65-5.45.07-10.89.14-16.33.23-.84-.1-1.7-.06-2.53.13-2.76,1.28-5.95,1.3-8.73.05-2.45-1.07-3.63.46-3.3,3.36.46,4.08.87,8.18,1.15,12.28,0,1.57-.11,3.14-.31,4.7-.24,1.8-.33,3.62-.24,5.43.47,3.91-.09,7.74-.55,11.58.03.61-.08,1.21-.31,1.78-2.58,3.85-1.12,8.23-1.67,12.33-.13.95,0,1.94-.17,2.88-.1,1.39-1.16,2.53-2.54,2.71-1.89.29-3.8.47-5.72.54-1.57-.01-3.14-.19-4.68-.52-1.18-.16-2.31-.55-3.34-1.13-1.2-.85-2.74-1.06-4.12-.54-2.08.68-4.17,1.15-6.35.05-.59-.29-1.62.13-2.39.39-3.29,1.16-6.95.07-9.08-2.7-.31-.51-.48-1.1-.47-1.7.03-.73.14-1.45.32-2.15.29-1.37-.99-3.17.55-4.08,2.04-1.22,4.07-2.69,6.68-2.58,6.03.23,12.07.43,18.1.64.73.02,1.45.02,2.18,0,1.22.09,2.28-.82,2.38-2.03,0-.06,0-.12,0-.17.37-3.12.85-6.23,1.14-9.36.28-3.01.38-6.04.48-7.65m13.75-154.56c-2.55-.31-5.13.21-7.35,1.5-.51.32-1.1.51-1.71.54-4.74.01-8.58,2.5-12.31,4.87-4.76,3.03-9.25,6.5-13.76,9.9-1.41,1.14-2.69,2.43-3.82,3.85-2.53,2.77-4.66,5.88-6.35,9.23-.57,1.26-1.84,2.19-2.77,3.3-1.03,1.01-1.93,2.14-2.67,3.38-2.34,4.65-4.41,9.43-6.2,14.31-1.52,4.55-2.43,9.29-.78,14.24.6,1.79-.13,4.02-.27,6.05-.22,1.4-.31,2.82-.27,4.24.47,3.82,1.35,7.6,1.7,11.44.15,2.56,1.32,4.95,3.24,6.64,1.62,1.46,3.23,2.93,4.78,4.47,2.57,2.55,4.91,5.35,8.41,6.79,1.09.53,2.06,1.29,2.84,2.22,2.73,2.94,6.54,3.91,9.96,5.59,1.53.68,3.24.86,4.89.51,1.97-.3,4.06.18,6.1.33.7.13,1.41.2,2.13.2,4.83-.5,9.71-.01,14.35,1.44,5.21,1.53,10.59.27,15.89.36,2.3-1.45,4.88-1.16,7.41-1.22,1.09.04,2.18-.11,3.22-.44,1.29-.61,2.76-.73,4.14-.34.88.24,2.12-1.27,3.31-1.6,1.24-.35,2.68,1.38,3.95-.35.52-.68,1.22-1.19,2.02-1.49,4.05-1.4,6.62-5.31,10.87-6.34,3.63-3.68,9.52-4.13,12.53-8.77.46-.71,1.68-.91,2.48-1.44,1.25-.72,2.42-1.58,3.48-2.56,2.54-2.69,4.92-5.52,7.35-8.31.48-.54.89-1.12,1.25-1.74,2.25-4.07,4.18-8.28,7.17-11.99,3.74-4.44,5.22-10.35,4.01-16.03-.15-.96-.26-1.92-.31-2.89-.38-4.1-.04-8.43-1.31-12.23-1.79-5.37-1.47-11.67-6.2-15.92-.32-.37-.53-.82-.61-1.3-.9-3.81-3.46-6.26-6.59-8.32-6.16-4.07-12.27-8.18-18.81-11.67-2.45-1.31-4.61-3.07-7.48-3.41-1.31-.16-2.6-.5-3.91-.58-2.78-.18-5.82.44-8.28-.5-3.1-1.19-6.13-1.07-9.21-1.15-2.04.08-4.07.34-6.07.77-1.19.17-2.38.37-3.55.62-1.53.31-3.07.59-4.56,1.03-4.05,1.19-7.91,3.18-12.32,2.76m62.36-105.4c-.64-1.78-1.26-3.57-1.94-5.33-.26-.67-.77-1.25-.99-1.93-1.32-4.19-3.02-8.1-6.94-10.58-.5-.31-.78-.95-1.27-1.29-1.97-1.39-3.83-3.07-6-4.01-4.21-1.81-8.71-2.96-12.91-4.81-5.81-2.56-11.52-1.49-17.02.36-5.59,1.78-10.47,5.28-13.95,10.01-3.03,4.2-5,8.85-3.48,14.31.74,2.67.96,5.5,1.82,8.13.98,3.01,1.57,6.49,5.86,6.94,1.36.14,2.69,1.65,3.94,1.54,3.25-.3,5.98,1.42,9.03,1.87,2.46.52,5,.46,7.43-.17,1.36-.47,2.81-.64,4.24-.48,3.82.5,7.7.18,11.39-.93,2.77-.71,5.79-.46,8.32-2.11,2.18.62,3.77-.62,5.25-1.84,1.76-1.44,3.31-3.13,5.02-4.64,1.44-1.27,2.25-3.11,2.21-5.03"/><path id="Path_11" d="m1311.02,394.91c-.04.08-.06.21-.12.23s-.16-.06-.24-.1c.04-.08.06-.21.12-.23s.15.06.24.1"/><path id="Path_12" d="m1280.87,331.79q1.09-2.99,3.89-2.72c.35.04.8.2,1.05.05,2.33-1.42,4.97-.79,7.45-1.15,2.36-.35,4.77-1.1,7.07-.86,2.93.3,5.22-1.57,8.02-1.6.91-.01,1.87-1.34,2.68-2.19,2.13-2.22,4.65-2.03,6.19.7.67,1.27,1.17,2.62,1.46,4.03.25,1.05.12,2.17,1.4,2.69.65.2,1.02.88.82,1.53-.07.22-.19.41-.36.56-.94,1.08-1.93,2.46-3.18,2.85-2.96.92-6,1.56-9.08,1.92-1.96.24-3.74.44-5.38,1.72-2.77,2.17-6.15,2.69-9.53,2.96-.84.06-1.68-.14-2.41-.56-1.31-.8-2.21-.68-2.97.67-.16.29-.59.67-.82.63-3.12-.6-6.46.93-9.44-1.07-.91-.59-1.9-1.05-2.93-1.38-3.69-1.14-7.09-3.1-9.93-5.72-2.36-2.25-4.9-4.31-7.25-6.56-2.61-2.5-3.08-5.22-1.65-8.23.44-.93,1.2-1.44,1.96-.59,1.18,1.23,2.84,1.89,4.54,1.78,2.54.08,4.29,1.52,5.73,3.38,1.02,1.51,2.61,2.54,4.4,2.85,1.35.22,2.57,1.24,3.85,1.91,1.49.78,2.98,1.55,4.47,2.33.15.18.31.34.49.5.17.14.37.27.57.36.06.03.18-.08.26-.12-.21-.22-.45-.43-.7-.6-.22-.07-.46-.1-.69-.08m-12.02-3.26c-.21-.17-.37-.29-.53-.42-.2.25-.36.52-.49.82-.03.07.38.28.58.43.15-.28.29-.56.44-.83"/><path id="Path_13" d="m1274.52,295.08c.49,1.99-.58,3.98-3.43,5.04-.58.2-1.08.57-1.43,1.08-1.61,2.82-3.58,2.06-6.03,1.11-5.89-2.28-8.43-7.03-6.62-13.11.34-1.16.75-2.3,1.07-3.46.88-3.26.86-3.28,4.27-3.6,1.08-.1,2.19-.01,3.25-.19,1.53-.25,2.58.14,3.11,1.69.16.46.47.85.88,1.12,3.66,2.08,4.65,5.51,4.93,10.33"/><path id="Path_14" d="m1310.54,302.18c-3.06-.88-6.07-1.93-9.02-3.13-2.62-1.21-3.5-5.12-2.31-7.81.72-1.64,1.21-3.38,1.86-5.05,1.67-4.21,4.62-5.3,8.58-3.19,1.43.64,2.8,1.43,4.08,2.34,2.8,2.18,4.39,5.57,4.27,9.12-.08,2.67-1.05,5.21-3.73,6.52-1.21.49-2.45.89-3.72,1.21"/></g></g><g id="Group_22"><path id="Path_5" class="cls-8" d="m229.47,254.28s-13.62-63.49,31.94-67.22c45.56-3.73,48.33,39.06,48.33,39.06,0,0,31.81-28.42,56.78-10.26,24.97,18.16,17.31,37.2,17.31,37.2,0,0,26.65-3.08,34.06,25.45,11.21,43.15-54.17,41.11-63.3,44.77-9.13,3.66-37.9,34.14-65.16,35.6-27.26,1.47-55.14-29.49-55.14-29.49,0,0-55.88,51.69-92.46,17.66-36.58-34.03-4.53-70.52,16.25-74.2,0,0-14.08-20.44,14.76-44.58,28.84-24.14,60.2,8.78,60.2,8.78"/><g id="Group_14"><path id="Path_15" d="m417.89,278.51c.11,2.3.32,4.61-.99,6.72-.24.43-.32.92-.25,1.41.69,4.14-1,8.19-.61,12.24.36,3.69-1.49,6.49-3.45,8.82-2.2,2.63-4.77,5.72-9.09,5-4.98,1.8-10.28,2.38-15.26,4.42-5.87,2.4-11.79,4.93-18.2,5.71-.73-.04-1.46.08-2.13.35-3.15,2.16-6.76,1.62-10.2,1.75-2.05.03-4.01.87-5.45,2.34-2.43,2.31-5.01,4.47-7.49,6.73-2.48,2.26-5,4.51-7.36,6.91-.6.73-.91,1.66-.86,2.6.18,1.65.46,3.29.84,4.9.1.35.16.71.17,1.07-.35,4.3-.75,8.59-1.06,12.89-.12,1.68-.04,3.38-.07,5.07-.02,1.16.18,2.19-1.16,3.13-1.26.88-.63,2.57.36,3.46,1.12.99,1,1.96.94,3.23-.19,3.86-1,7.68-1.1,11.47s-.9,7.37-1.37,11.05c-.09,2-1.43,3.72-3.34,4.3-2.02.68-3.88,1.53-6.27,1.29-1.99-.2-4.16,1.01-6.18,1.78-3.45,1.47-7.12,2.34-10.86,2.57-1.56.05-2.64-.2-3.35-1.49-1.54-2.76-2.72-5.61-2.04-8.92.19-1.6,1.45-2.87,3.05-3.07,3.04-.67,6.02-1.63,9.03-2.46,2.08-.57,4.14-1.23,6.25-1.62,2.79-.51,3.83-2.5,4.08-4.88.3-2.91.56-5.76,2.11-8.34.69-1.13.17-2.09-.52-2.99-1.02-1.25-1.19-2.99-.44-4.42.75-1.91.89-4.01.41-6-.27-2.15-.27-4.32-.02-6.47.19-3.13.56-6.26.8-9.39.09-1.16-.43-1.39-1.55-.73-.2.12-.33.41-.54.48-4.88,1.45-8.68,4.99-13.25,6.94-3.48,1.49-7.03,3.2-11.14,2.77-1.58-.16-3.25.7-4.89,1.03-.93.21-1.88.31-2.83.3-2.76-.11-5.52-.44-8.28-.46-2.06.1-4.11-.31-5.98-1.18-2.06-1-4.22-1.74-6.46-2.22-2.12-.52-3.94-2.24-5.92-3.4-2.71-1.57-5.38-3.22-8.18-4.61-1.71-.85-2.81-.12-2.91,1.89-.11,2.04.25,4.1.28,6.16.02,1.66-.13,3.33-.22,5-.13.59-.17,1.19-.15,1.79.97,4.37-.39,8.67-.25,12.99-.02,3.35.15,6.7.51,10.03.7,5.64,1.1,11.32,1.2,17,.08,2.17-2.59,4.47-5.11,4.2-2.72-.28-5.52.83-8.21-.65-.73-.4-2.09.12-3.09.45-3.21,1.07-6.37,2.26-9.56,3.38-1.94.68-3.84,1.39-6.01,1.02-.97-.14-1.95.06-2.79.57-2.45,1.68-4.64.34-6.88-.37-.69-.25-1.25-.76-1.55-1.43-.93-2.61-2.09-5.19-1.89-8.07.13-1.96.65-2.34,2.63-2.75,6.36-1.32,12.94-1.58,19.12-3.83,1.54-.56,3.22-1.33,4.65.47.21.26,1.15.11,1.65-.09.89-.39,1.75-.84,2.58-1.33,2.96-1.54,2.87-1.52,2.46-4.72-.19-1.46.2-3.01.04-4.48-.15-1.41-.9-2.76-1-4.16-.53-7.72-.66-15.46-.38-23.19-.02-3.87-.26-7.74-.71-11.58-.09-.72-.29-1.43-.58-2.1-1.1-2.84-1.96-3.2-4.64-1.85-1.59.8-2.76,1.53-2.96,3.93-.19,2.35-2.73,3.82-5.22,4.34-1.08.19-2.18.2-3.25.03-1.56-.3-3.17-.02-4.54.79-.54.28-1.12.46-1.72.52-6.84,1.24-13.12,4.13-19.41,6.87-5.2,2.39-11.11,2.78-16.58,1.1-7.52-2.24-15.05-4.47-22.59-6.66-1.04-.3-2.17-.26-3.22-.53-1.65-.32-3.27-.82-4.82-1.49-3.99-2.03-7.97-4.11-11.77-6.46-2.03-1.31-3.86-2.91-5.42-4.74-3.19-3.63-6.27-7.37-9.18-11.24-1.41-2.11-2.68-4.31-3.78-6.59-.29-.39-.46-.87-.46-1.35.71-3.11-.92-5.58-2.04-8.24-.42-1.39-.67-2.83-.75-4.28-.66-5.03.04-10.15,2.03-14.82.46-1.39,1.34-2.61,2.53-3.48,3.69-2.12,5.16-5.68,6.51-9.29.72-2.06,2.2-3.76,4.15-4.76,3.35-1.86,6.49-4.12,9.85-5.97,3.3-1.81,6.63-3.63,10.46-4.22,1.44-.24,2.83-.7,4.13-1.35,1.95-.95,3.79-1.58,5.85-.31.29.18.87-.1,1.31-.16-.03-.35-.09-.69-.2-1.02-1.12-2.41-2.33-4.78-3.38-7.22-.43-1-.67-2.06-.7-3.15-.16-5.93,1.58-11.16,5.9-15.42,2.68-2.64,5.22-5.37,5.89-9.36.29-1.04,1-1.93,1.95-2.45,5.73-3.03,10.94-7.07,17.3-8.89.89-.33,1.64-.94,2.14-1.74,1.58-2.47,3.72-2.7,6.34-2.17,6.5,1.33,12.29,4.38,18.13,7.3.9.61,1.71,1.34,2.4,2.17.7.67,1.37,1.37,2.08,2.02.99.92,2,1.9,3.5.98,1.27-.78,1.16-1.96.91-3.22-.72-3.1-.29-6.36,1.2-9.17.55-1.19.77-2.51.62-3.82-.3-3.6.05-7,1.99-10.15.41-.87.77-1.77,1.08-2.68.25-.52.61-1.28,1.04-1.37,2.27-.5,3.15-2.54,4.67-3.86,1.33-1.23,2.85-2.24,4.49-3.02,2.34-1,4.68-1.85,6.68-3.54.67-.56,1.8-.55,2.7-.86,2.04-.72,4.32-1.1,6.01-2.31,1.44-1.1,3.26-1.58,5.06-1.34,2.04.22,4.05.7,6.09.94.73.09,1.81.07,2.19-.36,1-1.07,2.39-1.7,3.85-1.72,1.2-.12,2.37-.51,3.57-.69.83-.12,2.14-.47,2.44-.09,1.84,2.34,4.96,1.23,7,2.79,2.01,1.54,4.05,3.04,5.94,4.72,2.89,2.57,5.57,5.38,8.52,7.86,1.77,1.48,3.05,3.47,3.65,5.7.51,2.16,2.01,3.96,4.05,4.85.95.4,1.76.62,2.63-.29.5-.4,1.16-.57,1.79-.46.63.27,1.36-.03,1.63-.67.02-.05.04-.11.06-.16,1.08-2.57,3.71-2.76,5.51-2.2,2.07.72,4.35.4,6.14-.85,1.05-.9,2.63-.78,3.53.27,0,0,0,0,0,0,.72.63,1.63,1.02,2.59,1.11,1.83.05,3.58.76,4.94,1.98.42.39.99.56,1.55.46,2.31-1.18,4.01.27,5.66,1.35.99.65,1.58,1.88,3.03.96.23-.07.49-.05.7.08,5.44,2.92,11.75,4.49,15.57,9.96.64.88,1.4,1.67,2.24,2.36,1.7,1.24,2.67,3.24,2.58,5.34-.05,1.22.49,2.4,1.45,3.16,2.16,1.99,3.47,4.74,3.64,7.68.15,1.81.33,3.62.64,5.41.16.91.39,2.2,1.03,2.57,2.55,1.48,5.13,3.04,8.24,3.13.56-.05,1.12.06,1.62.32,3.28,2.54,4.67,3.16,8.55,3.62.35.04.86.04,1.02.26,1.07,1.63,3.02,2.45,4.93,2.07.47.06.88.36,1.08.8.33,1.86,2.07,2.23,3.18,3.26,1.67,1.55,3.35,3.11,4.88,4.79.94,1.1,1.77,2.3,2.46,3.58.57,1.04,1.05,2.12,1.42,3.25.21,1.06.49,2.11.86,3.13,1.11,2.01,1.77,3.89.41,6.1-.58.94.4,1.49,1.19,1.88l-.07-.06Zm-179.13-42.3c0,.98-.03,1.35,0,1.71.29,2.71-1.26,4.41-3.38,5.52-1.85,1.09-4.21.8-5.73-.72-1.07-.98-2.35-1.73-3.36-2.76-2.29-2.33-4.51-4.71-6.68-7.17-3.56-4.03-7.64-6.96-13.26-7.32-1.85-.12-3.58-.28-5.31.55-3.6,1.72-7.22,3.39-10.87,5.04-3.98,1.85-7.37,4.76-9.8,8.41-2.34,3.36-4.73,6.69-7.07,10.05-.28.39-.48.83-.59,1.3-.53,2.48-1.03,4.97-1.51,7.46-.48,2.45.35,4.13,2.65,5.34,2.32,1.35,4.05,3.52,4.85,6.08.72,1.92-.01,3.02-1.95,3.54-4.78,1.31-9.65,2.34-14.31,3.98-4.32,1.51-8.78,3.12-12.51,5.66-7.51,5.11-13.54,11.74-16.76,20.48-.96,2.59-2.16,5.25-1.59,8.06.72,3.53,1.76,7,2.81,10.45,1,3.27,3.8,5.27,5.86,7.77,3.73,4.51,7.9,8.56,13.24,11.11,2.32,1,4.73,1.79,7.19,2.37,2.2.61,4.45,1.04,6.68,1.52,5.64,1.24,11.25,2.71,16.95,3.6,3.29.51,6.73.18,10.09.01,1.77-.08,3.51-.68,5.28-.89,1.14-.21,2.31-.2,3.45.02,1.16.31,1.76.58,1.93-1,.22-.75.79-1.35,1.54-1.59,2.48-.55,4.82-1.61,6.88-3.1,2.15-1.36,4.42-2.52,6.78-3.47,1.1-.41,2.06-1.11,2.79-2.03,1.26-1.46,2.72-2.72,4.33-3.76.72-.49,1.86-.35,2.81-.53,1.69-.32-.3-1.77.69-2.32.22-.1.43-.22.61-.38,1.23-1.13,2.39-2.32,3.48-3.57,1.75-2.19,2.32-2.35,4.94-1.39,5,1.85,8.28,5.76,11.47,9.68,1.09,1.58,2.67,2.76,4.49,3.38,1.88.48,3.66,1.3,5.25,2.42,5.06,4.03,11.41,5.22,16.99,8.06.8.27,1.64.37,2.48.31,1.33.1,2.67.12,4,.05,4.09-.38,8.22-.6,12.24-1.39,3.11-.61,5.96-2.44,9.33-2.01.41.05.88-.36,1.33-.52,3.52-1.24,6.99-2.63,10.57-3.63,1.75-.35,3.34-1.24,4.55-2.55,1.78-2.12,3.91-3.91,6.3-5.3,1.58-.82,3.05-1.82,4.38-3,2.57-2.3,5.28-4.44,7.98-6.58.43-.34,1.13-.31,1.66-.54.35-.15.93-.5.9-.67-.57-2.94,1.55-4.74,2.92-6.8,1.7-2.56,3.46-3,6.52-2.27,1.17.25,2.38.3,3.57.12,2.86-.38,5.66-1.16,8.61-.65.85.02,1.68-.23,2.38-.71,2.6-1.6,5.66-2.26,8.69-1.89.75.1,1.98-.05,2.29-.53,1.06-1.64,2.76-1.86,4.33-2.42,2.08-.61,4.04-1.6,5.76-2.92,1.93-1.63,4.16-2.96,7-1.71.54.23,1.51-.27,2.17-.64.94-.53,1.74-1.28,2.63-1.9.96-.68,1.94-1.21,2.55.42.23-.17.44-.37.61-.6.23-.42.27-1,.58-1.31,1.97-1.98,2.32-4.7,3.47-7.05,1.29-2.63,1.25-5.22,1.2-7.99-.08-3.57.58-7.13-.96-10.63-.53-1.2.25-2.98-.28-4.18-.5-1.13-1.95-1.83-2.98-2.72-.09-.07-.09-.24-.17-.32-1.33-1.36-2.44-3.13-4.03-4.01-4.94-2.75-10.06-5.18-15.12-7.7-.55-.26-1.14-.41-1.75-.46-3-.31-6-.65-9-.84-2.62.02-4.98-1.6-5.9-4.05-1.01-2.48-1.33-5.19-.93-7.83.36-2.85.95-5.84-1.99-7.93-.35-.25-.48-.83-.69-1.26-2.77-5.74-5.87-11.17-12.23-13.72-.64-.34-1.24-.77-1.76-1.28-4.94-4.04-10.87-5.69-16.97-6.66-3.34-.53-6.61-.52-9.86,1.75-4.01,2.79-8.9,4.15-12.16,8.28-1.76,2.23-4.04,1.76-5.85-.53-1.1-1.29-2.01-2.74-2.69-4.29-1.5-3.81-4.23-7.07-4.83-11.29-.14-1.01-1-1.91-1.5-2.87-1.63-3.1-4.61-4.9-7.05-7.22-3.27-3.36-7.99-4.87-12.61-4.05-4.17.68-8.19,2.18-12.52,1.93-1.33.01-2.63.35-3.79.99-3.69,1.81-7.33,3.73-10.95,5.69-3.94,2.22-6.96,5.79-8.49,10.05-1.78,4.68-2.29,9.85-3.23,14.84-.92,4.44-.94,9.01-.08,13.46m133.06,76.5c-.12-.26-.26-.52-.43-.75-.42.16-.82.34-1.22.54.15.25.35.75.44.73.42-.13.82-.3,1.21-.51m-45.27,80.74c-.2-.34-.3-.51-.4-.69-.32.29-.63.59-.93.91-.03.05.23.34.35.51.33-.25.66-.5.97-.73m-1.06,5.87c-.1.18-.19.37-.29.55.09.05.19.1.29.14.11-.18.2-.36.29-.54-.1-.05-.2-.09-.29-.14m4.08-47.5c-.07.18-.14.37-.2.55.17.02.35.02.52.01.05,0,.13-.24.1-.26-.13-.12-.27-.22-.42-.3m28.21-140.72l-.46-.36c-.06.17-.11.35-.14.53,0,.06.2.19.23.17.14-.1.26-.22.38-.34m-34.95-7.65c-.04-.09-.05-.23-.12-.26s-.18.05-.27.08c.04.09.06.22.12.26s.18-.05.26-.08"/><path id="Path_16" d="m284.79,306.92c-1.53.23-3.07.49-4.6.7-.71.16-1.44.21-2.16.14-6.66-1.26-12.97-3.19-16.54-9.68-1.15-2.08-3.05-3.78-3.22-6.4-.09-1.38-.29-2.57,1.22-3.43,1.37-.78,2.47-1.14,3.98-.15,2.3,1.52,4.83,2.6,6.88,4.61,2.7,2.57,6.76,3.07,10,1.23,1.37-.79,2.49-.34,3.8-.12,1.56.25,3.44,1.87,4.67-.7.12-.26.9-.35,1.34-.29,2.17.21,4.34-.41,6.06-1.75,1.26-.69,2.7-.97,4.12-.81,4.38.33,7.53-1.69,10.3-4.76,1.04-1.15,2.28-2.13,3.38-3.23.42-.58,1.23-.71,1.82-.29.14.1.25.22.34.37,1.94,2.16,4.33,3.88,7,5.02,1.99.83,2.09,3.29.37,5.21-2.8,3.19-6.25,5.74-10.11,7.51-3.72,1.72-7.6,3.09-11.57,4.08-5.6,1.36-11.32,2.17-16.99,3.22l-.09-.48m-.78-9.73c-.04-.19-.01-.47-.14-.57s-.4-.07-.61-.1c.04.19.01.47.13.57.14.11.4.07.61.1"/><path id="Path_17" d="m261,269.71c-2.99-.14-5.35-.58-6.58-3.73-.8-2.06-2.6-3.72-3.89-5.6-1.64-2.39.24-4.93-.2-7.4-.04-.24.63-.64,1.01-.9.59-.42,1.4-.65,1.8-1.19,2.7-3.56,6.4-2.85,9.91-2.2,2.41.45,4.55,1.61,4.92,4.6.21,1.06.67,2.05,1.34,2.9.87,1.05,1.04,2.51.42,3.73-.79,2.14-1.72,4.23-2.76,6.26-1.35,2.2-3.18,4.06-5.99,3.54"/><path id="Path_18" d="m323.38,254.17c-.38,3.25-2.16,5.32-4.43,7.03-.95.72-2.28,1-3.12,1.81-2.86,2.76-5.9,2-8.85.49-1.1-.56-1.82-1.85-2.72-2.81-1.04-1.09-.9-2.25-.65-3.67.15-1.54.03-3.1-.35-4.61-.56-3.21.22-5.36,2.96-7.1,1.24-.74,2.54-1.39,3.88-1.95.43-.21.92-.24,1.38-.09,4.19,2.29,8.84,4.02,11.1,8.74.31.7.58,1.42.81,2.14"/></g></g><path id="Path_19" d="m277.31,222.39c.04-.09.07-.23.14-.26s.17.07.26.11c-.04.09-.07.24-.13.26s-.17-.07-.27-.11"/><g id="Group_25"><path id="Path_1" class="cls-7" d="m676.19,769.22l-10.77,103.1-218.26-13.83,5.58-89.09,223.45-.18Z"/><g id="Group_13"><path id="Path_24" d="m620.92,759.99c.25-.54.45-1.1.61-1.68.06-.34-.05-.69-.28-.94-.31-.16-.67-.17-.99-.04-.34.14-.62.38-.82.68-1.25,2.01-3.2,1.72-4.86,1.14-1.57-.58-3.23-.85-4.9-.81-1.09.02-2.17-.26-3.11-.82-2.42-1.54-4.88-1.23-7.29-.3-1.29.68-2.84.66-4.11-.06-1.96-1.36-4.58-1.29-6.46.18-.93.55-1.99.83-3.07.8-3.14.09-6.28-.03-9.42,0-2.03.02-4.09-.24-5.88,1.28-.53.45-1.62.35-2.45.32-4.13-.18-8.19-.09-11.93,2.05-.4.23-1.06.51-1.35.35-3.43-1.95-6.13.45-9.09,1.38-.81.19-1.63.27-2.46.26-.7.04-1.71-.31-2.05.04-1.51,1.55-2.34.4-3.22-.62-.83-1.09-2.27-1.52-3.57-1.06-.93.24-1.91.29-2.86.16-3.44-.5-6.87-1.12-10.31-1.66-.83-.12-1.68-.16-2.52-.13-3.74.12-7.48.26-11.21.42-2.41.1-4.83.35-7.24.35-2.04,0-4.08-.23-6.12-.42-1.06-.1-1.94-.27-1.86,1.32.06,1.29-.76,1.58-1.55.64-2.5-2.96-5.62-3.46-9.15-2.59-2.23.59-4.58.61-6.83.07-1.9-.55-3.95-.17-5.52,1.02-1.25,1-2.89,1.39-4.46,1.07-3.32-.67-6.48.34-9.65.99-1.11.39-2.13,1.03-2.96,1.86-1.11.89-2.02,2.08-3.2,2.86-.94.58-1.45,1.65-1.33,2.74.01.94.23,2.29-.28,2.76-2.7,2.45-2.3,5.73-2.67,8.79-.3,2.52-.41,5.06-.58,7.59-.07.36-.03.72.1,1.06,1.86,3.01.71,6.43,1.29,9.61.22,1.2-.38,2.61-.8,3.85-.77,2.41-.97,4.97-.61,7.48.35,3.2-.08,6.48-.26,9.73-.19,3.48-.55,6.96-.69,10.45-.23,3.26-.24,6.54-.02,9.8.72,7.3-.81,14.44-1.13,21.66-.14,3.22.54,4,3.74,4.34,3.34.36,6.75.43,9.89,1.93.81.23,1.65.35,2.5.36,1.53.26,3.05.55,4.57.83,3.9.72,7.81,1.43,11.71,2.18,2.46.47,5.1.58,7.32,1.6,4.67,2.14,9.64,1.73,14.47,2.34,5.49.69,11.02,1.04,16.54,1.48,1.44.1,2.89.08,4.33-.04,1.42-.1,1.95.69,1.41,1.74-1.67,3.23-1.03,6.64-1.07,10-.01,1.58.2,3.1-1.13,4.36-.86.82-.46,1.81.13,2.64.95,1.35.59,2.73.32,4.19-.44,2.24-.75,4.5-.94,6.77-.31,4.7-.47,9.4-.66,14.11-.05,1.33,0,2.67.07,3.99.18,3.62.46,7.24.57,10.86.09,2.83.39,3.25,2.97,4.24,3.29,1.22,6.8,1.77,10.31,1.61,1.07.06,2.14.24,3.17.53.82.15,1.63.39,2.46.5,1.53.21,3.06.45,4.6.53,2.99.31,6,.4,9,.27,2.54-.24,3.14-2.83,3.83-4.82.31-1.3.29-2.66-.06-3.95-.18-.81-.7-1.5-1.44-1.88-1.91-.69-3.9-1.17-5.92-1.43-2.5-.27-5.03.01-7.23-1.76-1.05-.61-2.22-1-3.42-1.13-2.56-.61-5.13-1.18-7.7-1.72-1.04-.22-1.24-.89-1.33-1.84-.54-7.1-.27-14.25.81-21.29.81-6.23,1.23-12.53,1.42-18.81.13-2.29,1.02-4.47,2.53-6.19.66-.65,1.56-1.01,2.48-1,7.01.05,14.03.22,21.05.36,1.58.03,3.4-.44,4.68.19,4.57,2.27,9.21.74,13.82.75,7.14.01,14.29.04,21.43.11,2.65.03,3.12.71,1.86,3.06-.78,1.5-1.12,3.19-.97,4.87.11,2.52.33,5.09-1.11,7.42-.24.56-.35,1.17-.3,1.78-.18,5.2-.26,10.41-.54,15.6-.19,3.5-.69,6.98-.96,10.47-.21,2.66-.38,5.32-.37,7.99,0,2.64,1.11,3.72,3.71,3.96.72.07,1.45.01,2.18.02,3.14,0,6.28.34,9.34,1.03,3.98.94,8.12,1.2,12.18,1.79,3.83.46,7.6,1.29,11.26,2.49,3.51,1.24,7.31.19,9.18-2.21,1.82-2.33,1.77-7.27-.12-9.53-.3-.36-.77-.92-1.09-.87-3.21.48-5.55-2.43-8.93-1.95-2.76.39-5.6-1.3-8.6-.52-.68.17-1.61-1.05-2.49-1.2-3.77-.64-7.4-2.26-11.37-1.66-.96.11-1.93.01-2.84-.3-2.62-.86-3.05-1.57-2.46-4.31.71-2.83.78-5.78.21-8.64-.16-.83-.16-1.69,0-2.52.52-3.22.78-6.55,1.8-9.62,1.26-4.16,1.8-8.51,1.59-12.85-.05-3.82,1.29-5.07,5.17-5.59,2.98-.4,6.17-1.57,8.91-.91,4.2,1.02,8.28-.11,12.45.44,4.13.54,8.63.77,12.92-.74,1.86-.59,3.85-.59,5.71,0,5.74,1.89,11.51.83,17.26.66,2.47-.08,5.27-3.98,5.3-6.51.05-4.68.19-9.36.38-14.04.05-.85.3-1.67.73-2.41.88-1.6,1.29-3.41,1.18-5.24-.07-2.64-.32-5.31,1.16-7.74.31-.53.39-1.17.23-1.76-.87-2.21.21-3.91,1.1-5.8.49-1.33.77-2.74.82-4.16.16-1.43-.1-2.95.26-4.32,1.8-6.84,2.12-13.8,2.14-20.81.07-2.76.39-5.5.98-8.2.57-2.92,1.42-6.15.15-9.27-.12-.79-.05-1.59.2-2.34.36-2.14.85-4.26,1.12-6.41.35-2.76.59-5.53.76-8.31.11-1.87,1.36-2.65,2.71-3.55.93-.62,2.31-1.49.35-2.67-.21-.23-.32-.54-.29-.85,2.36-1.66-.5-2.58-.51-3.86-.04-2.33-1.84-2.15-3.29-2.54-2.89-.77-5.76-1.64-8.66-2.32-.81-.1-1.64.06-2.36.45-.82.52-1.59,1.09-2.33,1.71-.38.27-1.16.66-1.23.57-1.09-1.32-2.01-1.73-3.8-.76-1.44.52-3.02.47-4.42-.14-3.23-1.26-6.35.37-9.55,0-1.93-.03-3.84.41-5.55,1.29-1.21.53-2.59.56-3.82.06-1.27-.42-2.56-.74-3.88-.98-2.42-.44-4.78-.59-6.95,1.03-.58.44-1.82.79-2.28.47-2.41-1.66-4.31-1.18-5.93,1.54-.14-.28-.27-.56-.4-.84m-168.22,25.25l-.51-.07c.14-1.31.2-2.64.43-3.94.65-3.67,2.03-6.09,6.55-6.41,4.24-.21,8.4-1.3,12.2-3.2.81-.28,1.66-.37,2.51-.27,5.45,0,10.91-.04,16.35.06,2.78.05,5.55.46,8.33.52,7.25.13,14.49-1.05,21.76.09,5.84.92,11.89-.09,17.67,1.7.95.19,1.94.18,2.89-.04,5.95-.88,11.89-1.81,17.83-2.72,1.3-.26,2.62-.45,3.94-.56,2.89-.09,5.79,0,8.68-.06,2.05-.05,4.11-.23,6.16-.34,3.83-.21,7.79.11,11.47-.76,3.91-.82,7.91-1.1,11.89-.82,7.85.3,15.69.81,23.52,1.36,3.56.25,7.24-.48,10.65,1.21.35.09.72.06,1.05-.09,1.7-.57,3.4-1.12,5.07-1.77,2.35-.92,4.62-1.25,6.9.25.41.27,1.34.39,1.59.14,1.95-1.93,4.29-1.33,6.53-1.1,2.84.29,5.79.39,8.45,1.28,1.82.6,3.23,1.39,4.94.04.35-.27.95-.2,1.39-.38,1.21-.5,1.84-.15,1.93,1.18.11.59.17,1.2.18,1.8-.93,7.57.75,15.22-.99,22.79-1.24,5.42-.15,11.12-1.49,16.58-.16.64.32,1.41.3,2.12-.14,4.68-.3,9.37-.56,14.05-.04.66-.7,1.26-.94,1.93-.32.62-.45,1.32-.35,2.01,1.3,2.67.86,5.86-1.1,8.08-.37.47-.59,1.04-.61,1.64-.08,3.67-.87,7.29-.48,11,0,1.33-.24,2.64-.69,3.89-.63,2.45-1.55,4.78-1.06,7.46.36,1.93-2.32,3.91-4.19,3.1-4.34-1.88-8.65-1.5-13.11-.6-2.27.29-4.56.39-6.85.31-2.89.08-5.78.15-8.68.21-.95.02-2.1.34-2.8-.08-1.22-.82-2.81-.88-4.09-.15-.68.24-1.43.2-2.08-.12-1.19-.64-2.62-.62-3.8.03-.9.29-1.85.4-2.79.33-2.17.07-4.34.05-6.51.11-1.67.05-3.31.44-4.88-.76-.83-.44-1.83-.48-2.69-.1-1.5.78-3.24.99-4.88.6-.97-.11-1.94.13-2.75.68-2.46,1.59-5.1,1.12-7.75,1-2.27-.14-4.55-.13-6.82.04-1.67.33-3.39.06-4.88-.74-.88-.54-2.24-1.17-3.02-.84-2.22.92-4.24,1.64-6.71.83-.84-.27-2.04.8-3.06.77-4.22-.11-8.44-.41-12.66-.64-.82-.16-1.66-.19-2.49-.09-4.75,1.35-9.53.84-14.3.33-5.37-.58-10.74-1.25-16.11-1.86-.47-.12-.96-.11-1.42.03-2.14,1.19-4.02.25-6.17-.13-3.76-.67-7.59-.99-11.37-1.79-4.12-.87-8.42-.89-12.53-1.77-4.01-.86-7.94-1.65-12.07-1.35-1.2-.02-2.39-.24-3.52-.68-3-.9-5.86-2.14-9.09-2.25-1.83-.06-3.87.28-5.46-1.32-.38-.38-1.38-.18-2.1-.19-2.67,0-3.57-.56-3.77-3.22-.29-3.38-.32-6.78-.09-10.16.48-5.78,1.31-11.53,1.99-17.29.03-.36.04-.73.02-1.09,0-10.66,0-21.31,0-31.97.04-1.09.15-2.17.34-3.24.23-1.52.5-3.03.76-4.54m153.23,145.74c-.51-.32-1.1-.48-1.26-.83-.3-.75-.5-1.53-.61-2.32-.02-.12.31-.31.49-.46.5.57,1.01,1.11,1.48,1.71.24.27.39.61.45.97,0,.26-.3.54-.54.93m69.7-162.42c.18.2.38.43.57.65-.19.1-.44.32-.57.26-.26-.14-.49-.33-.68-.54.19-.1.38-.2.68-.37m-30.27-8.26c-.1.05-.22.15-.3.12s-.1-.18-.14-.28c.1-.05.22-.15.29-.12s.1.18.15.28"/><path id="Path_25" d="m566.39,843.24q2.18-3.62-2-3.98c-.24.02-.48.02-.72-.02-3.24-1.19-6.53-2.29-9.7-3.65-4.02-1.76-7.91-3.82-11.62-6.17-1.12-.7-2.49-.88-3.26.33-1.88,2.94-3.94,5.83-3.91,9.59-.07,1.1.54,2.13,1.53,2.6,3.24,1.84,6.45,3.75,9.65,5.68,1.05.59,2.04,1.28,2.96,2.07,3.4,3.11,7.44,4.29,11.94,4.42,3.37.09,6.7.45,10.11.02,2.27-.21,4.51-.72,6.64-1.53,3.12-1.29,6.35-2.32,9.37-3.81,1.88-1.06,3.62-2.33,5.21-3.78,1.43-1.09,2.73-2.33,3.88-3.71,2.83-3.66,5.22-7.57,4.7-12.49-.07-.73-.59-1.91-1.04-1.98-.92-.12-1.85.14-2.57.73-1.56,1.51-2.98,3.16-4.25,4.92-3.14,4.41-7.93,5.64-12.75,6.82-1.51.4-3.03.73-4.57.97-1.02.14-2.31.35-3.08-.12-1.61-.97-2.43-.12-3.44.82-.9.82-1.34,2.32-3.07,2.27m-18.34-6.09c.12-.14.23-.29.36-.42.07.05.14.1.21.15-.12.14-.23.29-.36.42l-.21-.15"/><path id="Path_26" d="m534.58,809.83c2.04-.35,4.43-.68,6.79-1.16,5.11-1.04,6.73-4.92,7.46-9.43.32-1.97-1.47-4.9-3.43-5.73-2.09-.89-3.95,1.2-6.09.46-.69-.24-.22-.5-.83-.16-.89.49.83.16-.89.49.87.96-.85.57-1.5,1-3.89,2.56-4.57,6.59-4.99,10.72-.26,2.62.79,3.78,3.48,3.82"/><path id="Path_27" d="m600.23,807.6c4.61.02,8.35-3.7,8.37-8.31,0-.49-.04-.98-.12-1.46-.24-1.43-.41-2.86-.67-4.28-.08-.72-.29-1.41-.62-2.05-1.59-2.6-8.97-2.9-10.7-.38-1.23,1.78-2.22,3.72-3.27,5.61-.28.39-.41.88-.36,1.36.68,1.77.3,3.47.04,5.25.09.94.55,1.8,1.27,2.4,1.66,1.6,3.86,1.84,6.06,1.86"/></g></g><g id="Group_26"><path id="Path_4" class="cls-6" d="m1611.26,776.76s25.98-38.41,58.72-30.18c32.75,8.23,39.16,21.28,38.46,45.49-.69,24.21-106.79,109.03-106.79,109.03,0,0-112.68-134.1-58.2-164.4,54.48-30.3,67.81,40.06,67.81,40.06"/><g id="Group_11"><path id="Path_28" d="m1681.58,740.61c.96.37,2.35.46,2.8,1.16,2.01,3.11,5.39,3.45,8.39,4.56.47.1.95.16,1.44.19,4.39.93,5.8,3.33,4.41,7.46,3.22-.53,3.85-.31,5.18,2.72,2.64,5.97,5.16,11.99,7.69,18,.28.65.28,1.42.5,2.1.73,2.28-1.19,4.47.2,7,1.03,1.87.98,4.45,1.03,6.73-.04,1.91-.29,3.8-.74,5.65-.55,2.7-.81,5.59-1.99,8.01-1.91,3.99-4.24,7.77-6.95,11.27-1.39,1.74-2.52,3.67-3.36,5.73-.83,1.98-2.85,3.52-4.5,5.09-3.85,3.65-8.2,6.81-10.74,11.67-.28.54-.72.98-1.26,1.25-5.04,2.18-8.75,6.24-13.08,9.39-3.14,2.29-6.7,4.37-8.82,7.94-.85,1.43-2.63,1.61-3.86,2.46-1.07.74-.7,2.94-2.28,3.77-.75.39-1.44.89-2.15,1.35-.61.39-1.45.64-1.79,1.19-2.11,3.48-4.65,6.76-5.02,11.08-.18,2.13-.83,4.22-1.22,6.34-.38,2.02-1.08,4.07-.96,6.07.42,7.11-1.32,13.98-2.58,20.83-.99,5.39-.91,10.81-1.8,16.15-.64,3.81-1.44,7.61-2.38,11.36-.45,1.77-4.91,4.35-6.62,3.67-4.13-1.65-7.86.14-11.71.9-.71.14-1.37.51-2.07.69-2.78.73-5.05.09-6.2-1.7-1.59-2.24-1.47-5.27.3-7.38,1.85-2.09,3.86-4.02,7.12-3.48,1.09.11,2.19.04,3.25-.21,1.84-.32,3.55-.39,5.2.79,1.55,1.1,2.93.37,4.29-.67,1.36-1.05,2.3-2.14,1.64-3.97-.91-2.51-.33-5.02,0-7.54.57-4.52,1-9.06,1.67-13.57.39-1.87.9-3.71,1.52-5.52.28-.65.46-1.34.54-2.05-.07-3.51,1.42-6.9.65-10.47-.06-.84.16-1.68.62-2.38.77-1.4.1-2.32-.85-3.17-.72-.7-1.87-.69-2.57.03-.11.11-.2.24-.28.37-1.61,2.01-3.81,2.83-6.15,3.62-1.6.54-3.66,1.06-3.04,3.69.09.38-.5,1.05-.92,1.4-1.01.84-2.1,1.6-3.19,2.35-2.67,1.86-5.34,3.72-8.05,5.5-.78.58-1.69.96-2.65,1.09-2.14.1-3.2,1.43-4.2,3.02-2.63,4.44-8.3,6.01-12.85,3.56-1.89-.97-4.21-1.46-4.59-4.16-.04-.31-.7-.73-1.1-.77-2.28-.21-3.34-1.59-3.98-3.64-.26-.82-.84-1.49-1.61-1.86-2.04-.81-3.75-2.28-4.84-4.18-.4-.43-.86-.81-1.36-1.11-.39.57-1,1.09-1.14,1.71-.27,1.3-.41,2.62-.43,3.94-.06,3.15.06,6.29-1.18,9.31-.26,1.06-.38,2.14-.38,3.22-.33,2.39-.71,4.77-1.04,7.15-.2,1.44-.35,2.88-.49,4.32-.46,4.94-.97,9.88-1.34,14.82-.11,1.93-.07,3.86.12,5.78.23,2.78-.07,3.27-2.72,4.22-1.7.59-3.5.82-5.29.67-3.25-.18-6.52.29-9.78.19-5.32-.15-10.63-.55-15.95-.79-1.2-.11-2.41-.02-3.59.27-2.28.68-2.87.63-3.48-1.39-.33-1.28-.47-2.6-.42-3.92.03-1.57.14-3.15.34-4.71.27-2.58.95-3.16,3.48-2.95,2.42.2,4.82.6,7.24.68s4.84-.18,7.26-.17c2.52.01,5.04.15,7.57.26.96.04,1.93.21,2.89.21,5.14-.03,5.73-.59,6.35-5.65.8-6.56.93-13.19,1.73-19.75.28-2.27.7-4.53,1.01-6.8,1.13-7.13,1.71-14.33,1.73-21.54,0-.6-.1-1.21-.31-1.77-1.33-3.08-2.72-6.14-4.08-9.22-.39-.75-.72-1.54-.97-2.35-.55-2.27-1.07-4.47-3.79-5.17-.39-.1-.76-.62-.97-1.04-2.05-3.97-4.08-7.94-6.09-11.93-.49-.97-.89-1.99-1.39-2.96-.87-1.58-1.38-3.33-1.51-5.13-.31-2.62-.83-5.22-1.55-7.76-.12-.6-.43-1.14-.88-1.55-2.21-1.74-2.73-4.11-3-6.73-.31-1.4-.76-2.76-1.35-4.06-.79-2.47-1.59-4.93-2.32-7.42-1.88-6.44-1.34-13.15-2.28-19.7-.57-3.9-1.54-7.75-2.35-11.61-.12-.59-.56-1.17-.52-1.73.44-6.05-2.92-11.12-4.17-16.71-.85-4.02-1.29-8.11-1.3-12.22-.02-1.93,1.17-3.91,1.99-5.78.39-.59,1.01-.98,1.71-1.08,1.77-.15,3.17-1.57,3.3-3.35.34-2.15.98-3.67,3.66-3.22.74.12,1.6-.41,2.51-.67-.08-1.39-2.76-1.42-1.59-3.18,1.06-1.58,1.9-3.82,4.17-3.61,3.87.36,7.21-1.38,10.81-2.08,4.62-.86,9.39-.55,13.86.9.55.25,1.07.54,1.57.88,1.69.88,3.38,1.78,5.1,2.61,3.92,1.88,6.83,4.95,9.63,8.14,2.8,3.19,5.53,6.43,8.29,9.63.27.24.51.51.73.8,2.18,3.73,4.32,7.48,6.5,11.2.98,1.67,1.95,3.35,3.06,4.92,1.03,1.46,2.94,1.32,3.31-.42.57-2.67,2.49-4.04,4.26-5.66,2.32-2.12,4.54-4.38,6.97-6.37,4.6-3.75,9.32-7.34,15.2-8.93.55-.24,1.07-.56,1.53-.96.3-.2.63-.62.89-.59,1.02.17,2,.61,3.02.7,1.7.15.09-2.27,1.8-2.42,1.05-.09,2.02-.82,3.08-1.04.91-.24,1.87-.25,2.78-.01,1.24.42,1.81.2,2.07-1.07.24-1.19,1.19-1.49,2.21-1.44,1.93.02,3.85.21,5.75.56,2.19.52,4.26.83,6.37-.16,1.87-1.09,4.27-.58,5.53,1.18,1.01,1.38,2.78,2,4.43,1.55,1.51-.25,3.23.67,4.85,1.07l-.09-.07c2.3,1.53,2.56,1.4,2.99-1.48l-.03.09Zm7.76,73.62c1.85-1.53,3.32-2.61,4.63-3.84,2.2-2.07,2.15-2.09,4.6-.02.39.32,1.18.65,1.49.48.45-.36.7-.92.68-1.49-.18-1.91-.66-3.79-.74-5.7-.03-1.31.2-2.61.67-3.83,1.09-2.89,2.43-5.69,3.54-8.58.23-.59-.14-1.39-.19-2.09-.16-2.27-.69-4.62-.32-6.8.24-1.41.57-2.45-.43-3.6-.31-.38-.48-.85-.48-1.34.26-3.43-1.57-6.31-2.51-9.4-1.05-4.02-3.39-7.58-6.65-10.14-1.33-.98-3.08-1.36-4.51-2.23-4.87-3.01-10.6-4.3-16.29-3.68-1.33.05-2.66-.17-3.9-.64-2.31-.77-4.78-.91-7.16-.41-1.3.23-2.62.25-3.93.08-4.11-.53-8.29.14-12.04,1.91-4.22,2.06-8.15,4.7-12.16,7.18-1.76,1.09-4.36.71-5.38,3.09-.04.09-.48.07-.69-.01-1.49-.58-2.31.43-3.04,1.37-1.99,2.57-3.88,5.21-5.86,7.79-2.87,3.71-5.78,7.4-8.72,11.06-.94,1.38-2.79,1.78-4.22.91-1.59-1.06-3.01-2.37-4.18-3.88-1.99-2.74-3.68-5.69-5.06-8.78-2.23-5.38-4.52-10.66-7.96-15.42-1.37-1.88-2.6-3.74-4.62-5-1-.68-1.94-1.45-2.78-2.32-2.18-2.1-4.24-4.34-6.52-6.32-1.17-1.02-2.55-1.78-4.03-2.23-2.9-.82-5.91-1.22-8.85-1.93-1.52-.43-3.14-.26-4.53.5-2.5,1.33-5.15,2.1-8.36.47.59,2.43-.54,3.56-2.09,4.77-4.45,3.48-8.04,7.5-6.64,13.86.01.6,0,1.21-.06,1.81.08,2.04.32,4.07.72,6.07.72,2.68,1.61,5.31,2.67,7.88,1.98,5.01.51,10.65,2.91,15.57.08.35.11.72.07,1.08.32,3.58.42,7.17,1.66,10.63.4,1.63.62,3.3.64,4.98.05,1.57.22,3.14.51,4.69,1.53,5.69,4.09,11.09,4.74,17.03.06.24.14.47.24.69.8,2.02,1.5,4.08,2.1,6.16,1.23,4.93,3.13,9.67,5.66,14.07,3.07,5.49,5.96,11.08,9,16.6,1.51,2.9,3.17,5.72,4.98,8.44,4.15,5.91,9.55,10.92,12.72,17.56.37.62.88,1.16,1.47,1.57,1.49,1.22,3.07,2.34,4.55,3.58,2.23,1.85,3.78,1.56,5.01-1.08.46-.98.72-2.05,1.15-3.05.21-.55.55-1.05.98-1.46,2.1-1.78,4.29-3.47,6.38-5.27,2.06-1.78,2.54-1.73,3.53.71.35.87.47,2.31,1.64,1.86.63-.24.89-1.78,1.05-2.78.02-.6-.25-1.18-.71-1.56-1.99-1.36-.76-2.12.47-2.83,1.33-.77,2.9-1.22,4.02-2.2,1.19-1.04,1.91-2.59,2.96-3.82.48-.68,1.19-1.18,2-1.39,1.59-.1,2.34-1.1,3.13-2.18,1.1-1.51,2.34-2.73,4.43-2.73.71-.1,1.38-.41,1.93-.88,1.95-1.41,4-2.68,5.17-4.97,1.55-3.03,5.28-4.24,6.54-7.61.1-.26,1.32-.35,1.88-.15,3.12,1.14,3.11,1.18,3.07-2.08,0-.37-.17-.77-.05-1.08.24-.51.53-1,.87-1.46.35.27.69.56,1.05.81s.76.45,1.14.67c.09-.52.4-1.14.22-1.55-.73-1.66-.08-2.74,1.21-3.76,3.47-2.75,6.92-5.53,10.34-8.35,5.4-4.47,10.82-8.92,16.11-13.52,2-1.58,3.69-3.5,4.99-5.68.96-1.84,2.08-2.07,3.71-2.07.61.05,1.21.03,1.81-.09.64-.24,1.26-.54,1.84-.9-.49-.42-1-.81-1.54-1.18-.53-.23-1.08-.41-1.65-.54m-3.33,6.86c-.65.95-1.22,1.78-1.79,2.6.36.25.76.73,1.09.69,1.11-.2,1.85-1.25,1.69-2.36-.09-.27-.46-.45-.99-.93m-107.09,61.61c-.12-.16-.25-.32-.4-.46-.04-.04-.28.08-.27.1.03.18.07.37.13.54.18-.06.36-.12.55-.19m42.01-127.22c-.06-.09-.12-.19-.18-.28-.15.12-.28.24-.41.38-.02.02.11.17.18.26l.41-.36"/><path id="Path_31" d="m1604.29,857.92c-4.72-.77-9.54-1.15-14-3.9-2.86-1.76-4.88-3.63-6.11-6.68-1.22-3.03-.48-5.98-.04-8.94.25-1.7,1.51-2.23,2.89-1.21,1.09.77,2.01,1.75,2.71,2.88,2.88,5.02,7.64,6.36,12.88,6.79,1.09.06,2.18-.05,3.23-.32,3.83-.92,7.67-1.87,11.46-2.91,2.09-.57,4.12-1.37,6.18-2.06,2.65-1.1,5.72-.3,7.48,1.97,1.46,1.65,1.43,3.05-.43,4.22-2.45,1.53-5.03,2.85-7.59,4.2-4.95,2.59-10.32,4.04-15.64,5.59-.99.21-2,.33-3.01.38"/><path id="Path_32" d="m1642.4,811.07c.65,4.43-1.2,7.38-5.16,9.35-4.02,1.99-7.22.09-9.39-2.94-1.79-2.68-2.2-6.04-1.11-9.07.96-2.63,3.02-4.7,5.64-5.68,1.02-.36,2.09-.61,3.17-.75,3.25-.43,6.23,1.86,6.65,5.11,0,0,0,0,0,0,.15,1.32.14,2.65.2,3.98"/><path id="Path_33" d="m1586.73,814.86c-1.6.45-3.24.8-4.81,1.35-2.41,1.03-5.2.35-6.86-1.67-.4-.43-.93-.92-1-1.44-.53-4.18,0-8.25,2.62-11.64,2.84-3.67,8.92-3.08,11.27.96,1.6,2.76,2.54,5.73,1.82,9-.1.35-.18.7-.24,1.06-.09.87.16,1.99-.29,2.55-.36.45-1.57.21-2.39.29-.04-.15-.07-.31-.1-.46"/></g></g><path id="Path_8" d="m1626.59,592.22c.1-.02.23-.09.31-.05s.13.17.2.26c-.16.04-.31.08-.47.12l-.03-.33"/><path id="Path_9" d="m1696.08,467.78l.18-1.18c.06.07.2.18.17.21-.12.31-.28.61-.42.91l.07.05Z"/><path id="Path_35" d="m1641.84,581.04l.21.27c.14-.13.26-.27.37-.42.02-.04-.12-.18-.2-.26-.13.14-.26.28-.39.42"/><g id="Group_28"><path id="Path_3" class="cls-3" d="m1632.82,168.6l-117.39,154.22,241.35,2.71-123.96-156.92Z"/><g id="Group_10"><path id="Path_34" d="m1618.88,330.18c-1.82,0-3.63.01-5.45,0-2.18-.02-4.37-.16-6.54-.07-2.27.09-3.51,1.03-3.64,2.75-.39,5.05-1.33,10.07-.79,15.18.05,1.69-.01,3.39-.19,5.07-.1,2.54-.23,5.07-.25,7.61-.03,3.02.57,6.16-.07,9.03-.44,1.97-.51,4.01-.2,6.01.35,2.48.38,2.47,2.96,1.51.34-.14.7-.21,1.06-.21,3.3.14,6.63.11,9.9.52,2.58.45,5.14,1.06,7.64,1.84,2.38.62,3.31,1.62,3.17,4.13-.2,2.16-.57,4.31-1.12,6.41-.21,1.08-1.26,1.78-2.34,1.57-.06-.01-.12-.03-.17-.04-1.79-.25-3.59-.51-5.38-.77-1.55-.23-3.22-.93-4.64-.6-4.87,1.12-9.64-.53-14.48-.12-3.2.27-4.9-1.82-5.3-5.06-.51-4.2.31-8.48-.92-12.63-.12-.72-.04-1.47.22-2.15,1.21-4.28,1-8.64.85-13-.04-1.21-.05-2.42.01-3.63.18-3.62.45-7.23.59-10.85.1-2.67.1-5.34.07-8-.01-1.53-.35-2.98-2.22-3.24-3.82-.52-7.64-1.15-11.49-1.44-3.25-.24-6.55.02-9.81-.11-1.92-.14-3.82-.4-5.7-.79-2.95-.52-5.86-1.32-8.82-1.63-5.02-.52-10.18.08-14.96-2.22-.93-.26-1.91-.34-2.87-.21-4.32-.06-8.72.53-12.71-1.91-.8-.27-1.65-.37-2.5-.3-1.53-.13-3.36.33-4.14-1.51-.74-1.74.67-2.96,1.53-4.21,2.89-4.18,5.89-8.28,8.76-12.46,1.23-1.79,2.06-3.91,3.45-5.55,3.74-4.39,6.19-9.53,8.93-14.51.78-1.36,1.65-2.66,2.59-3.91,1.54-2.15,3.63-4.07,4.62-6.45,2.76-6.55,7.61-11.71,11.16-17.72.2-.3.43-.59.68-.85,2.53-2.91,5.12-5.77,7.59-8.75,1.03-1.34,1.96-2.75,2.79-4.22,3.22-5.25,6.38-10.52,9.63-15.75.48-.85,1.17-1.56,2-2.07,4.62-2.39,6.2-7.67,10.2-10.63.26-.19.29-.67.48-.96,1.4-2.1,2.71-4.27,4.24-6.27,2.49-3.25,5.47-6.14,7.35-9.84.64-1.44,1.41-2.82,2.31-4.11,4.01-5.15,7.94-10.37,12.25-15.25,3.73-4.22,7.81-8.13,13.8-9.21,1.53-.28,2.57-.17,3.57.87,1.09,1.13,2.14,2.3,3.25,3.4.93.92,1.91,1.8,2.9,2.65.73.62,1.54,1.15,2.27,1.77,3.57,3.03,6.05,7.28,10.5,9.34.62.29,1.04,1,1.53,1.54,4.32,4.79,6.52,11.33,12.3,14.93,1.58,3.85,4.99,6.1,7.66,9.02,2.33,2.54,4.74,4.97,6.38,8.2,1.58,2.85,3.65,5.4,6.12,7.53,1.7,1.36,3.05,3.09,3.95,5.07,1.36,3.61,2.92,6.85,6.86,8.31.87.19,1.41,1.05,1.22,1.92-.03.14-.08.28-.15.41-1.09,2.12.05,3.28,1.6,4.57,1.82,1.51,3.8,3.11,4.91,5.11.82,1.73,2.02,3.25,3.51,4.44,1.13.92,2.21,1.89,3.22,2.93,1.1.82,1.61,2.21,1.3,3.55-.39,1.54.12,1.89,1.67,1.66.56-.08,1.38.79,1.91,1.38,2.26,2.51,4.5,5.05,6.67,7.64.55.78,1.02,1.62,1.4,2.49,1.14,2.11,1.92,4.55,3.51,6.24,1.66,1.74,2.98,3.76,3.91,5.98.68,1.41,1.5,2.76,2.44,4.02,2.01,2.99,4.08,5.94,6.11,8.91.24.27.4.6.46.95.04,3.33.88,6.19,4.23,7.71.19.09.26.41.43.57.86.97,1.86,1.81,2.97,2.48,1.68.57,2.62,2.36,2.13,4.06-.19,1.2-.44,2.38-.71,3.56-.33,1.85-1.77,3.31-3.62,3.68-1.41.26-2.84.42-4.28.49-1.68.14-3.38.05-5.02.35-3.3.59-6.25,2.66-9.79,2.28-.22-.02-.45.18-.68.23-1.75.38-3.48.82-5.24,1.11-1.43.24-2.9.22-4.33.48-3.43.79-6.96,1.02-10.46.7-.96-.11-1.92.02-2.82.38-1.93.73-4.04.86-6.05.39-3.56-.68-7.16-1.13-10.78-1.37-3.61-.15-7.25.22-10.87.41-4,.21-5.88,2.22-6.04,6.16-.17,4.47-.23,8.96-.73,13.39-.89,7.53-.66,15.16.68,22.62.44,2.36.21,2.61-2.19,3.9-.43.23-.62.91-.92,1.38.46.29.94.53,1.45.71.37,0,.72-.1,1.03-.31,4.07-2.15,8.35-1.83,12.69-1.23.8.06,1.59-.22,2.17-.79,1.04-1.23,2.67-1.8,4.24-1.47,1.69.19,3.37.41,5.06.6,1.36.15,2.05.85,1.6,2.19-.8,2.41-1.67,4.8-2.6,7.15-.56,1.24-1.76,2.07-3.11,2.17-4.36.86-8.88.7-13.17,2.08-.71.15-1.46.12-2.15-.09-2.47-.54-4.92-1.15-7.38-1.72-4.55-1.05-5.55-2.11-6.18-6.64-.1-.72-.13-1.45-.17-2.17-.3-5.06-.62-10.12-.89-15.18-.29-2.4-.34-4.83-.13-7.25,1.12-6.44,1.52-12.98,1.19-19.51-.28-4.29-.7-4.91-4.96-5.33-.72-.07-1.45.05-2.18,0-2.41-.18-4.82-.35-7.23-.62-2.74-.31-5.47-.76-8.22-1.06-2.27-.35-4.57-.52-6.87-.51-5.06.22-10.11.7-15.15,1.08-.01-.11-.02-.23-.03-.35m-71.18-12.04c.59.05,1.15.32,1.54.77,1.06,1.12,2.03.65,3.27.29,3.81-1.22,7.9-1.23,11.72-.02,2.15.8,4.47,1.08,6.75.79,2.12-.32,4.33-.07,6.49-.21,1.2-.06,2.38-.29,3.51-.7,1.71-.63,3.58-.72,5.34-.24.91.15,1.83.23,2.75.24.11,0,.26-.09.35-.05,1.37.61,2.69,1.53,4.12,1.76,1.45.24,2.97-.92,4.54.15.96.66,2.26.47,2.99-.44,1.28-1.36,2.27-.94,3.26.36.22.29.78.32,1.18.48.06-.33.06-.66,0-.99-.68-1.66.21-1.48,1.39-1.36,3.21.32,6.43.51,9.64.75.35.03.81,0,1.03.19,2.27,2.09,5.06,1.19,7.64,1.32,2.17.11,4.35-.09,6.53-.16.48.06.96.01,1.42-.15,3.18-2.01,6.62-.84,9.95-.89,1.55-.04,3.1.02,4.64.19.76.09,1.88.37,2.13.89.76,1.62,1.53,1.29,3.08,1.04,3.69-.55,7.43-.78,11.16-.68,1.99.02,3.79.05,5.54-1.08,1.45-.89,3.23-1.03,4.8-.37,3.1,1.03,6.43,1.13,9.58.3,3.16-.95,6.54-.85,9.64.28,2.38.98,5.04,1,7.43.06,1.56-.71,3.34-.71,4.9,0,1.64.86,3.59.86,5.24,0,2.27-1.12,4.69-.98,7.12-.63,1.06.17,2.12.26,3.2.26,2.28-.04,4.57-.39,6.83-.23,3,.22,5.79.1,8.19-1.98.49-.35,1.03-.61,1.61-.78,2.05-.79,2.38-1.54,1.41-3.4-.05-.11-.11-.22-.19-.31-6.18-7.23-9.3-16.35-14.86-23.97-3.41-4.68-7-9.24-10.18-14.08-4.2-6.07-8.78-11.87-13.72-17.36-2.65-3.09-4.68-6.71-7.04-10.06-4.04-5.73-8.07-11.46-12.18-17.14-2.26-3.12-4.61-6.18-7.05-9.18-4.04-4.97-8.16-9.88-12.29-14.78-3.27-3.89-6.76-7.61-9.85-11.64-5.04-6.59-11.46-11.75-17.37-17.43-1.55-1.49-2.03-1.41-3.63.08-.65.71-1.37,1.37-2.14,1.95-6.4,4.11-10.61,10.11-14.33,16.52-1.51,2.62-2.83,5.36-4.42,7.93-1.02,1.79-2.3,3.42-3.81,4.82-4.25,3.73-8.06,7.95-11.34,12.56-1.65,2.24-3.37,4.43-5.08,6.62-4.77,6.09-9.57,12.15-14.33,18.25-.59.76-1.11,1.59-1.54,2.45-1.94,3.91-4.67,7.25-7.2,10.76-4.16,5.76-9.14,10.95-12.19,17.54-1.3,2.8-3.51,5.18-5.27,7.78-.91,1.13-1.66,2.37-2.23,3.7-.96,2.47-2.34,4.77-4.06,6.79-1.51,2.03-2.83,4.2-4.31,6.26-1.26,1.76-2.65,3.44-3.92,5.19-1.13,1.41-2.14,2.91-3.03,4.49-1.5,2.96-.42,4.86,2.89,5.41.6.1,1.2.16,2.25.3,3.39-2.32,6.83.98,10.53.76m108.53-124.13c.24-.19.65-.37.68-.58.03-.3-.24-.62-.38-.94l-.88.49c.25.44.41.73.58,1.03"/><path id="Path_36" d="m1609.48,294.33c-.98-.51-1.55-1.82-2.3-2.77-.71-.9-.45-1.65.08-2.63,1.42-2.68,3.82-4.36,6.03-6.21.59-.35,1.31-.4,1.93-.13,1.86,1.09,3.62,2.34,5.4,3.57,2.26,1.56,4.49,3.16,6.75,4.71.3.2.67.27,1.03.2,3.54-.98,7.35-.42,10.79-1.83,3.8-1.55,8.05-2.77,10.44-6.23,2.07-2.79,4.53-5.27,7.32-7.34.77-.61,1.99-1.31,2.78-1.11,1.32.34.94,1.78.71,2.82-.61,2.84-1.24,5.68-2.03,8.48-.34,1.17-.9,2.26-1.65,3.21-3.07,3.77-7.05,6.71-11.56,8.52-5.95,2.48-12.46,2.23-16.62,2.96-8.78.75-13.71-3.39-19.11-6.22m10.01-5.8c-.1-.04-.21-.12-.28-.09s-.08.18-.11.27l.29.11c.03-.1.07-.19.1-.29"/><path id="Path_37" d="m1615.46,241.33c-1.9.03-9.99,3.92-11.19,5.39-1.54,1.89-1.42,4.03-.79,6.18.23.55.66,1,1.2,1.25,2.73,1.25,5.45,2.54,8.26,3.59,4.36,1.63,6.78.52,8.7-3.74.24-.68.53-1.35.86-1.99,3.52-5.56-2.05-11.26-7.06-10.68"/><path id="Path_38" d="m1657.71,236.69c-3.15-.61-5.13,2.16-7.68,3.61-1.3.75-1.24,2.38-.85,3.64,1.07,3.47,2.38,6.87,5.05,9.49,2.88,2.83,8.63,2.14,10.2-1.52,1.16-2.77,1.86-5.7,2.09-8.69.26-3.38-4.58-6.87-8.8-6.53"/></g></g><path id="Path_40" d="m1687.43,453.9c-.16.14-.42.26-.44.42-.02.17.19.36.31.55l.62-.53-.49-.44"/><path id="Path_41" d="m1687.86,449.94l.22-.2-.27-.09.05.29Z"/><path id="Path_7" d="m34.93,348.47c.12.13.23.27.33.41.02.04-.12.24-.16.23-.16-.04-.32-.1-.47-.18.1-.15.2-.31.3-.47"/><g id="Group_23"><path id="Path_2" class="cls-10" d="m706,140.42v131.77h-145.71l-14.84-129.9,160.55-1.87Z"/><g id="Group_12"><path id="Path_20" d="m611.9,358.52c.25-.02.51-.02.76,0,5.56.89,8.64-2.7,11.35-6.58,1.85-2.65.62-4.96-2.64-5.32-2.38-.26-4.79-.19-7.19-.33-4.01-.12-7.15-3.47-7.03-7.47,0-.08,0-.15.01-.23.18-7.32.44-14.64.27-21.95-.11-4.62.26-9.28-1.02-13.88-.51-1.83-.04-4.02.31-5.99.44-1.96.5-3.99.19-5.98-.25-1.62-.24-3.28.02-4.9.32-2.44,1.29-3.23,3.6-2.52,3.71,1.16,7.48,1.1,11.25,1.18,1.38.02,2.76-.24,4.13-.31.98-.16,1.99-.15,2.97.04,3.84,1.22,7.73,1.05,11.62.55,3.13-.47,6.33-.11,9.28,1.04,1.64.67,2.51,1.6,2.49,3.33-.03,3.15-.21,6.32.96,9.36.14.36.15.76.01,1.11-1.25,2.55-.5,5.18-.5,7.81-.01,4.77-.45,9.54-.5,14.32-.02,2.63.48,5.26.57,7.89.12,3.4.23,6.83.02,10.22-.05,4.02,3.17,7.31,7.19,7.36.09,0,.18,0,.26,0,1.76-.05,3.53.13,5.25.52,4.9.99,9.82.62,14.67.03,1.85-.23,3.69-1.57,5.26-2.77,2.19-1.71,4.23-3.6,6.11-5.64.72-.81,1.07-1.89.96-2.97-.4-1.28-1.76-2.01-3.05-1.64-3.08.52-6.28-.02-9.31,1.35-1.38.62-3.21.35-4.83.3s-3.25-.38-4.87-.54c-2.29-.21-2.89-.67-3.02-3-.11-2.01.05-4.04.09-6.06.08-4.02.15-8.05.25-12.08.03-1.13.21-2.25.26-3.38.2-3.75,1.2-7.48.14-11.27-.21-.99-.16-2.02.16-2.99.47-1.97.36-4.04-.31-5.95-1.19-4.28.35-6.26,4.78-6.98,2.97-.49,5.89-1.24,8.72-2.26,2.98-1.02,6.15-1.41,9.29-1.15,4.77.31,9.57.42,14.35.36,1.37-.08,2.68-.65,3.66-1.61,3.69-3.81,6.71-8.21,8.94-13.02.21-.59.34-1.21.41-1.84.88-4.43,1.96-8.84,2.58-13.31.6-4.34,1.39-8.67,1.02-13.14-.37-4.5,0-9.04-.25-13.56-.24-4.37.75-8.76-.71-13.14-.78-2.34-.79-4.96-1.01-7.47-.64-7.41-1.02-14.85-1.89-22.23-.39-3.31-1.75-6.51-2.63-9.77-.29-.82-.43-1.68-.42-2.54.84-7.59-.25-15.12-.69-22.66-.22-3.73-1.38-7.41-2.19-11.09-.37-1.41-1.6-2.42-3.05-2.51-3.97-.56-7.7-2.16-11.83-2.19-3.76-.02-7.51-.88-11.27-1.19-2.09-.17-4.26-.48-6.2.97-1,.75-2.09.35-3.1-.46-.74-.63-1.62-1.07-2.57-1.28-3.21-.59-6.46-1.01-9.69-1.5-1.48-.33-2.98-.55-4.49-.65-8.19.16-16.39-.11-24.55-.82-6.12-.62-12.27-1.33-18.41-1.37-4.74-.04-9.5.8-14.22,1.43-2.49.34-4.91,1.15-7.39,1.61-4.57.84-9.16,1.6-13.75,2.35-1.11.19-2.25.24-3.38.38-3.74.48-7.49.9-11.21,1.49-3.85.51-7.66,1.23-11.43,2.15-6.78,1.85-13,4.42-16.41,11.51-1.36,3.08-2.03,6.41-1.95,9.78.05,1.48-.08,2.96-.39,4.41-.92,3.27-.6,6.2,1.61,8.89,1.28,1.56,2.43,3.22,2.4,5.42,0,.63.21,1.25.61,1.74,2.83,3.07,3.49,7.22,5.43,10.73.3.55.36,1.28.76,1.72,3.5,3.88,2.53,8.51,2,12.92-.58,3.62-.42,7.31.47,10.87.33,1.47.55,2.97.66,4.48.6,4.87,1.12,9.76,1.82,14.61.25,1.79.52,3.47-.36,5.16-.94,1.8-.6,3.65-.2,5.54.45,2.08.76,4.18.94,6.3.5,6.27.95,12.55,1.33,18.83.11,2.01.1,4.03-.03,6.04-.18,2.92.51,4.07,3.18,5.22,5.53,2.38,11.43,2.67,17.3,3.1,4.4.32,8.81.36,13.21.59,3.72.2,5.33,2.96,4.15,6.48-.62,1.9-.93,3.89-.91,5.89.01,6.41,1.03,12.77-.1,19.23-.81,3.75-.32,7.66,1.38,11.1.91,1.7,1.01,3.72.27,5.5-.36.67-.53,1.43-.5,2.19.96,4.17-.3,8.51,1.08,12.65.25,1.1.41,2.22.47,3.35.75,4.83,3.72,7.77,8.56,8.63,3.2.57,6.37,1.26,9.55,1.89l.1-.46m-18.07-89.3c-8.49-.52-16.8-1.02-25.1-1.56-2.48-.16-3.1-.92-2.93-3.32.04-.62.26-1.23.34-1.86.62-4.87,1.25-9.68.54-14.66-.82-5.71-.65-11.57-1.55-17.26-.77-5.82-1.16-11.68-1.15-17.55-.18-7.38-1.21-14.8-1.08-22.21.16-4.42-.63-8.83-2.32-12.92-2.08-4.78-.89-10.28-3.94-14.71-.53-.77-.46-1.95-.69-2.93-.38-1.59-.78-3.19-1.17-4.78-.3-1.9-1.55-3.51-3.3-4.28-1.62-.7-1.95-2.18-1.48-4.16.2-1.44,1.38-2.53,2.83-2.63.99-.08,2.02.18,3.02.11,3.64-.25,7.3-.39,10.9-.93,3.45-.51,6.77-1.72,10.35-1.59,1.63-.11,3.26-.33,4.86-.67,3-.34,6-.77,9.01-.87,1.88-.02,3.73-.4,5.47-1.1,1.87-.71,3.84-1.13,5.84-1.24,3.64-.28,7.31-.34,10.96-.42,4.91-.11,9.85-.57,14.68.84.85.25,1.74.34,2.62.26,8.54-.95,16.77,2.01,25.24,1.96.63.05,1.25.19,1.84.43,2.8.82,5.74.98,8.61.49,1.74-.2,3.5-.2,5.25,0,5.89.6,11.79,1.19,17.65,2.03,2.22.41,4.39,1.07,6.46,1.98,1.56.65,2.66,2.07,2.9,3.75.48,2.6,1.02,5.2,1.25,7.83.51,5.9.26,11.86,1.57,17.69.14,1.13.19,2.26.16,3.4.25,4.28.29,8.58.82,12.82.84,6.73,2.5,13.38,1.64,20.24.03.63.14,1.25.32,1.84.21,1.36.49,2.71.57,4.08.42,7.55.79,15.1,1.16,22.65.07,1.01.05,2.02-.05,3.03-.86,7.25-1.74,14.5-2.65,21.75-.46,3.64-1.17,4.12-4.84,4.34-4.79.12-9.56.53-14.3,1.23-7.32,1.37-14.76,1.98-22.2,1.84-9.33-.19-18.66-.54-27.99-.64-4.82-.05-9.49-.98-14.23-1.54-8.63-1.02-17.31-2.11-25.87-.77"/><path id="Path_21" d="m616.82,243.37c1.96.38,3.9.82,5.87,1.13,6.23.88,12.55.88,18.78,0,1.65-.2,3.17-1.43,4.75-2.2.74-.46,1.53-.85,2.35-1.16,4.73-1.2,8.16-4.22,11.39-7.67,1.88-2.01,4.14-3.68,6-5.71,1.44-1.57,2.67-3.32,3.67-5.21,1.03-1.97.24-3.17-1.95-3.33-3.61-.26-6.99-.13-9.35,3.45-.94,1.33-2.39,2.2-4,2.4-2.94.04-4.73,1.55-6.26,3.58-2.08,2.77-4.63,3.37-8.09,3.49-3.7.12-7.18-.84-10.77-.84-5.72.03-11.23-2.14-15.39-6.06-2.09-1.81-4.3-3.47-6.61-4.97-.77-.35-1.64-.4-2.45-.15-2.68.66-5.33,1.44-7.97,2.23-1.3.39-4.25,4.27-4.02,5.54.27.95.77,1.81,1.46,2.53,1.43,1.73,2.95,3.37,4.44,5.04,1.68,1.87,3.22,3.92,5.83,4.63.37.09.71.26,1,.51,3.19,3.1,7.18,3.28,11.33,2.78"/><path id="Path_22" d="m595.42,180.15c-.69,3.69,1.6,6.52,2.86,9.62.55,1.35,1.61,1.93,3.32,1.83,3.81-.24,7.1-1.2,9.56-4.38.87-.91,1.86-1.7,2.95-2.33,2.39-1.69,3.37-4.34,4.58-6.81.21-.6.26-1.23.15-1.85-.31-2.97-4.84-6.65-7.85-6.91-5.57-.47-9.89,2.52-14.44,4.87-.64.56-1.02,1.35-1.08,2.2-.1,1.25-.12,2.51-.05,3.77"/><path id="Path_23" d="m645.36,181.11c-.6,3.35.61,6.23,3.8,7.72,3.54,1.65,7.35,2.03,10.68-.66,1.84-1.52,3.55-3.21,5.1-5.03.54-.84.85-1.79.92-2.78.22-1.23.22-2.5.36-3.75.33-3.1-1.18-4.89-4.23-4.74-3.63.18-7.26.43-10.89.77-3.13.35-5.55,2.9-5.72,6.04-.05.75-.01,1.51-.01,2.44"/></g></g><path id="Path_39" d="m30.97,458.77c.44.41.91.79,1.41,1.13.08.05.45-.39.68-.61-.36-.43-.75-.83-1.17-1.2-.06-.04-.47.34-.92.69"/><path id="Path_7-2" d="m1035.61,348.47c.12.13.23.27.33.41.02.04-.12.24-.16.23-.16-.04-.32-.1-.47-.18.1-.15.2-.31.3-.47"/><g id="Group_24"><path id="Path_89" class="cls-9" d="m1204.38,638.18l102.51,154.36,95.16-154.36h-197.67Z"/><g id="Group_8"><g class="cls-2"><g id="Group_7"><path id="Path_84" d="m1199.12,641.16c-.37-.03-1-.5-1-.76,0-.48.29-1.29.62-1.38,3.17-.88-1.92-3.76,1.89-3.28,1.46-1.41,2.79-2.95,3.98-4.6,1.54-2.55,3.23-4.88,6.21-5.6,2.16-.52,4.2-1.42,6.66-1.13,2.28.27,4.69-.59,7.05-.97.23-.03.44-.14.59-.31,2.68-3.5,6.9-3.2,10.57-3.97,1.86-.39,4.03.46,6.02.92,1.79.41,3.41.91,5.32.05,2.22-.99,4.35.17,6.06,1.52,1.54,1.31,3.62,1.8,5.59,1.32,2.77-.44,5.86-.97,8.7.7,1.33.79,2.97,1.38,4.47-.04.36-.26.81-.37,1.25-.33,5.58.45,11.19.19,16.7-.76,1.02-.19,2.07-.12,3.05.2,4.21,1.52,8.55,1.42,12.9,1.22,2.39-.03,4.77.14,7.14.49,4.21.47,8.46.4,12.69.71,3.65.26,7.29.84,10.94,1.09,6.29.43,12.59.8,18.89,1,2.02.06,4.06-.68,6.09-.7,1.35.09,2.67.41,3.91.95,2.15.77,4.24,1.68,6.37,2.5.29.11.84.17.95.01,1.47-1.96,3.41-.68,5.12-.74,4.88-.19,9.84-.81,14.63-.21,3.68.46,7.27-.03,10.89.25,1.16.03,2.21.68,2.77,1.69,1.8,2.88,2.41,5.49.72,8.95-2.41,4.93-5.43,9.53-8.98,13.71-.3.35-.78.66-.86,1.06-.68,3.56-3.49,5.85-5.23,8.77-1.27,2.17-2.84,4.14-4.68,5.85-1.85,1.68-2.73,3.94-4.3,5.72-2.72,3.07-4.04,7.15-7.25,9.84-.33.32-.57.72-.68,1.17-1.06,3.63-2.86,6.99-5.28,9.89-.99,1.25-1.81,2.63-2.42,4.11-2.43,5.65-6.64,10.15-9.8,15.33-2.49,4.09-4.97,8.18-7.45,12.28-1.18,1.95-2.18,4-4.3,5.26-.61.36-.91,1.51-1.05,2.34-.29,1.35-.36,2.74-.23,4.11.47,3.15-1.71,5.67-1.81,8.66-3.62,2.05-1.94,5.88-2.86,8.83-.7,2.25-.58,4.77-.82,7.16.03.46,0,.92-.08,1.37-1.5,4.06-.79,8.34-1.28,12.5-.35,2.95-.97,5.86-1.5,8.79-.14.79-.65,1.61-.52,2.33.74,4.27-.57,8.37-.96,12.53-.12,1.36-.07,2.9-.71,4.01-1.89,3.27-1.84,6.78-1.89,10.34.03,1.37-.17,2.73-.57,4.04-.95,2.68-2.09,5.19-2.46,8.13-.36,3.22-2.84,5.81-6.04,6.29-2.58.47-5.27.39-7.8,1.01-3.21.78-6.38.54-9.58.39-.91,0-1.8-.22-2.62-.62-2.66-1.5-3.04-4.42-.82-7,1.61-2.08,3.47-3.96,5.54-5.6,1.35-.95,3.41-1,5.18-1.23,2.72-.34,5.47-.4,8.18-.76,2.3-.3,3.57-1.64,3.42-3.96-.26-3.08.34-6.17,1.74-8.93.24-.76.35-1.56.34-2.36.23-1.7.47-3.4.69-5.1.23-1.81.55-3.62.63-5.44.27-6.73.36-13.47.69-20.2.19-3.88.72-7.74,1.06-11.62,0-.62-.04-1.23-.13-1.84-.22-.07-.44-.14-.66-.21-1.88,3.34-3.75,6.69-5.65,10.02-.61,1.07-1.31,2.09-2,3.11-2.18,3.23-4.39,6.43-6.55,9.67-2.92,4.37-5.8,8.77-8.74,13.12-.42.55-.92,1.03-1.49,1.41-1.96,1.45-2.26,1.47-3.9-.49-1.76-2.11-3.38-4.33-4.98-6.56-1.04-1.64-2.55-2.94-4.33-3.71-2.93-1.18-4.33-4.03-5.71-6.62-1.2-2.37-3.23-4.22-5.69-5.21-2.64-1.11-3.38-.71-3.46,2.06-.13,4.45-.17,8.91-.26,13.36.07.57.03,1.15-.14,1.7-1.29,2.48-1.5,5.1-1.71,7.85-.25,1.66-.33,3.34-.22,5.01.42,3.08-1.04,5.79-1.73,8.65-.4,1.41-.59,2.88-.56,4.35.4,4.11-1.71,8.05-5.35,10-2.15,1.37-4.67,2.03-7.21,1.89-1.95-.02-3.89.09-5.82.34-.45.11-.9.16-1.36.16-4.54-.76-9.08.44-13.62-.02-.57-.06-1.14-.11-1.71-.21-3-.52-3.73-1.26-3.83-3.88-.1-2.59,1.47-5.02,3.61-5.6,2.53-.7,5.17-.92,7.78-.64,1.72.25,3.46-.21,4.84-1.27.94-.58,2.05-.86,3.15-.79,1.81.04,3.58.59,5.33-.48.52-.32,1.34-.15,2.03-.16,3.04-.07,4.02-.79,4.99-3.64.04-.11.07-.22.09-.33.66-4.38,1.32-8.77,1.98-13.15.04-.23-.02-.46.02-.69.73-4.05.3-8.25.9-12.21.86-5.67.93-11.38,1.66-17.02.82-6.35-1.59-11.16-6.34-15.08-3.29-2.84-6.16-6.13-8.51-9.78-3.26-4.99-6.01-10.29-8.23-15.82-1.7-3.75-3.62-7.4-5.75-10.93-4.1-7.16-8.31-14.25-12.48-21.36-1.45-2.47-2.89-4.91-3.25-7.88-.27-1.35-.82-2.63-1.61-3.76-1.67-2.74-3.51-5.37-5.22-8.08-1.15-1.84-2.17-3.76-3.29-5.62-2.3-3.82-4.74-7.56-6.91-11.46-2.5-4.5-4.79-9.12-7.09-13.73-.34-.85-.51-1.76-.53-2.67m25.83-9.81c-2.81,0-4.89-.18-6.93.05-2.02.26-4.01.7-5.96,1.32-2.85.84-3.37,2.14-1.87,4.84,4.18,7.5,8.41,14.97,12.68,22.42,1.47,2.58,3.12,5.07,4.6,7.65,1.19,2.07,2.29,4.2,3.4,6.32,1.21,2.32,2.3,4.72,3.61,6.97,1.84,3.16,4.06,6.07,5.02,9.73.42,1.59,1.64,2.98,2.52,4.45,1.22,2.05,2.53,4.05,3.69,6.14.89,1.6,1.57,3.31,2.4,4.94,2.06,4.09,4.12,8.18,6.24,12.23,2.76,5.26,5.12,10.75,9.18,15.26,1.98,2.21,3.94,4.42,6.01,6.55,3.8,3.91,7.1,8.31,10.6,12.5.07.09.1.21.17.3,1.8,2.36,3.19,5.31,5.5,6.96,3.77,2.7,6.24,6.37,9,9.83,3,3.76,7.21,6.42,9.54,10.77.44.82,1.4.71,2.01-.09.43-.54.79-1.13,1.08-1.75.91-1.84,2.18-3.49,3.74-4.84,2.46-2.37,4.75-4.92,5.84-8.37.57-2.25,1.85-4.25,3.66-5.69.65-.47,1.1-1.16,1.28-1.94.34-2.26,2.36-3.32,3.29-5.03s.92-3.87,1.97-5.74c3.16-5.57,6.02-11.31,9.06-16.95.81-1.5,1.79-2.92,2.74-4.33.7-1.04,1.59-1.96,2.21-3.04,1.84-3.32,4.35-6.23,7.38-8.52,1.37-.88,2.24-2.36,2.35-3.98.14-1.61.86-3.11,2.01-4.23.84-1.09,1.58-2.24,2.22-3.46.59-1.11,1.26-2.17,2.02-3.17,4.07-4.48,7.74-9.3,10.97-14.42,1.59-2.47,2.94-5.09,4.03-7.82.55-1.63,1.24-3.2,2.05-4.71,2.79-4.69,5.69-9.31,8.59-13.93.51-.62,1.06-1.2,1.66-1.73.53-.59,1.02-1.22,1.5-1.85.96-1.26,1.8-2.61,2.85-3.79,3.19-3.44,5.79-7.37,7.71-11.64.62-1.45.32-2.25-1.24-2.51-1.69-.31-3.42-.39-5.13-.22-7.17.76-14.41.72-21.57-.1-6.47-.81-12.99-1.25-19.51-1.32-3.2.13-6.41-.22-9.51-1.02-.56-.12-1.13-.18-1.71-.15-5.15-.07-10.31-.12-15.46-.17-6.63-.06-13.26.5-19.88-.2-1.48-.16-2.95-.36-4.42-.57-8.23-1.13-16.44-.17-24.66.13-3.19.25-6.4.1-9.55-.43-4.24-.92-8.67.05-12.79-1.55-.28-.11-.67.09-1.01.13-3.55.4-7,.39-10.39-1.12-1.26-.56-2.68-.66-4-.27-3.79,1.43-7.7.94-10.81,1.14m93.46,191.09c-.14-.12-.29-.23-.45-.34-.02,0-.19.16-.18.21.07.17.15.33.25.49.13-.12.25-.24.38-.36"/><path id="Path_85" d="m1238.77,818.39c-.57.44-.89.89-1.18.87-.47-.12-.92-.31-1.33-.58.38-.32.71-.77,1.14-.91.28-.09.7.3,1.37.62"/><path id="Path_86" d="m1294.08,730.58c-2.39-.24-4.47-.06-6.22-.73-1.84-.89-3.54-2.04-5.04-3.41-1.74-1.21-2.6-3.33-2.21-5.42.06-1.13-.25-2.25-.87-3.19-1.28-2.11-1.89-4.08-.46-6.41.7-1.14.77-2.66,1.46-3.81,1.26-2.11,2.26-2.03,3.95-.33,1.35,1.37,2.94,2.5,4.41,3.75,1.44,1.14,2.56,2.63,3.28,4.32.67,1.65,1.45,1.72,3.26,1.09.71-.34,1.5-.51,2.29-.49,3.17.54,6.13-.21,9.1-1.1.33-.1.83,0,.99-.21,2.37-2.93,6.47-2.07,9.23-4.31,1.92-1.57,3.3-1.36,4.64-.18,1.63,1.21,2.25,3.36,1.53,5.25-1.02,3.68-3.73,6.67-7.3,8.04-6.11,2.57-12.38,4.77-18.75,6.59-1.08.25-2.17.43-3.28.56"/><path id="Path_87" d="m1284.38,678.47c-.7,2.42-2.48,5.99-3.23,6.65-1.09.52-5.08,1.11-6.52.61-.65-.51-1.33-.97-2.06-1.37-4.09-2.49-5.44-7.79-3.03-11.93.91-1.82,2.88-2.85,4.89-2.56,3.43.71,7.26,1.37,9.36,5.38"/><path id="Path_88" d="m1320.07,676.46c3.58-3.46,10.95-2.91,13.77,1.16.83,1.2.82,2.99,1.19,4.51l-.22.06c0,.45.01.91,0,1.37-.13,4.19-2.7,5.99-6.65,4.49-1.1-.55-2.39-.56-3.49-.02-2.48,1.17-6.4-1.02-6.95-3.7.23-1.95.62-3.88,1.16-5.76"/></g></g></g></g><ellipse id="Ellipse_1" class="cls-4" cx="390.74" cy="583.87" rx="92.01" ry="245.04" transform="translate(-199.68 964.63) rotate(-89.03)"/><path id="Path_114" class="cls-4" d="m483.62,666.42l1.54,1.61,46.46,48.46,12.56-71.96-60.56,21.89Z"/><g id="Group_29"><path id="Path_90" d="m243.35,600.92c.07,7.72-2.44,15.24-7.14,21.37-2.97,4.06-6.06,7.91-10.56,10.31-.86.35-1.84.29-2.65-.18-4.4-3.22-3.54-7.83-.25-12.74,3.28-4.96,6.1-10.2,8.44-15.66,1.72-3.94,4.17-7.56,6.3-11.32.14-.24.38-.45.42-.69.68-4.19,1.16-8.39.16-12.6-.05-.22-.54-.55-.63-.5-.65.3-1.22.73-1.69,1.26-1.11,1.71-1.95,3.6-3.13,5.26-2.23,3.36-5.35,6.02-9.01,7.7-2.7,1.34-5.94.86-8.14-1.2-2.53-2.4-4.13-5.49-3.06-9.3.9-3.2,1.31-6.6,2.61-9.62,1.54-3.89,3.61-7.55,6.14-10.88,2.73-3.35,6.32-6.02,9.71-8.78,2.44-2,5.42-1.06,8.13-.63,3.06.49,7.83,6.42,7.92,9.5.01.44-.57,1.27-.83,1.26-.62-.07-1.2-.36-1.62-.82-1.39-1.59-2.42-3.69-4.11-4.76-1.54-.73-3.31-.77-4.88-.11-6.3,2.84-9.72,8.58-13.28,14.09-2.86,4.42-3.34,9.59-4.24,14.6-.16.87.39,2.58.91,2.71,1.17.31,2.42.1,3.43-.57,1.93-1.83,3.7-3.82,5.3-5.95,1.78-2.26,3.81-4.46,4.93-7.04.93-2.13.67-4.76,1-7.16.24-1.79.5-3.58.9-5.34.36-1.6,1.56-1.94,2.68-.77,2.26,2.38,4.35,4.67,4.57,8.4.22,3.7,1.46,7.34,2.28,11,.08.23.24.43.44.57.35-.16.66-.39.93-.66,2.91-3.46,5.6-7.14,8.77-10.35,2.61-2.57,5.49-4.85,8.59-6.81,2.29-1.47,5.02-2.25,7.53-3.39,2.83-1.28,5.59-2.72,8.45-3.9,2.48-1.16,5.44-.26,6.85,2.09.25.39-.53,1.99-1.19,2.33-4.86,2.51-9.88,4.72-14.71,7.28-1.99,1.14-3.81,2.56-5.4,4.21-1.44,1.48-2.07,3.57-1.7,5.6.26,2.57-.35,5.22-.27,7.83.1,3.42.48,6.84.8,10.25.04.54.32,1.03.76,1.34,1.88.83.88,1.55-.02,2.25-2.75,2.14-6.7.15-7.34-3.7-.52-2.2-.85-4.44-.98-6.69.03-3.06.59-6.12.89-9.18,0-.41-.03-.82-.1-1.22-.47.17-1.12.19-1.39.53-3.15,4.01-6.18,8.12-9.36,12.11-2.37,2.97-1.83,6.49-2.14,8.69m-17.02,23.47c.18.28.45.82.53.8.42-.11.81-.34,1.1-.66,1.64-2.33,3.38-4.62,4.8-7.08,1.2-2.21,2.25-4.49,3.17-6.83.19-.45-.08-1.09-.14-1.65-.7.41-1.71.66-2.05,1.27-2.38,4.27-4.63,8.61-6.91,12.93-.18.35-.3.74-.5,1.21m21.23-41.75c.07.26.13.52.2.78l2.15-.59c-.05-.21-.1-.41-.15-.62l-2.2.42"/><path id="Path_91" d="m296.84,592.12c8.52,1.03,16.58.57,23.75-4.76,2.06-1.53,4.41-2.67,6.56-4.08.61-.36,1.05-.94,1.22-1.62.41-6.37,3.75-11.56,6.48-17.06,2.14-4.29,5.42-7.19,9.2-9.77,1.85-.91,4.05-.75,5.74.44,3.43,2.68,4.89,7.17,3.68,11.36-.73,2.87-1.99,5.65-4.87,7.48-1.65,1.04-2.65,3.08-3.98,4.64-2.13,2.49-4.33,4.91-6.42,7.43-.73.94-1.34,1.97-1.82,3.06-.1.21.37.98.68,1.05,6.27,1.38,12.74,2.05,18.71-.29,2.74-1.1,5.6-1.9,8.51-2.39.35-.1.71-.13,1.07-.09.7.23,1.38.5,2.05.79-.34.65-.5,1.55-1.04,1.92-3.1,2.15-6.08,4.65-9.49,6.15-5.14,2.26-10.75,1.83-16.28,1.49-3.79-.24-6.7-2.25-9.68-4.19-.24-.15-.31-.64-.36-1-.09-.52.07-1.41-.17-1.52-.56-.25-1.21-.26-1.77-.01-1.51.88-2.93,1.91-4.35,2.93-5.27,3.7-11.63,5.5-18.05,5.12-3.79-.13-7.56-.89-11.35-1.34-.62-.14-1.26-.13-1.88.04-2.21.97-3.41-.46-4.16-1.99-1.45-2.94-.95-5.38.72-6.79.69-.58,1.08-1.44,1.07-2.34-1.03-3.95.27-7.72,1.76-10.97,2.9-6.31,7.03-11.95,13.02-15.86,2.65-1.73,7.16.38,7.8,3.43,1.11,5.24-1.59,9.32-4.15,13.34-2.25,3.53-4.84,6.85-7.42,10.16-1.39,1.79-3.07,3.37-4.79,5.24m51.89-29.65c-.41-1.35-.64-2.12-.88-2.9-.46.58-.92,1.15-1.39,1.72-.17.21-.35.41-.53.62-2.27,2.44-4.39,5-6.36,7.69-1.45,2.21-2.2,4.88-3.23,7.36-.19.56-.34,1.12-.45,1.7.66,0,1.43.24,1.95-.02.79-.43,1.48-1.02,2.01-1.74,2.08-2.74,4.24-5.44,6.07-8.35,1.08-1.96,2.01-4,2.8-6.09m-43.22,6.43c-.78.56-1.33.79-1.59,1.2-.23.37-.03.99-.21,1.41-.26.46-.57.88-.93,1.26.37.08.86.36,1.09.21.55-.3,1-.76,1.29-1.31.22-.91.34-1.84.35-2.78m53.22,24.05c.16.15.32.29.49.44.95-.54,1.93-1.03,2.82-1.65.29-.2.36-.75.46-1.15.01-.04-.52-.34-.61-.27-1.07.85-2.12,1.75-3.16,2.64m-52.04-26.91c.05.22.11.43.17.64.94-.05,1.89-.08,2.83-.17.25-.06.46-.22.6-.44.05-.08-.19-.5-.26-.49-1.11.13-2.22.3-3.34.47m41.59,4.11c-.08-.22-.15-.44-.23-.66l-2.26.86c.06.19.13.38.19.56.77-.25,1.53-.51,2.3-.76m1.5-3.23c.08.11.17.22.25.33.35-.24.71-.47,1.06-.71l-.31-.41-1,.8m-51.6,12.43c.04.15.09.3.14.45l1.05-.34c-.04-.15-.1-.3-.16-.44-.35.09-.69.21-1.03.32"/><path id="Path_92" d="m458.72,610.32c-.24,3.26-.53,5.98-.61,8.7-.03,4.09,3.27,7.44,7.37,7.46.38,0,.75-.02,1.12-.08,5.25-.77,10.06-3.34,13.63-7.27,4.49-4.81,5.96-10.7,5.63-17.15-.13-2.65-.21-5.3-.24-7.96,0-.6.25-1.21-.06-1.82v-2.58l-.26.03c-.13-1.39-.25-2.77-.42-4.66-1.48,1.57-2.76,2.9-4,4.25-2.99,3.26-6.86,4.61-11.11,4.95-1.01.08-2.09-.59-3.21-.93,1.71-2.01.49-2.26-1.38-2.18-.34-.05-.64-.26-.81-.56-2.71-4.9-2.47-10.06-1.09-15.22.85-3.16,3.51-4.94,5.91-6.85,2.25-1.58,4.41-3.29,6.47-5.12,2.86-2.86,6.42-2.81,9.96-2.97.43-.02.99.85,1.32,1.41.24.4,0,1.2.28,1.42,2.49,1.92,1.95,5.01,2.91,7.5,1.13,2.71,1.86,5.57,2.15,8.49.47,6.84.49,13.71.67,20.57.07,2.76,0,5.52.15,8.27.3,5.58-1.76,10.3-4.98,14.68-1,1.36-1.44,3.37-2.72,4.23-2.71,1.63-5.53,3.07-8.44,4.31-.63.31-1.46.33-1.98.75-5.87,4.67-13.55,3.39-18.12-2.69-1.54-2.05-3.28-3.75-3.77-6.45-.69-2.92-.03-6,1.78-8.39,1.06-1.36,2.35-2.54,3.86-4.14m18.93-27.3c.99-1.71,4.46-1.42,3.86-4.46-.02-.13.43-.31.57-.53.55-.86,1.4-1.7,1.51-2.63.12-1.85.13-3.7.04-5.55.02-1.63-.84-1.69-1.88-.96-2.35,1.66-4.66,3.38-6.94,5.14-3.6,2.65-5.76,6.81-5.86,11.28.07.46.3.87.65,1.18,1.62-.42,3.2-1,4.7-1.74,1.39-.91,2.7-1.94,3.93-3.06.08.1.16.2.24.3l-.84,1.02m-3.74,5.67c.04.21.07.42.11.63l2.68-.42c-.04-.22-.08-.44-.12-.66l-2.67.45"/><path id="Path_94" d="m375.76,542.01l-3.82,5.93c-.16-.09-.32-.17-.48-.26.39-.95.77-1.91,1.16-2.86.15-.23.27-.47.37-.72.51-2.53.92-5.09,1.55-7.59.2-.8.88-1.91,1.53-2.06,1.01-.22,2.75-1.14,3,1.15.08.31.3.56.6.68,2.63.74,2.36,2.91,2.54,4.92.16,1.73.6,3.44.75,5.18.15,1.74-.04,3.51.15,5.25.25,2.43.71,4.85,1.08,7.26.04.22.19.46.15.65-.58,2.65,1.15,2.78,2.92,2.49,5.74-.94,11.46-2.06,17.2-2.98,2.09-.3,4.19-.42,6.3-.35.35,0,1.11,1.27.96,1.67-.79,2.06-.22,3.35,1.88,3.14,3.18-.31,3.93,1.98,4.67,4.1.43,1.61.69,3.27.78,4.94.46,3.72,1.02,7.43,1.27,11.16.08,1.21-.3,3.19-1.09,3.59-2.42,1.23-4.24.67-5.1-1.75-1.1-3.23-1.87-6.56-2.3-9.94-.47-3.42-.41-6.91-.59-10.36-.05-1.08-.39-1.69-1.6-1.07-5.64,2.85-11.87,4.32-18.18,4.29-.54,0-1.09.02-1.63.06-3.82.28-5.09,1.53-4.79,5.24.12,1.48.01,2.27-1.88,2.14,1.61,1.61,1.25,3.06.66,4.83-.41,1.24.34,2.83.38,4.26.09,3.2.08,6.41.05,9.62,0,.3-.49.89-.58.86-1.02-.34-2.41-.5-2.92-1.24-1.8-2.46-2.75-5.44-2.72-8.49.12-4.73.03-9.46.03-14.39-1,0-2.55.06-4.1-.01-1.75-.08-3.73.18-5.17-.57-1.07-.55-1.58-2.43-1.97-3.81-.09-.32,1.22-1.33,2.02-1.56,2.32-.66,4.73-1.04,7.08-1.61,1.62-.39,2.04-1.6,1.94-3.12-.3-4.59-.8-9.17-.78-13.76.18-1.75-.3-3.49-1.34-4.91m7.87,29.27c-.01-.14-.03-.28-.04-.41l-3.5.29c0,.1.02.2.02.3l3.52-.17m-2.66-32.34c.11-.09.21-.18.32-.27-.16-.25-.33-.5-.49-.75l-.38.38.56.63"/><path id="Path_95" d="m533.51,577.85c-1.3-.59-2.66-1.03-4.07-1.3-4.59-.33-9.19-.57-13.79-.57-3.02,0-5.6-1.24-6.58-3.68-1.04-2.78-.16-5.91,2.18-7.73,3.56-3.09,7.1-6.21,10.7-9.26,1.48-1.32,3.07-2.5,4.76-3.54.66-.38,1.78.03,2.69.09.67.02,1.33.09,1.99.19.9.18,1.79.47,2.68.7-.22,1.28-.6,2.54-1.12,3.73-.47.84-1.57,1.32-2.37,1.98-3.47,2.88-6.93,5.75-10.37,8.67-.24.2-.4.9-.27,1.03.34.33.78.55,1.26.6,2.56.2,5.19.04,7.68.55,3.1.68,6.14,1.62,9.08,2.8,3.29,1.27,4.37,4.38,5.45,7.38.08.25.04.53-.11.75-2.06,1.89-3.88,4.3-6.29,5.51-5.17,2.59-10.65,4.55-16,6.77-3.26,1.36-3.71.82-6.02-1.64-1.63-1.72-1.03-2.74-.17-4.1.33-.41.77-.72,1.27-.88,1.99-.78,4.03-1.42,5.99-2.25,3.8-1.6,7.55-3.31,11.32-4.97.03-.28.07-.56.1-.84"/><path id="Path_96" d="m437.98,573.14c.94-1.66,1.99-3.25,3.15-4.77,1.01-1.23,1.94-2.52,2.78-3.87,1.07-1.58,5.98-1.65,7.68-.55,4.22,2.74,6.96,6.48,7.61,11.57.66,5.2,1.46,10.39,1.82,15.61-.13,1.52-.95,2.89-2.23,3.73-1.23.81-2.88.47-3.69-.76-.2-.3-.33-.64-.4-.99-.74-2.84-1.32-5.71-1.76-8.61-.43-2.76-.47-5.59-.96-8.34-.31-1.54-.9-3.01-1.76-4.33-.64-.57-1.5-.82-2.35-.71-.67.19-1.22.67-1.49,1.32-1.43,3.55-2.75,7.14-4.11,10.72-.02.04-.02.11-.05.12-1.72.74-1.19,1.95-1.18,3.45.01,2.91-.79,5.83-1.35,8.73-.07.36-.71.79-1.14.87-3.46.62-4.7-.16-5.45-3.73-.52-2.57-.89-5.17-1.13-7.78-.67-6.86-1.37-13.72-1.73-20.59-.06-1.06,1.53-2.31,2.58-3.22.25-.22,1.48.49,2.12.96,3.28,2.43,3.19,5.91,2.85,9.46.02.57.08,1.15.18,1.71m.9,15.59c.05-.19.1-.39.15-.58l-1.35-.3c-.03.17-.07.34-.1.51l1.3.37"/><path id="Path_97" d="m571.39,520.52c-.37-.99-.62-2.02-.76-3.07.02-5,.02-10,.29-14.98.22-2.92.67-5.82,1.33-8.67.14-.67,1.34-1.75,1.72-1.63,1.43.45,3.5,1.04,3.91,2.11,1.14,2.87,1.3,6.03.45,9-.72,2.52-.18,5.38-.32,8.08-.15,3.05-.49,6.09-.63,9.14-.26,5.47-.45,10.95-.65,16.43-.21,5.58-.35,11.15-.62,16.73-.11,2.3-1.97,4.04-3.75,3.79-2.15-.3-3.79-2.9-3.64-5.07.31-4.63.31-9.28.55-13.92.27-5.28.61-10.55,1.05-15.81.2-.78.56-1.51,1.06-2.14m1.09,31.74l.15.47c.46-.2.92-.39,1.38-.59-.06-.15-.12-.29-.19-.44l-1.35.55"/><path id="Path_99" d="m565.59,578.92c2.91-.66,6.18,2.63,6.23,4.87.06,2.82,1.42,6.27-2.49,7.55-1.98.65-4.49,1.59-6.24-.72-1.04-1.18-1.8-2.59-2.21-4.11-.24-1.76-.04-3.54.56-5.21.63-1.79,2.08-2.98,4.15-2.39"/><path id="Path_100" d="m412.37,530.84c.05-.13.33-1.3.51-1.28,1.18.05,2.33.32,3.41.8.82.53,1.5,1.25,1.98,2.1.28.47.31,1.05.09,1.55-.74.83-1.66,2.01-2.57,2.07-2.69.17-3.2-.72-3.41-5.23"/></g><g class="cls-11"><g id="Group_31"><path id="Path_101" d="m634.98,588.71c-.02,3.54-.23,7.08-.61,10.6-.67,3.41-1.54,6.78-2.61,10.08-.98,3.57-3.29,6.31-5.68,9-.38.42-.69.9-.92,1.42-1.19,2.68-2.98,5.05-5.22,6.94-1.29,1.18-2.48,2.46-3.57,3.83-2.3,2.72-5.04,5.04-8.09,6.87-.78.56-1.51,1.19-2.19,1.88-.4.4-.84.76-1.32,1.06-4.39,2.32-8.77,4.66-13.2,6.9-3.01,1.53-6.1,2.92-9.16,4.36-2.39,1.04-4.87,1.83-7.42,2.37-3.46.84-6.96,1.29-10.44,1.85-3.08.5-6.22.63-9.31,1.07-2.43.34-4.84.88-7.25,1.38-3.69.78-3.69.8-4,4.58-.11.77-.15,1.54-.14,2.31.48,7.01-1.21,13.82-1.96,20.71-.73,6.74-1.76,13.45-2.9,20.14-.33,1.97-1.72,3.75-2.16,5.72-.5,1.66-1.33,3.2-2.44,4.53-.28.41-.11,1.18-.05,1.78.21.9-.33,1.8-1.21,2.05-.87.39-1.76.74-2.67,1.03-.47,0-.9-.25-1.13-.65-.49-1.77-1.99-2.03-3.39-2.55-1.02-.31-1.98-.8-2.81-1.46-2.73-2.49-5.68-4.78-7.53-8.1-1.19-2.13-2.43-4.25-3.81-6.25-1.46-2.15-3.05-4.21-4.75-6.18-4.47-5.08-9.78-9.36-13.89-14.84-2.77-3.52-5.77-6.86-8.98-9.98-3.01-3.05-6.58-4.76-11.13-4.13-1.99.28-4.09-.27-6.14-.44-6.46-.52-12.87.23-19.28.81-13.14,1.22-26.33,1.78-39.53,1.67-4.05-.04-8.11.52-12.17.71-5.24.24-10.49.49-15.74.52-7.87.05-15.75-.3-23.62-.03-2.93.1-5.78-.26-8.67-.31-3.84-.07-7.68.14-11.52.05-1.83-.04-3.65-.72-5.48-.73-4.32-.02-8.64.19-12.96.32-.2,0-.41.07-.62.06-5.81-.2-11.61-.51-17.41-.53-2.11-.1-4.23-.02-6.32.24-3.28.39-6.61.08-9.77-.92-1.84-.38-3.7-.64-5.57-.78-1.05-.14-2.11-.33-3.16-.45-.7-.09-1.42-.1-2.13-.13-1.63-.06-3.28-.01-4.9-.18-3.67-.37-7.33-.83-10.99-1.3-.8-.1-1.58-.38-2.37-.56-2.91-.64-5.8-1.37-8.73-1.88-1.75-.3-3.57-.15-5.33-.39-.86-.23-1.68-.57-2.45-1.02-.53-.26-1.09-.47-1.65-.65-.12-.03-.55.61-.51.65.86,1-.03,1-.65,1.24-3.18,1.19-8.57.26-11.5-1.52-2.61-1.45-5.31-2.73-8.08-3.83-2.95-1.29-5.93-2.51-8.92-3.69-2.01-.79-4.08-1.4-6.08-2.23-1.65-.55-3.2-1.34-4.61-2.35-3.66-3.13-8-5.23-11.8-8.08-5.54-4.15-11.13-8.32-14.97-14.31-1.3-2.03-3.13-3.77-4.2-5.9-2.64-5.23-5.52-10.45-7.29-15.99-1.85-5.32-2.61-10.95-2.26-16.57.21-2.73,1.22-5.33,2.9-7.49.35-.45.59-.97.7-1.52.83-4.77,2.22-9.42,4.15-13.85.14-.33.21-.69.33-1.03,2.07-5.8,4.26-11.52,9.24-15.62.7-.68,1.14-1.58,1.24-2.54.32-2.96,1.71-5.7,3.91-7.7,1.07-1.03,2.19-2.02,3.26-3.06,3.48-3.35,6.58-7.08,9.24-11.12,3.16-4.88,7.91-8.54,13.44-10.34,4.69-1.64,9.12-4.07,13.6-6.26,1.05-.53,1.96-1.29,2.66-2.22.77-1.22,2.01-2.08,3.43-2.37,4.89-.86,9.44-2.84,14.14-4.32,4.76-1.5,9.49-3.35,14.6-3.71,2.05-.14,4.05-1.06,6.07-1.62.54-.18,1.08-.33,1.64-.43,3.45-.43,6.86-1.07,10.23-1.93,6.22-1.67,12.68-2.52,19.06-3.58,5.64-.94,11.3-1.8,16.97-2.53,3.41-.45,6.85-.71,10.29-.78,6.68-.1,13.37.08,20.05.01,5.34-.06,10.67-.39,16.01-.46,2.57-.03,5.14.31,7.71.43,2.41.11,4.83.11,7.24.22,1.75.08,3.49.28,5.24.4,4.52.31,9.04.53,13.56.92,4.66.4,9.31.96,13.96,1.44,4.99.52,9.99,1.07,14.99,1.54,3.83.36,7.67.59,11.5.95,4.09.23,8.16.67,12.19,1.34,4.76.97,9.69,1.19,14.26,3.12,1.2.46,2.49.68,3.78.65,4.64-.02,8.92,1.6,13.33,2.69,1.2.3,2.42.52,3.63.72,4,.66,8.01,1.3,12.02,1.95.4.07.8.18,1.21.28,3.36.9,6.71,1.84,10.08,2.69,1.14.29,2.34.3,3.48.59,1.62.41,3.23.92,4.82,1.46,2.42.82,4.81,1.78,7.25,2.54,4.21,1.31,8.46,2.51,12.69,3.76.1.04.2.07.3.08,3.43-.35,6.19,1.61,9.22,2.64,2.04.69,4.14,1.22,6.17,1.95.77.37,1.5.83,2.16,1.38.13.08.2.26.34.31,2.26.94,4.55,1.82,6.78,2.83,1.21.55,2.25,1.69,3.49,1.92,7.48,1.36,14.02,4.96,20.67,8.33,1.82.92,3.51,2.57,5.4,2.79,2.57.3,3.59,2.94,5.99,3.13,2.9.24,4.97,2.24,7.4,3.48,1.21.62,2.73.59,3.99,1.14,1.81.8,3.49,1.88,5.26,2.79,2.1,1.08,4.17,2.22,6.35,3.09,1.58.58,2.94,1.65,3.86,3.06,1.57,2.15,3.29,4.18,5.13,6.1,1.98,2.22,4.27,4.22,5.98,6.63,2.13,3.16,4.09,6.43,5.87,9.8,1.15,2.06,1.94,4.33,3.16,6.35,1.62,2.68,1.52,5.61,1.75,9.17m-30.16,46.67c.89-.73,1.81-1.44,2.66-2.21.71-.65,1.35-1.38,2.02-2.09.24-.26.43-.54.65-.82-.37.04-.75.11-1.11.22-2.11.87-3.67,2.7-4.2,4.92-.71-1.08-1.44-.8-2.17-.03-.46.48-.93.96-1.35,1.48-.27.37-.51.75-.73,1.15.49-.2.96-.43,1.42-.69.95-.62,1.87-1.27,2.81-1.92m-323.45-132.33l-.12-.66c-5.92,1.05-11.85,2.05-17.76,3.18-3.53.68-7,1.67-10.53,2.34-4.5.85-9.09,1.3-13.55,2.33-6.47,1.51-12.79,3.57-18.91,6.15-7.15,2.98-13.13,7.68-19.03,12.49-2.94,2.4-5.49,5.28-8.29,7.87-.69.63-2.01.76-2.42,1.48-.94,1.66-2.57,2.38-3.84,3.55-2.44,2.15-4.42,4.77-5.83,7.7-1.48,3.23-2.98,6.46-4.59,9.62-2.76,5.02-4.6,10.49-5.44,16.16-.64,4.7-1.01,9.42-1.1,14.16-.02,4.95-.44,10,1.25,14.84.08.23.18.59.06.73-.98,1.24-.14,2.18.42,3.22.41.76.57,1.65.96,2.42.45.83.94,1.64,1.48,2.42.47.71,1.04,1.35,1.46,2.09.35.6.49,1.31.81,1.93.31.58.96,1.06,1.09,1.66.81,3.25,2.5,6.22,4.89,8.57,2.54,2.92,5.62,5.31,9.09,7.03,3.87,1.76,7.49,4.08,11.24,6.12,2.61,1.41,5.45,2.38,8.38,2.86,2.92.5,5.73,1.58,8.61,2.33,1.34.44,2.74.69,4.15.75,2.99-.1,5.97.3,8.83,1.18,2.27.66,4.57,1.19,6.9,1.58,1.76.34,3.55.49,5.32.76,1.26.19,2.52.46,3.78.68,1.56.27,3.11.42,4.34,1.71,1.02,1.06,2.55.79,3.71-.18.48-.31,1.05-.46,1.62-.43.67,0,1.33.1,1.97.3,1.39.31,2.72.8,3.97,1.47,1.99,1.33,3.83,2.75,6.44,2.04.41-.08.82-.09,1.23,0,3.36.47,6.71,1.01,10.08,1.43,2.24.33,4.5.5,6.77.52,2.93-.04,5.85-.5,8.78-.56,2.9-.05,5.82-1.44,8.7.06.11.06.39.03.44-.05.79-1.35,2.28-.93,3.42-1.38,1.94-.8,4.15-.63,5.95.45.78.51,1.81.47,2.55-.1.73-.4,1.55-.63,2.39-.66,2.67-.15,5.34-.17,8.02-.29,2.47-.11,4.94-.45,7.4-.37,2.46-.02,4.81,1.01,6.47,2.82,1.21,1.35,1.59,1.19,2.36-.33.2-.39.56-.67.99-.77,2.45,0,4.89.11,7.33.18.05,0,.1.04.15.04,1.22.07,2.43.16,3.65.18,1.43.02,2.87-.08,4.3-.07,3.14.04,6.27.15,9.41.16,2.06,0,4.12-.2,6.18-.18,4.48.05,8.96.2,13.43.28,3.92.07,7.85.23,11.77.12,8.18-.22,16.32,1.24,24.52.41,3.24-.33,6.57.13,9.85.24,3.7.12,7.41.27,11.12.37,2.63.07,5.32.48,7.86.03,2.43-.41,4.9-.51,7.35-.3,2.78.06,5.54.36,8.27.89,1.93.49,3.64.04,5.45-.09,1.45-.1,2.88-.42,4.32-.54,1.35-.12,2.7-.16,4.05-.13.54-.01,1.07.18,1.48.53,2.55,2.95,5.16,5.87,7.51,8.97,2.46,3.31,5.19,6.4,8.17,9.24,2.11,1.98,3.87,4.32,5.79,6.49,3.2,3.6,6.4,7.2,9.63,10.77,1.14,1.26,2.33,2.47,3.57,3.63,1.94,1.82,3.9,3.64,5.96,5.33.6.29,1.31.29,1.91,0,.25-.13.08-1.13.06-1.73-.09-.56-.14-1.12-.13-1.68.25-1.56.68-3.1.91-4.66.78-5.28,1.52-10.57,2.25-15.85.14-.81.21-1.63.22-2.45-.03-5.81.51-11.62,1.61-17.33.18-1.09.21-2.2.29-3.31.09-1.33-.05-2.76,1.55-3.38,3.28-1.27,6.65-2.36,9.84-3.85,4.87-2.29,10.21-2.75,15.29-4.21,4.57-1.24,9.23-2.07,13.95-2.47,3.81-.39,7.51-2.05,11.2-3.31,2.61-.79,5.13-1.83,7.53-3.13,5.66-3.34,10.28-8,14.86-12.65,2.38-2.42,4.71-4.9,6.91-7.48,1.35-1.66,2.58-3.4,3.69-5.22.99-1.56,1.62-3.38,2.78-4.78,2.72-3.29,3.58-7.24,4.44-11.21.28-1.41.47-2.84.55-4.27.23-3.15-1.14-5.98-2.25-8.76-1.21-3.33-2.88-6.48-4.98-9.33-2.83-3.55-6.42-6.48-9.64-9.73-4.16-4.12-8.73-7.8-13.66-10.97-5.63-3.69-11.2-7.48-17.48-10.09-3.46-1.44-6.71-3.37-10.12-4.94-4.98-2.29-10.38-3.52-15.26-6.15-2.29-1.23-5.09-1.5-7.65-2.23-.37-.15-.74-.32-1.09-.52-1.17-.59-2.39-1.09-3.64-1.48-2.75-.65-5.6-.93-8.3-1.72-2.72-.8-5.11-2.46-8.13-2.68-1.54-.11-3-1.3-4.68-.39-.1.06-.29-.04-.44-.07-2.41-.49-4.82-.94-7.22-1.46-3.86-.83-8.01-.63-11.43-3.13-.27-.16-.56-.26-.87-.29-3.65-.8-7.31-1.55-10.94-2.4-1.13-.27-2.17-1-3.31-1.17-6.3-.96-12.65-1.6-18.9-2.79-4.5-.86-8.99-1.61-13.54-2.17-6.32-.77-12.59-2-18.88-3.03-3.24-.53-6.47-1.16-9.73-1.56-3.15-.38-6.34-.46-9.51-.79-1.58-.16-3.12-.75-4.69-.85-7.18-.5-14.38-.87-21.56-1.34-2.62-.17-5.22-.59-7.84-.73-2.77-.15-5.56-.09-8.33-.16-2.47-.06-4.94-.18-7.41-.22-4.07-.06-8.14.05-12.2-.15-3.6-.18-7.18-1.08-10.76-.99-7.31.16-14.6.77-21.9,1.2-3.39.2-6.78.3-10.16.63-4.09.41-8.16,1.07-12.25,1.52-2.76.3-5.56.29-8.31.65-2.89.37-5.76,1-8.63,1.51m75.22-13.31c.92.27,1.7.5,2.48.72.63.2,1.28.36,1.93.48.25.04.54-.18.81-.28-.13-.25-.2-.64-.41-.73-1.22-.71-2.55-1.24-3.93-1.56-2.79-.31-5.63-.27-8.45-.3-1.4,0-2.79.07-4.18.21-.25.02-.47.42-.71.65.71.46,1.49.82,2.3,1.06.75,0,1.48-.17,2.17-.47.64-.19,1.23-.51,1.88-.66.68-.16,1.87-.48,2.02-.23,1.07,1.75,2.26,2.59,4.08,1.12m-77.72,10.2c2.85-.82,5.5-1.59,8.15-2.36.15-.03.29-.12.39-.24.15-.27.26-.57.33-.87-.94-.49-1.91-.93-2.89-1.33-.05-.02-.45.46-.41.65.29,1.46-.57,1.51-1.63,1.46-1.19-.06-2.52-.49-3.14,1.14-.05.14-.67.18-.98.1-1.26-.36-2.5-.81-3.76-1.18-.33-.04-.66-.03-.99.03.1.26.14.67.31.75,1.55.66,3.12,1.26,4.61,1.85m36.04-9.77c-.51-.39-1.06-.72-1.64-.98-.96-.35-1.97-.57-2.99-.66-1.91-.09-3.89-.86-5.71.4-.19.15-.36.32-.52.51.21.08.46.28.64.23,1.75-.53,3.59,1.17,5.31-.2.11-.09.42-.01.59.08.89.45,1.75.96,2.64,1.39.34.18.72.25,1.1.22.18-.03.29-.47.58-.98m-20.61,6.79c2.05-.23,3.79-.4,5.52-.63.46-.1.92-.23,1.36-.4-.43-.26-.84-.55-1.29-.77-.24-.1-.5-.14-.76-.11-1.55.17-3.11.31-4.64.59-.46.08-.84.58-1.26.88l1.06.44m36.36,159.22c-.45.25-.73.41-1.01.56.17.23.35.45.55.66.33.38.73.7,1.18.93.89.29,1.81.52,2.73.66.07.01.36-.66.34-.67-1.25-.74-2.52-1.44-3.79-2.15m7.14,1.63v-.09c.66-.01,1.33,0,1.99-.05.16-.01.3-.19.46-.29-.11-.08-.2-.21-.33-.24-1.3-.35-2.6-.73-3.92-1.01-.3-.06-.67.22-1.01.35.22.4.37,1.05.69,1.15.7.15,1.41.21,2.12.18m185.54-141.39v-.04c-.25-.05-.51-.05-.76-.01-.39.17-.76.37-1.11.59.38.21.78.39,1.19.55.52.18,1.05.31,1.6.38.45.01.9-.01,1.35-.08-.29-.5-.64-.96-1.06-1.37-.26-.2-.79-.02-1.2-.02m-124.7-21.64c-.7.18-1.03.26-1.37.37-.01,0,.02.33.08.36,1.27.54,2.55,1.06,3.84,1.55.14.05.37-.1.56-.16-.08-.23-.09-.59-.24-.67-1.01-.55-2.05-1.04-2.87-1.45m-136.16,7.38c.45-.4.83-.87,1.13-1.39.06-.17-.74-.93-.91-.86-.59.31-1.14.7-1.64,1.15.39.3.78.6,1.42,1.1m215.15,3.44l1.67-.6c-.43-.27-.86-.54-1.29-.8-.05-.02-.1-.03-.15-.03-.76.05-1.52.11-2.27.16l2.04,1.27m-120.51-10.71c.4-.27.69-.39.68-.49-.01-.23-.12-.44-.29-.6-.75-.53-1.53-1.01-2.31-1.49-.18-.06-.37-.09-.56-.07-.01.19-.11.47-.03.54.82.73,1.67,1.42,2.51,2.11m-86.91,3.56l-1.42.64c.49.34,1.02.61,1.59.79.37.07.83-.29,1.25-.46l-1.41-.98m159.64-2.4c-.44.41-.74.68-1.04.95.42.36.91.64,1.44.81.34.05.75-.46,1.13-.73l-1.53-1.03m167.15,144.44l-.16-.51c-.15-.06-.35-.22-.43-.17-.79.45-1.57.93-2.31,1.44-.07.05.1.44.16.67l2.75-1.43m-182.95,23.83l.84-.54c-.27-.18-.54-.5-.82-.51-1.09-.03-2.18.04-3.26.07l3.24.98m-138.37-2.27c-.56-.36-1.15-.67-1.76-.93-.26-.07-.61.18-.91.28.42.4.87.76,1.35,1.08.18.1.57-.17,1.32-.44m74.05,1.54l-1.6.63c.6.21,1.21.37,1.83.48.27.03.58-.26.87-.41l-1.1-.7m-17.22-173.94l1.21-.37c-.35-.22-.74-.37-1.14-.46-.63.02-1.25.09-1.87.21l1.8.62m-18.82,167.83c-.51-.37-.82-.71-.93-.66-.42.24-.81.52-1.18.84.26.14.53.4.77.37.47-.13.92-.32,1.34-.55m235.57-4.13c.44-.28.89-.56,1.33-.84-.22-.12-.49-.38-.65-.33-.53.21-1.04.45-1.54.72l.86.45m-180.03-163.73c-.71-.31-1.18-.54-1.67-.71-.06-.02-.22.24-.33.37.4.3.82.58,1.25.84.09.05.34-.22.75-.5m36.29,7.58c-.41.39-.67.64-.94.88.29.17.61.29.94.35.23,0,.46-.27.69-.42l-.69-.81m12.26.02c-.18.22-.35.44-.51.68.32.3.65.57,1.01.82.02.02.35-.31.33-.34-.22-.36-.48-.68-.83-1.16m-180.18,154.6c.53.41.94.73,1.36,1.03.12-.11.23-.23.32-.36-.37-.39-.75-.77-1.16-1.12-.18.14-.36.29-.52.45m156.62-156.86l-.78.58c.25.18.54.3.84.37.24,0,.49-.24.73-.37l-.79-.59m76.79,9.93c-.4-.24-.83-.43-1.28-.56-.25-.02-.53.18-.79.29.27.19.56.34.86.45.41,0,.81-.07,1.2-.18m-54.91-7.23c-.42-.17-.71-.38-.93-.33-.19.04-.32.39-.48.6.24.14.51.24.78.29.17,0,.33-.28.63-.55m-9.75-5.84c-.11.15-.21.31-.29.48.27.28.56.53.88.75.07.04.3-.18.45-.27l-1.04-.95m60.68,12.79c-.47-.19-.96-.36-1.46-.5-.12-.02-.28.18-.43.28.26.21.55.38.86.52.17.06.41-.11,1.03-.3m135.87,43.15c.09-.43.24-.68.16-.8-.21-.3-.47-.56-.77-.78-.05-.04-.28.15-.42.23l1.02,1.34m-275.05-58.45c-.38-.26-.77-.49-1.18-.7-.08-.04-.27.16-.41.25.29.26.6.49.92.71.09.05.31-.11.67-.25m112.54,6.69c-.18.22-.32.38-.45.54.22.18.47.32.74.42.13.02.32-.25.48-.4l-.77-.56m-117.24,162.74l.75-.36c-.24-.15-.5-.25-.78-.31-.26.04-.51.13-.74.26.24.13.48.26.76.41m-2.72-169.61l-.66.33c.22.14.47.24.72.3.18.01.38-.19.57-.29l-.63-.34m153.03,15.25c-.31-.16-.48-.33-.62-.31-.16.03-.29.22-.43.35.14.11.28.31.42.31s.32-.17.63-.36m-151.82,157.59c.05-.17.19-.39.13-.51-.13-.13-.31-.2-.5-.19-.17.04-.33.11-.48.21l.84.49m-57.57-6.04c.13-.2.29-.38.27-.4-.12-.14-.27-.25-.44-.33-.04-.02-.27.24-.25.27.12.17.26.32.42.46m39.19,2.17c.18.13.36.25.56.36.03.01.22-.22.2-.27-.06-.12-.17-.22-.3-.26-.09-.03-.21.08-.45.18m53.1,4.72c-.21-.15-.31-.27-.43-.29s-.24.06-.37.11c.1.09.19.21.3.25s.24-.03.48-.07"/><path id="Path_102" d="m190.94,629.21c-.25.12-.39.25-.53.25-.21,0-.41-.05-.59-.15-2.09-1.51-4.18-3.03-6.24-4.58-.18-.14-.12-.59-.18-.89.28.02.55.06.82.13.76.34,1.56.59,2.37.77,1.11-.05,2.08.75,2.24,1.84.35.81.84,1.56,1.45,2.2.11.15.33.23.64.44"/><path id="Path_103" d="m285.41,654.05c-1.38-.12-2.76-.22-4.14-.37-.2-.02-.37-.28-.55-.42.16-.09.32-.26.47-.25,2.44.12,4.88.25,7.32.4.12,0,.22.15.34.23-.16.09-.32.25-.48.26-.98.04-1.96.04-2.94.06v.1"/><path id="Path_104" d="m269.53,651.72c1.02.07,2.04.1,3.05.25.27.04.51.41.75.63-.3.21-.6.56-.91.58-.5-.06-1-.16-1.49-.29-.57-.06-1.15-.08-1.73-.06-.2,0-.42.19-.59.14-.67-.2-1.32-.46-1.97-.7.55-.14,1.09-.32,1.65-.42.41-.04.82-.05,1.23-.03v-.08"/><path id="Path_105" d="m175.45,608.96c.56.48,1.07,1.02,1.52,1.61.1.17-.46.76-.72,1.16-.67-.59-1.31-1.22-1.9-1.9-.14-.17.21-.73.34-1.11l.77.23"/><path id="Path_106" d="m172.51,607.12c-.35-.25-.63-.46-.92-.67.18-.15.43-.47.54-.43.35.17.67.37.97.61l-.59.49"/><path id="Path_107" d="m290.64,653.49c-.1-.25-.31-.51-.26-.69.12-.2.34-.33.57-.34.18,0,.36.22.55.35l-.86.68"/><path id="Path_108" d="m298.1,653.84c-.21.03-.42.11-.47.05-.09-.14-.15-.3-.17-.47.14,0,.31-.06.42,0s.13.23.23.42"/><path id="Path_109" d="m295.96,653.34c-.43.17-.58.28-.65.25s-.12-.21-.14-.33c0-.03.15-.13.22-.12.2.05.39.12.57.21"/><path id="Path_110" d="m529.27,659.88c-.14.02-.28.03-.42.03-.04,0-.06-.15-.09-.23.13-.04.27-.06.41-.07.03,0,.06.16.1.28"/><path id="Path_111" d="m181.55,622.79c-.03-.07-.06-.13-.09-.2,0-.01.08-.07.1-.06.07.04.13.09.18.14l-.2.12"/><path id="Path_112" d="m254.61,650.59l-.23.02c0-.07.02-.14.04-.21,0-.02.11-.02.12,0,.03.06.06.13.07.2"/><path id="Path_113" d="m264.26,652.23l-.23.09c-.02-.07-.04-.15-.05-.22,0-.02.1-.06.11-.05.06.05.11.11.16.18"/></g></g></g></svg>