<?xml version="1.0" encoding="UTF-8"?><svg id="Layer_2" xmlns="http://www.w3.org/2000/svg" viewBox="0 0 318 556"><defs><style>.cls-1{fill:#fff;}</style></defs><g id="Layer_4"><rect id="Rectangle_1" class="cls-1" width="318" height="556"/></g><g id="Layer_3"><path d="m252.54,81.88c.05.56.11.99.12,1.43.05,1.91.46,3.74,1.25,5.47.11.25.48.55.7.54.92-.06.87.5.99,1.14.22,1.13.69,2.22.88,3.35.22,1.3.33,2.64.36,3.96.04,1.59-.09,3.18-.08,4.77,0,.77.12,1.56.27,2.32.43,2.05.91,4.08,1.37,6.12.41,1.81.88,3.62,1.2,5.45.29,1.69.37,3.41.62,5.11.22,1.54.54,3.07.83,4.61.25,1.32.52,2.65.79,3.97.06.28.09.58.23.81,1.2,2.08,1.64,4.36,1.89,6.71.08.79.29,1.56.44,2.34.16,0,.32,0,.48,0,.04-.35.15-.71.1-1.04-.55-3.74-.57-7.51-.62-11.28-.03-1.85-.2-3.69-.26-5.54-.03-.89.11-1.78.08-2.67-.05-1.92-.16-3.84-.23-5.76-.07-1.99-.22-3.98-.16-5.97.06-2.38.32-4.75.47-7.13.12-1.92.2-3.85.31-5.77.06-.99.19-1.98.25-2.97.13-2.09.21-4.18.38-6.26.14-1.72.4-3.44.59-5.16.04-.34-.05-.7-.09-1.05-.07-.6-.18-1.2-.2-1.79-.04-1.44-.15-2.89,0-4.32.14-1.32.68-2.6.87-3.92.38-2.69.72-5.4.92-8.11.15-2.01.02-4.04.13-6.05.04-.74.58-1.47.59-2.2.02-1.9-.34-3.81-.16-5.69.25-2.62-.03-5.19-.17-7.78-.03-.63.15-1.26.17-1.9.01-.4-.05-.81-.14-1.2-.09-.39-.25-.76-.39-1.14-.07-.19-.11-.49-.22-.53-1.1-.35-.85-1.28-.7-1.96.18-.84.98-.96,1.78-1.05.8-.09,1.9.31,2.05-.71.78-.09,1.42-.19,2.07-.23.66-.03,1.33-.05,1.98.05.22.03.39.45.64.76.78-.23,1.7-.57,2.66-.77,1.24-.26,2.4-.22,3.71.24,1.86.65,3.87,1.18,5.92.74,1.88-.4,3.27.56,4.57,1.67.23.19.34.87.18,1.11-.52.78-.32,1.27.33,1.82.23.19.37.62.36.94-.07,3.44-.25,6.87-.24,10.3,0,1.58.45,3.15.53,4.74.09,1.61-.04,3.24-.05,4.86,0,.64.08,1.27.05,1.91-.11,2.54-.2,5.08-.37,7.62-.12,1.76-.61,3.52-.51,5.26.16,2.69-.55,5.28-.51,7.93.04,2.7.19,5.4.16,8.1-.02,1.91-.32,3.81-.41,5.72-.06,1.38.08,2.76.01,4.14-.14,2.63-.39,5.26-.55,7.9-.09,1.47-.06,2.94-.1,4.41,0,.28.01.59-.08.85-.41,1.15,0,2.27.09,3.4.04.45.15,1.01-.06,1.33-.52.77-.4,1.51-.32,2.33.05.53-.14,1.09-.23,1.63-.02.1-.11.19-.12.3-.18,1.6,0,3.15.45,4.8-.34.2-.8.47-1.26.73,0,.1.01.2.02.31.54.15,1.08.29,1.74.48-.1.19-.36.49-.43.82-.2,1.01-.52,2.05-.41,3.04.09.9.27,1.58-.16,2.56-.86,1.96-1.06,4.1-.59,6.31.35,1.64-.24,3.25-.79,4.91.8.31.79.93.41,1.84-.26.62-.13,1.39-.18,2.1-.04.59-.17,1.2-.1,1.78.06.5.34.97.58,1.61-1.08,1.33-.66,3.11-.6,4.82.05,1.55.22,3.09.31,4.63.04.7.12,1.4.04,2.09-.07.61-.33,1.19-.44,1.58.14,1.08.33,2,.37,2.94.07,1.45.39,3-.02,4.32-.52,1.7,0,3.17.17,4.73.07.67.01,1.35-.14,2.03.38.46.71.88.22,1.67-.25.41.04,1.11-.04,1.67-.17,1.24-.44,2.47-.62,3.72-.22,1.5-.38,3.01-.57,4.52-.04.35.05.78-.12,1.03-.76,1.07-.47,2.19-.25,3.29.16.86.22,1.63-.72,2.17,1.32,1.36.44,2.79.25,4.41.45.04.9.11,1.35.12.46,0,.93-.14,1.38-.07.59.09.78.41.35.97-.27.36-.42.81-.62,1.22.09.13.17.26.26.38h-3.44c.11,1.99.23,3.75.26,5.51,0,.33-.26.72-.52.97-.35.35-.81.6-1.22.89.04.12.08.23.11.35-.24-.12-.48-.34-.71-.33-.38.02-.78.16-1.13.33-.26.13-.44.39-.66.59-.23-.3-.69-.64-.65-.89.2-1.09-.59-2.38.62-3.28.12-.09.22-.42.17-.47-.79-.79-.2-1.72-.29-2.58-.07-.64-.4-.79-.94-.64-.75.2-1.42.41-1.9,1.18-.56.89-1.47,1.42-2.61,1.35-.52-1.83-1.31-2.44-3.35-2.38-1.12.03-2.23.26-3.35.39-.03.13-.07.25-.1.38-.32-.37-.64-.74-1.02-1.19-.49.94-1.07.56-1.66.28-.53,0-1.07.04-1.6,0-1.48-.12-2.96-.27-4.44-.42-.54-.05-1.08-.2-1.62-.2-.54,0-1.09.14-1.63.22.01.11.02.22.04.33.46.06.92.12,1.46.18-.44.68-.83,1.27-1.29,1.97-.48-.24-1.11-.55-1.84-.91.29-.22.54-.43,1-.78-1.97-.69-3.35-2-4.87-3.56.54-.04.79-.06.86-.06.46-1.76-.23-3.63,1.06-5.37-.36-.55-.84-1.2-1.22-1.89-.15-.28-.13-.67-.14-1.01-.02-.66,0-1.33,0-1.67-.84-.45-1.49-.81-2.17-1.17.71-.58,1.29-1.05,1.96-1.59-.58-.09-1-.15-1.67-.26.91-.72.82-1.3.24-1.93-.17-.19-.17-.53-.28-.79-.2-.48-.42-.95-.73-1.67.58-1.14-.02-2.33-.78-3.52-.17-.26-.07-.69-.1-1.04.12-.02.24-.04.35-.06.12.29.25.58.39.92.52-1.18.4-1.58-.23-1.79-.41-1.74-.65-3.38-1.21-4.9-.28-.76-.42-1.28.04-1.94.13-.19.17-.45.32-.88-.83.48-1.39.4-1.67-.5.12-.11.24-.31.42-.37.76-.28.74-.8.61-1.47-.3-1.51-.49-3.05-.8-4.56-.33-1.6-.68-3.2-1.14-4.76-.97-3.26-2.13-6.47-2.99-9.76-.81-3.13-1.83-6.18-2.9-9.22-.81-2.32-1.25-4.77-1.87-7.16-.09-.34-.23-.66-.35-1-.45-1.26-.9-2.51-1.35-3.77-.16-.45-.3-.9-.66-1.34-.24,1.16-.48,2.32-.72,3.51-1.02-.14-.15-1.76-1.7-1.21.06-.12.12-.24.18-.35.19-.16.37-.35.59-.48,1.06-.63,1.17-1.17.37-2.13-.2-.25-.48-.44-.65-.7-.17-.26-.24-.57-.58-1.07-.04.14-.06.29-.12.43-1.13,2.81-2.82,5.37-3.41,8.44-.52,2.74-1.17,5.53-2.29,8.06-1.87,4.21-3.04,8.76-5.86,12.53-.2.26-.1.73-.2,1.09-.06.22-.18.45-.34.6-.07.07-.43,0-.46-.07-.38-1.03-1.23-.56-1.91-.62-.3-.03-.6-.06-.9-.1.08-.32.1-.68.25-.96.52-.96.27-1.71-.71-2.11-.24-.1-.43-.32-.66-.46-.61-.39-1.27-.72-1.83-1.18-.42-.35-.98-.85-.99-1.29-.03-1.72-1.08-2.89-1.93-4.17-.8-1.2-1.67-2.37-2.58-3.49-1.04-1.28-2.03-2.67-3.29-3.7-1.38-1.13-3.05-1.9-4.59-2.82-.28-.17-.58-.33-1.02-.59.58-.41,1-.7,1.22-.86-.16-1.42-.3-2.67-.43-3.92-.08,0-.17-.01-.25-.02-.14.33-.28.65-.42.98-.05,0-.11,0-.16-.01,0-1.04,0-2.07,0-3.11,0-.93.16-1.91-.09-2.78-.48-1.64-.77-3.23-.41-4.93.16-.75.04-1.55.07-2.32.04-.94.14-1.88.15-2.82,0-1.25-.11-2.43.18-3.74.36-1.62-.15-3.44-.26-5.18-.04-.7.02-1.41-.04-2.11-.07-.81-.25-1.61-.31-2.41-.08-.96-.07-1.93-.14-2.89-.08-1.05.05-2.21-.36-3.13-.74-1.64-.67-3.3-.72-5-.02-1.02-.17-2.03-.28-3.04-.15-1.4-.68-2.71-.21-4.24.32-1.02-.21-2.29-.28-3.46-.09-1.43-.07-2.87-.13-4.3-.03-.74-.09-1.47-.19-2.2-.2-1.48-.46-2.95-.65-4.42-.04-.3.03-.66.18-.93.7-1.28.28-2.45-.17-3.68-.26-.72-.19-1.57-.27-2.35-.08-.73-.19-1.46-.24-2.19-.04-.59.01-1.19-.01-1.79-.08-2.08-.14-4.17-.28-6.24-.08-1.29-.3-2.58-.41-3.87-.03-.3.16-.61.19-.92.07-.81.12-1.62.16-2.43.04-.81.05-1.63.08-2.44.1-2.29-.05-4.53-1.53-6.43-.29-.38-.79-.58-1.18-.9-.15-.12-.33-.34-.31-.49.02-.14.25-.33.42-.38.67-.2,1.64.21,1.77-1.01.08-.71.33-1.4.45-1.89.56-.21,1.07-.42,1.6-.6.26-.09.55-.14.83-.14,1.31.03,2.61.1,3.92.12.45,0,.91-.18,1.36-.15.78.06,1.55.21,2.31.34.31.05.61.22.92.24,3.51.17,7.02.32,10.53.46,1.76.07,3.54.04,5.29.18,1.2.09,2.45.09,3.41,1.12.28.3.95.22,1.39.42.24.11.39.44.58.67-.26.13-.52.27-.78.39-.74.36-1.5.7-2.22,1.1-.12.07-.14.39-.13.59.09,2.76.2,5.52.3,8.28.01.39.02.78.05,1.17.24,3.57.55,7.13.68,10.7.06,1.62-.28,3.25-.38,4.88-.05.81.05,1.63.02,2.44-.05,1.48-.13,2.95-.2,4.43-.03.53-.09,1.06-.09,1.59.01,1.73.07,3.46.06,5.19,0,1.55-.12,3.11-.13,4.66,0,1.48.08,2.97.13,4.45.02.53.02,1.06.03,1.59.02,1.8.01,3.61.05,5.41.02,1.17.13,2.34.15,3.52.02.89-.07,1.77-.05,2.66.05,2.27.12,4.54.2,6.81,0,.08.12.15.3.35,2.27-6.34,4.64-12.54,7.87-18.39.29-.53.55-1.07.87-1.58.5-.8,1.07-1.55,1.55-2.35,1.06-1.76,1.97-3.63,3.15-5.3.96-1.36,5.14-2.11,6.6-1.23,1.54.92,3.08,1.97,2.9,4.18-.03.41.28.85.46,1.26.28.64.6,1.26.89,1.89.31.69.61,1.38,1.74.8Zm-31.89-40.63c-.09-.03-.18-.06-.27-.1-.1.27-.27.53-.28.8-.07,1.56-.08,3.12-.15,4.68-.03.63-.14,1.26-.21,1.89-.03.65.11,1.33.19,2.01.29,2.47.59,4.94.81,7.41.11,1.19.09,2.39.06,3.58-.03,1.26-.18,2.52-.22,3.79,0,.23.27.47.42.71.23-.21.65-.41.67-.64.06-.69-.01-1.4-.06-2.1-.12-1.81-.33-3.61-.35-5.41-.02-1.2.39-2.42.32-3.61-.24-4.34-.61-8.67-.92-13.01Zm25.42,47.34c-.7-.07-2.08.97-2.12,1.6-.01.18.1.44.24.54,1.15.81,1.11,1.97.92,3.15-.15.93.39,1.73,1.54,1.98,0-1.24.06-2.46-.02-3.67-.07-1.1-.62-2.19.24-3.27.17-.22-.12-.81-.2-1.23-.1.02-.21.03-.31.05-.1.29-.2.58-.29.85Zm34.08-51.58c-.74.27-1.66,2.19-1.49,2.95.12.52.1,1.08.12,1.62.02.53-.02,1.05.03,1.58.05.48.18.95.32,1.64.29-.12.85-.19.93-.43.3-.83.63-1.73.61-2.6-.04-1.57-.33-3.13-.52-4.76Zm-39.98,74.39c.07-.41.25-.78.15-1.01-.45-.97-.48-1.82.46-2.49.4-.28.88-.45,1.36-.69-.27-.29-.57-.62-.88-.95-.32.2-.58.35-.98.6-.05-.81-.09-1.47-.12-2.14-.1,0-.2,0-.3,0-1.11,2.19-.9,4.63-1.12,6.99,1.95.87,2.54.8,3.43-.49-.7.07-1.34.13-2,.2Zm34.94-5.11c-.92-.12-1.06.15-.99.95.07.76-.27,1.55-.45,2.33-.06.24-.19.47-.41,1,1.31-.85,2.36-1.48,3.34-2.21.19-.14.21-.65.14-.95-.03-.13-.5-.18-.77-.21-.26-.03-.53.02-.86.03v-.94Zm-62.69-56.65c.16.02.32.04.47.06.14-1.03.55-2.11.36-3.08-.2-.99-.29-1.82.08-2.77.25-.64.44-1.4-.39-2.2-.16,2.81-1.35,5.35-.52,7.99Zm73.68-9.07c-.11-1.04-.21-2.07-.32-3.09-.72.72-2,1.05-1.33,2.37.06.12-.3.42-.42.65-.07.14-.13.42-.07.47.14.1.37.17.54.12.56-.15,1.11-.36,1.6-.52Zm-5.64,49.3c-.01-.09-.03-.18-.04-.27-.48.41-.96.82-1.44,1.23.05.14.09.28.14.42,1.09-.06,2.2-.04,3.27-.23.42-.07.76-.61,1.13-.93-.06-.13-.12-.26-.18-.38-.46.11-.92.28-1.38.3-.49.03-.99-.09-1.49-.14Zm-1.98-7.71c-.52-.04-.69-.09-.85-.05-1.46.28-2.29,1.41-2.34,2.91-.02.47-.44.94-.72,1.39-.1.17-.32.26-.57.47,1.51.24,2.42-.7,2.17-2.02-.24-1.27.32-2,1.63-2.17.15-.02.29-.21.68-.53Zm5,127.79c.18.01.37.03.55.04.27-1.92.55-3.83.83-5.83-.85-.04-1.17.11-1.17.87,0,1.22-.14,2.44-.21,3.66-.02.42,0,.83,0,1.25Zm-6.68-109.39c-.82.84-1.54,1.54-2.2,2.29-.15.17-.13.49-.18.74.27.04.55.16.8.11,1.24-.25,1.86-1.36,1.59-3.14Zm-55.95,13.62c.72-.55,1.55-.95,2.01-1.61.49-.7.64-1.65.95-2.54-.75-.13-1.08.44-1.33,1.08-.15.38-.12.99-.38,1.14-.28.17-.8-.08-1.25-.15v2.07Zm2.05,1.08c.48,0,1.96-1.58,1.84-2.04-.04-.15-.41-.38-.5-.33-.7.38-1.46.72-2.02,1.25-.46.44-.01,1.1.68,1.11Zm-9.52-61.63c.08-.05.17-.1.25-.15-.04-.38-.1-.76-.13-1.13-.03-.39.06-.81-.07-1.15-.12-.3-.45-.57-.75-.74-.09-.05-.55.26-.57.45-.08.59-.13,1.21-.01,1.78.04.2.62.27.92.45.16.1.24.33.36.5Zm37.45,61.55c.3.11.71.31,1.14.43.56.16.86-.1.74-.66-.17-.86-.42-1.7-.64-2.55-.08,0-.17-.01-.25-.02-.32.89-.63,1.77-1,2.79Zm-6.59-29.07c-.08.04-.16.08-.24.12.25.34.49.69.74,1.03.45-.44.99-.82,1.28-1.34.08-.15-.5-.95-.87-1.02-.83-.17-1.07.43-.91,1.21Zm41.85-25.05c.36-1.37.65-2.51.94-3.65-1.38.14-2,2.05-.94,3.65Zm-64.47,32.9c-.86.51-1.5,3.05-1.11,3.49.09.1.61.02.62-.03.18-1.08.32-2.17.49-3.46Zm-5.26-53.4c.11-.03.22-.06.33-.1,0-.8.06-1.61-.03-2.41-.03-.24-.45-.44-.7-.65-.17.23-.53.51-.48.67.24.85.58,1.66.88,2.49Zm-9.53-3.86c-.74.4-1.23,1.64-1,2.63.05.22.31.39.48.58.23-.23.65-.45.66-.68.03-.82-.08-1.64-.13-2.53Zm37.78,43.73c-.56.56-.72,1.08-.11,1.63.55.5,1.07.97.37,1.74-.06.07,0,.37.1.44.1.08.42.1.46.03.18-.3.48-.71.39-.96-.32-.96-.78-1.89-1.21-2.89Zm36.77,13.53c.44.43.9.93.94.9.45-.34.83-.77,1.23-1.18-.35-.24-.71-.69-1.04-.67-.34.03-.64.52-1.12.94Zm-77.61,36.64c-.22.63-.39,1.14-.61,1.78,1.04-.33,1.88-.59,2.72-.86.02-.12.04-.24.06-.36-.7-.18-1.4-.36-2.17-.56Zm72.63,25.11c-.77-.34-1.29-.58-1.98-.89-.21.1-.65.31-.93.44.52.47.99.88,1.48,1.32.42-.26.89-.54,1.43-.88Zm.98-6.03c-.95-.13-1.82.28-1.81.91,0,.23.35.63.54.63,1.03-.02,1.37-.47,1.27-1.54Zm-2.39-10.63c.85,1.25,2.12,1.17,3.28,1.2.6.02.78-.52.23-.86-.6.11-1.16.17-1.72.1-.61-.08-1.2-.29-1.79-.44Zm8.73-2.97c.12-.01.23-.03.35-.04.06-.39.18-.79.15-1.17-.03-.37-.22-.73-.35-1.1-.39.13-.78.26-1.2.41.43.77.74,1.33,1.05,1.9Zm-7.85-9.81s.16-.03.18-.09c.22-.85.46-1.69.6-2.55.02-.12-.45-.32-.69-.49-.15.23-.43.46-.42.68.05.82.21,1.63.32,2.46Zm5.63-34.12c-.93.35-1.54.57-2.31.86.78.49,1.32.83,2,1.26.1-.72.18-1.24.31-2.12Zm-38.72-15.83c-.44.81-.82,1.51-1.29,2.36,1.82-.22,2.21-.95,1.29-2.36Zm-34.3-16.23c-.11,0-.22,0-.33,0-.19.28-.51.54-.55.84-.05.37.11.79.25,1.15.04.1.51.17.54.12.18-.31.39-.66.4-1,0-.37-.19-.75-.3-1.13Zm67.26,82.74c.16-.53.3-1.02.4-1.37-.79-.14-1.38-.25-2.01-.37v.84c.52.29.93.52,1.6.89Zm8,8.02c-.87.4-1.22.9-1.07,1.64.04.21.29.53.46.53.2,0,.56-.24.59-.42.08-.52.03-1.07.03-1.76Zm1.63-63.62v3.51c.75-.77.72-2.63,0-3.51Zm-70.17-10.97c-.2-1.03-.37-1.89-.53-2.76-.84,1.46-.69,2.23.53,2.76Zm5.36,24.54c.33.89.58,1.57.84,2.25l.3-.08c-.03-.5-.02-1-.09-1.5-.04-.32-.2-.63-.3-.95-.31.11-.61.23-.75.28Zm-12.12-31.56c-.11.14-.18.22-.23.31-.1.2-.2.4-.26.61,0,.02.27.2.33.16.19-.12.41-.28.48-.47.27-.76.26-1.45-.61-1.84q-.5.59.29,1.24Zm69.9,72.61c-.07.83-1.21,1.08-.53,1.93.11.14.63.18.71.07.44-.55.57-1.17-.18-1.99Zm7.38-44.56c-.09-.17-.18-.35-.27-.52-.5.2-1,.39-1.49.59.13.31.27.62.4.93.45-.33.91-.66,1.36-1Zm-63.89,20.38c.19-.06.38-.11.58-.17-.1-.44-.13-.91-.33-1.3-.06-.11-.59.02-.91.04.22.47.44.95.66,1.42Zm16.74-30.87c-.17-.08-.33-.17-.5-.25-.43.91-.85,1.81-1.28,2.72.12.06.24.12.37.18.47-.88.94-1.76,1.41-2.65Zm41.92-24.3c-.27-.93-.5-1.68-.8-2.68-.65,1.12-.4,1.82.8,2.68Zm-41.01,23.44c.28-.74.49-1.28.74-1.93-1.25.15-1.47.7-.74,1.93Zm34.9,5.66c.04.06.07.13.11.19.47-.26,1.02-.44,1.37-.81.15-.16-.14-.72-.28-1.32-.53.86-.87,1.4-1.2,1.94Zm4.18-37.54c.12-.03.59-.03.67-.2.34-.7.34-1.42-.29-2.12-.13.76-.23,1.41-.38,2.32Zm.36,33.07c.22-.3.51-.58.46-.68-.14-.27-.4-.63-.65-.66-.24-.04-.54.29-.81.46.29.26.58.52,1,.89Zm-38.88,11.57c.09-.19.18-.38.27-.56-.45-.21-.89-.44-1.35-.62-.03-.01-.21.36-.32.55.47.21.94.42,1.41.63Zm41.45,48.65c.53.53.95.95,1.63,1.62-.19-.76-.23-1.33-.5-1.76-.08-.14-.76.09-1.13.14Zm-4.33-57.32c.13.74.22,1.27.32,1.79.19-.1.49-.15.56-.31.27-.6.09-1.06-.88-1.48Zm-29.21,17.64c.03-.11.06-.22.08-.33-.53-.19-1.07-.38-1.6-.56-.05.14-.1.28-.14.42.35.75.96.75,1.66.47Zm27.93,13.66c-.5-.24-.76-.46-1-.44-.25.02-.49.27-.73.43.2.22.41.6.61.61.28,0,.57-.28,1.12-.59Zm7.76,23.23c-.13-.02-.27-.05-.4-.07-.14.32-.42.66-.37.95.05.25.47.44.72.65.08-.06.16-.11.23-.17-.06-.45-.12-.91-.18-1.36Zm-5.29-29.29c-1.05.47-1.17,1.3-.42,2,.03-.02.08-.03.08-.05.11-.61.21-1.22.34-1.95Zm4.88-53.25c-.08-.21-.15-.43-.23-.64-.45.19-.91.39-1.35.6-.01,0,.13.41.16.4.48-.1.95-.23,1.42-.36Zm-4.66,73.38c-.38.44-.67.78-1.08,1.27,1.61.03,1.73-.11,1.08-1.27Zm-.49-35.06c.07.11.14.21.21.32.85.13,1.06-.51,1.31-1.1-.06-.08-.12-.16-.18-.23-.45.34-.9.68-1.34,1.01Zm-28.14,10.32c-1.02.37-1.25.94-1.3,1.62.12.07.24.13.36.2.28-.55.56-1.1.94-1.83Zm16.25,44.53c.1-.65.17-1.14.27-1.81-1.13.57-.99,1.08-.27,1.81Zm10.2,4.68c-.15-.02-.3-.03-.45-.05-.08.47-.15.95-.23,1.42.16-.01.44,0,.45-.05.1-.44.16-.88.23-1.32Zm-12.47,14.52c-.01-1.15-.59-.99-1.52-.76.67.34,1.1.55,1.52.76Z"/><path d="m62.33,31.36c-.67.18-1.33.36-2.04.55.3,1.16.47,2.22,1.69,3.11,1.12.83,1.7,2.42,2.46,3.71.6,1.01,1.05,2.06,2.33,2.54,1.03.39,1.91,1.14,1.63,2.52-.02.11.09.26.16.38,1.21,2.1,2.42,4.19,3.64,6.29.04.06.06.15.11.18,1.83.95,1.95,3.05,3.03,4.52.94,1.28,1.42,2.9,2.1,4.37.07.16.1.39.23.46,1.47.89,1.9,2.47,2.69,3.83.8,1.37,1.83,2.6,2.76,3.89.19.26.54.49.56.76.14,2.22,2.14,3.35,2.97,5.16.12.25.34.46.48.7.84,1.5,1.75,2.97,2.46,4.53.31.68.18,1.55,0,2.3.21.19.53.34.62.57.26.64.58.91,1.31.67.19-.06.64.25.77.49.23.43.42.94.43,1.42.02.77.26,1.24,1.02,1.53.27.1.39.61.58.93.49.8.97,1.61,1.47,2.4.5.8,1.11,1.54,1.53,2.37.85,1.65,1.59,3.35,2.41,5.01.13.27.5.42.67.68.35.54.66,1.12.97,1.69.25.47.47.95.67,1.44.57,1.36,1.13,2.72,1.68,4.09.12.3.19.61.28.92.1-.01.2-.03.29-.04l.09-1.13c.08-.01.17-.03.25-.04.24.92.48,1.84.72,2.76.04.14.02.33.11.4,1.33,1.05,1.22,2.74,1.83,4.1.19.43.57.78.88,1.15.74.86,1.5,1.7,2.26,2.56.08,1.06.06,2.29.32,3.45.13.58.78,1.05,1.21,1.56.06.07.25.1.25.15-.02,1.39,1.25,1.47,2.04,2.03.08.05.11.18.2.34-.28.15-.54.28-.86.46.12.24.32.46.3.66-.03.3-.16.75-.36.83-.49.18-1.1.37-1.56.22-1.21-.4-2.17.26-2.78.92-.89.97-1.71,1.8-2.94,2.42-.78.39-1.21,1.4-2.39,1.44-.56.02-1.12.68-1.62,1.12-1.32,1.16-2.63,2.33-3.88,3.56-1.08,1.06-2.18,1.96-3.79,2.11-.63.06-1.22.51-1.61.69-.61-.18-1.36-.52-1.44-.41-.38.57-.59,1.25-.86,1.91-1.55-1.14-2.78-2.83-3.71-4.81-.61-1.3-1.51-2.47-2.21-3.74-.35-.64-.52-1.38-.82-2.06-.26-.61-.56-1.2-.88-1.78-1.06-1.92-2.13-3.82-3.2-5.74-.07-.12-.08-.29-.17-.39-1.77-1.92-2.33-4.56-3.94-6.58-1.01-1.27-1.52-1.38-3.01-.78-1,.4-2.1.55-3.13.87-.98.3-1.93.68-2.9,1.02-1.46.52-2.91,1.08-4.39,1.52-1.51.45-3.06.73-4.57,1.19-1.39.42-1.7,1.6-.75,2.69,1.17,1.33.82,2.88.6,4.37-.06.38-.74.66-1.23,1.07.15.27.34.6.5.94.24.49.7.99-.13,1.43-.12.06-.07.49-.05.75.07.94.17,1.87.23,2.81.08,1.2.04,2.42.22,3.61.18,1.21.42,2.32-1.48,2.52,2.03.06,1.45,1.54,1.56,2.47.14,1.08.03,2.19-.05,3.28-.18,2.37-.41,4.73-.61,7.09-.02.21-.06.43-.03.64.6,4.69-.1,9.35-.2,14.03-.02,1.03.11,2.06.13,3.08.03,1.83-.02,3.67.05,5.5.08,2.31.37,4.61.36,6.91-.02,3.51-.27,7.02-.32,10.54-.03,2.06.27,4.12.22,6.17-.05,1.66.3,2.96,1.66,4.03.31.24.28,1.1.17,1.63-.11.56-.09.79.47,1.06.78.38,1.47.94,2.5,1.63-.62.24-.99.47-1.37.52-1.48.2-2.96.32-4.44.52-.4.05-1.07-.14-.98.68-.53-.03-1.08.01-1.58-.12-.68-.19-1.33-.73-1.99-.74-3.55-.02-7.11,0-10.65.18-1.58.08-3.13.59-4.7.85-1.1.18-2.22.27-3.34.37-.21.02-.43-.14-.87-.29,1.46-.34,2.68-.62,3.91-.9,0-.11,0-.22,0-.34-.34-.05-.68-.16-1.01-.14-2.12.13-4.25.27-6.37.45-.58.05-1.03.05-1.33-.57-.1-.19-.51-.23-.86-.37,1.58-1.63,1.17-3.7,1.21-5.68.08-3.98.17-7.96.22-11.94.01-.98-.17-1.97-.13-2.95.15-3.61.52-7.22.5-10.84-.02-4.92-.35-9.83-.51-14.75-.19-5.68-.33-11.36-.53-17.04-.1-2.88-.33-5.75-.43-8.63-.11-3.46-.18-6.93-.16-10.39,0-.58.54-1.17.88-1.72.2-.32.67-.57.7-.89.18-1.82.45-3.66.36-5.47-.17-3.42-.57-6.83-.86-10.24-.12-1.34-.33-2.7-.26-4.03.05-.98.02-1.9-.08-2.88-.12-1.18.3-2.41.44-3.62.06-.5,0-1.02,0-1.52-.1-.1-.2-.21-.3-.31-.41.62-.83,1.23-1.28,1.9-.17-2.8-.37-5.33-.46-7.86-.03-.94.28-1.89.29-2.83,0-1.27-.16-2.54-.18-3.82-.01-1.02.08-2.04.14-3.05.02-.39.12-.78.11-1.16-.07-1.77-.16-3.53.32-5.26.04-.13.04-.29,0-.42-.85-3.44.2-6.82.64-10.15.67-5.09.89-10.17.74-15.27-.1-3.19-.53-6.37-.86-9.54-.06-.53-.4-1.04-.65-1.65.81.08,1.41.14,2.08.21-.12-1.28-1.11-1.32-1.89-1.93.39-.12.77-.35,1.16-.36,1.88-.05,3.76-.02,5.64-.07.78-.02,1.55-.21,2.33-.25,1.58-.08,3.17-.11,4.76-.15.5-.01,1.01.08,1.49-.03,2.68-.59,5.37-.26,8.07-.25,1.24,0,2.47-.21,3.71-.34.56-.06,1.12-.24,1.68-.25,1.98-.02,3.97-.03,5.95.05.53.02,1.05.39,1.57.6,0,.16-.02.32-.03.47Zm-18.47,118.56c-.23.39-.47.79-.77,1.3.58.08.92.13,1.26.18.09-.07.18-.13.27-.2-.26-.42-.51-.85-.77-1.27.58-.75,1.46-1.38.95-2.63-.34.31-.58.69-.8,1.07-.12.2-.16.49-.33.62-.65.49-.14.68.2.93Zm-6.43-60.67c-1.03.55-.81,1.39.7,2.51-.41,1.09-1.24.55-1.94.43-.46.77-.18,1.12.55,1.36,1.17.4,1.55,2.1.62,2.9-.56.48-.49.84-.14,1.36.25.36.43.77.64,1.16-.09.06-.17.11-.26.17-.15-.07-.31-.21-.46-.2-.4.01-.8.09-1.2.13.07.35.15.7.19,1.05.12.93.24,1.87.32,2.8.06.7-.03,1.42.12,2.09.17.75.03,1.24-.66,1.58-.19.09-.34.28-.59.49.27.15.41.26.57.3.36.09.73.14,1.1.21.03-.37.06-.74.09-1.11.02-.31-.1-.78.06-.92.83-.69.39-1.53.37-2.32,0-.32.04-.64.05-.88.62.16,1.11.3,1.61.43.05-.12.1-.24.16-.37-.55-.4-1.11-.8-1.66-1.19-.25-.18-.52-.34-.78-.51.2-.19.39-.4.6-.58.32-.29.87-.52.94-.85.2-1.08.23-2.2.33-3.34.55-.09,1.13-.19,1.79-.31-.15-.23-.18-.32-.23-.34-.13-.04-.28-.06-.42-.05-1.28.04-1.54-.24-1.37-1.54.08-.6.25-1.19.27-1.79.01-.3-.2-.87-.32-.87-1.4-.04-1.06-1.03-1.07-1.84,1.17-.2,1.32-.53.67-1.46-.81.23-.6.91-.65,1.48Zm27.89-2.56c-.05-1.89-1.17-3.04-2.32-4.23-.9-.93-1.64-2.02-2.44-3.05-.37-.47-.68-.99-1.06-1.45-.68-.82-1.46-1.56-2.09-2.42-.42-.57-.54-1.37-.98-1.93-.83-1.06-1.77-2.04-2.68-3.03-.21-.23-.5-.38-.79-.6-.15,1.36-.3,2.55-.4,3.74-.12,1.4-.24,2.8-.3,4.2-.03.67.18,1.36.09,2.01-.33,2.34-.47,4.65.45,6.9.03.06.01.14.02.21.1.75.46.9,1.19.7.69-.18,1.44-.2,2.15-.15.91.06,1.84.47,2.71.35,2.15-.3,4.27-.82,6.46-1.26Zm-30.74,65.23c-.04.08-.08.16-.12.24.14.25.22.56.42.73.23.2.65.2.85.41.23.25.3.63.45.96-.28-.02-.56-.03-.84-.07-.41-.06-.81-.14-1.22-.22.03.29.1.39.18.41,1.48.39,1.49.44,1.48,1.99,0,.24.35.61.62.71.45.17.96.18,1.45.25-.46.48-.95.67-1.36.97-.18.13-.23.48-.26.75-.01.1.21.23.33.35.17-.19.34-.39.52-.58.16-.17.3-.47.47-.5,1.08-.17.88-.86.77-1.6-.11-.71-.09-1.43-.13-2.17-.21.06-.57.17-1.19.35.22-.5.28-.87.5-1.05.22-.19.6-.21.91-.3.1-.16.19-.33.29-.49-.44-.16-.87-.31-1.32-.47.9-.56,1.51-.93,2.13-1.32q.59,1.62,1.25,1.63c-.15-.54-.29-1.07-.41-1.51.47-.02.92.08,1.24-.09.41-.21.7-.63,1.11-1.03-.91-.57-2.3,1.03-3.1-.58-.22.44-.34.68-.45.92-1.02-.51-1.74-.33-2.41.58-.53.72-.99,1.55-2.15.7Zm7.3,25.26c-.52,1.46-.16,2.53.84,3.35,1.07-.95,2.08-1.85,3.09-2.75-.07-.1-.13-.19-.2-.29-.75.22-1.5.44-2.29.67-.17-.42-.34-.83-.49-1.2.5-.33.94-.62,1.44-.96.35.28.78.61,1.21.94.1-.07.19-.13.29-.2-.15-.28-.23-.71-.45-.8-.69-.29-.56-.63-.3-1.17.15-.29.03-.72.03-1.08-.11-.02-.22-.04-.33-.06-.22.47-.38.97-.68,1.38-.16.22-.58.46-.81.4-1.26-.31-2.62.29-3.16,1.49-.02.04.05.12.11.26h1.7Zm20.6-112.08c-.36-.5-.6-1.02-1.01-1.33-.16-.12-.96.19-.97.34-.03.49.02,1.1.3,1.48,1.12,1.58,2.32,3.1,3.53,4.62.5.63,1.11,1.18,1.67,1.77l.29-.24c-1.21-2.12-3.41-3.81-2.9-6.7-.43.04-.73.06-.9.08Zm-27.9,79.69l.06.32c.29,0,.58,0,.87,0,.32,0,.64-.06.96-.03,1.17.11,2.1-.46,1.94-1.57-.19-1.33.59-1.53,1.45-1.88.85-.34.92-.6.42-1.68-.15.4-.18.79-.38.92-.47.31-1.03.48-1.56.71-.14-.41-.45-.84-.39-1.22.12-.68.45-1.33.76-2.15-.11-.04-.37-.18-.64-.18-.11,0-.3.28-.32.45-.2,1.37-.4,2.74-.53,4.11-.1.98-.61,1.55-1.5,1.84-.37.12-.75.24-1.12.35Zm8.97,23.59c-.46-.03-.73-.05-.93-.06-.15-.56-.29-1.06-.48-1.75-.68.81-.47,1.38-.16,1.95.34.63.35,1.11-.43,1.45-.29.13-.48.5-.72.76,1.83-.31,1.27,1.37,2.19,1.82-1.4.17-2.52.3-3.64.43.92.35,1.78.66,2.65.74.5.04,1.09-.23,1.52-.53.11-.08-.16-.81-.35-1.2-.27-.57-.59-1.06-.18-1.76.29-.5.34-1.13.54-1.84Zm-3.55-34.51c.59-.39,1.23-.57,1.35-.94.18-.54.21-1.35-.08-1.77-.62-.89-.31-1.31.49-1.61.75-.28.8-.68.29-1.16-.41-.11-.86-.25-.98-.53-.15-.37-.04-.85-.04-1.38-.39.12-.73.22-.78.23.05,1.02.42,2.05.06,2.59-.61.92-.47,1.7-.33,2.62.08.5.01,1.03.01,1.94Zm58.73-2.23c2.4-.42,4.11-1.66,5.46-3.51-.7,0-1.51-.03-1.94.37-.72.66-1.43,1.02-2.1.91-.3.46-.52.78-.72,1.11-.23.37-.46.75-.69,1.13Zm-32.2-69.06c.3.52.51.9.74,1.28.26.43.51.86.79,1.27.61.93.59,2.55,2.28,2.09.28.46.49.82.7,1.17.38-.95-.13-1.42-.78-1.74-.69-.34-.98-.83-1-1.6-.03-1.35-1.06-2.36-2.73-2.48Zm-22.28,93.28c.04-.22.05-.31.07-.41.07-.35.14-.71.21-1.06-.33-.04-.76-.22-.97-.08-.25.16-.35.6-.44.94-.08.3.05.72-.11.91-.88,1.02-.26,2.08-.13,3.11.04.32.5.59.77.88.19-.29.22-.37.19-.42-1.16-1.88-.83-2.75,1.31-3.48.19-.07.33-.3.5-.45-.04-.05-.09-.1-.13-.15-.4.07-.79.13-1.26.21Zm-3.2-32.69c.12-.37.19-.49.2-.61.06-.73-.21-1.64,1.01-1.69.08,0,.24-.34.19-.42-.13-.22-.32-.47-.54-.56-.31-.13-.68-.14-1.02-.16-.42-.03-1.01-.21-1.23,0-.28.26-.25.84-.36,1.28.08.03.17.05.25.08.15-.12.3-.23.37-.29.36.76.69,1.46,1.13,2.38Zm5.68-39.49c.29-1.12.64-1.98.7-2.85.06-.89-.04-1.85-1.06-2.42-.11.76-.03,1.49.05,2.21.03.24.14.6.03.71-.71.71-.37,1.34.28,2.34Zm.01-31.89c.21,1.25,1.39,1.48,2.07,1.5.91.03,2.06-.15,2.88-1.16-1.75-.12-3.32-.23-4.95-.34Zm-7.84,63.22c1.16-1.19,1.08-2.63-.36-4.05.16.7.25,1.12.38,1.71-.4-.03-.75-.08-1.11-.07-.23,0-.46.1-.69.15.15.22.3.62.46.63.71.03.88.44.96,1.03.03.18.2.35.36.6Zm-2.03-34.84c-.16.05-.27.05-.36.11-.33.21-.64.44-.96.66.23.2.48.39.68.62.18.2.3.45.54.83.45-.98,1.14-1.3,2.18-.98-.67-.77-1.34-1.55-2.02-2.33-.02.31-.04.65-.07,1.08Zm-4.6,1.58c.81-.3,1.44-.57,1.18.57-.04.18.15.41.24.61.17-.17.48-.34.49-.52.02-.35-.1-.71-.23-1.05-.17-.45-.43-.86-.6-1.3-.17-.44-.26-.91-.39-1.36-.15,0-.3,0-.45.01-.08.96-.15,1.92-.24,3.04Zm37.93-7.54c.05.13.09.26.14.39.75.37,1.08,2.16,2.57.56-.44-.53-.79-1.2-1.34-1.53-.25-.15-.9.36-1.37.57Zm-36.11,97.66c-.11.97.07,1.49.99,1.55.29.02.56.25.85.34.45.15,1.03.5,1.33.34.54-.3.91-.9,1.36-1.38-.08-.07-.15-.13-.23-.2-1.83.93-3.19.77-4.29-.65Zm5.81-37.27c.68.84.21,1.37-.56,1.76.76,1.12.83,1.11,1.84-.04-.07-.28-.15-.57-.22-.85.3-.02.59-.04.89-.06-.1-.97-.7-1.24-1.95-.8Zm40.12-48.95c-1.11,1.27-1.33,3.64-.33,4.27-.1-1.46,1.26-2.7.33-4.27Zm5.31,13.9c.16-.09.32-.19.48-.28-.19-.35-.39-.7-.58-1.05-.36-.65-.75-1.29-1.08-1.96-.12-.24-.04-.59-.18-.82-.09-.16-.39-.28-.58-.26-.21.02-.46.19-.58.37-.07.11.03.39.13.55.24.37.53.69.78,1.05.54.79,1.07,1.6,1.61,2.4Zm-30-60.13c.73.16,1.32.44,1.86.36.5-.08.94-.54,1.41-.84-.59-1.03-2.27-.97-3.27.48Zm-22.16,29.89c-.12.02-.23.03-.35.05-.16,1.03-.34,2.05-.44,3.09-.02.18.32.4.52.57.03.02.34-.17.36-.29.14-.83.29-1.66.33-2.49.01-.3-.27-.61-.42-.92Zm13.59,5.96c.1-.02.2-.05.3-.07.05-.12.16-.24.15-.36-.07-1.22-.11-2.44-.29-3.65-.04-.28-.55-.5-.85-.74.29,1.3.25,1.29.21,3.29-.01.5.31,1.02.47,1.53Zm43.75,48.25c.11-.05.22-.1.32-.15.11-.72.51-1.58.24-2.11-.27-.53-1.21-.73-1.85-1.07-.03.08-.06.16-.09.23.46,1.03.92,2.06,1.38,3.1Zm-53.02,22.66c.03.29.01.52.06.53.79.25,1.59.66,2.37.63.29-.01.56-1.03.8-1.61,0-.02-.34-.29-.48-.26-.2.04-.44.21-.54.39-.1.19-.06.46-.09.82-.73-.17-1.38-.32-2.12-.5Zm44.3-52.57c.12-.03.25-.07.37-.1.09-.63.18-1.26.27-1.94-1.41.47-1.15-1.46-2.45-1.35.63,1.19,1.22,2.29,1.81,3.39Zm-45.87-17.65c-.08.7-.22,1.29-.18,1.87.01.25.37.49.57.73.23-.22.62-.41.66-.66.1-.58.03-1.18.03-1.82-.32-.04-.63-.08-1.08-.13Zm4.89,120.04q1.1-2.07.1-2.78c-.17.31-.26.7-.51.9-1.09.87-.37,1.33.41,1.89Zm-5.08-111.24c-.07.12-.13.25-.2.37.4.51.8,1.03,1.14,1.46.62-.61,1.14-1.13,1.75-1.73-.84-.65-1.8.43-2.69-.1Zm9.41,80.28c-.13,1.23-.25,2.14-.31,3.07-.01.2.16.47.32.61.09.07.37-.06.54-.15.24-.14.45-.33.57-.42-.39-1.07-.71-1.96-1.12-3.1Zm-5.47-118.15c-.13.65-.32,1.11-.29,1.56.03.32.36.62.56.92.22-.21.45-.42.66-.64.19-.19.36-.4.57-.62-.24-.19-.45-.36-.67-.54-.21-.17-.42-.34-.83-.68Zm6.06,53.1c1.4-.66,1.49-1.07.51-2.02-.16-.16-.6-.3-.67-.23-.18.21-.36.54-.32.79.07.47.29.92.48,1.46Zm30.02-14.4c1.02.14,1.86.23,1.68-.78-.07-.4-.63-.72-.96-1.08-.24.62-.47,1.24-.71,1.85Zm-38.05,73.99c-.1.1-.2.19-.3.29.25.65.5,1.3.85,2.22.43-.81.73-1.39,1.03-1.96-.53-.18-1.06-.36-1.59-.55Zm-1.63-46.63c.41-1.05.75-1.84,1.01-2.65.05-.17-.13-.42-.24-.61-.02-.03-.27.01-.36.09-.68.54-.92,1.91-.41,3.18Zm3.67,42.3c.39-.46,1.91.09,1.12-1.36-.78.25-1.66.36-1.69,1.43-.01.4.11.81.21,1.2,0,.03.3,0,.46-.01-.05-.36-.09-.73-.14-1.09,0-.03.01-.07.03-.17Zm.25-29.32c.98-.03,1.38-.44,1.27-1.34-.11-.88-.84-.79-1.4-.78-.23,0-.46.46-.69.72.09.08.17.16.26.24l.9-.38c.09.06.19.12.28.18-.21.47-.42.93-.62,1.37Zm-6.48,34.5c.03.12.06.24.08.36.79.1,1.58.24,2.37.27.22,0,.44-.35.67-.53-.23-.18-.47-.51-.7-.51-.68,0-1.37.11-2.05.21-.13.02-.24.14-.36.21Zm-.27-69.5c-.78.39-.87,3.29,0,4.48v-4.48Zm8.89,68.77c0,.62-.08,1.08.03,1.49.09.33.4.83.63.83.35,0,.72-.33,1-.49-.61-.68-1.05-1.16-1.66-1.83Zm5.43-95.34c-.34-.28-.57-.56-.87-.69-.3-.13-.67-.11-1.01-.16.11.36.14.78.35,1.07.2.29.58.45.94.71.18-.29.37-.58.58-.93Zm-8.78,84.56c-.02-.12-.04-.24-.06-.36-.24-.11-.55-.37-.72-.29-.47.2-.89.53-1.32.81.29.2.63.6.87.55.44-.09.82-.46,1.22-.71Zm4.07-10.22c.28.77.51,1.43.75,2.08.08-.01.15-.03.23-.04.22-.64.44-1.29.7-2.04h-1.68Zm2.01,22.03c.12.05.25.1.37.14.94-.6,1.22-1.74.73-3.02-.37.97-.73,1.92-1.1,2.87Zm-8.43,3.36l.3-.12c-.09-.79-.17-1.59-.3-2.72-.47.45-1.06.84-1.01,1,.22.65.65,1.24,1,1.84Zm4.37-1.25c-.87-.36-2.08-.03-2.3.56-.06.15.02.43.14.56.12.13.44.25.54.18.55-.38,1.05-.83,1.62-1.29Zm4.17-73.99c.72.52,1.09.79,1.65,1.19.16-.64.3-1.18.43-1.71-.61.15-1.22.31-2.08.52Zm-3.18,74.69c.27.14.45.31.63.31.35,0,.82.03,1.01-.18.2-.2.12-.67.16-1.02-.37.1-.76.15-1.11.3-.23.1-.41.34-.68.58Zm44.01-85.8c.22-.39.51-.76.63-1.17.08-.29-.05-.66-.16-.97-.02-.07-.4-.09-.56,0-.53.27-.42,1.8.08,2.15Zm-49.75,50.79c.11,0,.22,0,.34.01.05-.75.12-1.51.13-2.26,0-.11-.33-.35-.42-.31-.18.08-.44.32-.42.46.08.71.24,1.4.37,2.1Zm-1.94-29.95c-.56-.64-.94-1.07-1.32-1.5-.09.01-.17.02-.26.03.09.53.1,1.1.32,1.57.05.12.75-.06,1.26-.11Zm10.94,6.07c-1.04,1.35.01,2.64-.33,3.84.11,0,.22.01.33.02v-3.86Zm1.36-1.17c-.55.8-.38,2.88.4,3.42-.14-1.2-.26-2.23-.4-3.42Zm-13.5-13.61c.74-1.45.67-2.08,0-2.6v2.6Zm33.21-22.86c.39-.82.4-1.47-.29-1.97-.16-.12-.42-.1-.63-.15,0,.23-.1.5,0,.67.24.46.56.88.93,1.44Zm-12.27-11.94c.66.26,1.05.47,1.47.56.22.05.52-.07.71-.21.1-.07.1-.46,0-.55-.18-.15-.47-.28-.7-.25-.4.05-.79.23-1.48.45Zm-17.42,137.74c0-.08,0-.16,0-.24-.62-.09-1.23-.23-1.85-.26-.23-.01-.47.22-.71.34.23.15.46.42.69.41.62-.02,1.24-.17,1.86-.26Zm4.95-1.33c-.16-.2-.32-.39-.47-.59-.43.31-.9.59-1.28.96-.12.12.02.5.05.9.69-.52,1.2-.9,1.7-1.28Zm-4.99-61.5c-1.13,1.09-1.11,1.48.22,2.09-.08-.74-.14-1.34-.22-2.09Zm8.12,36.15c-.54-.44-.88-.86-1.32-1-.17-.05-.54.55-.95,1h2.27Zm67.31-42.03c.48-.4,1.05-.75,1.01-.85-.18-.46-.54-.84-.84-1.25-.09.05-.18.11-.27.16.03.51.05,1.02.1,1.94Zm-76.45,50.94c-.28.36-.52.58-.66.86-.07.15-.05.45.06.55.09.09.38.05.55-.02.38-.16.73-.37,1.19-.6-.28-.2-.67-.46-1.13-.79Zm5.26-26.2c.07.06.14.12.22.19h1.95c.02-.1.05-.2.07-.3-.54-.15-1.06-.37-1.61-.42-.19-.02-.42.35-.63.54Zm4.2-16.43c-.67-.1-1.13-.16-1.72-.24.32.56.58,1.01.97,1.69.33-.63.51-.98.75-1.45Zm51.4,1.47c.06.11.13.22.19.33l1.88-1.3c-.07-.11-.15-.22-.22-.33-.98-.13-1.17.96-1.85,1.3Zm-49.37-49.27c-.25.58-.45.95-.55,1.33-.06.21.03.47.1.68.02.06.32.1.36.05.16-.21.37-.45.37-.68,0-.39-.14-.79-.27-1.39Zm-11.75,84.8c.21.03.41.06.62.09.06-.61.11-1.21.17-1.82-.18-.02-.36-.04-.53-.07-.09.6-.17,1.19-.26,1.79Zm6.76-29.97c.08-.09.16-.18.24-.27-.38-.28-.73-.6-1.15-.82-.13-.07-.4.13-.61.21.14.21.24.5.43.6.33.16.72.19,1.08.27Zm4.68-71.42c-.05.73-.11,1.25-.11,1.76,0,.04.36.08.55.12.01-.5.03-1,.04-1.5,0-.04-.1-.09-.48-.38Zm-4.33,136.99c2.05.6,2.56.58,3.27,0h-3.27Zm-.75-5.45c-.48.57-.87,1.02-1.27,1.5,1.3.29,1.53.04,1.27-1.5Zm-8.63-132.93c.96-1.18.89-1.69-.12-1.93.03.57.07,1.11.12,1.93Zm8.83,78.38l.33-.07c-.07-.46-.1-.92-.21-1.37-.03-.14-.28-.22-.42-.33-.1.19-.32.42-.27.57.13.42.38.8.58,1.2Zm-1.92-91.36l.48.2c.04-.65,1.06-.92.71-1.72-.13-.06-.26-.11-.39-.17-.27.56-.53,1.13-.8,1.69Zm9.18,42.49c-.01-.12-.03-.24-.04-.36-.65-.47-1.2-.34-1.6.61.55-.09,1.09-.17,1.64-.26Zm42.91-10.24c.18-.05.35-.11.53-.16-.17-.49-.34-.99-.51-1.48-.15.06-.44.14-.43.16.12.5.27.99.41,1.48Zm-55.42,85.56c-.5-.37-.77-.66-1.1-.79-.19-.08-.48.08-.72.13.1.22.17.6.31.63.42.08.87.03,1.51.03Zm-2.88-13.7c-.44-.32-.67-.57-.93-.63-.13-.03-.48.3-.48.46,0,.2.25.56.41.58.25.02.52-.2,1-.41Zm50.4-73.48c-.14.02-.29.03-.43.05.04.67.07,1.34.11,2.01.18-.02.35-.04.53-.05-.07-.67-.13-1.34-.2-2Zm-31.36-42.25c0-.17-.02-.35-.02-.52-.57.06-1.14.12-1.72.19.01.15.03.31.04.46.57-.04,1.13-.08,1.7-.12Zm-25.66,45.04c.15-.03.29-.06.44-.1-.08-.46-.15-.93-.27-1.38,0-.02-.36.04-.55.06.13.47.25.94.38,1.41Zm20.55-38.69c.17.04.34.08.51.12.12-.39.23-.77.35-1.16-.22-.04-.62-.13-.63-.11-.11.37-.17.76-.23,1.15Zm26.58,35.46c.19-.07.37-.14.56-.21-.2-.44-.4-.89-.6-1.33-.13.05-.26.11-.39.16.14.46.28.92.42,1.38Zm-28.97,60.93c-.52.4-.88.67-1.23.94l.25.3c.24-.43,1.53.34.98-1.23Zm-7-13.99c-.09.07-.17.13-.26.2.14.29.2.7.43.84.15.1.54-.17,1.12-.38-.64-.33-.97-.49-1.29-.66Zm-.56,59.25c.07.18.14.36.22.54.34-.18.7-.34,1.02-.55.03-.02-.08-.28-.13-.43-.37.15-.74.3-1.11.45Zm46.69-81.72c.17,0,.34,0,.51-.01-.04-.5-.08-1-.12-1.5-.13,0-.26.01-.39.02v1.5Zm-11.44-35.36c.16-.1.31-.2.47-.3-.29-.47-.58-.93-.87-1.4-.12.07-.24.14-.37.21.25.5.51.99.76,1.49Zm-29.16,24.27c1.2-.52,1.28-.81.55-1.6-.17.5-.32.94-.55,1.6Zm52.67-5.8c-.11-.08-.21-.15-.32-.23-.26.32-.55.61-.73.96-.03.06.35.35.67.65.17-.61.28-1,.39-1.38Zm-61.98,52.23c-.75-.73-1.1-.38-1.4.09.04.11.09.22.13.34.42-.14.85-.28,1.27-.42Zm1.74-30.24c-.2.34-.4.57-.36.63.18.26.43.48.65.71.11-.14.34-.34.31-.42-.11-.28-.33-.52-.6-.92Zm9.85-71.52c-.49-.79-.75-.8-2.05,0h2.05Z"/><path d="m98.77,64.27c.03-.55.06-.97.09-1.47-1.09-.25-1.11-1.08-1.22-2.04-.2-1.79-.61-3.56-.98-5.34-.05-.23-.32-.57-.51-.59-.94-.11-.91-.79-1.05-1.47-.13-.62-.45-1.2-.7-1.79-.07-.16-.25-.33-.22-.47.21-1.22-.35-2.25-.65-3.38-.83-3.11-1.39-6.28-2.85-9.21-.62-1.25-1.02-2.63-1.41-3.98-.22-.75.07-1.44.92-1.66.51-.13,1.08-.28,1.57-.17,2.98.68,5.95.19,8.92-.02,1.55-.11,3.1-.31,4.65-.48.12-.01.23-.09.51-.2-.83-.2-1.49-.37-2.19-.54-1.13.96-2.27-.15-3.5-.31.3-.12.59-.34.89-.35,2.75-.06,5.51-.15,8.26-.1,3.41.07,6.82.37,10.23.4,2.69.02,5.39-.28,8.09-.32,2.79-.04,5.58.13,8.37.09,1.3-.02,2.6-.25,3.88-.52,2.99-.65,5.98-.16,8.97-.19,1.03,0,2.05-.07,3.08-.11.69-.02,1.48.77,2.05-.26.02-.04.27,0,.39.05,2.29.82,4.69.84,7.07.95.11,0,.22-.04.32-.01,1.83.46,3.66.99,5.51,1.37,1.63.34,3.32.42,4.94.8,1.34.31,2.62.87,3.9,1.39.2.08.39.56.33.8-.04.19-.45.37-.72.41-.64.09-1.3.1-1.95.14-.03.1-.07.19-.1.29.37.39.68.97,1.13,1.14,2.25.84,3.61,2.78,5.27,4.29,1.66,1.51,3.49,2.93,4.44,5.19,1.62,3.85,3.73,7.54,3.15,11.95-.09.66-.25,1.32-.5,1.94-.74,1.87-1.54,3.72-2.35,5.67.25.04.49.14.7.1.63-.12,1.07-.03,1.07.74,0,.74-.19,1.28-1.1,1.17-.2-.03-.44-.03-.62.05-1.6.7-3.18,1.43-4.78,2.13-1.09.48-2.16,1.15-3.45.6-.34.65-.36,1.11.45,1.17,2.49.19,4.18,1.9,5.98,3.28,2.79,2.15,4.35,5.28,5.99,8.32,1.14,2.12,1.97,4.35,2.34,6.69.3,1.92.21,3.9.27,5.85.03.89.1,1.79-.03,2.66-.53,3.4-1,6.84-2.91,9.83-1.12,1.75-2.53,3.14-4.65,3.63-.37.09-.78.22-1.06.46-1.63,1.38-3.65,1.89-5.61,2.44-2.8.78-5.66,1.25-8.6,1.25-.93,0-1.84.58-2.78.64-1.65.11-3.35.22-4.98-.03-1.8-.28-3.52.1-5.27.19-1.66.08-3.32.16-4.97.17-2.47.01-4.95.15-7.4-.1-3.3-.34-6.39.77-9.6.99-.49.03-1,.14-1.48.08-.93-.13-1.83-.34-2.59.47-.11.12-.4.1-.61.1-1.46,0-2.92-.02-4.37-.02-.35,0-.71.04-1.05.14-.78.22-1.57.57-1.75-.7-.01-.1-.21-.26-.3-.25-1.21.18-1.15-.75-1.47-1.5-.71-1.68-1.65-3.27-2.39-4.95-.93-2.1-1.76-4.25-2.64-6.37-.27-.65-.43-1.43-.88-1.92-1.4-1.48-1.27-3.51-2.08-5.2-.08-.16-.04-.38-.14-.51-1.39-1.86-1.54-4.24-2.58-6.24-.27-.52-.41-1.15-.46-1.74-.2-2.15-.91-4.11-2.45-5.59-1.25-1.19-1.28-2.68-1.6-4.16-.1-.48-.55-.87-.78-1.33-.14-.28-.19-.6-.25-.91-.11-.56-.18-1.13-.3-1.69-.03-.17-.22-.31-.24-.47-.37-3.05-2.19-5.58-3.06-8.44-.21-.69-.22-1.45-.26-2.18-.05-.89-.36-1.14-1.27-.76Zm35.06-11.81s0-.09-.01-.13c-1.45.07-2.91.12-4.36.21-1.25.08-1.58.48-1.37,1.71.12.7.32,1.38.44,2.08.49,2.83.95,5.67,1.46,8.5.05.3.37.79.55.79.98-.03,1.98-.11,2.93-.32,1.51-.34,2.97-.89,4.48-1.2,1.45-.3,2.95-.34,4.4-.63,2.08-.41,4.14-.97,6.22-1.4,1.46-.3,3-.31,4.39-.78,1.03-.35,1.96-.46,3-.36.49.05,1.24.01,1.46-.29.88-1.18,1.96-2,3.31-2.55.37-.15.65-.55.92-.87,1.18-1.41.55-3.07-1.29-3.41-.63-.12-1.26-.19-1.9-.29-1.22-.19-2.44-.47-3.67-.56-1.87-.14-3.75-.12-5.63-.21-.74-.03-1.48-.17-2.22-.24-2.51-.21-5.01-.54-7.52-.58-1.86-.03-3.73.33-5.59.51Zm22.33,44.76c.69,1.52,1.51,1.25,2.41.77.47-.25.97-.51,1.48-.58,1.66-.2,2.81-1.28,4.03-2.24.5-.39.17-2.08-.4-2.05-1.19.05-.93-.78-1.09-1.4-.08-.3-.1-.69-.3-.88-1.87-1.8-3.81-3.5-6.63-3.52-.57,0-1.13-.08-1.69-.16-2.09-.3-4.16-.72-6.26-.88-1.87-.15-3.77.03-5.65-.03-1.58-.05-3.15-.26-4.73-.36-.33-.02-.67.14-1.01.21.2.26.35.65.61.74.73.26.75.73.77,1.4.04,1.3.18,2.62.42,3.9.27,1.45.73,2.86,1.02,4.31.32,1.65.54,3.32.8,4.92,2.67-.94,5.4.19,8.05-.71,2.52-.86,5.22-1.18,7.68-1.71.18-.62.29-1.02.49-1.73Zm9.17-2.01c-.11.2-.19.36-.28.52-.75,1.26-1.74,2.24-3.09,2.88-.19.09-.22.7-.16,1.03.02.12.6.32.78.22,1.03-.56,2.05-1.14,3-1.82,1.17-.83,1.12-1.69-.25-2.83Zm11.12-19.6c2.13,1.71,3.45,4,5.94,5.42-.65-2.37-4.18-5.65-5.94-5.42Zm-1.4-8.27c.35-.18.64-.31.91-.46.68-.37,1.37-.73,2.04-1.13.23-.14.38-.38.57-.58-.28-.08-.61-.3-.84-.22-1.01.31-2.01.67-2.98,1.09-.25.11-.38.49-.57.75.28.18.56.36.87.55Zm-11.41,2.78c-.07.45-.16.69-.13.92.05.33.18.66.28.98.38-.12.82-.14,1.11-.37.53-.41.98-.94,1.45-1.43.13-.14.3-.38.25-.5-.05-.14-.31-.27-.49-.28-.97-.06-1.55.44-1.74,1.46-.25-.27-.41-.44-.72-.77Zm5.62,16.48c1.23.62.87,1.56.78,2.52-.06.58.28,1.21.44,1.81l.32-.03c.08-.79.12-1.58.23-2.37.2-1.44,0-1.7-1.77-1.93Zm16.02,6.8c-.05-.34-.01-.63-.13-.82-.16-.26-.45-.45-.68-.67-.1.26-.24.52-.28.79-.09.55-.17,1.1-.18,1.66,0,.26.17.53.26.79.2-.14.49-.24.58-.44.21-.44.31-.92.43-1.31Zm-18.21-39.21c-.08,0-.17.01-.25.02v2.49c.84-.11,1.45-.44,1.6-1.28,0-.06-.6-.22-1.11-.4-.03-.12-.13-.48-.23-.83Zm5.67-13.3c-.04-.66-1.93-2.26-2.79-2.12-.15.02-.27.24-.41.37.13.13.24.32.4.39.93.47,1.88.92,2.8,1.36Zm-.15,51.39c.1.03.19.05.29.08.04-.43.04-.87.13-1.29.07-.36.14-.89.38-1,1.13-.55.61-1.19.22-1.95-1.34,1.23-.68,2.81-1.01,4.16Zm-11.17-47.05c.11,1.08.19,1.86.28,2.76.29-.39.54-.65.68-.95.2-.42.48-.9.41-1.3-.04-.21-.75-.3-1.37-.51Zm24.87,45.15c.15.02.29.05.44.07.22-.54.44-1.08.66-1.62-.56-.13-1.11-.27-1.89-.45.35.87.57,1.44.8,2Zm-19.73-.75c-.13-.59-.2-1.14-.38-1.65-.1-.29-.39-.51-.59-.76-.22.2-.58.36-.62.59-.14.73.9,1.77,1.6,1.82Zm-11.38-46.26c-.08-.11-.16-.21-.24-.32-.58.47-1.19.91-1.71,1.44-.08.08.13.63.34.77.14.1.63-.06.75-.24.35-.51.58-1.1.86-1.65Zm26.65,40.16c-.76-.85-1.52-1.71-2.29-2.56-.11.1-.21.19-.32.29.66.95,1.02,2.19,2.6,2.27Zm-33.91-42.08c-.45,1.37-.84,2.55-1.23,3.72.81-.08,1.61-2.21,1.23-3.72Zm36.02,42.33c-.04.34-.15.58-.07.66.34.4.71.77,1.11,1.11.04.04.27-.14.41-.21-.25-.42-.48-.86-.77-1.25-.1-.14-.36-.17-.68-.31Zm-59.04,21.94c.11,1.03.51,1.25,1.62.92.16-.05.38-.25.38-.37,0-.16-.2-.42-.34-.44-.54-.08-1.09-.08-1.66-.1Zm3.84-56.83c-.03-.9-.6-1.08-1.26-1.03-.15.01-.44.51-.38.65.34.77.97.55,1.64.38Zm-7.72,10.87c-.19-.03-.38-.06-.58-.09-.16.63-.32,1.26-.47,1.89l.21.22c.28-.17.74-.3.8-.53.13-.47.04-1,.04-1.5Zm7.19,42.38c-.22-1.07-.38-1.88-.54-2.69-.84,1.27-.77,1.58.54,2.69Zm-12.01-17.11c-.11-.99-.94-1.2-1.68-1.47-.14-.05-.39.19-.58.3.1.17.17.42.32.48.61.25,1.24.44,1.94.68Zm18.79-38.49c.54.37.83.68,1.19.79.25.07.58-.13.87-.21-.14-.24-.25-.68-.41-.7-.48-.05-.98.06-1.65.12Zm34.92,8.3c.14-.42.33-.7.25-.83-.25-.4-.58-.75-.91-1.09-.03-.03-.4.19-.4.2.15.36.31.72.5,1.06.1.17.26.31.55.66Zm11.14-3.99c.11-.06.23-.11.34-.17-.35-.64-.04-1.66-1.36-1.75.34.64.67,1.28,1.01,1.91Zm-46.79-2.52c-.04-.47.04-1-.12-1.08-.46-.23-1-.29-1.51-.41-.02.09-.03.17-.05.26.49.36.97.72,1.68,1.23Zm27.06-11.59l-.28.24c.25.29.49.59.74.88.25-.31.5-.61.92-1.13h-1.38Zm-44.99,40.25c.06.87.11,1.64.16,2.41.35-.81,1.16-1.66-.16-2.41Zm34.39-1.19c-.68.15-1.14.26-1.85.42,1.34.77,1.4.76,1.85-.42Zm9.57,24.57c1.08-.82,1.09-1.05.13-1.59-.05.58-.09,1.08-.13,1.59Zm-41.87-51.73c-.13.04-.26.08-.39.13-.05.27-.19.74-.12.78.35.18.76.24,1.15.34.08-.15.17-.3.25-.45-.3-.27-.59-.53-.89-.8Zm-9.8-1.96c.41-1.3.33-1.43-1.01-1.67.37.61.63,1.04,1.01,1.67Zm39.64,34.7c-.08-.13-.15-.27-.23-.4-.33.24-.69.45-.97.74-.13.13-.12.41-.18.62.21-.09.44-.15.62-.28.27-.2.51-.45.76-.67Zm10.83-35.99l-.05.58c.41.04.82.08,1.23.13,0-.19.03-.53-.01-.54-.38-.09-.77-.12-1.16-.16Zm16.84,3.4c.06.15.11.3.17.45.42-.11.83-.22,1.25-.34-.14-.17-.31-.51-.43-.49-.34.05-.66.24-.99.38Zm-4.53,52.43c-1.04-.58-1.34-.51-1.65.38.55-.13,1.01-.23,1.65-.38Zm2.09-60.49c-.11.15-.23.31-.34.46.43.28.86.55,1.29.83.08-.12.17-.24.25-.36-.4-.31-.8-.62-1.2-.93Zm-54.3,49.82c-.16.07-.33.14-.49.21.16.39.33.78.49,1.17.14-.08.4-.19.39-.24-.1-.39-.25-.76-.39-1.14Z"/><path d="m175.89,267.14c-.89,1.79-2.64,1.29-4,1.83-.72.28-1.4.68-2.13.93-.61.21-1.27.27-1.9.43-1.01.26-2,.61-3.02.82-1.28.26-2.58.43-3.87.63-.56.09-1.13.17-1.69.21-.61.04-1.24-.05-1.83.06-.78.14-1.54.41-2.3.64-.26.08-.51.32-.76.32-1.51,0-3.03-.12-4.54-.06-1.3.06-2.59.3-3.88.48-.14.02-.27.15-.4.15-2.33-.01-4.7.18-7-.12-2.72-.36-5.4-1.12-8.08-1.75-2.17-.51-4.34-1.04-6.5-1.61-1.16-.3-1.3-.25-1.33.98-.16,5.68-.37,11.37-.46,17.05-.06,3.87.01,7.75.09,11.63.05,2.27.29,4.53.34,6.79.03,1.58-.14,3.16-.18,4.74-.03,1.1-.03,2.2.02,3.29.08,1.64-.55,2.17-2.19,1.94-.83-.12-1.7-.1-2.55-.02-4.18.38-8.35.9-12.53,1.14-1.58.09-3.21-.37-4.8-.67-.92-.17-1.85-.44-2.71-.81-.76-.33-1.27-.92-.93-1.88.55-1.55.74-1.68,2.05-1.6,1.95.12,3.87.25,5.81-.4.98-.33,2.12-.15,3.18-.26,2.81-.29,5.62-.59,8.42-.95.28-.04.7-.54.71-.83.05-2.59.43-5.25-.06-7.74-.85-4.3-.38-8.57-.42-12.85-.03-3.02-.26-6.05-.23-9.07.02-2.55.31-5.09.41-7.64.05-1.27.05-2.56-.11-3.82-.06-.5-.52-1.12-.97-1.38-1.65-.95-3.34-1.85-5.08-2.62-1.65-.73-3.38-1.3-5.08-1.9-2.66-.94-4.66-2.84-6.75-4.6-2.44-2.04-4.8-4.18-7.12-6.37-.82-.78-1.42-1.8-2.08-2.74-.9-1.29-1.81-2.58-2.61-3.93-.46-.79-.73-1.7-1.06-2.56-.1-.26-.06-.61-.23-.8-2.02-2.29-2.94-5.09-3.95-7.89-.7-1.94-1.86-3.71-2.78-5.57-.22-.44-.32-.93-.51-1.39-.13-.31-.22-.71-.46-.89-.46-.34-.58-.63-.3-1.16.11-.2,0-.57-.09-.83-.27-.78-.68-1.52-.86-2.32-.24-1.1-.31-2.23-.46-3.35-.03-.21-.13-.43-.1-.63.42-3.36-.87-6.65-.24-10.05.27-1.46-.22-3.06-.28-4.59-.07-1.66-.09-3.33-.07-4.99.01-.85.2-1.69.25-2.55.17-3.17.2-6.35.52-9.5.15-1.49.93-2.91,1.24-4.4.75-3.59,2.54-6.74,4.11-9.98.68-1.39,1.71-2.6,2.53-3.94,1.38-2.26,2.72-4.54,4.07-6.82.81-1.37,1.62-2.76,2.42-4.13.22-.37.53-.71.63-1.11.47-1.94,1.99-3.08,3.34-4.31,1.96-1.79,3.96-3.55,6.03-5.2,1.31-1.04,2.81-1.86,4.22-2.78.06-.04.15-.04.19-.09,1.77-1.85,4.33-1.95,6.49-2.92,2.28-1.02,4.57-2.04,6.85-3.06,2.59-1.15,5.17-2.33,7.77-3.44.74-.32,1.58-.41,2.36-.66,1.91-.61,3.8-1.31,5.73-1.87.98-.29,2.02-.41,3.05-.5,2.22-.19,4.45-.35,6.68-.45,1.99-.09,3.98-.11,5.97-.08,2.27.03,4.53.11,6.8.22,2.3.11,4.6.28,6.9.43,2.92.19,5.87.23,8.76.65,1.54.22,3.02,1.02,4.47,1.68,2.06.94,4.01,2.12,6.1,2.99,4.62,1.94,7.72,5.86,11.65,8.71,2.27,1.65,4.38,3.51,6.53,5.31.54.45,1,1.01,1.42,1.58,1.87,2.58,3.85,5.1,5.52,7.81,1.08,1.76,1.7,3.81,2.52,5.73.5,1.16.94,2.35,1.47,3.5.91,1.96,1.85,3.92,2.85,5.84.22.42.79.65,1.1,1.04.49.61,1.01,1.24,1.32,1.95.28.64.25,1.4.42,2.09.81,3.19,1.7,6.37,2.44,9.57.27,1.16.25,2.4.31,3.6.13,2.52.21,5.04.37,7.56.09,1.41.36,2.82.4,4.23.03.98-.15,1.97-.28,2.96-.24,1.79-.43,3.59-.77,5.36-.64,3.27-1.31,6.53-2.12,9.76-.57,2.26-1.23,4.53-2.15,6.67-.73,1.7-1.9,3.22-2.91,4.8-.53.83-.98,1.78-1.72,2.36-.92.72-1.22,1.78-1.9,2.61-1.37,1.67-2.65,3.42-3.93,5.16-1.01,1.37-2.07,2.72-2.92,4.18-.99,1.71-2.4,2.85-4.05,3.81-.44.26-.81.7-1.11,1.12-1.3,1.82-2.8,3.38-4.93,4.24-.2.08-.42.15-.56.29-2.58,2.51-5.91,3.9-8.86,5.87-.95.63-1.02,1.17-1.1,2.05-.16,1.75-.57,3.49-.65,5.24-.12,2.54-.7,5.05-.11,7.63.31,1.36.13,2.83.15,4.25.06,3.38.14,6.76.14,10.14,0,2.51-.18,5.01-.21,7.52-.04,2.41,0,4.83.02,7.24.03,2.55.07,5.1.16,7.65.01.39.33.76.5,1.14.56,1.25.22,1.87-1.12,1.86-4.62-.03-9.23.3-13.85-.12-1.85-.17-3.76.12-5.62.37-1.93.25-3.93-1.76-3.25-4.11.23-.8,1.64-2.05,2.47-2.08,1.06-.05,2.14.03,3.2-.06,2.12-.17,4.29-.19,6.34-.67,1.89-.45,3.66-.16,5.45.14,1.13.19,1.72-.17,1.75-1.33.07-2.79.18-5.58.2-8.38.01-1.1-.18-2.2-.24-3.3-.21-4.26-.39-8.51-.6-12.77-.02-.46-.11-.92-.25-1.36-.72-2.33-.32-4.64.06-6.95.03-.21.13-.42.13-.63-.09-3.43-.2-6.85-.31-10.28,0-.06-.08-.11-.13-.16-.07-.11-.13-.23-.2-.34Zm-72.41-113.33c-.05-.08-.11-.16-.16-.23-.34.13-.73.2-1,.41-1.25.99-2.57,1.92-3.68,3.05-2.36,2.42-4.48,5.04-5.92,8.16-.29.63-.84,1.14-1.25,1.72-.62.89-1.32,1.76-1.81,2.72-1.69,3.33-2.12,7.05-3.1,10.59-.33,1.19-.47,2.45-.84,3.63-1.01,3.23-1.38,6.54-1.43,9.89-.06,3.81-.17,7.59-.79,11.37-.29,1.8-.1,3.81.38,5.59,1.05,3.87,2.43,7.65,3.67,11.47,1,3.07,1.79,6.24,3.08,9.2,1.43,3.28,3.25,6.4,5.01,9.53.74,1.32,1.6,2.66,2.69,3.69,2.17,2.05,4.54,3.89,6.83,5.81.41.34.81.73,1.28.95,4.17,1.91,8.21,4.07,12.61,5.49,3.5,1.13,6.92,2.04,10.67,2.23,4.93.25,9.88.76,14.74,1.91,2.16.51,4.44.54,6.58,1.09,1.95.5,3.87.86,5.87.82.45-.01.94-.09,1.32-.3.7-.39.55-1.01-.05-1.48-.35-.28-.41-.94-.6-1.42.4-.02.81-.09,1.19-.03.26.04.51.25.72.44,1.74,1.57,3.71,1.92,5.9,1.16.94-.32,1.85-.73,2.79-1.03,1.96-.6,3.97-1.07,5.9-1.75,2.7-.96,5.33-2.12,8.03-3.08,3.42-1.22,6.65-2.8,9.72-4.73.53-.33,1.08-.72,1.44-1.22,1.03-1.39,1.8-3.01,2.98-4.26,1.68-1.8,2.65-3.95,3.61-6.12,2.01-4.56,3.9-9.17,5.97-13.7,1.92-4.21,2.72-8.68,3.09-13.22.28-3.39.07-6.82.12-10.22.03-1.95.01-3.92.23-5.86.49-4.39.29-8.73-.76-13.02-.29-1.17-.86-2.31-.94-3.48-.15-2.14-1.02-4.01-1.97-5.81-1.05-2-2.5-3.8-3.7-5.73-2.81-4.52-5.97-8.75-10.02-12.25-2.22-1.92-4.4-3.92-6.69-5.75-1.07-.86-2.49-1.28-3.54-2.15-2.57-2.14-5.64-3.3-8.62-4.6-2.72-1.19-5.59-2.04-8.41-3.01-.94-.32-1.98-.41-2.85-.84-2.86-1.41-5.92-1.41-8.97-1.37-4.12.06-8.23.26-12.35.4-.25,0-.5.02-.74.06-1.99.33-3.98.71-5.98.98-3.83.53-7.6,1.24-10.88,3.46-1.91,1.29-3.77,2.65-5.7,3.91-1.91,1.24-3.92,2.3-5.81,3.57-2.3,1.55-4.55,3.17-6.73,4.87-1.84,1.44-3.65,2.94-5.29,4.6-1.47,1.48-2.65,3.24-4.02,4.82-.31.36-.86.51-1.29.76-.11-.14-.22-.29-.33-.43,2.8-4.13,5.81-8.08,9.81-11.22Zm.05,97.72c-.11.12-.23.24-.34.36,1.3,1.66,2.42,3.52,3.95,4.93,1.63,1.5,3.68,2.51,5.88,3.14,2.55.73,5.08,1.55,7.61,2.36,2.68.86,5.4,1.65,8.21,1.69,4.47.06,8.94-.11,13.41-.24,2.09-.06,4.18-.25,6.27-.38-1.45-.73-3-.57-4.53-.56-.51,0-1.03-.09-1.53-.19-.92-.19-1.82-.55-2.75-.63-2.08-.18-4.16-.24-6.25-.35-.1,0-.2-.09-.3-.1-1.11-.13-2.23-.29-3.35-.38-.48-.04-1.11-.09-1.43.17-.6.49-.98.52-1.51-.03-.19-.2-.58-.22-.89-.29-1.42-.3-2.88-.47-4.26-.9-1.84-.58-3.64-1.34-5.43-2.07-1.73-.71-3.46-1.43-5.12-2.28-2.04-1.03-4.02-2.2-6.03-3.31-.54-.3-1.07-.63-1.6-.94Zm93.72-96.81c-.08.08-.16.16-.24.23.24.29.52.55.73.86,1.35,1.95,2.79,3.84,4.01,5.87,1.53,2.52,2.81,5.19,4.32,7.73,1.31,2.19,2.8,4.28,4.18,6.43.7,1.08,1.34,2.21,2.01,3.31.08-.03.17-.05.25-.08-.32-1.13-.59-2.29-.98-3.4-.54-1.5-1.14-2.98-1.77-4.45-.91-2.12-1.73-4.29-2.82-6.31-1.96-3.62-4.92-6.4-8.11-8.95-.52-.41-1.04-.83-1.55-1.25Zm-92.48,100.51c-.31-.37-.61-.75-.93-1.11-1.16-1.25-2.53-2.36-3.44-3.76-2.21-3.38-5.26-5.94-8.04-8.77-1.55-1.58-2.84-3.42-4.25-5.14-.14-.17-.34-.28-.52-.42-.08.24-.3.54-.22.71.32.79.62,1.61,1.1,2.29,2.23,3.13,4.58,6.16,6.76,9.32,2.37,3.44,5.98,5.09,9.56,6.88Zm25.4,13.68l-.05.47c1.72.49,3.43,1.02,5.17,1.44.66.16,1.38.03,2.07.05.23,0,.46.09.69.16.59.16,1.19.5,1.77.48,3.9-.17,7.8-.37,11.7-.66,1.37-.1,2.71-.49,4.07-.75-.01-.09-.03-.19-.04-.28-.27,0-.53,0-.8,0-1.58,0-3.16-.1-4.73.02-2.32.18-4.66-.9-6.97.08-.08.03-.2-.05-.36-.1.11-.2.21-.39.32-.57-.01-.14-.02-.29-.03-.44-1.64,1.06-3.17.45-4.72.09-.03,0-.07.03-.1.03-1.45,0-2.91,0-4.36,0-1.21,0-2.42,0-3.63,0Zm-39.14-32.35c-.21-.4-.45-.79-.63-1.2-.7-1.58-1.43-3.15-2.06-4.75-.59-1.48-1.07-3.01-1.6-4.52-.34-.97-.71-1.93-1.01-2.91-.6-2-1.11-4.02-1.73-6.01-.45-1.44-1.01-2.85-1.54-4.27-.08-.2-.28-.35-.54-.66-.65,6,5.55,22.04,9.11,24.32Zm108.64,7c5.22-5.08,7.37-11.89,10.31-18.28-.66.59-1.12,1.4-2.21.87-2.72,5.86-5.41,11.63-8.1,17.41Zm-28.27-107.31c.43.36.66.64.94.77,2.41,1.12,4.83,2.19,7.24,3.31,1.83.85,3.78,1.54,5.43,2.66,4.2,2.85,8.27,5.9,12.39,8.88.92.66,1.8,1.37,2.7,2.06-3.76-5.79-21.63-16.74-28.71-17.68Zm38.86,87.91c1.99-7.09,3.66-14.21,2.17-21.66-.74,7.22-2.21,14.36-2.17,21.66Zm-36.27,39.71c-1.41-.5-1.41-.5-2.4-.01-.73.36-1.44.9-2.2,1-2.16.27-4.35.29-6.5.55-1.54.19-3.06.61-4.58.92.23.25.43.32.62.29,4.5-.6,8.99-1.18,13.48-1.84.56-.08,1.06-.6,1.59-.91Zm40.44-39.37c.04-.24.06-.75.23-1.19.42-1.07,1.03-2.08,1.37-3.18.6-1.92,1.08-3.89,1.56-5.84.14-.59.13-1.21.19-1.82-.12-.02-.23-.05-.35-.07-.79,6.1-4.38,11.25-5.57,17.22.54-.99.92-2.05,1.38-3.07.3-.66.72-1.27,1.18-2.07Zm-133.01-19.1c.63-2.54,1.15-5.09.58-7.71-.96,2.51-.7,5.11-.58,7.71Zm98.42,56.1c.51.16.95.45,1.15.33,1.05-.61,2.04-1.31,3.04-2.01.18-.12.24-.4.43-.75-1.54.81-2.89,1.52-4.61,2.43Zm-97.11-82.85c.1.04.2.08.3.12.97-.68,1.59-2.79.85-3.6-.41,1.23-.78,2.36-1.15,3.48Zm135.43,28.85c.19.02.37.05.56.07.11-1.04.22-2.08.33-3.13-.11-.01-.22-.02-.33-.03-.19,1.03-.37,2.06-.56,3.09Zm-4.62-11.51c.14,0,.27.01.41.02.07-1.12.14-2.23.21-3.35-.12,0-.24-.01-.36-.02-.08,1.11-.17,2.23-.25,3.34Zm-2.2-9.81c-.14.01-.29.03-.43.04.15.88.3,1.76.45,2.64.1-.01.2-.03.3-.04-.1-.88-.21-1.76-.31-2.63Zm-86.98,81.7l-.02.34c.82.09,1.65.19,2.47.28.01-.11.02-.22.04-.34-.83-.09-1.66-.18-2.49-.28Z"/><path d="m114.77,211.2c.33-.03.67-.06.96-.09.17-.66.18-1.48.57-2,.38-.5,1.15-.71,1.84-1.09.47,3.37,2.66,4.83,5.39,5.86,1.79.67,3.47,1.64,5.28,2.24,2.05.67,4.18,1.11,6.28,1.59,1.51.34,3.04.66,4.58.84,1.11.13,2.27.13,3.39-.02,2.77-.37,5.57-.7,8.28-1.36,1.64-.4,3.13-1.38,4.69-2.11.1-.04.17-.15.27-.16,2.89-.52,4.68-2.56,6.42-4.66.98-1.18,1.37-1.24,2.39-.75.85.41,1.09,2.37.62,3.21-.59,1.04-1.26,2.05-2.02,2.97-.97,1.17-2.09,2.22-3.09,3.36-1.12,1.28-2.65,1.77-4.17,2.2-3,.87-6.02,1.74-9.08,2.34-1.79.35-3.69.26-5.53.19-3.02-.11-6.08-.08-9.03-.65-2.69-.52-5.53-1.03-7.71-3.05-.37-.35-.92-.56-1.42-.71-2.97-.85-4.93-2.77-6.25-5.53-.77-1.61-1.3-1.92-2.64-2.61Z"/><path d="m163.35,184.37c.02,3.65-1.79,5.82-5.09,6.39-.38.07-.77.16-1.12.32-1.53.69-2.91.33-3.73-1.08-1.33-2.29-1.21-4.65-.03-6.93,1.19-2.31,3.12-3.72,5.77-3.76,1.08-.01,2.04.35,2.87,1.44.94,1.23,1.44,2.39,1.34,3.62Z"/><path d="m126.13,182.85c-.3.97-.62,2.75-1.42,4.29-.39.74-1.62,1.29-2.55,1.45-2.01.36-3.84-.52-5.49-1.57-2.36-1.51-2.42-6.48.66-7.8,1.16-.5,2.25-1.22,3.46-1.52.87-.22,1.9,0,2.81.19,1.77.38,2.53,2.11,2.53,4.96Z"/><g><path d="m193.53,451.31c-.08.15.23.64.35.85-.03-.1-.06-.28-.1-.49-.1-.23-.21-.42-.25-.36Z"/><path d="m168.63,448.96c.12-.02-.13-.05,0,0h0Z"/><path d="m168.48,448.99s-.18.03,0,0h0Z"/><path d="m193.95,452.18s-.02.04-.03.05c.02.01.03-.01.03-.05Z"/><polygon points="193.92 452.23 193.92 452.23 193.92 452.23 193.92 452.23"/><path d="m193.63,450.62c-.02-.09.07.55.15,1.05.06.15.12.3.15.42.01-.33-.15-.79-.31-1.46Z"/><path d="m206.79,450.61c-.5-1.48-1.54-3.25-2.02-4.74-.87-2.72-4.57-4.85-7.32-2.17-.75.73-1.41,1.54-2.17,2.25-.96.9-.1.11-1.1.97-.19.16-.39.31-.58.47-.16-.24-1.15-3.67-1.27-3.93-1.12-2.42-2.21-4.85-3.39-7.24-.1-.2-.77-.21-1.16-.15-.18.03-.41.41-.44.66-.08.63.17,1.44-.13,1.88-.59.84-.38,1.32.27,1.88.17.15.22.45.28.69.25,1.01.48,2.02.72,3.03.01.05.17.04.22.1.44.48,1.8,4.12,2.03,4.69.09.23-.55.77-.86,1.16-.09.11-.2.2-.28.31-.52.73-2.74.68-3.28-.04-.52-.7-.98-1.5-1.66-2-1.74-1.26-3.21-3.17-5.83-2.58-1.15.26-2.27,1.45-2.16,2.63.03.33-.1.68-.16,1.02-.09-.32-.09-.71-.29-.94-.39-.45-.89-.81-1.34-1.21-.13.29-.23.61-.42.86-.15.2-.4.33-.62.46-.34.19-.89.26-1.01.53-.96,2.21-3.35,2.52-5.01,3.28-.03.03-.11.01-.17.01-1.07,0-2.14.06-3.2,0-.37-.02-.73-.26-1.08-.45-.05-.03-.02-.3.04-.42.49-.94,1.27-1.74,2.42-2.04.25-.06.61-.18,1.3-.37,1.23-.23,1.39-.26,1.35-.26-.18.03-.03,0,0,0,.04,0,.08-.01.15-.03-.13-.05.12-.02,0,0,.43.17,3.26-.17,3.55-.3.39-.18.74-.76.81-1.21.29-1.9-1.14-2.57-2.45-3.47-2.06-1.42-4.27-1.35-6.57-1.27-2.47.08-5.6,2.19-6.3,4.51-.12.39.03.86.05,1.3.39-.07.91-.01,1.16-.24,1.85-1.69,4.31-2.02,6.47-3,.11-.05.74-.15.89-.1,1.19-.21,3.04.49,2.87.98-.21.59-3.87,1.87-4.47,2.09-.01.04-2.03,1.08-2.08,1.1-1.31.56-2.13,1.98-1.56,3.28.54,1.21.61,3.04,2.58,3.05.75,0,1.49-.24,2.24-.35,1.58-.24,3.17-.44,4.73-.73.26-.05.42-.72.67-.75,1.38-.16,2-1.07,2.47-2.22.08-.19.37-.32.59-.41.07-.03.31.17.34.29.15.66.36,1.32.35,1.99-.03,2.75,1.03,5.13,2.32,7.47.45.82.7,1.76,1.11,2.6.14.28.53.66.75.63.98-.15,1.71-2.68,1.19-3.66-.34-.65-.56-1.38-.72-2.1-.25-1.17-.48-2.36-.58-3.55-.14-1.71-.26-3.43-.18-5.14.03-.53.73-1.03,1.12-1.55.58.12,1.53.59,1.98,1.11.14.16.99.9,1.15,1.08.49.53.84.58.84,1.31,0,.54-.55.42-.6.54-.02.05-.24,0-.35.02-.89.21-2.03.17-2.58.72-.56.56-.54,1.71-.77,2.6-.01.04.1.16.17.17.89.2,1.95.78,2.63.49,1.05-.45,2.67.21,3.17-1.43,0-.03.16,0,.24-.02.61-.17,1.28-.24,1.82-.55,1.06-.61,1.94-1.56,3.33-1.46.59.04,1.2,0,1.8-.06.74-.06,1.04-.21,1.11-.51,0,.01-.02-.02-.04-.07-.11-.2-.42-.7-.35-.85.03-.07.15.13.25.36-.09-.5-.17-1.14-.15-1.05.16.67.32,1.14.31,1.46.01.04.02.08.02.1.18-.28.78-1.77.89-1.94.14-.24.16-.61.35-.74,1.41-.91,2.86-1.73,4.26-2.65.8-.52,1.55-.4,2,.27.59.88,1.6,1.78,2.1,3.48.11.33,1.25,2.02,3.7,1.89m-34.24-.67c-.12.13-.27.24-.41.35-.06-.07-.18-.17-.16-.21.08-.17.19-.33.39-.66.13.35.21.48.18.52Zm4.46,5.46c-.18-.08-.31-.15-.45-.21.14-.05.28-.13.42-.13.18,0,.35.05.53.08-.16.09-.33.17-.5.26Z"/><path d="m245.72,437.78c-2.98.52-6,.96-8.89,1.8-3.57,1.04-6,2.7-5.36,7.53.13,1,.56,2.39-1.29,2.61-2.38.28-4.76.59-7.11,1.01-2.38.43-4.73,1.03-7.09,1.55-.01-.05-.03-.11-.04-.16-.52,0-1.03.05-1.55.01-.18-.01-.35-.21-.53-.32.16-.12.31-.28.49-.36.43-.2.92-.31,1.32-.56.81-.49,1.57-1.08,2.38-1.58.78-.48,1.71-.78,2.35-1.4.47-.46.76-1.28.81-1.96.07-.9-.2-1.82-.27-2.74-.13-1.74-2.16-3.58-3.9-3.49-1.23.06-4.08,2.3-4.47,3.46-.29.87-.43,2-1.05,2.52-.98.83-.81,1.73-.9,2.74-.05.54-.55,1.04-.85,1.55-.06-.05-.13-.1-.2-.15.33.46.48.87.51,1.26h0s0,.01,0,.01c.04.58-.18,1.14-.51,1.77.22.03.51.01.64-.11.22-.22.34-.55.5-.83.02.39.03.78.08,1.17.03.22.08.51.23.64.84.73,1.67,1.5,2.61,2.09.49.31,1.21.42,1.81.37,1.41-.11,2.82-.36,4.22-.57.14-.02.27-.16.41-.24-.13-.07-.26-.17-.4-.21-.19-.06-.4-.09-.6-.13.22-.04.44-.08.66-.11,2.39-.31,4.78-.56,7.16-.94,1.62-.26,3.21-1.01,4.8-.99,1.33.01,1.67-.6,1.96-1.52.21-.68.25-1.42.45-2.1.17-.56.66-1.1.63-1.62-.02-.33-.75-.61-1.16-.91.33-.42,1-.93.92-1.24-.26-1,.31-1.31.99-1.47,2.64-.61,5.28-1.18,7.94-1.7,1.25-.24,3.46-2.51,3.31-3.71-.05-.38-.71-1.02-.99-.97Zm-26.18,5.59c.19.14.38.28.63.46-.11.12-.21.25-.22.25-.19-.14-.38-.29-.54-.46-.02-.02.09-.17.13-.25Zm-.34,4.51c0,.09-.12.19-.25.36-.12-.23-.22-.36-.25-.5,0-.04.23-.19.29-.16.1.05.2.2.21.31Zm-6.14,1.03c-.1-.41-.13-.51-.13-1.17.34-.46.55-1.05.87-1.56.13-.21,1.08-1.54,1.51-2.28l1.89-1.26c.4.5.81.99,1.21,1.49,1.42,1.79-.52,2.1-1.33,2.76-.83.68-1.87,1.1-2.84,1.61-.36.19-.78.28-1.17.42Z"/><path d="m193.92,452.23s0,0,0,0c0,0,.02-.03.03-.05,0-.03,0-.06-.02-.1,0,.05,0,.1-.01.14Z"/><path d="m193.93,452.08c-.03-.11-.09-.27-.15-.42.04.21.07.39.1.49.01.02.03.06.04.07.01-.04.01-.09.01-.14Z"/><path d="m193.88,452.16c.02.06.03.09.04.07,0,0,0,0,0,0,0-.01-.03-.05-.04-.07Z"/><path d="m235.35,413.63c.66-1.57-2.44-4.08-4.1-3.52-1.95.67-4.78,4.44-4.89,6.55-.08,1.41-1.54,3.07-2.94,3.25-.21.03-.68-.37-.67-.39,1.16-2.39.08-4.6-.76-6.69-.34-.86-1.55-1.58-2.52-1.91-1.01-.35-1.94.25-2.52,1.3-.21.37-.81.52-1.24.77.1-.21.24-.42.3-.64.03-.11-.09-.26-.16-.38-.42-.77-.87-1.52-1.25-2.31-.55-1.15-1.58-.87-2.47-.77-.23.03-.49.8-.53,1.24-.11,1.09.06,2.3-.03,3.4,0,.28-.03,3-.03,3.2,0,.78-.31,2.43-.28,3.2.01.24-4.05,2.76-4.25,2.91-.18.13-.17-.42-.17-.75.1-.25.04-.11.07-.41.01-.11.01-.21,0-.46-.13-.92-.03-1.46-.04-2.08,0-.02,0-.07.02-.13,0,0,0,0,0,0-.13-.17.43-3.88.36-4.07-.48-1.31-3.37-2.89-4.47-2.14-2.23,1.53-4.61,3.07-6.26,5.14-1.39,1.74-1.48,4.19.07,6.32,1.27,1.74,4.57,1.88,5.96.17.09-.11.28-.22.4-.21.14.02.27.17.4.27-.34.46-.61,1.24-1.02,1.32-1.14.21-1.9.57-2.15,1.43-.02.08-.17.14-.27.19-.76.41-1.65.68-2.26,1.26-.96.91-2.16,1.91-2.45,3.07-.27,1.09.42,2.47.83,3.68.24.69,2.39.73,3.19.2.88-.58,1.82-1.07,2.72-1.63,2.66-1.68,4.4-4.05,4.92-7.17.27-1.59,4.57-3.57,5.92-2.75,1.18.71,1.52-.12,1.94-.98,1.36-2.81,2.76-5.59,4.18-8.36.04-.08.76.01.77.1.31,1.52.56,3.05.82,4.57-.09.01-.17.03-.26.04.01.66,0,1.32.04,1.97.06,1.13.44,2.2,1.72,2.18,1.09-.02,2.3-.27,3.21-.82,1.05-.64,1.67-.68,2.25.45.26.5.57,1.02.99,1.37,2,1.71,4.37,1.25,6.69,1.05.16-.01.31-.21.46-.33-.11-.11-.21-.24-.33-.33-.11-.09-.24-.15-.37-.23.17-.06.34-.14.52-.18,1.09-.26,2.28-.34,3.26-.82,1.57-.78,3.02-1.81,4.51-2.76.62-.39,1.4-.72,1.75-1.29.38-.61.64-1.58.42-2.2-.34-.99.2-2.31-1.05-3.04-.15-.09.03-1.36.34-1.5,3.5-1.64,7.06-3.18,10.61-4.74,1.22-.53,1.68-1.6,1.36-2.71-.12-.42-1.33-.7-2.05-.72-.67-.02-1.36.35-2.02.61-3.41,1.35-6.83,2.66-10.19,4.12-1.3.57-2.15,1.69-1.75,3.26.29,1.14.61,2.31,1.12,3.36.76,1.56.6,2.09-1,2.79-1.44.63-2.79,1.47-4.25,2.03-1.36.52-2.81.79-4.23,1.16-1.93.49-2.32-1.33-3.32-2.24-.02-.02.09-.27.18-.3.99-.41,1.99-.81,2.99-1.19.85-.33,1.75-1.46,2.26-2.24m-2.42-3.17s.73-.32.81.44c-.29,1.63-2.09,3.12-3.08,3.43-.1-.1.69-1.67.69-1.68.54-.61,1-1.61,1.57-2.19Zm-30.74,19.38c-.27.2-.79.39-.64.44-.17.05-.35.1-.73.22-.36-.25-1.04-.48-1.18-.89-.15-.43-.07-.92.38-1.46.31-.37,1.28-.93,1.86-1.06.67-.26.78-.14,1.05-.02.28.13.71,1.21.55,1.42.27.12-1.04,1.18-1.29,1.35Zm1.68-12.97c-.72.85-1.41,1.75-2.28,2.43-.35.27-1.4.22-1.64-.08-.75-.92-.09-1.73.64-2.32.88-.71,1.82-1.33,2.77-1.94.25-.16.61-.24.9-.21.15.01.27.35.52.7-.3.49-.55,1.01-.91,1.43Z"/><path d="m178.97,416.56c1.45.06,2.9.06,4.34.2.46.04,1.42.1.74,1.09-.04.06-.04.17,0,.24.99,1.99.37,3.79-1.61,5.22-1.16.83-2.22,1.82-3.23,2.83-1.25,1.26-3.03,1.06-3.55-.58-.15-.46.22-1.28.61-1.67.91-.93,1.97-1.71,2.99-2.52.43-.34.91-.6,1.36-.91.11-.07.28-.19.27-.27-.01-.14-.13-.38-.23-.4-1.01-.14-2-.6-2.9.52-.53.67-1.42,1.25-2.25,1.43-2.31.52-4.69,1.2-7.01,1.08-2.1-.11-4.29-.97-5.26-3.33-.03-.06-.46-.07-.61.04-1.74,1.18-3.43,2.44-5.21,3.56-.54.34-1.31.35-1.98.47-.71.13-1.44.19-2.15.31-.15.02-.32.15-.4.28-.48.76-.83,1.62-1.41,2.28-1.31,1.48-3.01,2.21-5.01,2.34-1.41.09-2.8-1.17-3.26-3.46-.7-3.49-.2-6.33,3.01-8.57,1.65-1.15,3.41-2.13,5.11-3.2.15-.09.33-.34.3-.47-.29-1.16-.59-2.31-.97-3.44-.12-.36-.52-.62-.76-.94-.08-.1-.13-.28-.09-.4.09-.3.24-.58.37-.87-.35-.11-.69-.23-1.04-.33-.19-.06-.38-.1-.56-.15.19-.09.42-.15.57-.29.21-.19.52-.44.53-.67.02-1-.04-2.01-.08-3.01-.05-1.19.64-1.21,1.46-.87,1.67.68,1.92,2.4,2.53,3.78.66,1.48.43,3.24,1.64,4.61.51.57.92,1.57.2,2.46-.03.04,0,.19.03.2,2.17.62.58,2.12.7,3.19.11.98-.15,2-.14,3,0,.34.43.99.49.97.58-.19,1.19-.41,1.67-.78.6-.46,1.06-1.11,1.64-1.61.14-.12.48,0,.73,0,.32,0,.74.1.93-.06.23-.21.35-.64.35-.97,0-.14-.42-.29-.65-.43-.11-.06-.24-.1-.36-.15.1-.08.19-.21.3-.22.85-.08,1.12-.45,1.32-1.37.29-1.31,1.09-2.5,1.72-3.72.08-.15.42-.2.64-.24.19-.03.51.11.56.03.78-1.14.95-.35,1.73.17,1.24.83.82,2,.66,2.58-.26.95-1.21,1.78-2.02,2.5-.94.84-.33,1.51.11,2.12,1.31,1.83,3.17,1.48,5.02,1.18.81-.13,1.64-.13,2.45-.26.1-.02.27-.63.17-.73-.92-.93-1.03-3.22-.23-4.28.62-.81,1.23-1.65,1.71-2.54.74-1.37,4.67-3.94,5.98-3.92,1.17.02,1.26.75.98,1.48-.27.68-.81,1.29-1.34,1.82-1.63,1.66-3.32,3.27-4.97,4.91-.12.12-.19.35-.16.51.02.09.27.18.42.2,1.03.07,2.05.12,3.08.18,0-.04,0-.08,0-.12Zm-25.81,3.19c-.36-.92-.46-1.79-.93-2.14-.34-.25-1.29.06-1.8.39-1.51.97-3.05,1.9-3.95,3.63-.5.98-1.02,3.19-.25,3.47.7.25,1.71-.33,2.58-.55-.11-.42,1.39.25.5-.73,0,0,.31-.4.52-.49.42-.17.89-.22,1.31-.38.12-.04.2-.28.24-.44.07-.32,0-.73.17-.96.48-.64,1.06-1.2,1.6-1.8Zm7.94-.71c.29-.06.48-.1.67-.14-.22-.07-.44-.17-.67-.21-.11-.02-.25.08-.37.13.14.08.28.17.37.22Zm19.53-1.09c-.15.12-.26.21-.38.3.09.05.19.16.25.15.14-.04.27-.14.4-.22-.08-.07-.15-.13-.27-.23Z"/><path d="m213.36,477.62c-.26-.99-.41-2.02-.8-2.95-1.36-3.27-.43-4.85,2.72-5.51,1.4-.29,2.69-1.09,4.07-1.53,2.43-.78,4.89-1.49,7.36-2.16.55-.15,1.19.04,1.79.07-.11,1.07.08,2.31-.41,3.14-.42.71-1.6,1.05-2.5,1.39-1.27.48-2.61.78-3.89,1.23-2.08.73-4.14,1.5-6.19,2.3-.2.08-.37.51-.38.79-.02.79.05,1.58.1,2.36.04.62.12,1.24.2,1.86.02.17.2.37.15.48-.57,1.14-.9,2.59-1.81,3.33-4.05,3.28-9.02,2.59-13.72,2.54-1.56-.02-3.56-.62-4.39-2.69-.21-.53-1.35-.77-2.1-.99-2.51-.75-5.08-.68-7.63-.25-.79.13-1.52.79-2.28.79-1.19.01-1.88.48-2.33,1.49-.02.06-.23.08-.32.05-.69-.23-1.31-.42-.73.7.04.08-.22.44-.31.43-.22-.03-.52-.15-.6-.32-1.73-3.45-3.61-6.85-5.08-10.41-.87-2.12-1.17-4.5-1.52-6.8-.08-.56.66-1.25,1.02-1.88.4.43.97.79,1.17,1.29.63,1.66,1,3.42,1.69,5.05.72,1.68,1.7,3.25,2.56,4.88.25.48.5.96.7,1.46.11.28.14.59.21.89.2-.29.41-.56.58-.86,1.13-1.92,2.22-3.86,3.4-5.75.12-.2.79-.21,1.11-.08.21.09.41.61.36.89-.15.8-.36,1.61-.7,2.35-.28.61-.74,1.14-1.17,1.68-.16.2-.45.3-.68.45.3.13.62.4.9.36,1.27-.16,2.54-.6,3.8-.57,2.41.07,4.81.39,7.21.64.65.07,1.12.26,1.42-.66.97-2.93,2.91-5.23,5.13-7.29.91-.85,2.73-.12,2.76,1.2.03,1.85.19,3.81-1.74,5.1-.76.51-1.28,1.38-1.95,2.03-.48.46-1.07.82-1.58,1.26-.38.32-.7.7-1.05,1.05.42.25.83.71,1.26.73,1.5.06,3.01,0,4.51-.06,1.14-.04,2.34-.4,3.4-.15,1.81.43,3.17-.69,4.77-.93,1.48-.22,1.4-1.31,1.54-2.41Zm-13.79-.19c-.2-.08-.34-.19-.42-.16-.14.06-.23.21-.35.32.12.08.25.23.35.21.13-.03.24-.2.43-.37Zm18.06-6.13c-.1.1-.19.18-.27.26.13.04.25.1.38.1.08,0,.16-.1.24-.15-.1-.06-.21-.13-.34-.21Z"/><path d="m171.59,482.84s0-.01,0-.02c-.01,0-.02,0-.04,0,0,0,.02.01.03.02Z"/><path d="m153.45,475.83c-.16.08-.35.15-.5.23-.11-.26-.22-.51-.32-.77-.07-.2-.06-.47-.19-.6-.65-.59-1.32-1.16-2.01-1.7-.11-.08-.34,0-.52,0,.36,1.14-.7.67-.87.6-1.29-.55-1.84.32-2.4,1.16-.72,1.08-1.37,2.21-2.14,3.26-.23.31-.76.4-1.17.56-.04.01-.23-.21-.24-.33-.14-1.47-1.48-3.08-2.89-3.26-.57-.07-1.46,0-1.72.35-.87,1.22-1.53,2.6-2.28,3.91-.07.13-.23.22-.36.29-.02.01-.17-.14-.21-.23-.42-.96-.81-1.93-1.26-2.88-.12-.25-.41-.59-.61-.58-.28.01-.7.25-.8.5-.2.49-.32,1.05-.29,1.57.1,1.48.32,2.95.44,4.44.16,1.91.4,2.12,2.32,1.93.23-.02.46-.05.68-.09.37-.07,2.27-3.04,2.35-3.37.13-.53.32-1.13.69-1.49.29-.28,1.1-.47,1.31-.28.8.68,1.44,1.54,2.14,2.33.36.41.65.99,1.1,1.17.44.17,1.01-.03.68.77-.02.05.05.14.08.22.12-.06.3-.1.35-.2.69-1.5,1.61-2.96,1.97-4.54.33-1.45,1.29-1.95,2.35-2.37,1.03-.4,1.13.48,1.4,1.25.42,1.19,1.02,2.33,1.69,3.4.19.3.87.35,1.33.37.14,0,.38-.43.45-.7.25-.97.45-1.95.67-2.92-.6-.6-.93-1.31-1.24-1.98Zm-18.73,7.92c-.18-.07-.39-.31-.4-.48,0-.17.23-.35.35-.52.18.19.37.37.65.66-.28.17-.49.39-.6.34Zm4.9-5.98c-.09.01-.2-.1-.3-.16.09-.08.18-.16.3-.27.13.09.23.15.33.22-.11.08-.21.2-.32.21Z"/><path d="m140.09,455.51c-.07-.28-.04-.6-.17-.84-.64-1.16-1.31-2.29-1.97-3.43-.21-.36-.49-.69-.63-1.07-.18-.48-.22-1.01-.37-1.5-.04-.12-.28-.29-.38-.26-.19.06-.47.22-.49.37-.18,1.56-1.33,2.31-2.5,3.03-1.63,1-3.29,1.91-5.31,1.92-1.18,0-2.2-1.5-1.72-2.66.12-.28.33-.62.27-.88-.45-1.8.93-2.53,1.97-3.46.95-.86,1.97-1.67,2.82-2.61.79-.87,2.96-.78,3.67.17.89,1.21,2.02,2.25,2.85,3.49,1.04,1.54,1.75,3.31,2.86,4.78.88,1.17.71,2.39.89,3.63.04.27.78.69.8.68.84-.94,2.14-1.84,2.3-2.92.21-1.39-.51-2.91-.77-4.39-.25-1.42-.53-2.85-.59-4.28-.05-1.11.65-1.78,1.82-1.86.91-.06,1.82-.17,2.74-.26,0-.05,0-.1.01-.15,2.15.11,4.31.22,6.46.36.25.02.48.25.72.38-.21.07-.44.12-.63.22-.54.29-1.05.69-1.62.9-.83.31-1.7.5-2.56.73-.13.04-.4.04-.4.06.03,1.57-.98.35-1.46.55-.75.3-1.85.34-2.21.88-.39.59-.2,1.63-.09,2.46.2,1.43.62,2.84.78,4.27.16,1.5-.25,3.73-2.28,4.32-1.15.33-2.24,1-3.26,1.65-.35.22-.39.9-.59,1.36-1.01,2.33-2.67,4.08-4.82,5.4-.78.48-1.54,1-2.31,1.51-2.1,1.37-5.29-.45-5.21-2.87.01-.45-.03-.92-.1-1.37-.19-1.3,1.09-3.62,2.28-4.1.05-.02.12-.09.15-.07,1.66-.72,2.52-.99,3.94-1.05,1.47-.06,2.93-.41,4.38-.73.54-.12.03.15.54-.12m-9.5,6.18c.73.85,1.2,1.47,1.77,1.98.08.07.64-.37.97-.57.24-.15.48-.31.72-.47.65-.43,1.31-.86,1.95-1.31.6-.42,1.16-.91,1.78-1.29.37-.23.83-.31,1.25-.46-.45-.12-.9-.25-1.36-.37-.08-.02-.17.02-.25.04-1.76.48-3.52.94-5.26,1.48-.48.15-.89.54-1.56.98Zm.16-13.87c.14-.08.27-.19.42-.24.9-.35,1.83-.64,2.7-1.06.6-.29,1.11-.76,1.81-1.26-.42-.52-.68-1-1.08-1.3-.22-.17-.78-.17-1.01,0-1.42,1-2.79,2.07-4.16,3.14-.19.15-.27.45-.41.69m8.7,9.89c-.43-.19-.7-.41-.82-.35-.27.14-.49.42-.67.67-.03.04.3.43.34.41.33-.17.64-.39,1.16-.73Zm1.66.28c-.36-.17-.53-.32-.64-.28-.27.09-.5.27-.75.41.15.14.33.41.46.39.26-.05.5-.26.94-.51Zm.4-.77c-.12.22-.26.36-.24.48.02.11.19.2.3.3.09-.12.25-.24.26-.37,0-.11-.17-.22-.32-.41Zm-1.33,3.74c-.2-.08-.32-.16-.37-.13-.16.08-.29.22-.44.33.08.05.18.15.23.13.17-.06.32-.17.58-.32Z"/><path d="m118.16,410.28c0,.14-.01.29.01.43.15.85.22,2.4.5,2.44,1.05.15,2.24,0,3.26-.38.98-.37,1.72-1.41,2.71-1.69,1.43-.4,2.98-.5,4.47-.47.52.01,1.01.81,1.52,1.25-.62.25-1.24.5-1.86.77-.16.07-.36.14-.46.27-.28.36-.43.98-.78,1.11-2.48.93-4.99,1.75-7.5,2.61-.82.28-1.14.58-.9,1.67.39,1.71.39,3.52.39,5.29,0,1.04-1.82,2.13-2.88,1.88-.09-.02-.25-.13-.24-.16.17-.58.15-.59-.54-.47-2.64.46-5.28.88-7.91,1.39-.74.14-1.43.55-2.17.75-.72.2-1.06.02-1.04-.9.02-1.41.62-2.26,1.85-2.9.8-.42,1.46-1.11,2.14-1.72.07-.06-.02-.44-.14-.55-1.11-.96-2.4-.92-3.79-.81-1.76.14-3.55.05-5.32-.06-.2-.01-.36-.82-.5-1.27-.37-1.17-.3-2.18.72-3.11,1.45-1.32,2.77-2.77,4.15-4.17,1-1.01,3.05-1.45,4.02-.75.39.28.73.85.76,1.32.02.35-.41.84-.77,1.08-1.54,1.06-3.14,2.04-4.68,3.11-.23.16-.27.66-.31,1.01,0,.05.47.23.72.23.77-.02,1.57,0,2.31-.18,1.86-.45,3.13.83,4.58,1.52.81.38.94,2.42.54,3.38-.31.76-.4,1.61-.55,2.42-.02.1.24.34.36.34.16,0,.41-.15.46-.3.49-1.29,1.38-1.55,2.7-1.27.72.15,1.7-.22,2.35-.67.39-.27.53-1.13.52-1.71-.02-.98-.23-1.97-.41-2.94-.02-.11-.37-.25-.54-.24-.93.1-1.86.36-2.79.35-1.05-.01-1.19-.72-.78-1.65.62-1.39,1.47-2.17,3.04-2.04.07,0,.22-.24.22-.36-.04-1.5-.03-3.01-.2-4.5-.05-.48-.64-.89-.83-1.39-.14-.37-.18-.91-.01-1.26.43-.91.87-1.87,1.54-2.59.46-.49,1.28-.44,1.43.55.27,1.77.5,3.55.75,5.33-.04,0-.09.01-.13.02Zm5.3,1.7c-.26.35-.36.47-.45.6.14.07.29.17.44.18.08,0,.24-.17.23-.25,0-.15-.11-.29-.22-.53Z"/><path d="m73.2,414.9c1.48-.03,2.95-.04,4.43-.08,1.26-.04,1.45.72,1.45,1.74,0,.23.4.66.6.65.69-.01,1.38-.22,2.07-.27.96-.06,1.2-.38,1.2-1.45-.01-2.89.18-5.78.49-8.66.05-.43,1.11-.99,1.73-1.03.3-.02.98.99.98,1.54.01,2.07-.19,4.14-.3,6.21-.01.26.11.52.18.78.23-.08.49-.11.68-.24,1.59-1.08,2.83-1.08,4.46.03,1.11.75,2.39,1.34,3.29,2.29.61.65.89,1.78.95,2.72.14,2.26.11,4.54,0,6.8-.02.33-.9.7-1.44.87-.13.04-.66-.6-.7-.97-.21-1.86-.24-3.74-.48-5.59-.14-1.07-.51-2.12-.85-3.16-.07-.2-.52-.47-.71-.41-1.7.53-3.39,1.1-5.07,1.71-.18.07-.36.45-.36.68-.02,2.23.07,4.47-.05,6.7-.03.52-.77,1-1.18,1.51-.32-.43-.85-.84-.9-1.29-.11-1.05.1-2.12.04-3.17-.05-.88-.29-1.76-.51-2.62-.02-.07-.5-.09-.75-.04-2.3.42-2.56.28-3.5-1.86-.09-.21-.39-.46-.59-.46-2.07.04-4.15.1-6.22.21-.56.03-1.58.21-1.59.38-.07.96-.03,1.97.23,2.89.24.87.87,1.64,1.18,2.5.09.27-.26.95-.52,1.03-.53.15-1.55.19-1.65-.03-.73-1.69-1.68-3.44-1.76-5.2-.06-1.37-.25-3.41,1.67-4.15,1.1-.42,2.32-.53,3.48-.78l.03.23Z"/><path d="m64.61,473.75c1.74.05,2.85.96,3.96,2,.41.38,1.24.4,1.51.82.91,1.39,1.69,2.87,2.41,4.36.12.24-.23,1-.52,1.11-2.28.84-4.62,1.56-6.91,2.38-.99.35-1.9.91-2.87,1.32-.74.31-1.63.39-2.22.86-.38.3-.54,1.15-.48,1.72.21,1.75.58,3.48.87,5.22.03.19.02.41-.03.6-.12.48-.26.96-.4,1.44-.38-.43-.92-.79-1.1-1.29-.28-.81-.29-1.71-.48-2.56-.08-.37-.32-.7-.51-1.03-.13-.22-.37-.39-.45-.62-.31-1-.59-2.02-.87-3.03-.43-1.52-.8-3.06-1.31-4.55-.63-1.85.15-4.39,1.79-5.39.12-.07.4.05.58.14.11.06.14.24.21.37.06-.15.21-.35.16-.44-.58-1.09.4-1.51.98-1.72,1.86-.68,3.79-1.15,5.69-1.71Zm-6.1,8.76c3.23-1.06,6.27-2.04,9.29-3.08.22-.08.33-.56.41-.87.03-.1-.18-.33-.33-.39-2.84-1.15-6.62-.94-8.92,1.84-.23.28-.56.48-.82.75-.24.25-.68.71-.62.79.26.38.67.67,1,.96Z"/><path d="m123.72,451.01c.15,1.52-.14,2.97-1.65,3.59-1,.41-2.23.53-3.32.41-2.26-.25-4.13-1.3-5.09-3.5-.39-.9-1.04-1.85-.16-2.88.07-.08-.13-.58-.23-.59-.73-.04-.83-1.46-1.89-.78-.99.62-2.02,1.2-3.11,1.61-.89.33-1.89.34-2.82.57-.19.05-.42.47-.4.69.11,1.08.38,2.14.43,3.22.04.89-.14,1.78-.23,2.68-.46-.05-.97,0-1.37-.18-.88-.4-.86-.45-.2-.99.07-.05.12-.19.1-.27-.31-1.25-.59-2.5-.98-3.72-.08-.24-.55-.51-.84-.51-.86-.02-1.74.23-2.56.1-.58-.09-1.52-.63-1.53-.99-.03-.84-.63-2.25,1.13-2.3.23,0,.46-.03.69-.04,1.91-.05,2.04-.29,1.57-2.13-.25-.97-.2-2.01-.35-3.01-.15-1.04-.46-2.07-.54-3.12-.02-.32.48-.68.75-1.02.46.36,1.23.65,1.33,1.1.49,2.14.81,4.32,1.16,6.48.18,1.11.93,1.17,1.79,1.05,1.8-.25,3.59-.49,5.38-.79,1.66-.28,3.32-.55,4.95-.94,2.65-.63,4.43.85,6.03,2.53.95,1,1.56,2.32,2.32,3.49-.12.08-.25.17-.37.25Zm-7.74-3.77c-.31.24-1.13.58-1.12.91.01.7.24,1.71.74,2.04,1.19.79,2.9.96,3.82,1.93.94.99.86,2.09,2.03.07.67-1.15.5-1.42-.2-2.1-1.42-1.38-2.9-2.62-5.27-2.85Z"/><path d="m62.74,413.2c-1.9.5-4.04,1-6.12,1.67-.29.09-.38,1.02-.41,1.56-.02.38.22.78.35,1.16-.58-.02-1.4.2-1.71-.1-2.58-2.49-1.27-4.47,1.39-5.44,2.12-.78,4.4-1.3,6.64-1.46,1.69-.12,3.69.16,4.82,1.66.59.78.74,2.14.6,3.17-.25,1.79-.74,3.58-1.39,5.26-1.23,3.18-5.63,7.83-9.53,7.67-.83-.03-1.96-.77-2.37-1.51-.95-1.71-1.22-3.58.66-5.04.12-.09.18-.29.24-.45,1.1-3.15,3.43-4.93,6.53-5.86.27-.08.47-.38.73-.53.33-.19.66-.39,1.02-.5.29-.09.61-.05.92-.08-.2-.31-.32-.77-.6-.9-.44-.2-.98-.19-1.76-.31Zm-3.38,12.77c.28-.35.65-.86,1.05-1.33,1.41-1.65,2.87-3.26,4.22-4.95.31-.38.25-1.05.36-1.59-.6-.11-1.2-.24-1.81-.32-.17-.02-.37.13-.55.21-3.03,1.4-4.82,3.81-5.61,6.98-.06.22.3.71.56.81.44.17.96.12,1.77.19Z"/><path d="m167.38,473.99c-2.05.18-4.35.34-6.6.63-.31.04-.48.71-.56,1.11-.05.28.17.59.28.89-.61-.07-1.49.01-1.8-.24-2.53-2.09-.99-3.41,1.89-3.87,2.29-.36,4.75-.52,7.13-.42,1.8.08,3.88.48,4.96,1.7.56.64.61,1.65.38,2.39-.4,1.29-1.06,2.56-1.88,3.73-1.55,2.22-6.56,5.2-10.67,4.7-.87-.11-2.01-.76-2.38-1.35-.87-1.36-1-2.75,1.09-3.64.14-.06.21-.19.28-.31,1.41-2.21,4.01-3.29,7.36-3.67.29-.03.53-.23.82-.32.36-.11.73-.22,1.12-.26.31-.04.65.02.98.04-.18-.25-.28-.6-.56-.72-.45-.19-1.02-.24-1.84-.4Zm-4.58,9.07c.32-.23.75-.57,1.22-.88,1.62-1.07,3.29-2.11,4.85-3.23.35-.25.35-.75.51-1.14-.63-.14-1.25-.3-1.88-.41-.18-.03-.4.06-.6.1-3.31.73-5.38,2.33-6.47,4.59-.08.16.26.55.53.65.45.17,1,.18,1.85.31Z"/><path d="m66.44,440.93c2.15.27,3.24,1.97,2.12,3.9-1.26,2.18-2.8,4.23-4.43,6.16-1.6,1.89-3.53,3.49-5.17,5.35-.34.38-.1,1.34,0,2.02.4,2.73.87,5.46,1.27,8.19.06.41.04.97-.19,1.24-.27.31-.82.41-1.27.51-.08.02-.34-.4-.38-.64-.32-1.91-.58-3.84-.93-5.75-.22-1.22-.74-2.41-.83-3.64-.19-2.76-.19-5.54-.29-8.31,0-.15-.28-.4-.44-.4-.33,0-.67.19-1,.18-.61-.03-.85-.1-.72-.99.32-2.24,2.08-3.01,3.6-3.99,1.67-1.07,3.46-1.99,5.26-2.82,1.06-.49,2.26-.68,3.4-1Zm-8.37,10.08c.07,2.25.16,2.36,2.06,1.42.62-.31.92-1.21,1.43-1.78,1.24-1.41,2.57-2.74,3.74-4.19.33-.41.23-1.15.33-1.74-.51,0-1.12-.19-1.53.02-1.63.82-3.2,1.74-4.78,2.66-.25.15-.42.44-.63.66.25.04.52.06.76.14.33.12.64.3.96.45-.27.13-.54.3-.82.39-1.03.34-1.89.78-1.53,1.97Z"/><path d="m92.12,481.24c-.44-1.63-.89-3.25-1.33-4.88-.1-.36-.28-.72-.28-1.08-.01-1.46-.75-1.67-2.23-1.06-2.86,1.16-5.66,2.43-8.49,3.65-.03.01-.05.02-.08.03-.6.17-1.19.34-1.79.5.26.88.28,1.99.84,2.6,1.29,1.43,1.34,3.14,1.6,4.83.02.13-.12.42-.15.41-.32-.06-.78-.05-.93-.26-1.19-1.63-2.5-3.21-3.4-5-.74-1.47-1.05-3.19-1.37-4.83-.08-.39.44-1.17.85-1.33,2.75-1.02,5.57-1.85,8.32-2.87,1.57-.58,3.02-1.47,4.59-2.07.44-.17,1.12.08,1.62.3.36.16,1,.58-.03.87-.13.04-.19.63-.13.94.02.12.53.32.66.24,1.03-.64,1.33.2,1.6.83.69,1.62,1.37,3.25,1.91,4.92.59,1.83.96,3.72.26,5.6-.05.13-1.14.15-1.28-.08-.43-.66-.62-1.47-.91-2.22.05-.02.11-.04.16-.06Z"/><path d="m77.64,452.11c-.39,1.08-.71,2.19-1.2,3.22-.14.3-.73.52-1.11.52-.22,0-.59-.49-.64-.8-.43-2.58-.76-5.19-1.2-7.77-.65-3.85-1.33-7.69-2.04-11.53-.2-1.1.42-2.29,1.54-2.51.17-.03.57.39.64.66.24.98.36,1.99.55,2.99.68,3.49,1.36,6.97,2.06,10.45.04.21.26.39.39.58.15-.18.4-.35.43-.54.28-2.05,1.76-2.66,3.5-3.02.54-.12,1.05-.49,1.59-.53,1.49-.11,2.56.72,3.15,1.96.71,1.48,1.25,3.05,1.72,4.63.15.51-.04,1.19-.26,1.72-.11.27-.64.36-.98.54-.11-.28-.2-.56-.32-.83-.62-1.33-1.15-2.72-1.93-3.95-.28-.43-1.23-.68-1.83-.61-2.85.32-4.4,2.1-4.04,4.83Z"/><path d="m122.29,483.19c.02,1.41.15,2.75,0,4.06-.04.38-.84.71-1.35.97-.08.04-.57-.44-.63-.73-.2-1.06-.34-2.15-.44-3.23-.12-1.23-.73-1.67-1.95-1.49-.5.07-1.13-.02-1.54-.29-1.08-.7-2.13-1.56-.98-2.98.17-.21.77-.08,1.17-.08.26,0,.53.06.79.04.16-.01.31-.12.46-.18.48-.18,1.4-.43,1.38-.53-.16-.93-.46-1.84-.75-2.75-.04-.13-.35-.24-.33-.33.23-1.43.47-2.86.77-4.27.03-.16.43-.37.61-.33.17.04.34.35.4.57.62,2.09,1.18,4.19,1.85,6.26.09.28.71.64.99.57,1.26-.32,2.48-.79,3.73-1.17.91-.28,1.84-.55,2.78-.68.19-.03.73.79.67.86-.63.76-1.35,1.44-2.05,2.15-.45.46-.85.97-1.35,1.35-.21.16-.62.09-.94.08-.14,0-.32-.19-.41-.15-.89.42-1.8.82-2.63,1.34-.22.13-.19.65-.26.93Zm5.71-4.76c-.34-.17-.53-.32-.72-.33-.13,0-.28.17-.42.26.18.1.36.24.55.28.12.03.27-.09.58-.21Z"/><path d="m111.44,483.53c.06,1.16.37,2.3-.47,3.31-.15.19-.35.34-.52.51-.12-.2-.3-.38-.34-.6-.3-1.4-.41-2.86-.87-4.21-.81-2.36-2.52-3.14-4.95-2.42-.14.04-.18.44-.24.67-.04.14.03.37-.05.42-1.48,1.08-1.74,2.77-2.24,4.35-.08.24-.31.59-.5.61-.32.04-.81-.04-.98-.26-1.35-1.67-2.99-3.18-2.69-5.69.13-1.11-.16-2.27-.27-3.4-.08-.04-.16-.09-.25-.13.27-.63.55-1.26.82-1.89.57.54,1.3.99,1.67,1.64.34.59.06,1.57.45,2.08.77,1.01.59,2.03.52,3.1,0,.06.27.13.42.19.04-.12.11-.23.13-.35.47-2.38,2.79-5.71,5.64-5.18,1.83.33,3.36,1.44,3.82,3.21.16.59.5.99.61,1.49"/><path d="m262.77,450.3c-.81-.08-1.26-.12-1.72-.18-1.34-.17-1.71.26-1.27,1.57.69,2.03.34,3.87-.98,5.51-.17.21-.69.2-1.04.17-.11,0-.27-.41-.28-.63-.08-1.82-.09-3.63-.23-5.44-.02-.27-.67-.75-.94-.69-1.09.22-2.13.67-3.21.91-.31.07-.85-.2-1.05-.48-.3-.43-.56-1-.55-1.51.01-.46.31-1.18.66-1.33,1.1-.44,2.28-.68,3.44-.96,1.18-.28.55-1.11.52-1.72-.02-.41-.33-.82-.31-1.23.02-.6.22-1.19.34-1.78.7.49,1.44.94,2.1,1.49.23.19.33.62.34.95.11,2.13,1.57,1.82,2.96,1.7.5-.04,1.14-.18,1.49.05.63.43,1.58,1.18,1.51,1.66-.14.96-.62,2.16-1.78,1.91Z"/><path d="m88.45,449.99c.57-1.44,1.02-2.95,1.75-4.3.79-1.46,2.75-1.64,3.97-.54,1.51,1.35,2.27,3.1,2.47,5.07.14,1.35.33,2.76.11,4.07-.13.74-1.05,1.35-1.63,2-.02.02-.34-.14-.33-.18.24-1.18-.54-.84-1.14-.78-2.36.22-4.76-2.37-4.8-5.18-.13-.05-.27-.11-.4-.16Zm1.53-.11c.88.63,1.46,1.19,2.15,1.5.74.33,1.58.42,2.38.62-.15-.7-.31-1.4-.46-2.1-.02-.08-.01-.19-.06-.25-.69-.78-1.19-2.04-2.5-1.59-.55.19-.88,1.03-1.51,1.83Z"/><path d="m258.81,421.42c-.34,1.87-.52,3.7-1.03,5.43-.47,1.57-3.11,2.93-4.68,2.56-.24-.06-.57-1.03-.4-1.33.56-1.01,1.28-1.95,2.02-2.85,1.37-1.66,1.45-3.53,1.09-5.51-.03-.17-.18-.35-.14-.49.17-.62.39-1.22.59-1.83.48.45,1.09.83,1.41,1.37.49.82.78,1.75,1.15,2.63Z"/><path d="m189.37,423.41c-.04-2.35-.08-4.7-.13-7.05,0-.4-.17-.89,0-1.19.21-.37.71-.85,1.05-.82.6.06.89.46,1.26,1.17,1.04,2.01.69,4.03.68,6.02,0,1.31-.67,2.63-1.1,3.92-.07.22-.66.5-.72.44-.47-.45-.93-.93-1.26-1.48-.14-.24.03-.66.06-1h.17Z"/><path d="m131.39,424.03c-.46,1.15-.83,2.08-1.21,3.02-.41,1.02-.64,2.16-1.25,3.03-.97,1.39-2.19,2.62-3.32,3.91-.07.08-.24.08-.37.11-.21-.85-.85-1.91-.56-2.52,1.17-2.44,2.64-4.75,3.98-7.11.12-.22.14-.5.25-.73.18-.37.4-.73.61-1.09.6.44,1.19.88,1.86,1.38Z"/><path d="m94.77,405.83c1.77-.06,3.32,1.42,3.26,2.83,0,.15-.47.44-.68.41-.65-.11-1.27-.36-1.91-.52-1.11-.26-1.56-1.01-1.38-2.05.06-.33.59-.57.7-.67Z"/><path d="m192.62,407.96c-.27.4-.43.85-.74,1.03-.2.12-.66-.09-.94-.26-1.32-.81-1.89-2.78-.92-3.33.33-.19,1.17-.04,1.4.25.51.65.79,1.48,1.2,2.31Z"/><path d="m91.24,465.09c-.23.59-.38.98-.54,1.37-.35-.3-.9-.54-1-.91-.23-.83-.25-1.73-.31-2.6,0-.02.67-.18.72-.09.42.74.77,1.51,1.13,2.24Z"/><path d="m235.23,471.82c.38.19.93.27,1.09.57.43.81-.33,1.13-.83,1.51-.04.03-.13.06-.15.04-.09-.09-.23-.19-.24-.3-.03-.6-.03-1.21-.03-1.81,0,0,.11-.01.16-.02Z"/><path d="m69.79,455.86c.26-.37.49-.71.72-1.05.14.22.45.51.39.65-.15.37-.46.68-.71,1.01-.11-.16-.22-.33-.41-.6Z"/><path d="m193.95,425.43c-.16-.2-.31-.37-.3-.38.25-.27.5-.54.79-.75.07-.05.29.12.45.19-.29.29-.58.57-.94.93Z"/><path d="m157.18,450.25c-.45.2-.73.44-.89.38-.25-.1-.41-.41-.61-.63.18-.13.36-.36.54-.37.18,0,.37.22.96.62Z"/><path d="m246.73,435.87c.08.04.18.1.29.15-.28.13-.55.33-.84.37-.22.03-.47-.16-.71-.26.4-.08.8-.17,1.26-.26Z"/><path d="m228.15,431.56c.16-.13.25-.26.35-.26.11,0,.22.1.33.16-.09.11-.17.27-.29.32-.06.03-.21-.11-.39-.22Z"/><path d="m168.44,417.7c.12.1.19.17.26.23-.15.1-.28.21-.44.28-.06.02-.16-.07-.25-.11.13-.12.27-.25.43-.4Z"/><path d="m230.98,406.66c-.09-.18-.19-.3-.17-.34.07-.1.2-.16.3-.24.05.06.15.14.13.18-.04.11-.13.21-.26.4Z"/></g></g></svg>