<?xml version="1.0" encoding="UTF-8"?><svg id="Layer_2" xmlns="http://www.w3.org/2000/svg" viewBox="0 0 211.1 93.67"><g id="Layer_3"><g><path d="m140.08,49.41c-.08.15.23.64.35.85-.03-.1-.06-.28-.1-.49-.1-.23-.21-.42-.25-.36Z"/><path d="m115.18,47.06c.12-.02-.13-.05,0,0h0Z"/><path d="m115.03,47.09s-.18.03,0,0h0Z"/><path d="m140.5,50.28s-.02.04-.03.05c.02.01.03-.01.03-.05Z"/><polygon points="140.46 50.33 140.47 50.33 140.46 50.33 140.46 50.33"/><path d="m140.17,48.72c-.02-.09.07.55.15,1.05.06.15.12.3.15.42.01-.33-.15-.79-.31-1.46Z"/><path d="m153.33,48.71c-.5-1.48-1.54-3.25-2.02-4.74-.87-2.72-4.57-4.85-7.32-2.17-.75.73-1.41,1.54-2.17,2.25-.96.9-.1.11-1.1.97-.19.16-.39.31-.58.47-.16-.24-1.15-3.67-1.27-3.93-1.12-2.42-2.21-4.85-3.39-7.24-.1-.2-.77-.21-1.16-.15-.18.03-.41.41-.44.66-.08.63.17,1.44-.13,1.88-.59.84-.38,1.32.27,1.88.17.15.22.45.28.69.25,1.01.48,2.02.72,3.03.01.05.17.04.22.1.44.48,1.8,4.12,2.03,4.69.09.23-.55.77-.86,1.16-.09.11-.2.2-.28.31-.52.73-2.74.68-3.28-.04-.52-.7-.98-1.5-1.66-2-1.74-1.26-3.21-3.17-5.83-2.58-1.15.26-2.27,1.45-2.16,2.63.03.33-.1.68-.16,1.02-.09-.32-.09-.71-.29-.94-.39-.45-.89-.81-1.34-1.21-.13.29-.23.61-.42.86-.15.2-.4.33-.62.46-.34.19-.89.26-1.01.53-.96,2.21-3.35,2.52-5.01,3.28-.03.03-.11.01-.17.01-1.07,0-2.14.06-3.2,0-.37-.02-.73-.26-1.08-.45-.05-.03-.02-.3.04-.42.49-.94,1.27-1.74,2.42-2.04.25-.06.61-.18,1.3-.37,1.23-.23,1.39-.26,1.35-.26-.18.03-.03,0,0,0,.04,0,.08-.01.15-.03-.13-.05.12-.02,0,0,.43.17,3.26-.17,3.55-.3.39-.18.74-.76.81-1.21.29-1.9-1.14-2.57-2.45-3.47-2.06-1.42-4.27-1.35-6.57-1.27-2.47.08-5.6,2.19-6.3,4.51-.12.39.03.86.05,1.3.39-.07.91-.01,1.16-.24,1.85-1.69,4.31-2.02,6.47-3,.11-.05.74-.15.89-.1,1.19-.21,3.04.49,2.87.98-.21.59-3.87,1.87-4.47,2.09-.01.04-2.03,1.08-2.08,1.1-1.31.56-2.13,1.98-1.56,3.28.54,1.21.61,3.04,2.58,3.05.75,0,1.49-.24,2.24-.35,1.58-.24,3.17-.44,4.73-.73.26-.05.42-.72.67-.75,1.38-.16,2-1.07,2.47-2.22.08-.19.37-.32.59-.41.07-.03.31.17.34.29.15.66.36,1.32.35,1.99-.03,2.75,1.03,5.13,2.32,7.47.45.82.7,1.76,1.11,2.6.14.28.53.66.75.63.98-.15,1.71-2.68,1.19-3.66-.34-.65-.56-1.38-.72-2.1-.25-1.17-.48-2.36-.58-3.55-.14-1.71-.26-3.43-.18-5.14.03-.53.73-1.03,1.12-1.55.58.12,1.53.59,1.98,1.11.14.16.99.9,1.15,1.08.49.53.84.58.84,1.31,0,.54-.55.42-.6.54-.02.05-.24,0-.35.02-.89.21-2.03.17-2.58.72-.56.56-.54,1.71-.77,2.6-.01.04.1.16.17.17.89.2,1.95.78,2.63.49,1.05-.45,2.67.21,3.17-1.43,0-.03.16,0,.24-.02.61-.17,1.28-.24,1.82-.55,1.06-.61,1.94-1.56,3.33-1.46.59.04,1.2,0,1.8-.06.74-.06,1.04-.21,1.11-.51,0,.01-.02-.02-.04-.07-.11-.2-.42-.7-.35-.85.03-.07.15.13.25.36-.09-.5-.17-1.14-.15-1.05.16.67.32,1.14.31,1.46.01.04.02.08.02.1.18-.28.78-1.77.89-1.94.14-.24.16-.61.35-.74,1.41-.91,2.86-1.73,4.26-2.65.8-.52,1.55-.4,2,.27.59.88,1.6,1.78,2.1,3.48.11.33,1.25,2.02,3.7,1.89m-34.24-.67c-.12.13-.27.24-.41.35-.06-.07-.18-.17-.16-.21.08-.17.19-.33.39-.66.13.35.21.48.18.52Zm4.46,5.46c-.18-.08-.31-.15-.45-.21.14-.05.28-.13.42-.13.18,0,.35.05.53.08-.16.09-.33.17-.5.26Z"/><path d="m192.27,35.88c-2.98.52-6,.96-8.89,1.8-3.57,1.04-6,2.7-5.36,7.53.13,1,.56,2.39-1.29,2.61-2.38.28-4.76.59-7.11,1.01-2.38.43-4.73,1.03-7.09,1.55-.01-.05-.03-.11-.04-.16-.52,0-1.03.05-1.55.01-.18-.01-.35-.21-.53-.32.16-.12.31-.28.49-.36.43-.2.92-.31,1.32-.56.81-.49,1.57-1.08,2.38-1.58.78-.48,1.71-.78,2.35-1.4.47-.46.76-1.28.81-1.96.07-.9-.2-1.82-.27-2.74-.13-1.74-2.16-3.58-3.9-3.49-1.23.06-4.08,2.3-4.47,3.46-.29.87-.43,2-1.05,2.52-.98.83-.81,1.73-.9,2.74-.05.54-.55,1.04-.85,1.55-.06-.05-.13-.1-.2-.15.33.46.48.87.51,1.26h0s0,.01,0,.01c.04.58-.18,1.14-.51,1.77.22.03.51.01.64-.11.22-.22.34-.55.5-.83.02.39.03.78.08,1.17.03.22.08.51.23.64.84.73,1.67,1.5,2.61,2.09.49.31,1.21.42,1.81.37,1.41-.11,2.82-.36,4.22-.57.14-.02.27-.16.41-.24-.13-.07-.26-.17-.4-.21-.19-.06-.4-.09-.6-.13.22-.04.44-.08.66-.11,2.39-.31,4.78-.56,7.16-.94,1.62-.26,3.21-1.01,4.8-.99,1.33.01,1.67-.6,1.96-1.52.21-.68.25-1.42.45-2.1.17-.56.66-1.1.63-1.62-.02-.33-.75-.61-1.16-.91.33-.42,1-.93.92-1.24-.26-1,.31-1.31.99-1.47,2.64-.61,5.28-1.18,7.94-1.7,1.25-.24,3.46-2.51,3.31-3.71-.05-.38-.71-1.02-.99-.97Zm-26.18,5.59c.19.14.38.28.63.46-.11.12-.21.25-.22.25-.19-.14-.38-.29-.54-.46-.02-.02.09-.17.13-.25Zm-.34,4.51c0,.09-.12.19-.25.36-.12-.23-.22-.36-.25-.5,0-.04.23-.19.29-.16.1.05.2.2.21.31Zm-6.14,1.03c-.1-.41-.13-.51-.13-1.17.34-.46.55-1.05.87-1.56.13-.21,1.08-1.54,1.51-2.28l1.89-1.26c.4.5.81.99,1.21,1.49,1.42,1.79-.52,2.1-1.33,2.76-.83.68-1.87,1.1-2.84,1.61-.36.19-.78.28-1.17.42Z"/><path d="m140.46,50.33s0,0,0,0c0,0,.02-.03.03-.05,0-.03,0-.06-.02-.1,0,.05,0,.1-.01.14Z"/><path d="m140.48,50.18c-.03-.11-.09-.27-.15-.42.04.21.07.39.1.49.01.02.03.06.04.07.01-.04.01-.09.01-.14Z"/><path d="m140.43,50.26c.02.06.03.09.04.07,0,0,0,0,0,0,0-.01-.03-.05-.04-.07Z"/><path d="m181.9,11.73c.66-1.57-2.44-4.08-4.1-3.52-1.95.67-4.78,4.44-4.89,6.55-.08,1.41-1.54,3.07-2.94,3.25-.21.03-.68-.37-.67-.39,1.16-2.39.08-4.6-.76-6.69-.34-.86-1.55-1.58-2.52-1.91-1.01-.35-1.94.25-2.52,1.3-.21.37-.81.52-1.24.77.1-.21.24-.42.3-.64.03-.11-.09-.26-.16-.38-.42-.77-.87-1.52-1.25-2.31-.55-1.15-1.58-.87-2.47-.77-.23.03-.49.8-.53,1.24-.11,1.09.06,2.3-.03,3.4,0,.28-.03,3-.03,3.2,0,.78-.31,2.43-.28,3.2.01.24-4.05,2.76-4.25,2.91-.18.13-.17-.42-.17-.75.1-.25.04-.11.07-.41.01-.11.01-.21,0-.46-.13-.92-.03-1.46-.04-2.08,0-.02,0-.07.02-.13,0,0,0,0,0,0-.13-.17.43-3.88.36-4.07-.48-1.31-3.37-2.89-4.47-2.14-2.23,1.53-4.61,3.07-6.26,5.14-1.39,1.74-1.48,4.19.07,6.32,1.27,1.74,4.57,1.88,5.96.17.09-.11.28-.22.4-.21.14.02.27.17.4.27-.34.46-.61,1.24-1.02,1.32-1.14.21-1.9.57-2.15,1.43-.02.08-.17.14-.27.19-.76.41-1.65.68-2.26,1.26-.96.91-2.16,1.91-2.45,3.07-.27,1.09.42,2.47.83,3.68.24.69,2.39.73,3.19.2.88-.58,1.82-1.07,2.72-1.63,2.66-1.68,4.4-4.05,4.92-7.17.27-1.59,4.57-3.57,5.92-2.75,1.18.71,1.52-.12,1.94-.98,1.36-2.81,2.76-5.59,4.18-8.36.04-.08.76.01.77.1.31,1.52.56,3.05.82,4.57-.09.01-.17.03-.26.04.01.66,0,1.32.04,1.97.06,1.13.44,2.2,1.72,2.18,1.09-.02,2.3-.27,3.21-.82,1.05-.64,1.67-.68,2.25.45.26.5.57,1.02.99,1.37,2,1.71,4.37,1.25,6.69,1.05.16-.01.31-.21.46-.33-.11-.11-.21-.24-.33-.33-.11-.09-.24-.15-.37-.23.17-.06.34-.14.52-.18,1.09-.26,2.28-.34,3.26-.82,1.57-.78,3.02-1.81,4.51-2.76.62-.39,1.4-.72,1.75-1.29.38-.61.64-1.58.42-2.2-.34-.99.2-2.31-1.05-3.04-.15-.09.03-1.36.34-1.5,3.5-1.64,7.06-3.18,10.61-4.74,1.22-.53,1.68-1.6,1.36-2.71-.12-.42-1.33-.7-2.05-.72-.67-.02-1.36.35-2.02.61-3.41,1.35-6.83,2.66-10.19,4.12-1.3.57-2.15,1.69-1.75,3.26.29,1.14.61,2.31,1.12,3.36.76,1.56.6,2.09-1,2.79-1.44.63-2.79,1.47-4.25,2.03-1.36.52-2.81.79-4.23,1.16-1.93.49-2.32-1.33-3.32-2.24-.02-.02.09-.27.18-.3.99-.41,1.99-.81,2.99-1.19.85-.33,1.75-1.46,2.26-2.24m-2.42-3.17s.73-.32.81.44c-.29,1.63-2.09,3.12-3.08,3.43-.1-.1.69-1.67.69-1.68.54-.61,1-1.61,1.57-2.19Zm-30.74,19.38c-.27.2-.79.39-.64.44-.17.05-.35.1-.73.22-.36-.25-1.04-.48-1.18-.89-.15-.43-.07-.92.38-1.46.31-.37,1.28-.93,1.86-1.06.67-.26.78-.14,1.05-.02.28.13.71,1.21.55,1.42.27.12-1.04,1.18-1.29,1.35Zm1.68-12.97c-.72.85-1.41,1.75-2.28,2.43-.35.27-1.4.22-1.64-.08-.75-.92-.09-1.73.64-2.32.88-.71,1.82-1.33,2.77-1.94.25-.16.61-.24.9-.21.15.01.27.35.52.7-.3.49-.55,1.01-.91,1.43Z"/><path d="m125.51,14.66c1.45.06,2.9.06,4.34.2.46.04,1.42.1.74,1.09-.04.06-.04.17,0,.24.99,1.99.37,3.79-1.61,5.22-1.16.83-2.22,1.82-3.23,2.83-1.25,1.26-3.03,1.06-3.55-.58-.15-.46.22-1.28.61-1.67.91-.93,1.97-1.71,2.99-2.52.43-.34.91-.6,1.36-.91.11-.07.28-.19.27-.27-.01-.14-.13-.38-.23-.4-1.01-.14-2-.6-2.9.52-.53.67-1.42,1.25-2.25,1.43-2.31.52-4.69,1.2-7.01,1.08-2.1-.11-4.29-.97-5.26-3.33-.03-.06-.46-.07-.61.04-1.74,1.18-3.43,2.44-5.21,3.56-.54.34-1.31.35-1.98.47-.71.13-1.44.19-2.15.31-.15.02-.32.15-.4.28-.48.76-.83,1.62-1.41,2.28-1.31,1.48-3.01,2.21-5.01,2.34-1.41.09-2.8-1.17-3.26-3.46-.7-3.49-.2-6.33,3.01-8.57,1.65-1.15,3.41-2.13,5.11-3.2.15-.09.33-.34.3-.47-.29-1.16-.59-2.31-.97-3.44-.12-.36-.52-.62-.76-.94-.08-.1-.13-.28-.09-.4.09-.3.24-.58.37-.87-.35-.11-.69-.23-1.04-.33-.19-.06-.38-.1-.56-.15.19-.09.42-.15.57-.29.21-.19.52-.44.53-.67.02-1-.04-2.01-.08-3.01-.05-1.19.64-1.21,1.46-.87,1.67.68,1.92,2.4,2.53,3.78.66,1.48.43,3.24,1.64,4.61.51.57.92,1.57.2,2.46-.03.04,0,.19.03.2,2.17.62.58,2.12.7,3.19.11.98-.15,2-.14,3,0,.34.43.99.49.97.58-.19,1.19-.41,1.67-.78.6-.46,1.06-1.11,1.64-1.61.14-.12.48,0,.73,0,.32,0,.74.1.93-.06.23-.21.35-.64.35-.97,0-.14-.42-.29-.65-.43-.11-.06-.24-.1-.36-.15.1-.08.19-.21.3-.22.85-.08,1.12-.45,1.32-1.37.29-1.31,1.09-2.5,1.72-3.72.08-.15.42-.2.64-.24.19-.03.51.11.56.03.78-1.14.95-.35,1.73.17,1.24.83.82,2,.66,2.58-.26.95-1.21,1.78-2.02,2.5-.94.84-.33,1.51.11,2.12,1.31,1.83,3.17,1.48,5.02,1.18.81-.13,1.64-.13,2.45-.26.1-.02.27-.63.17-.73-.92-.93-1.03-3.22-.23-4.28.62-.81,1.23-1.65,1.71-2.54.74-1.37,4.67-3.94,5.98-3.92,1.17.02,1.26.75.98,1.48-.27.68-.81,1.29-1.34,1.82-1.63,1.66-3.32,3.27-4.97,4.91-.12.12-.19.35-.16.51.02.09.27.18.42.2,1.03.07,2.05.12,3.08.18,0-.04,0-.08,0-.12Zm-25.81,3.19c-.36-.92-.46-1.79-.93-2.14-.34-.25-1.29.06-1.8.39-1.51.97-3.05,1.9-3.95,3.63-.5.98-1.02,3.19-.25,3.47.7.25,1.71-.33,2.58-.55-.11-.42,1.39.25.5-.73,0,0,.31-.4.52-.49.42-.17.89-.22,1.31-.38.12-.04.2-.28.24-.44.07-.32,0-.73.17-.96.48-.64,1.06-1.2,1.6-1.8Zm7.94-.71c.29-.06.48-.1.67-.14-.22-.07-.44-.17-.67-.21-.11-.02-.25.08-.37.13.14.08.28.17.37.22Zm19.53-1.09c-.15.12-.26.21-.38.3.09.05.19.16.25.15.14-.04.27-.14.4-.22-.08-.07-.15-.13-.27-.23Z"/><path d="m159.91,75.72c-.26-.99-.41-2.02-.8-2.95-1.36-3.27-.43-4.85,2.72-5.51,1.4-.29,2.69-1.09,4.07-1.53,2.43-.78,4.89-1.49,7.36-2.16.55-.15,1.19.04,1.79.07-.11,1.07.08,2.31-.41,3.14-.42.71-1.6,1.05-2.5,1.39-1.27.48-2.61.78-3.89,1.23-2.08.73-4.14,1.5-6.19,2.3-.2.08-.37.51-.38.79-.02.79.05,1.58.1,2.36.04.62.12,1.24.2,1.86.02.17.2.37.15.48-.57,1.14-.9,2.59-1.81,3.33-4.05,3.28-9.02,2.59-13.72,2.54-1.56-.02-3.56-.62-4.39-2.69-.21-.53-1.35-.77-2.1-.99-2.51-.75-5.08-.68-7.63-.25-.79.13-1.52.79-2.28.79-1.19.01-1.88.48-2.33,1.49-.02.06-.23.08-.32.05-.69-.23-1.31-.42-.73.7.04.08-.22.44-.31.43-.22-.03-.52-.15-.6-.32-1.73-3.45-3.61-6.85-5.08-10.41-.87-2.12-1.17-4.5-1.52-6.8-.08-.56.66-1.25,1.02-1.88.4.43.97.79,1.17,1.29.63,1.66,1,3.42,1.69,5.05.72,1.68,1.7,3.25,2.56,4.88.25.48.5.96.7,1.46.11.28.14.59.21.89.2-.29.41-.56.58-.86,1.13-1.92,2.22-3.86,3.4-5.75.12-.2.79-.21,1.11-.08.21.09.41.61.36.89-.15.8-.36,1.61-.7,2.35-.28.61-.74,1.14-1.17,1.68-.16.2-.45.3-.68.45.3.13.62.4.9.36,1.27-.16,2.54-.6,3.8-.57,2.41.07,4.81.39,7.21.64.65.07,1.12.26,1.42-.66.97-2.93,2.91-5.23,5.13-7.29.91-.85,2.73-.12,2.76,1.2.03,1.85.19,3.81-1.74,5.1-.76.51-1.28,1.38-1.95,2.03-.48.46-1.07.82-1.58,1.26-.38.32-.7.7-1.05,1.05.42.25.83.71,1.26.73,1.5.06,3.01,0,4.51-.06,1.14-.04,2.34-.4,3.4-.15,1.81.43,3.17-.69,4.77-.93,1.48-.22,1.4-1.31,1.54-2.41Zm-13.79-.19c-.2-.08-.34-.19-.42-.16-.14.06-.23.21-.35.32.12.08.25.23.35.21.13-.03.24-.2.43-.37Zm18.06-6.13c-.1.1-.19.18-.27.26.13.04.25.1.38.1.08,0,.16-.1.24-.15-.1-.06-.21-.13-.34-.21Z"/><path d="m118.14,80.94s0-.01,0-.02c-.01,0-.02,0-.04,0,0,0,.02.01.03.02Z"/><path d="m100,73.93c-.16.08-.35.15-.5.23-.11-.26-.22-.51-.32-.77-.07-.2-.06-.47-.19-.6-.65-.59-1.32-1.16-2.01-1.7-.11-.08-.34,0-.52,0,.36,1.14-.7.67-.87.6-1.29-.55-1.84.32-2.4,1.16-.72,1.08-1.37,2.21-2.14,3.26-.23.31-.76.4-1.17.56-.04.01-.23-.21-.24-.33-.14-1.47-1.48-3.08-2.89-3.26-.57-.07-1.46,0-1.72.35-.87,1.22-1.53,2.6-2.28,3.91-.07.13-.23.22-.36.29-.02.01-.17-.14-.21-.23-.42-.96-.81-1.93-1.26-2.88-.12-.25-.41-.59-.61-.58-.28.01-.7.25-.8.5-.2.49-.32,1.05-.29,1.57.1,1.48.32,2.95.44,4.44.16,1.91.4,2.12,2.32,1.93.23-.02.46-.05.68-.09.37-.07,2.27-3.04,2.35-3.37.13-.53.32-1.13.69-1.49.29-.28,1.1-.47,1.31-.28.8.68,1.44,1.54,2.14,2.33.36.41.65.99,1.1,1.17.44.17,1.01-.03.68.77-.02.05.05.14.08.22.12-.06.3-.1.35-.2.69-1.5,1.61-2.96,1.97-4.54.33-1.45,1.29-1.95,2.35-2.37,1.03-.4,1.13.48,1.4,1.25.42,1.19,1.02,2.33,1.69,3.4.19.3.87.35,1.33.37.14,0,.38-.43.45-.7.25-.97.45-1.95.67-2.92-.6-.6-.93-1.31-1.24-1.98Zm-18.73,7.92c-.18-.07-.39-.31-.4-.48,0-.17.23-.35.35-.52.18.19.37.37.65.66-.28.17-.49.39-.6.34Zm4.9-5.98c-.09.01-.2-.1-.3-.16.09-.08.18-.16.3-.27.13.09.23.15.33.22-.11.08-.21.2-.32.21Z"/><path d="m86.64,53.61c-.07-.28-.04-.6-.17-.84-.64-1.16-1.31-2.29-1.97-3.43-.21-.36-.49-.69-.63-1.07-.18-.48-.22-1.01-.37-1.5-.04-.12-.28-.29-.38-.26-.19.06-.47.22-.49.37-.18,1.56-1.33,2.31-2.5,3.03-1.63,1-3.29,1.91-5.31,1.92-1.18,0-2.2-1.5-1.72-2.66.12-.28.33-.62.27-.88-.45-1.8.93-2.53,1.97-3.46.95-.86,1.97-1.67,2.82-2.61.79-.87,2.96-.78,3.67.17.89,1.21,2.02,2.25,2.85,3.49,1.04,1.54,1.75,3.31,2.86,4.78.88,1.17.71,2.39.89,3.63.04.27.78.69.8.68.84-.94,2.14-1.84,2.3-2.92.21-1.39-.51-2.91-.77-4.39-.25-1.42-.53-2.85-.59-4.28-.05-1.11.65-1.78,1.82-1.86.91-.06,1.82-.17,2.74-.26,0-.05,0-.1.01-.15,2.15.11,4.31.22,6.46.36.25.02.48.25.72.38-.21.07-.44.12-.63.22-.54.29-1.05.69-1.62.9-.83.31-1.7.5-2.56.73-.13.04-.4.04-.4.06.03,1.57-.98.35-1.46.55-.75.3-1.85.34-2.21.88-.39.59-.2,1.63-.09,2.46.2,1.43.62,2.84.78,4.27.16,1.5-.25,3.73-2.28,4.32-1.15.33-2.24,1-3.26,1.65-.35.22-.39.9-.59,1.36-1.01,2.33-2.67,4.08-4.82,5.4-.78.48-1.54,1-2.31,1.51-2.1,1.37-5.29-.45-5.21-2.87.01-.45-.03-.92-.1-1.37-.19-1.3,1.09-3.62,2.28-4.1.05-.02.12-.09.15-.07,1.66-.72,2.52-.99,3.94-1.05,1.47-.06,2.93-.41,4.38-.73.54-.12.03.15.54-.12m-9.5,6.18c.73.85,1.2,1.47,1.77,1.98.08.07.64-.37.97-.57.24-.15.48-.31.72-.47.65-.43,1.31-.86,1.95-1.31.6-.42,1.16-.91,1.78-1.29.37-.23.83-.31,1.25-.46-.45-.12-.9-.25-1.36-.37-.08-.02-.17.02-.25.04-1.76.48-3.52.94-5.26,1.48-.48.15-.89.54-1.56.98Zm.16-13.87c.14-.08.27-.19.42-.24.9-.35,1.83-.64,2.7-1.06.6-.29,1.11-.76,1.81-1.26-.42-.52-.68-1-1.08-1.3-.22-.17-.78-.17-1.01,0-1.42,1-2.79,2.07-4.16,3.14-.19.15-.27.45-.41.69m8.7,9.89c-.43-.19-.7-.41-.82-.35-.27.14-.49.42-.67.67-.03.04.3.43.34.41.33-.17.64-.39,1.16-.73Zm1.66.28c-.36-.17-.53-.32-.64-.28-.27.09-.5.27-.75.41.15.14.33.41.46.39.26-.05.5-.26.94-.51Zm.4-.77c-.12.22-.26.36-.24.48.02.11.19.2.3.3.09-.12.25-.24.26-.37,0-.11-.17-.22-.32-.41Zm-1.33,3.74c-.2-.08-.32-.16-.37-.13-.16.08-.29.22-.44.33.08.05.18.15.23.13.17-.06.32-.17.58-.32Z"/><path d="m64.7,8.38c0,.14-.01.29.01.43.15.85.22,2.4.5,2.44,1.05.15,2.24,0,3.26-.38.98-.37,1.72-1.41,2.71-1.69,1.43-.4,2.98-.5,4.47-.47.52.01,1.01.81,1.52,1.25-.62.25-1.24.5-1.86.77-.16.07-.36.14-.46.27-.28.36-.43.98-.78,1.11-2.48.93-4.99,1.75-7.5,2.61-.82.28-1.14.58-.9,1.67.39,1.71.39,3.52.39,5.29,0,1.04-1.82,2.13-2.88,1.88-.09-.02-.25-.13-.24-.16.17-.58.15-.59-.54-.47-2.64.46-5.28.88-7.91,1.39-.74.14-1.43.55-2.17.75-.72.2-1.06.02-1.04-.9.02-1.41.62-2.26,1.85-2.9.8-.42,1.46-1.11,2.14-1.72.07-.06-.02-.44-.14-.55-1.11-.96-2.4-.92-3.79-.81-1.76.14-3.55.05-5.32-.06-.2-.01-.36-.82-.5-1.27-.37-1.17-.3-2.18.72-3.11,1.45-1.32,2.77-2.77,4.15-4.17,1-1.01,3.05-1.45,4.02-.75.39.28.73.85.76,1.32.02.35-.41.84-.77,1.08-1.54,1.06-3.14,2.04-4.68,3.11-.23.16-.27.66-.31,1.01,0,.05.47.23.72.23.77-.02,1.57,0,2.31-.18,1.86-.45,3.13.83,4.58,1.52.81.38.94,2.42.54,3.38-.31.76-.4,1.61-.55,2.42-.02.1.24.34.36.34.16,0,.41-.15.46-.3.49-1.29,1.38-1.55,2.7-1.27.72.15,1.7-.22,2.35-.67.39-.27.53-1.13.52-1.71-.02-.98-.23-1.97-.41-2.94-.02-.11-.37-.25-.54-.24-.93.1-1.86.36-2.79.35-1.05-.01-1.19-.72-.78-1.65.62-1.39,1.47-2.17,3.04-2.04.07,0,.22-.24.22-.36-.04-1.5-.03-3.01-.2-4.5-.05-.48-.64-.89-.83-1.39-.14-.37-.18-.91-.01-1.26.43-.91.87-1.87,1.54-2.59.46-.49,1.28-.44,1.43.55.27,1.77.5,3.55.75,5.33-.04,0-.09.01-.13.02Zm5.3,1.7c-.26.35-.36.47-.45.6.14.07.29.17.44.18.08,0,.24-.17.23-.25,0-.15-.11-.29-.22-.53Z"/><path d="m19.75,13c1.48-.03,2.95-.04,4.43-.08,1.26-.04,1.45.72,1.45,1.74,0,.23.4.66.6.65.69-.01,1.38-.22,2.07-.27.96-.06,1.2-.38,1.2-1.45-.01-2.89.18-5.78.49-8.66.05-.43,1.11-.99,1.73-1.03.3-.02.98.99.98,1.54.01,2.07-.19,4.14-.3,6.21-.01.26.11.52.18.78.23-.08.49-.11.68-.24,1.59-1.08,2.83-1.08,4.46.03,1.11.75,2.39,1.34,3.29,2.29.61.65.89,1.78.95,2.72.14,2.26.11,4.54,0,6.8-.02.33-.9.7-1.44.87-.13.04-.66-.6-.7-.97-.21-1.86-.24-3.74-.48-5.59-.14-1.07-.51-2.12-.85-3.16-.07-.2-.52-.47-.71-.41-1.7.53-3.39,1.1-5.07,1.71-.18.07-.36.45-.36.68-.02,2.23.07,4.47-.05,6.7-.03.52-.77,1-1.18,1.51-.32-.43-.85-.84-.9-1.29-.11-1.05.1-2.12.04-3.17-.05-.88-.29-1.76-.51-2.62-.02-.07-.5-.09-.75-.04-2.3.42-2.56.28-3.5-1.86-.09-.21-.39-.46-.59-.46-2.07.04-4.15.1-6.22.21-.56.03-1.58.21-1.59.38-.07.96-.03,1.97.23,2.89.24.87.87,1.64,1.18,2.5.09.27-.26.95-.52,1.03-.53.15-1.55.19-1.65-.03-.73-1.69-1.68-3.44-1.76-5.2-.06-1.37-.25-3.41,1.67-4.15,1.1-.42,2.32-.53,3.48-.78l.03.23Z"/><path d="m11.16,71.85c1.74.05,2.85.96,3.96,2,.41.38,1.24.4,1.51.82.91,1.39,1.69,2.87,2.41,4.36.12.24-.23,1-.52,1.11-2.28.84-4.62,1.56-6.91,2.38-.99.35-1.9.91-2.87,1.32-.74.31-1.63.39-2.22.86-.38.3-.54,1.15-.48,1.72.21,1.75.58,3.48.87,5.22.03.19.02.41-.03.6-.12.48-.26.96-.4,1.44-.38-.43-.92-.79-1.1-1.29-.28-.81-.29-1.71-.48-2.56-.08-.37-.32-.7-.51-1.03-.13-.22-.37-.39-.45-.62-.31-1-.59-2.02-.87-3.03-.43-1.52-.8-3.06-1.31-4.55-.63-1.85.15-4.39,1.79-5.39.12-.07.4.05.58.14.11.06.14.24.21.37.06-.15.21-.35.16-.44-.58-1.09.4-1.51.98-1.72,1.86-.68,3.79-1.15,5.69-1.71Zm-6.1,8.76c3.23-1.06,6.27-2.04,9.29-3.08.22-.08.33-.56.41-.87.03-.1-.18-.33-.33-.39-2.84-1.15-6.62-.94-8.92,1.84-.23.28-.56.48-.82.75-.24.25-.68.71-.62.79.26.38.67.67,1,.96Z"/><path d="m70.26,49.11c.15,1.52-.14,2.97-1.65,3.59-1,.41-2.23.53-3.32.41-2.26-.25-4.13-1.3-5.09-3.5-.39-.9-1.04-1.85-.16-2.88.07-.08-.13-.58-.23-.59-.73-.04-.83-1.46-1.89-.78-.99.62-2.02,1.2-3.11,1.61-.89.33-1.89.34-2.82.57-.19.05-.42.47-.4.69.11,1.08.38,2.14.43,3.22.04.89-.14,1.78-.23,2.68-.46-.05-.97,0-1.37-.18-.88-.4-.86-.45-.2-.99.07-.05.12-.19.1-.27-.31-1.25-.59-2.5-.98-3.72-.08-.24-.55-.51-.84-.51-.86-.02-1.74.23-2.56.1-.58-.09-1.52-.63-1.53-.99-.03-.84-.63-2.25,1.13-2.3.23,0,.46-.03.69-.04,1.91-.05,2.04-.29,1.57-2.13-.25-.97-.2-2.01-.35-3.01-.15-1.04-.46-2.07-.54-3.12-.02-.32.48-.68.75-1.02.46.36,1.23.65,1.33,1.1.49,2.14.81,4.32,1.16,6.48.18,1.11.93,1.17,1.79,1.05,1.8-.25,3.59-.49,5.38-.79,1.66-.28,3.32-.55,4.95-.94,2.65-.63,4.43.85,6.03,2.53.95,1,1.56,2.32,2.32,3.49-.12.08-.25.17-.37.25Zm-7.74-3.77c-.31.24-1.13.58-1.12.91.01.7.24,1.71.74,2.04,1.19.79,2.9.96,3.82,1.93.94.99.86,2.09,2.03.07.67-1.15.5-1.42-.2-2.1-1.42-1.38-2.9-2.62-5.27-2.85Z"/><path d="m9.29,11.3c-1.9.5-4.04,1-6.12,1.67-.29.09-.38,1.02-.41,1.56-.02.38.22.78.35,1.16-.58-.02-1.4.2-1.71-.1-2.58-2.49-1.27-4.47,1.39-5.44,2.12-.78,4.4-1.3,6.64-1.46,1.69-.12,3.69.16,4.82,1.66.59.78.74,2.14.6,3.17-.25,1.79-.74,3.58-1.39,5.26-1.23,3.18-5.63,7.83-9.53,7.67-.83-.03-1.96-.77-2.37-1.51-.95-1.71-1.22-3.58.66-5.04.12-.09.18-.29.24-.45,1.1-3.15,3.43-4.93,6.53-5.86.27-.08.47-.38.73-.53.33-.19.66-.39,1.02-.5.29-.09.61-.05.92-.08-.2-.31-.32-.77-.6-.9-.44-.2-.98-.19-1.76-.31Zm-3.38,12.77c.28-.35.65-.86,1.05-1.33,1.41-1.65,2.87-3.26,4.22-4.95.31-.38.25-1.05.36-1.59-.6-.11-1.2-.24-1.81-.32-.17-.02-.37.13-.55.21-3.03,1.4-4.82,3.81-5.61,6.98-.06.22.3.71.56.81.44.17.96.12,1.77.19Z"/><path d="m113.92,72.09c-2.05.18-4.35.34-6.6.63-.31.04-.48.71-.56,1.11-.05.28.17.59.28.89-.61-.07-1.49.01-1.8-.24-2.53-2.09-.99-3.41,1.89-3.87,2.29-.36,4.75-.52,7.13-.42,1.8.08,3.88.48,4.96,1.7.56.64.61,1.65.38,2.39-.4,1.29-1.06,2.56-1.88,3.73-1.55,2.22-6.56,5.2-10.67,4.7-.87-.11-2.01-.76-2.38-1.35-.87-1.36-1-2.75,1.09-3.64.14-.06.21-.19.28-.31,1.41-2.21,4.01-3.29,7.36-3.67.29-.03.53-.23.82-.32.36-.11.73-.22,1.12-.26.31-.04.65.02.98.04-.18-.25-.28-.6-.56-.72-.45-.19-1.02-.24-1.84-.4Zm-4.58,9.07c.32-.23.75-.57,1.22-.88,1.62-1.07,3.29-2.11,4.85-3.23.35-.25.35-.75.51-1.14-.63-.14-1.25-.3-1.88-.41-.18-.03-.4.06-.6.1-3.31.73-5.38,2.33-6.47,4.59-.08.16.26.55.53.65.45.17,1,.18,1.85.31Z"/><path d="m12.99,39.04c2.15.27,3.24,1.97,2.12,3.9-1.26,2.18-2.8,4.23-4.43,6.16-1.6,1.89-3.53,3.49-5.17,5.35-.34.38-.1,1.34,0,2.02.4,2.73.87,5.46,1.27,8.19.06.41.04.97-.19,1.24-.27.31-.82.41-1.27.51-.08.02-.34-.4-.38-.64-.32-1.91-.58-3.84-.93-5.75-.22-1.22-.74-2.41-.83-3.64-.19-2.76-.19-5.54-.29-8.31,0-.15-.28-.4-.44-.4-.33,0-.67.19-1,.18-.61-.03-.85-.1-.72-.99.32-2.24,2.08-3.01,3.6-3.99,1.67-1.07,3.46-1.99,5.26-2.82,1.06-.49,2.26-.68,3.4-1Zm-8.37,10.08c.07,2.25.16,2.36,2.06,1.42.62-.31.92-1.21,1.43-1.78,1.24-1.41,2.57-2.74,3.74-4.19.33-.41.23-1.15.33-1.74-.51,0-1.12-.19-1.53.02-1.63.82-3.2,1.74-4.78,2.66-.25.15-.42.44-.63.66.25.04.52.06.76.14.33.12.64.3.96.45-.27.13-.54.3-.82.39-1.03.34-1.89.78-1.53,1.97Z"/><path d="m38.67,79.34c-.44-1.63-.89-3.25-1.33-4.88-.1-.36-.28-.72-.28-1.08-.01-1.46-.75-1.67-2.23-1.06-2.86,1.16-5.66,2.43-8.49,3.65-.03.01-.05.02-.08.03-.6.17-1.19.34-1.79.5.26.88.28,1.99.84,2.6,1.29,1.43,1.34,3.14,1.6,4.83.02.13-.12.42-.15.41-.32-.06-.78-.05-.93-.26-1.19-1.63-2.5-3.21-3.4-5-.74-1.47-1.05-3.19-1.37-4.83-.08-.39.44-1.17.85-1.33,2.75-1.02,5.57-1.85,8.32-2.87,1.57-.58,3.02-1.47,4.59-2.07.44-.17,1.12.08,1.62.3.36.16,1,.58-.03.87-.13.04-.19.63-.13.94.02.12.53.32.66.24,1.03-.64,1.33.2,1.6.83.69,1.62,1.37,3.25,1.91,4.92.59,1.83.96,3.72.26,5.6-.05.13-1.14.15-1.28-.08-.43-.66-.62-1.47-.91-2.22.05-.02.11-.04.16-.06Z"/><path d="m24.19,50.21c-.39,1.08-.71,2.19-1.2,3.22-.14.3-.73.52-1.11.52-.22,0-.59-.49-.64-.8-.43-2.58-.76-5.19-1.2-7.77-.65-3.85-1.33-7.69-2.04-11.53-.2-1.1.42-2.29,1.54-2.51.17-.03.57.39.64.66.24.98.36,1.99.55,2.99.68,3.49,1.36,6.97,2.06,10.45.04.21.26.39.39.58.15-.18.4-.35.43-.54.28-2.05,1.76-2.66,3.5-3.02.54-.12,1.05-.49,1.59-.53,1.49-.11,2.56.72,3.15,1.96.71,1.48,1.25,3.05,1.72,4.63.15.51-.04,1.19-.26,1.72-.11.27-.64.36-.98.54-.11-.28-.2-.56-.32-.83-.62-1.33-1.15-2.72-1.93-3.95-.28-.43-1.23-.68-1.83-.61-2.85.32-4.4,2.1-4.04,4.83Z"/><path d="m68.84,81.29c.02,1.41.15,2.75,0,4.06-.04.38-.84.71-1.35.97-.08.04-.57-.44-.63-.73-.2-1.06-.34-2.15-.44-3.23-.12-1.23-.73-1.67-1.95-1.49-.5.07-1.13-.02-1.54-.29-1.08-.7-2.13-1.56-.98-2.98.17-.21.77-.08,1.17-.08.26,0,.53.06.79.04.16-.01.31-.12.46-.18.48-.18,1.4-.43,1.38-.53-.16-.93-.46-1.84-.75-2.75-.04-.13-.35-.24-.33-.33.23-1.43.47-2.86.77-4.27.03-.16.43-.37.61-.33.17.04.34.35.4.57.62,2.09,1.18,4.19,1.85,6.26.09.28.71.64.99.57,1.26-.32,2.48-.79,3.73-1.17.91-.28,1.84-.55,2.78-.68.19-.03.73.79.67.86-.63.76-1.35,1.44-2.05,2.15-.45.46-.85.97-1.35,1.35-.21.16-.62.09-.94.08-.14,0-.32-.19-.41-.15-.89.42-1.8.82-2.63,1.34-.22.13-.19.65-.26.93Zm5.71-4.76c-.34-.17-.53-.32-.72-.33-.13,0-.28.17-.42.26.18.1.36.24.55.28.12.03.27-.09.58-.21Z"/><path d="m57.99,81.63c.06,1.16.37,2.3-.47,3.31-.15.19-.35.34-.52.51-.12-.2-.3-.38-.34-.6-.3-1.4-.41-2.86-.87-4.21-.81-2.36-2.52-3.14-4.95-2.42-.14.04-.18.44-.24.67-.04.14.03.37-.05.42-1.48,1.08-1.74,2.77-2.24,4.35-.08.24-.31.59-.5.61-.32.04-.81-.04-.98-.26-1.35-1.67-2.99-3.18-2.69-5.69.13-1.11-.16-2.27-.27-3.4-.08-.04-.16-.09-.25-.13.27-.63.55-1.26.82-1.89.57.54,1.3.99,1.67,1.64.34.59.06,1.57.45,2.08.77,1.01.59,2.03.52,3.1,0,.06.27.13.42.19.04-.12.11-.23.13-.35.47-2.38,2.79-5.71,5.64-5.18,1.83.33,3.36,1.44,3.82,3.21.16.59.5.99.61,1.49"/><path d="m209.31,48.41c-.81-.08-1.26-.12-1.72-.18-1.34-.17-1.71.26-1.27,1.57.69,2.03.34,3.87-.98,5.51-.17.21-.69.2-1.04.17-.11,0-.27-.41-.28-.63-.08-1.82-.09-3.63-.23-5.44-.02-.27-.67-.75-.94-.69-1.09.22-2.13.67-3.21.91-.31.07-.85-.2-1.05-.48-.3-.43-.56-1-.55-1.51.01-.46.31-1.18.66-1.33,1.1-.44,2.28-.68,3.44-.96,1.18-.28.55-1.11.52-1.72-.02-.41-.33-.82-.31-1.23.02-.6.22-1.19.34-1.78.7.49,1.44.94,2.1,1.49.23.19.33.62.34.95.11,2.13,1.57,1.82,2.96,1.7.5-.04,1.14-.18,1.49.05.63.43,1.58,1.18,1.51,1.66-.14.96-.62,2.16-1.78,1.91Z"/><path d="m35,48.09c.57-1.44,1.02-2.95,1.75-4.3.79-1.46,2.75-1.64,3.97-.54,1.51,1.35,2.27,3.1,2.47,5.07.14,1.35.33,2.76.11,4.07-.13.74-1.05,1.35-1.63,2-.02.02-.34-.14-.33-.18.24-1.18-.54-.84-1.14-.78-2.36.22-4.76-2.37-4.8-5.18-.13-.05-.27-.11-.4-.16Zm1.53-.11c.88.63,1.46,1.19,2.15,1.5.74.33,1.58.42,2.38.62-.15-.7-.31-1.4-.46-2.1-.02-.08-.01-.19-.06-.25-.69-.78-1.19-2.04-2.5-1.59-.55.19-.88,1.03-1.51,1.83Z"/><path d="m205.36,19.52c-.34,1.87-.52,3.7-1.03,5.43-.47,1.57-3.11,2.93-4.68,2.56-.24-.06-.57-1.03-.4-1.33.56-1.01,1.28-1.95,2.02-2.85,1.37-1.66,1.45-3.53,1.09-5.51-.03-.17-.18-.35-.14-.49.17-.62.39-1.22.59-1.83.48.45,1.09.83,1.41,1.37.49.82.78,1.75,1.15,2.63Z"/><path d="m135.92,21.51c-.04-2.35-.08-4.7-.13-7.05,0-.4-.17-.89,0-1.19.21-.37.71-.85,1.05-.82.6.06.89.46,1.26,1.17,1.04,2.01.69,4.03.68,6.02,0,1.31-.67,2.63-1.1,3.92-.07.22-.66.5-.72.44-.47-.45-.93-.93-1.26-1.48-.14-.24.03-.66.06-1h.17Z"/><path d="m77.94,22.14c-.46,1.15-.83,2.08-1.21,3.02-.41,1.02-.64,2.16-1.25,3.03-.97,1.39-2.19,2.62-3.32,3.91-.07.08-.24.08-.37.11-.21-.85-.85-1.91-.56-2.52,1.17-2.44,2.64-4.75,3.98-7.11.12-.22.14-.5.25-.73.18-.37.4-.73.61-1.09.6.44,1.19.88,1.86,1.38Z"/><path d="m41.32,3.93c1.77-.06,3.32,1.42,3.26,2.83,0,.15-.47.44-.68.41-.65-.11-1.27-.36-1.91-.52-1.11-.26-1.56-1.01-1.38-2.05.06-.33.59-.57.7-.67Z"/><path d="m139.17,6.06c-.27.4-.43.85-.74,1.03-.2.12-.66-.09-.94-.26-1.32-.81-1.89-2.78-.92-3.33.33-.19,1.17-.04,1.4.25.51.65.79,1.48,1.2,2.31Z"/><path d="m37.79,63.19c-.23.59-.38.98-.54,1.37-.35-.3-.9-.54-1-.91-.23-.83-.25-1.73-.31-2.6,0-.02.67-.18.72-.09.42.74.77,1.51,1.13,2.24Z"/><path d="m181.77,69.92c.38.19.93.27,1.09.57.43.81-.33,1.13-.83,1.51-.04.03-.13.06-.15.04-.09-.09-.23-.19-.24-.3-.03-.6-.03-1.21-.03-1.81,0,0,.11-.01.16-.02Z"/><path d="m16.34,53.96c.26-.37.49-.71.72-1.05.14.22.45.51.39.65-.15.37-.46.68-.71,1.01-.11-.16-.22-.33-.41-.6Z"/><path d="m140.5,23.53c-.16-.2-.31-.37-.3-.38.25-.27.5-.54.79-.75.07-.05.29.12.45.19-.29.29-.58.57-.94.93Z"/><path d="m103.73,48.35c-.45.2-.73.44-.89.38-.25-.1-.41-.41-.61-.63.18-.13.36-.36.54-.37.18,0,.37.22.96.62Z"/><path d="m193.28,33.97c.08.04.18.1.29.15-.28.13-.55.33-.84.37-.22.03-.47-.16-.71-.26.4-.08.8-.17,1.26-.26Z"/><path d="m174.69,29.66c.16-.13.25-.26.35-.26.11,0,.22.1.33.16-.09.11-.17.27-.29.32-.06.03-.21-.11-.39-.22Z"/><path d="m114.98,15.8c.12.1.19.17.26.23-.15.1-.28.21-.44.28-.06.02-.16-.07-.25-.11.13-.12.27-.25.43-.4Z"/><path d="m177.52,4.76c-.09-.18-.19-.3-.17-.34.07-.1.2-.16.3-.24.05.06.15.14.13.18-.04.11-.13.21-.26.4Z"/></g></g></svg>