<?xml version="1.0" encoding="UTF-8"?><svg id="Layer_2" xmlns="http://www.w3.org/2000/svg" viewBox="0 0 209.27 105"><g id="Layer_5"><g><g><path d="m103.75,5.88c.21,2.11.43,4.21.63,6.32.05.57.02,1.14.09,1.71.35,2.87.79,5.73,1.06,8.6.1,1.08-.14,2.2-.31,3.28-.04.24-.4.5-.67.63-.85.41-1.75.72-2.59,1.14-1.41.71-2.83,1.11-4.42.64-.57-.16-1.2-.09-1.77-.24-1.63-.42-1.9-1.77-1.86-3.14.07-2.24.98-4.11,2.87-5.41,1-.69,2.03-1.37,3.12-1.91.59-.29,1.33-.27,2-.42.12-.03.21-.17.32-.25-.07-.08-.16-.25-.21-.23-.88.17-.72-.46-.76-.96-.07-.87-.16-1.73-.24-2.6-.21-2.43-.42-4.87-.62-7.3-.11-1.33-.21-2.65-.28-3.98-.05-.95,1.54-2.11,2.33-1.65.34.2.61.72.69,1.14.29,1.53.49,3.08.72,4.62h-.1Zm-4.63,20.07c.42-.23,1.05-.57,1.67-.91.55-.29.83-.67.78-1.36-.04-.51.21-1.05.33-1.57.08-.36.17-.71.25-1.07,0-.03-.03-.07-.05-.1-.15-.22-.33-.43-.46-.67-.31-.6-2.08-1.03-2.46-.54-.74.95-1.51,1.91-2.09,2.96-.85,1.53.15,3.27,2.02,3.27Z"/><path d="m151.26,29.94c-.53-1.7-1.03-3.28-1.52-4.86-.07-.23-.12-.47-.18-.7-.03-.13-.05-.27-.08-.4-.21.09-.51.11-.62.27-.62.94-1.51,1.36-2.59,1.47-.84.09-1.68.27-2.52.31-.48.02-.97-.15-1.45-.24-.07-.01-.18-.12-.17-.15.24-.68-.37-.7-.7-.97-.19-.15-.33-.44-.37-.69-.3-1.84-.6-3.74.78-5.27.69-.76,1.69-1.25,2.55-1.85.06-.04.18-.02.23-.07,1.25-1.44,2.38-.43,3.58.12,1.54.71,2.12,2.2,2.87,3.49.87,1.52,1.53,3.18,2.12,4.84.29.82.27,1.76.34,2.65.08.98.22,1.97.13,2.94-.12,1.16-.25,2.4-.75,3.42-.63,1.27-1.09,2.74-2.62,3.43-.44.2-.76.6-1.33.47-.11-.03-.34.19-.42.34-.32.63-.81.87-1.5.9-1.53.06-3.01.19-4.12-1.28-.69-.93-.93-2.05-.38-3.09.36-.67.62-1.39.95-2.08.05-.11.34-.23.37-.2.16.16.4.38.39.56-.07.98.28,1.75.87,2.54,1.18,1.58,3.91.84,4.5-.61.69-1.69,1.1-3.49,1.64-5.26Zm-7.68-8.47s.08.02.12.03c0,.14,0,.27,0,.41,0,1.45.96,2.33,2.37,1.97.68-.17,1.27-.73,1.9-1.12.02-.01.01-.08,0-.11-.2-.73-.4-1.46-.62-2.18-.21-.68-1.01-1.2-.58-2.07.01-.03-.17-.22-.27-.22-.32-.02-.67-.05-.97.05-.48.16-1.19.31-1.35.66-.36.8-.43,1.72-.62,2.59Z"/><path d="m176.42,25.01c.03-2.29.82-4.02,2.09-5.59,1.17-1.45,2.66-2.4,4.44-2.85.46-.12,1.08.1,1.53.34,1.47.79,2.26,2.07,2.03,3.73-.07.51-.71,1.09-1.24,1.34-1.22.58-2.5,1.11-3.81,1.43-.99.24-2.14,1.24-1.68,1.88.73.99,1.55,2.04,2.58,2.66,1.85,1.13,3.96,1.61,6.17,1.52.26-.01.77.41.76.59-.04.44-.21,1.04-.53,1.24-1.26.75-2.68.86-4.13.63-3.13-.5-6.83-2.35-8.1-6.11-.11-.33-.09-.7-.11-.79Zm7.17-4.25c.03-1.09-.65-1.48-1.33-1.73-.25-.09-.75.2-.99.46-.4.43-.71.96-1,1.48-.1.18-.03.46-.04.69.23,0,.46.04.68,0,.64-.15,1.29-.31,1.92-.51.31-.1.58-.28.78-.38Z"/><path d="m157.91,21.83c-.09-.63-.08-1.29-.28-1.89-.38-1.13.23-1.86.93-2.52.52-.5,1.83.09,2.16.89.07.18.21.33.32.49.15-.12.3-.24.45-.36.72-.62,1.35-1.5,2.19-1.8.76-.27,1.85-.11,2.62.23.87.39,1.67,1.1,2.28,1.85,1.75,2.12,2.78,4.6,3.15,7.33.12.92-.51,1.74-1.45,1.89-.13.02-.27.04-.4.07-1.06.19-1.08.09-1.15-.97-.06-.92-.39-1.83-.54-2.75-.28-1.72-1.55-2.9-2.31-4.36-.21-.4-.68-.71-1.1-.94-.44-.24-.98-.24-1.16.38-.35,1.26-.76,2.53-.91,3.82-.13,1.11-.55,2.03-1.55,2.5-.49.23-.91.61-1.41.79-.2.07-.71-.13-.77-.32-.47-1.42-.86-2.86-1.28-4.29.07-.02.14-.04.21-.05Z"/><path d="m201.65,17.96c-1.36.25-2.72.51-4.09.74-.68.11-1.37.24-2.05.24-.99,0-1.01.67-1.05,1.35-.02.28-.04.57,0,.85.12.86.21,1.72.41,2.56.28,1.19.69,2.34.97,3.53.21.89-.99,2.28-1.89,2.08-.37-.08-.8-.78-.84-1.23-.11-1.02-.64-1.83-.94-2.74-.47-1.4-.93-2.95-.79-4.37.2-1.97,1.26-3.56,3.53-3.96,1.67-.3,3.29-.84,4.96-1.14,1.26-.23,2.56-.34,3.84-.3.45.02.92.62,1.29,1.03.09.09-.11.67-.28.74-.98.38-1.99.67-2.99.99-.03-.12-.05-.24-.08-.36Z"/><path d="m109.26,21.93c.27-.69.59-1.59.98-2.46.08-.19.43-.26.65-.39.07-.04.16-.11.17-.18.14-1.1.9-1.71,1.81-2.08,1.31-.54,2.67-1.07,4,0,.47.38.8.73.42,1.47-.77,1.48-1.97,2.37-3.44,3.03-1.11.5-1.32,1.29-.81,2.44.37.84.92,1.32,1.9,1.24.77-.06,1.56-.08,2.32,0,.37.04.71.37,1.06.58-.21.31-.35.73-.63.91-1.76,1.11-3.7,1.17-5.65.72-1.13-.26-2.17-1.75-2.3-2.91-.08-.69-.27-1.37-.47-2.36Zm4.23-2.28c.36-.36.67-.68.96-1.01.02-.02-.19-.23-.29-.34-.34.33-.68.66-1,.99,0,0,.13.15.33.36Z"/><path d="m124.47,27.77c-.57-.25-1.18-.47-1.73-.79-.16-.09-.25-.66-.19-.69.52-.3.66-1.03,1.6-.93.84.09,1.76-.49,2.64-.79.1-.03.22-.23.2-.33-.25-1.2-.11-2.55-1.19-3.45-.16-.14-.45-.21-.67-.18-1.08.13-2.15.32-3.23.45-.97.12-1.25-.26-.8-1.17.6-1.19,1.25-2.35,1.96-3.47.32-.5.8-.92,1.29-1.28.2-.14.64-.08.89.05.14.07.26.5.18.67-.26.61-.64,1.17-.92,1.77-.13.29-.15.63-.22.95.27-.04.54-.06.8-.12,1.97-.48,3.96.19,4.43,2.46.21,1,.35,2.02.5,3.04.08.54-.94,1.91-1.6,2.2-.92.41-1.83.84-2.75,1.24-.35.15-.74.23-1.21.38Z"/><g><path d="m136.5,17.87c.24,2.19.45,4.39.73,6.58.11.9-.88,1.8-1.96,1.91-1.68.18-1.19-1.18-1.3-1.88-.25-1.68-.37-3.4-.35-5.09.01-1.06-.09-2.23.74-3.12.33-.35.7-.71,1.13-.88.21-.08.77.23.85.47.2.63.22,1.32.32,1.99-.05,0-.1.01-.15.02Z"/><path d="m137.32,7.93c.06.61-.26,1.13-1.04,1.35-.51.14-1.02.35-1.53.35-.24,0-.54-.4-.69-.69-.42-.8,0-1.47.55-1.98.44-.41,1.06-.92,1.56-.87.42.04.79.8,1.15,1.26.07.08,0,.26,0,.58Z"/></g></g><path d="m68.01,69.06c.26-.34.44-.81.76-.94.29-.12.76.07,1.11.22.71.31,1.01.88,1.05,1.68,0,.21.58.41.91.58.45.24.92.46,1.39.66.97.41,1.68-.23,2.34-.73.62-.48,1.14-1.12,1.58-1.77.32-.48.41-1.1.65-1.64.46-1.06,1-2.1,1.4-3.18.14-.4-.04-.91-.09-1.37-.15-1.55-.3-3.09-.45-4.64,0-.01,0-.03,0-.04-.16-.35-.32-.7-.48-1.05-.23.23-.6.43-.68.7-.44,1.54-3.71,2.31-5.01,1.77-.81-.33-1.49-.73-2.2-1.23-.77-.54-.91-1.29-1.04-1.99-.15-.8-.04-1.67.1-2.49.14-.78.48-1.53.73-2.29.19-.57,1.65-1.56,2.34-1.53,1.6.05,3.16.26,4.55,1.17.33.21.96.07,1.18.33.61.74,1.18,1.56,1.58,2.43.53,1.13.95,2.32,1.29,3.51.42,1.46.83,2.94,1.01,4.45.12,1.02-.14,2.09-.26,3.14-.07.58-.14,1.17-.29,1.73-.1.37-.35.69-.49,1.05-.19.46-.31.96-.51,1.41-.18.4-.41.78-.65,1.15-.39.6-.75,1.24-1.23,1.76-1.06,1.14-2.3,2.24-3.93,2.11-2.22-.18-4.32-.96-5.79-2.78-.44-.54-.55-1.34-.87-2.16Zm3.58-12.93c.12.28.17.68.4.84.91.64,1.83.22,2.66-.22.31-.17.4-.7.7-.96.96-.84,1.25-1.76.85-2.93-.2-.59-1.81-1.18-2.36-.9-1.73.85-1.68,2.62-2.24,4.16Z"/><path d="m150.26,89.83c.05-.15.12-.3.13-.45.04-.63.16-1.29.05-1.89-.05-.24-.63-.52-.98-.53-1.85-.07-3.71-.09-5.56-.07-.71,0-1.41.16-2.11.28-.08.01-.18.24-.18.36.01,1.16.06,2.33.06,3.49,0,.37-.12.75-.19,1.12,0,.05-.05.1-.09.14-.28.22-1.48-.23-1.59-.57-.04-.11-.23-.27-.29-.25-.79.33-.69-.39-.69-.69-.01-.81.15-1.62.15-2.43,0-.49-.21-.97-.3-1.46-.18-1.04-.37-2.08-.5-3.13-.05-.41.06-.85.06-1.27,0-.13-.09-.26-.16-.38-.06-.1-.22-.23-.19-.28.46-.85-.1-1.73.11-2.61.11-.45-.17-.98-.19-1.48-.01-.38.16-.76.16-1.14,0-.51-.1-1.01-.14-1.52-.03-.32,0-.65-.03-.97-.02-.39-.07-.78-.09-1.17-.02-.31-.14-.82-.02-.89.34-.18.78-.26,1.17-.24.33.02.68.18.97.37.8.52,1.02,1.34,1,2.23-.04,2.07-.14,4.15-.15,6.22,0,.8.15,1.61.25,2.41.02.14.16.27.25.4.11-.12.26-.21.34-.35.38-.65.75-1.3,1.11-1.96.26-.46.42-1.02.77-1.39.82-.86,1.65-1.74,2.62-2.41.38-.26,1.21-.1,1.72.12.55.24.91.83.8,1.51-.03.17-.33.27-.48.43-.68.75-1.34,1.5-2.01,2.25-.48.54-.98,1.06-1.45,1.62-.11.13-.2.41-.13.52.08.12.34.15.52.16,1.31.1,2.62.15,3.92.3.54.06,1.04.36,1.57.54,1.54.54,2.28,1.74,2.73,3.23.39,1.28.18,2.55-.49,3.56-.55.82.06,1.75-.63,2.49-.49.52-.75.98-1.45.28-.35-.36-.88-.55-1.32-.83-.1-.06-.16-.17-.24-.26.09-.06.17-.12.26-.18.1-.07.19-.13.29-.19-.08-.08-.17-.16-.24-.25-.08-.09-.23-.24-.21-.28.27-.46.57-.9.86-1.35.04-.06.11-.19.09-.2-.96-.8.53-.41.1-.97Z"/><path d="m28.85,102.43c-.17-1.3-.32-2.53-.51-3.76-.36-2.26-.75-4.51-1.11-6.76-.3-1.88-.57-3.77-.9-5.65-.09-.5-.43-.95-.51-1.45-.17-1.14.68-1.76,1.47-2.2,2.71-1.5,5.68-1.84,8.67-1.33,1.28.22,2.5,1.17,3,2.43.26.67-.09,1.66-.36,2.44-.32.91-.96,1.59-1.89,2.07-.63.32-.98,1.17-1.6,1.55-1.11.68-2.32,1.2-3.5,1.77-.32.15-.84.15-.96.38-.18.33-.11.82-.08,1.23.07.99.18,1.97.29,2.96.02.2.16.39.2.59.28,1.39.59,2.78.82,4.19.16.98.24,1.99.3,2.98.04.68-.97,1.32-1.64,1.1-.77-.26-1.74-1.78-1.67-2.53Zm4.08-18.52c-.8.07-1.52.13-2.24.21-.11.01-.24.13-.29.24-.27.63-.64,1.25-.75,1.91-.11.62.02,1.29.13,1.92.02.15.38.37.55.34.51-.09,1.01-.25,1.49-.44,1.64-.68,2.86-1.9,4-3.22.09-.11.18-.29.15-.4-.03-.11-.22-.23-.35-.25-.92-.12-1.84-.21-2.68-.31Z"/><path d="m122.09,61.7c.04.15.09.3.11.46.18,1.42.36,2.83.51,4.25.1.87.25,1.74.2,2.6-.03.48-.35,1.27-.66,1.33-.71.13-1.67.29-2.08-.6-.3-.65-.37-1.42-.55-2.13-.07-.27-.25-.52-.27-.79-.13-1.34-.16-2.69-.36-4.02-.14-.94-.56-1.84-.73-2.78-.13-.76-.07-1.55-.09-2.33,0-.05-.02-.11-.05-.16-.22-.33-.56-.63-.65-1-.26-1.06-.5-2.13-.6-3.21-.04-.53-.2-.87-.49-1.3-.3-.45-.3-1.12-.35-1.7,0-.05.7-.31.95-.2.88.38.75-.2.91-.72.15-.47.59-.85.91-1.26.17.13.34.26.49.39.04.04.04.14.09.17.03.02.15-.02.17-.06.32-.93,1.17-.66,1.7-.55,1.24.24,2.49.58,3.63,1.11,1.21.56,2.32,1.36,3.44,2.1.39.26.71.64.99,1.02.16.22.65.57,0,.85-.05.02-.05.17-.08.26.09.01.18.02.26.04.18.06.44.07.52.2.33.5-.07,1.71-.56,2.03-.9.61-1.7,1.43-2.67,1.88-1.07.5-2.27.72-3.43,1.01-.25.06-.57-.16-.85-.16-.15,0-.44.17-.44.28-.06.79-.04,1.58-.08,2.36-.01.2-.15.38-.23.58.11,0,.21.02.32.03Zm-.75-11.55c-.21.43-.49.74-.48,1.04.04.7.23,1.39.35,2.08.02.15-.01.31-.02.46-.01.18-.09.37-.04.53.14.47.32.93.52,1.38.06.13.25.29.37.27.68-.07,1.36-.14,2.02-.3.56-.14,1.07-.49,1.63-.6.74-.15,1.3-.47,1.57-1.17.07-.18.05-.52-.06-.62-.62-.5-1.23-1.03-1.93-1.38-1.21-.61-2.49-1.09-3.92-1.7Zm.22,9.54c-.04-.09-.09-.18-.13-.26-.13-.07-.25-.17-.38-.18-.07,0-.16.14-.23.22.13.11.24.25.39.31.09.04.24-.05.36-.09Zm-1.55-9.29c-.32-.04-.5-.11-.66-.08-.1.02-.17.19-.26.29.06.05.15.15.19.14.2-.07.38-.18.72-.35Z"/><path d="m142.13,51.26c-.7.31-1.63.64-2.02,1.69-.01.04-.03.09-.06.11-1.1.49-.73,1.55-.93,2.39-.17.71-.24,1.47-.54,2.12-.12.26-.73.3-1.12.44-.18.07-.4.1-.53.23-.67.68-1.84.53-2.27-.37-.22-.45-.31-.99-.36-1.49-.07-.79.06-1.62-.11-2.38-.2-.87-.69-1.68-.94-2.54-.37-1.26-.65-2.54-.93-3.83-.07-.31.02-.64.01-.97,0-.09-.12-.17-.16-.26-.29-.6-.64-1.18-.85-1.8-.26-.75-.45-1.53-.56-2.31-.04-.28.18-.8.38-.86.91-.26,1.9.59,2.68,1.31,1.34,1.25,1.3,3.01,2.07,4.45.46.86.77,1.81,1.03,2.76.11.41-.08.9.49,1.09.11.04.21.12.32.19.02-.11,0-.24.06-.33.09-.17.17-.37.32-.47.39-.29.8-.54,1.2-.81.09-.06.13-.22.21-.24,2.66-.58,5.07-.2,6.96,1.93.28.31.29.85.45,1.27.05.14.2.24.31.35.1.1.21.19.32.29-.14.07-.28.14-.42.2-.15.06-.3.11-.46.17.18.05.35.11.53.16.16.04.33.07.49.1-.07.13-.15.25-.2.38-.03.08,0,.25.01.25,1.01.14.63,1.18,1.07,1.69.17.2.15.56.21.85.22,1.08-.7,2.02-1.77,1.7-.45-.13-.96-.57-1.13-.99-.33-.83-.4-1.75-.65-2.62-.17-.59-.47-1.15-.71-1.73-.16-.39-.41-.77-.44-1.17-.07-1.14-.96-.78-1.57-.95-.05-.01-.11,0-.41,0Zm5.63,5.13c.15-.16.26-.28.37-.4-.21-.05-.43-.11-.64-.13-.07,0-.15.12-.23.18.15.1.3.2.51.35Zm-9.98.72c-.14-.17-.23-.28-.32-.38-.07.11-.18.21-.19.33,0,.07.11.21.19.24.07.02.17-.09.33-.18Z"/><path d="m106.46,82.81c.43.38.84.79,1.16,1.26.13.18.72,1.4-.02,1.25-.04,0-.07,0-.14-.13-.01-.02-.28-.27-.25-.26.33.04.68.15.99.08.16-.03.23-.4.36-.59.42-.61.73-1.49,1.31-1.75.83-.37,1.86-.65,2.77.14.72.62,1.34,1.43,1.25,2.51.12.42.5.58.81.92.51.56.28.88.28.88-.03.05.2.26.18.32.08,0,.12.76.2.77.21.01-.21-.01,0,0-.12.11.12-.11,0,0-.03.03.18.18.15.23.06.02.62.34.68.37.25.16-.25-.17,0,0,.12.08-.11.58,0,.67v-.67c.21.53.33.83.44,1.12-.21-.03.1.29-.11.27-.08,0,.12.06.12.08.02.29.01.08.12.35.05.13-.05.18.05.13,0,0,.41.74.47,1.12.12.1.03.46.01.7,0,.07-.06.15-.1.21-.01.01-.1-.03-.15-.05-.12-.05-.24-.1-.35-.15,0,.23-.02.47.01.69.01.1.12.18.19.28-.14.05-.28.13-.42.14-1.87.14-2.12-.99-2.69-2.78-.65-2.01-1.5-3.96-2.27-5.94-.08-.19-.23-.36-.35-.53-.05.18-.07.37-.16.53-.49.87-1.01,1.72-1.49,2.6-.06.11.07.33.13.5.06.14.2.27.21.4.03.61.2,1.29,0,1.82-.19.49-.72,1.01-1.22,1.17-1.08.36-1.56-.41-1.81-1.35-.44-1.62-.89-3.24-1.41-4.84-.09-.27-.52-.59-.78-.58-.33,0-.65.33-.96.54,0,0,.14.21.18.33.07.2.17.41.16.61-.03.62-.09,1.24-.16,1.85-.02.19-.1.37-.16.55-.04.13-.13.25-.14.39-.02.22.64.56-.12.66-.01,0-.04.1-.02.11.58.67-.17,1.47.24,2.17.36.63-.15,1.07-.58,1.25-.42.17-1.09.19-1.44-.04-1.21-.81-1.44-2.07-1.53-3.48-.12-1.94-.5-3.86-.77-5.79-.07-.51-.32-1.08-.15-1.5.14-.37.71-.63,1.15-.8.28-.1.66.05.99.1.14.02.26.08.4.12-.08.15-.15.31-.24.45-.04.06-.12.1-.18.14.07.04.13.11.21.13.35.09.71.19,1.07.24.06,0,.15-.21.24-.32.05-.06.1-.17.15-.17.79.01,1.59.03,2.38.09"/><path d="m162.73,91.61c2.37-.29,4.73-.58,7.1-.88.17-.02.35-.12.5-.22.93-.58,1.83-.45,2.69.15.64.46.25,2.32-.63,2.65-.93.34-1.91.56-2.89.72-1.37.23-2.78.29-4.14.57-1.63.34-3.05-.2-4.4-.91-.74-.39-1.29-1.13-1.93-1.71-.11-.1-.24-.18-.37-.26-.09-.06-.27-.15-.27-.16.46-.88-.74-1.12-.7-1.83.02-.32.1-.63.08-.94-.01-.25-.21-.52-.15-.73.05-.19.33-.32.52-.46.16-.11.34-.2.51-.29-.17-.05-.33-.14-.5-.15-.36-.01-.65.03-.54-.54.09-.46-.21-1.03-.05-1.43.46-1.13.96-2.28,1.66-3.28.56-.8,1.34-1.54,2.18-2.04.99-.59,2.11-.49,3.2.03,2.14,1.02,2.48,3.13,1.42,4.69-.2.3-.61.49-.96.63-1.43.57-2.89,1.04-4.29,1.67-.32.14-.55.73-.61,1.15-.1.7-.22,1.49,0,2.14.39,1.16,1.48,1.28,2.57,1.43Zm-.8-9.51c.04.05-1.43,2.54-1.38,2.59.49-.27,2.75-1.93,3.21-2.23.1-.06.1-.28.14-.43-.16-.02-.71-.6-.8-.53-.68,0-.76.21-1.18.59Z"/><path d="m5.54,68.26c-.36-2.04-.68-4.09-1.09-6.12-.31-1.55-.82-3.07-1.1-4.63-.24-1.31-.23-2.66-.41-3.99-.12-.9-.41-1.77-.57-2.66-.03-.18.08-.5.22-.58.89-.53,1.77-1.14,2.73-1.47,1.24-.42,2.38-1.15,3.82-.99,1.49.17,3,.08,4.5.18.74.05,1.18.96.72,1.53-1.55,1.9-3.15,3.76-4.75,5.62-1,1.16-2.1,2.24-3.01,3.46-.22.3.06,1,.15,1.51.32,1.71.69,3.42.99,5.14.19,1.11.36,2.23.38,3.35,0,.32-.45.77-.8.95-.3.15-.83.12-1.11-.06-.39-.25-.65-.71-.96-1.09.1-.05.21-.09.31-.14Zm5.2-18.92c-1.58.41-3.2.8-4.79,1.25-.23.06-.53.45-.51.67.09,1.23.26,2.46.43,3.68.01.08.34.22.37.19.58-.63,1.1-1.32,1.7-1.93.96-.97,1.97-1.89,2.95-2.84.19-.19.32-.45.47-.68-.17-.1-.35-.19-.62-.34Z"/><path d="m104.4,50.7c-.75.19-1.73.3-2.58.7-.54.25-.85.97-1.33,1.4-.26.23-.69.46-.99.41-.29-.05-.59-.43-.76-.73-.78-1.42.01-2.5.97-3.39.37-.35,1.09-.33,1.65-.47.48-.12.96-.23,1.45-.34.1-.02.2-.06.29-.05,1.24.24,2.53.32,3.69.77,1.7.65,3.35,1.55,4.33,3.18.45.74.52,1.71.75,2.58.18.69.34,1.38.51,2.07.02.09,0,.27-.01.27-.94.13-.06.42-.07.64,0,.18-.06.4-.18.51-.13.12-.35.16-.54.21-.13.03-.28.01-.42.01.04.17.1.33.11.5.01.14.04.35-.04.41-.82.68-1.59,1.44-2.5,1.97-1.77,1.03-3.67,1.33-5.39-.01-.6-.47-.84-1.42-1.18-2.18-.14-.31-.16-.7-.16-1.06,0-.43-.02-.9.13-1.29.34-.89.65-1.83,1.19-2.59.73-1.03,1.37-2.24,2.76-2.62.1-.03.17-.16.26-.24-.09-.08-.17-.21-.28-.24-.48-.13-.96-.24-1.67-.41Zm5.2,5.52c-.07-.04-.14-.09-.21-.13,0-.17.04-.35,0-.51-.21-.73-.12-1.66-1.12-1.9-.88-.21-2.72,1.4-2.6,2.26.01.1-.05.21-.11.3-.02.02-.14-.02-.22-.05-.1-.03-.19-.08-.28-.12-.02.13-.05.26-.06.4-.02.28-.03.56-.04.84-.02.85-.04,1.69-.04,2.54,0,.04.24.15.32.11.82-.37,1.65-.71,2.42-1.16.38-.22.67-.62.93-.99.37-.51.68-1.05,1.01-1.58Zm-5.83,1.02c-.15-.06-.28-.14-.29-.12-.22.24-.43.49-.63.74-.01.01.06.09.09.14.26-.23.52-.47.84-.76Zm6.03,1.53c.11-.16.18-.26.25-.37-.07-.05-.17-.15-.21-.13-.11.05-.21.15-.31.23.07.08.14.15.26.27Zm-9-6.99c-.15-.09-.24-.16-.34-.18-.04,0-.1.08-.15.13.09.05.18.11.27.13.04.01.11-.04.22-.08Z"/><path d="m126.08,82.81c-.75.19-1.73.3-2.58.7-.54.25-.85.97-1.33,1.4-.26.23-.69.46-.99.41-.29-.05-.59-.43-.76-.73-.78-1.42.01-2.5.97-3.39.37-.35,1.09-.33,1.65-.47.48-.12.96-.23,1.45-.34.1-.02.2-.06.29-.05,1.24.24,2.53.32,3.69.77,1.7.65,3.35,1.55,4.33,3.18.45.74.52,1.71.75,2.58.18.69.34,1.38.51,2.07.02.09,0,.27-.01.27-.94.13-.06.42-.07.64,0,.18-.06.4-.18.51-.13.12-.35.16-.54.21-.13.03-.28.01-.42.01.04.17.1.33.11.5.01.14.04.35-.04.41-.82.68-1.59,1.44-2.5,1.97-1.77,1.03-3.67,1.33-5.39-.01-.6-.47-.84-1.42-1.18-2.18-.14-.31-.16-.7-.16-1.06,0-.43-.02-.9.13-1.29.34-.89.65-1.83,1.19-2.59.73-1.03,1.37-2.24,2.76-2.62.1-.03.17-.16.26-.24-.09-.08-.17-.21-.28-.24-.48-.13-.96-.24-1.67-.41Zm5.2,5.52c-.07-.04-.14-.09-.21-.13,0-.17.04-.35,0-.51-.21-.73-.12-1.66-1.12-1.9-.88-.21-2.72,1.4-2.6,2.26.01.1-.05.21-.11.3-.02.02-.14-.02-.22-.05-.1-.03-.19-.08-.28-.12-.02.13-.05.26-.06.4-.02.28-.03.56-.04.84-.02.85-.04,1.69-.04,2.54,0,.04.24.15.32.11.82-.37,1.65-.71,2.42-1.16.38-.22.67-.62.93-.99.37-.51.68-1.05,1.01-1.58Zm-5.83,1.02c-.15-.06-.28-.14-.29-.12-.22.24-.43.49-.63.74-.01.01.06.09.09.14.26-.23.52-.47.84-.76Zm6.03,1.53c.11-.16.18-.26.25-.37-.07-.05-.17-.15-.21-.13-.11.05-.21.15-.31.23.07.08.14.15.26.27Zm-9-6.99c-.15-.09-.24-.16-.34-.18-.04,0-.1.08-.15.13.09.05.18.11.27.13.04.01.11-.04.22-.08Z"/><path d="m5.98,16.87c-.75.19-1.73.3-2.58.7-.54.25-.85.97-1.33,1.4-.26.23-.69.46-.99.41-.29-.05-.59-.43-.76-.73-.78-1.42.01-2.5.97-3.39.37-.35,1.09-.33,1.65-.47.48-.12.96-.23,1.45-.34.1-.02.2-.06.29-.05,1.24.24,2.53.32,3.69.77,1.7.65,3.35,1.55,4.33,3.18.45.74.52,1.71.75,2.58.18.69.34,1.38.51,2.07.02.09,0,.27-.01.27-.94.13-.06.42-.07.64,0,.18-.06.4-.18.51-.13.12-.35.16-.54.21-.13.03-.28.01-.42.01.04.17.1.33.11.5.01.14.04.35-.04.41-.82.68-1.59,1.44-2.5,1.97-1.77,1.03-3.67,1.33-5.39-.01-.6-.47-.84-1.42-1.18-2.18-.14-.31-.16-.7-.16-1.06,0-.43-.02-.9.13-1.29.34-.89.65-1.83,1.19-2.59.73-1.03,1.37-2.24,2.76-2.62.1-.03.17-.16.26-.24-.09-.08-.17-.21-.28-.24-.48-.13-.96-.24-1.67-.41Zm5.2,5.52c-.07-.04-.14-.09-.21-.13,0-.17.04-.35,0-.51-.21-.73-.12-1.66-1.12-1.9-.88-.21-2.72,1.4-2.6,2.26.01.1-.05.21-.11.3-.02.02-.14-.02-.22-.05-.1-.03-.19-.08-.28-.12-.02.13-.05.26-.06.4-.02.28-.03.56-.04.84-.02.85-.04,1.69-.04,2.54,0,.04.24.15.32.11.82-.37,1.65-.71,2.42-1.16.38-.22.67-.62.93-.99.37-.51.68-1.05,1.01-1.58Zm-5.83,1.02c-.15-.06-.28-.14-.29-.12-.22.24-.43.49-.63.74-.01.01.06.09.09.14.26-.23.52-.47.84-.76Zm6.03,1.53c.11-.16.18-.26.25-.37-.07-.05-.17-.15-.21-.13-.11.05-.21.15-.31.23.07.08.14.15.26.27Zm-9-6.99c-.15-.09-.24-.16-.34-.18-.04,0-.1.08-.15.13.09.05.18.11.27.13.04.01.11-.04.22-.08Z"/><path d="m162.51,60.72c-1.17,0-2.36.15-3.5-.04-1.35-.22-2.74-.55-3.94-1.17-.79-.4-1.33-1.35-1.87-2.12-.4-.58-.73-1.25-.89-1.93-.21-.9-.23-1.84-.33-2.76,0-.03,0-.07.02-.08.79-.63.29-1.66.76-2.38.07-.11.19-.2.26-.32.09-.17.15-.36.22-.55.04-.09.03-.22.1-.28.31-.35.6-.75.98-1.01.45-.31.97-.59,1.5-.7.96-.19,1.98-.46,2.91-.31,1.15.2,2.42.37,3.09,1.72.22.44.51.79.63,1.33.26,1.16-.42,1.59-1.23,2.02-1.24.65-2.46,1.34-3.71,1.98-.5.26-1.03.48-1.57.65-.88.28-.5.95-.36,1.38.42,1.3,1.61,1.64,2.77,1.76,1.42.15,2.87.01,4.29.16.77.08,1.52.48,2.27.75.03.01-.01.26-.04.4-.01.06-.11.16-.1.17.6.61-.08.61-.37.75-.59.29-1.21.54-1.81.81-.02-.08-.03-.15-.05-.23Zm-4.56-11.66c-.27.2-.64.54-1.06.78-.77.43-1.26,1.39-1.03,2.16.01.04.22.07.23.05.28-.51.65-.84,1.29-.69.05.01.13-.14.21-.2.32-.26.62-.53.96-.77.4-.28.83-.53,1.24-.8-.53-.17-1.06-.34-1.6-.51-.01,0-.03,0-.24-.02Z"/><path d="m31.8,57.21c-.38.46-.64,1.04-.99,1.11-.43.08-1.07-.14-1.41-.45-1.15-1.07-1.51-2.56-1.88-4.01-.24-.95-1.39-2.32-1.82-2.03-.68.46-1.38,1.08-1.73,1.8-.6,1.23-1,2.57-1.37,3.9-.22.78-.75,1.13-1.41,1.05-.44-.05-1.02-.44-1.22-.84-.54-1.09-.72-2.26-.09-3.43.08-.14-.07-.48-.21-.65-.33-.41-.75-.76.04-1.12.04-.02.08-.13.06-.18-.2-.6-.52-1.17-.59-1.78-.26-2.12-.41-4.26-.66-6.39-.08-.68-.36-1.34-.49-2.01-.06-.34-.12-.82.06-1.02.16-.18.66-.1,1-.07.26.02.52.18.78.18,1.01,0,1.25.72,1.38,1.48.26,1.45.51,2.91.68,4.37.13,1.12.14,2.26.21,3.39.01.16.09.31.13.46.15-.06.32-.09.44-.19,2.04-1.7,5.31-1.18,6.56,1.07.93,1.68,1.65,3.48,2.53,5.37Zm-7.03-6.8c-.11-.06-.18-.14-.24-.13-.07.02-.13.1-.19.16.07.04.13.11.2.11.06,0,.12-.07.23-.14Z"/><path d="m34.08,24.36c-.07-.85-.12-1.7-.22-2.55-.08-.71-.5-.99-1.12-.62-.82.49-1.44.57-1.87-.47-.12-.29-.45-.5-.69-.74-.38-.39-.67-.76.08-1.07.09-.04.23-.16.23-.23-.15-1.19.78-1.07,1.44-1.11,1.48-.09,1.52-.16,1.35-1.66-.19-1.67-.28-3.34-.39-5.02-.08-1.19-.12-2.38-.16-3.57,0-.24.03-.67.11-.69.27-.06.6-.03.85.09,1.39.62,1.61,1.81,1.59,3.18-.01,1.59.08,3.17.16,4.76.03.67.1,1.35.22,2.01.02.14.32.34.47.33,1.07-.12,2.13-.28,3.19-.44,1.28-.2,2.69.71,2.79,1.88.02.26-.21.7-.43.8-1.08.49-2.19.93-3.32,1.3-.43.14-.94.08-1.42.07-.82-.01-1.15.43-1.01,1.27.19,1.11.38,2.22.47,3.34.08.93.02,1.88.01,2.82,0,.12-.09.25-.14.37-.13-.05-.28-.07-.37-.16-.43-.41-.98-.78-1.24-1.29-.39-.79-.57-1.68-.84-2.53.08-.02.16-.05.25-.07Z"/><path d="m90.52,90.26c.18.51.08.71.21,1.7-.22.14-.22.15-.45.28-.2.11-.42.19-.63.29.21,0,.41-.04.62-.02.13.02.26.12.39.19-.08.09-.15.18-.23.27-.07.09-.22.2-.2.26.13.41.05.5-.45.45-1.32-.13-1.66-.64-1.62-3.24-.2-1.23-.53-3.24-.86-5.25-.11-.68-.17-1.39-.39-2.04-.09-.25-.59-.56-.84-.52-1.01.19-1.99-.18-2.5-1.08-.32-.55.02-1.13.69-1.24.59-.1,1.23-.13,1.71-.42.25-.15.34-.81.27-1.21-.25-1.46-.66-2.89-.87-4.35-.14-.95.87-1.6,1.68-1.09.5.31.81.94,1.2,1.43.12.15.29.3.34.47.04.12-.09.29-.15.44-.05.13-.15.28-.12.39.13.5.3.99.45,1.48.13.43.22.88.43,1.27.07.13.46.16.69.12,1.46-.24,2.91-.64,4.37-.7.43-.02,1.14.79,1.28,1.34.16.59-.46.94-1.14.82-.04,0-.15.11-.15.12.44.72-.24.44-.45.46-.57.06-1.17-.05-1.71.09-.84.22-1.64.58-2.43.93-.03.02.17.54.24.83.03.11.05.32,0,.34"/><path d="m70.56,85.17c-.15-.85-.34-1.69-.43-2.54-.07-.62.53-1.03,1.12-.82.07.02.11.14.14.22.02.08,0,.17.01.26.09-.05.17-.13.26-.14.16-.02.4-.07.47.01.61.71,1.42.74,2.07.04.72-.78,2.33-.93,3.19-.31.09.06.2.11.31.14.63.19,1.21.42,1.36,1.17.03.14.15.33.27.37,1.11.4,1.14,1.58,1.71,2.36.46.64.97,1.43.98,2.16.01.56-.08,1,.38,1.39-.23.08-.45.16-.68.24-.08.03-.17.04-.26.07.03.05.06.15.11.15.55.1.96.11.68.97-.24.75-.52,1.37-1.38,1.14-.51-.14-1.03-.82-1.24-1.38-.56-1.48-.85-3.07-1.47-4.52-.38-.89-1.17-1.61-1.8-2.4-.05-.06-.2-.06-.31-.05-.04,0-.12.12-.11.15.38.83-.45.84-.79,1.18-.1.1-.18.2-.27.31.1.06.21.11.29.19.06.07.09.17.13.26-1.06.34-.47,1.19-.57,1.83-.02.15-.25.28-.4.41-.03.03-.1.02-.14.03.03.09.03.21.08.27.41.47.67.95.13,1.5-.03.03-.02.11,0,.15.26.38.54.74.77,1.14.08.14.12.39.05.51-.31.5-.72.93-1,1.44-.4.74-1.11.69-1.68.54-.35-.09-.73-.66-.8-1.06-.33-1.8-.53-3.62-.82-5.42-.1-.65-.32-1.28-.49-1.92.04,0,.08-.02.13-.03Z"/><path d="m179.21,93.79c-1.16-.22-1.45-.71-1.69-2.04-.14-.75-.68-1.43-.99-2.16-.26-.62-.45-1.27-.69-1.9-.12-.31-.31-.6-.47-.9-.04-.09-.09-.26-.07-.27.54-.28.35-.53.06-.91-.66-.84-.23-1.65.83-2.01,1.43-.49,2.8-1.15,4.2-1.71,1.56-.63,3.13-1.26,4.71-1.84.73-.27,1.5-.4,2.25-.62.82-.24,2.25.31,2.45,1.23.14.62-.28,1.38-.51,2.05-.04.13-.36.19-.56.24-1.32.33-2.69.53-3.96,1-2.14.8-4.22,1.77-6.32,2.68-.08.04-.19.22-.16.29.62,1.85,1.26,3.69,1.88,5.54.19.58.39,1.15.51,1.75.03.15-.24.51-.29.5-.47-.15-.91-.35-1.37-.54.05-.12.11-.24.17-.37Z"/><path d="m179.75,47.74c-1.97.43-3.94.84-5.89,1.31-1.23.29-2.43.7-3.65,1.02-.78.21-.77.81-.55,1.31.73,1.62,1.57,3.18,2.32,4.78.42.9.78,1.84,1.03,2.8.04.14-.66.64-1.05.68-1.38.15-1.89-.79-2.36-1.91-.59-1.4-1.41-2.7-2.08-4.06-.3-.62-.58-1.3-.68-1.97-.06-.41.23-.88-.35-1.12-.02,0-.03-.07-.03-.08.83-.62-.42-1.85.68-2.36.89-.41,1.81-.78,2.73-1.12.71-.26,1.44-.48,2.17-.66,1.33-.32,2.65-.7,4-.88,1.3-.18,2.64-.18,3.96-.19.77,0,1.62.81,1.62,1.46,0,.68-.86,1.29-1.79,1.27-.02-.09-.04-.19-.06-.28Zm-8.14,10.63c-.26-.13-.38-.25-.5-.24-.09,0-.18.16-.26.24.09.09.18.24.27.24.12,0,.24-.11.49-.24Zm-2.44-6.64c.11-.08.18-.13.26-.18-.08-.06-.15-.16-.23-.17-.07,0-.15.09-.22.14.06.06.12.13.2.21Z"/><path d="m53.28,47.97c-1.08.14-2.17.25-3.23.46-.2.04-.46.46-.47.72-.02.47.3,1.01.15,1.39-.17.45-.13.63.12,1,.2.28.14.75.19,1.14.15.96.32,1.91.44,2.87.07.61.26,1.31.06,1.83-.4,1.02-1.79,1.09-2.25.09-.45-.98-.65-2.09-.88-3.16-.33-1.58-.55-3.18-.89-4.75-.03-.14-.66-.26-.98-.19-1.35.27-1.76.14-2.45-1.04-.09-.15.02-.61.16-.68.8-.39,1.65-.69,2.45-1.07.17-.08.31-.39.32-.6.05-.8.08-1.6.03-2.39-.04-.79-.22-1.57-.26-2.37,0-.17.33-.5.51-.5,1.72-.04,2.56.77,2.6,2.49.02.71-.08,1.42-.01,2.12.02.21.42.54.64.54,1.38-.03,2.75-.26,4.12-.19.63.03,1.25.56,1.81.95.06.04-.21.84-.49,1-.49.29-1.1.36-1.66.52-.02-.06-.03-.12-.05-.17Zm-5.81.92c-.07.2-.19.36-.16.5.02.11.25.31.3.28.14-.07.24-.23.36-.35-.09-.08-.18-.16-.49-.44Z"/><path d="m75.9,18.19c-1.08.14-2.17.25-3.23.46-.2.04-.46.46-.47.72-.02.47.3,1.01.15,1.39-.17.45-.13.63.12,1,.2.28.14.75.19,1.14.15.96.32,1.91.44,2.87.07.61.26,1.31.06,1.83-.4,1.02-1.79,1.09-2.25.09-.45-.98-.65-2.09-.88-3.16-.33-1.58-.55-3.18-.89-4.75-.03-.14-.66-.26-.98-.19-1.35.27-1.76.14-2.45-1.04-.09-.15.02-.61.16-.68.8-.39,1.65-.69,2.45-1.07.17-.08.31-.39.32-.6.05-.8.08-1.6.03-2.39-.04-.79-.22-1.57-.26-2.37,0-.17.33-.5.51-.5,1.72-.04,2.56.77,2.6,2.49.02.71-.08,1.42-.01,2.12.02.21.42.54.64.54,1.38-.03,2.75-.26,4.12-.19.63.03,1.25.56,1.81.95.06.04-.21.84-.49,1-.49.29-1.1.36-1.66.52-.02-.06-.03-.12-.05-.17Zm-5.81.92c-.07.2-.19.36-.16.5.02.11.25.31.3.28.14-.07.24-.23.36-.35-.09-.08-.18-.16-.49-.44Z"/><path d="m65.44,54.04c-.09,1.68-.17,3.16-.26,4.63-.04.76-1.18,1.81-2.08,1.82-1.14.01-2.29,0-3.41-.15-.39-.05-.71-.58-1.07-.87-.54-.43-1.03-.96-1.64-1.25-1.08-.52-1.1-1.41-1.08-2.38,0-.03,0-.07,0-.08-.88-.5-.24-1.21-.2-1.8.01-.21.44-.4.7-.57.1-.07.25-.07.38-.1-.07-.1-.11-.25-.2-.29-.51-.25-.46-.53-.3-1.05.69-2.26,2.58-2.79,4.69-2.25,1.42.36,2.63.91,3.46,2.07.5.69.73,1.58,1.03,2.27Zm-4.9-2.21c-.25.14-.9.32-1.22.74-.48.65-.78,1.45-1.06,2.22-.16.43-.23.95-.15,1.4.2,1.15,1.31,1.39,2.1,1.97.53.39,1.8.12,1.88-.52.17-1.41.31-2.85.22-4.26-.04-.67-.42-1.52-1.77-1.54Zm-3.16-.77c-.07.08-.2.23-.31.38,0,0,.14.17.17.16.37-.17.74-.36,1.11-.54h-.97Zm.89.74c-.16.1-.33.21-.49.31.07.06.14.17.19.16.26-.06.5-.16.75-.24-.13-.07-.27-.13-.46-.22Z"/><path d="m45.5,93.69c-.95.02-1.37-.42-1.42-1.35-.11-2.31-.14-4.63-.39-6.92-.21-1.85.71-3,2.05-3.91,1.9-1.28,4-1.97,6.33-1.74,1.46.15,2.92.34,4.37.59.24.04.51.49.57.79.05.26-.02.77-.62.49-.06-.03-.35.45-.56.67-.12.12-.31.29-.45.27-.85-.1-1.79.43-2.56-.34-1.68.53-3.65-.03-5.09,1.36-.2.19-.3.54-.36.83-.12.57-.2,1.15-.24,1.72-.07.95-.17,1.91-.11,2.85.05.74.24,1.5.52,2.2.25.63-.05.87-.49,1.11-.04.02-.15,0-.18-.04-.08-.09-.13-.21-.2-.31-.06.19-.09.41-.19.58-.1.18-.25.34-.42.45-.17.11-.4.15-.6.22.18.05.35.09.53.15.11.04.2.1.3.15-.1.06-.19.15-.3.17-.17.03-.34,0-.51,0Z"/><path d="m195.43,53.63c.97.17,1.12-.44,1.4-1.26.2-.59.02-1.08.12-1.6.05-.28.25-.74.41-.76.57-.05,1.23-.09,1.73.15,1.36.64.75,1.9.78,2.96,0,.2.31.58.46.57,1.03-.09,2.05-.29,3.08-.38.39-.03.8.14,1.2.21.23.04.46.04.69.06.12.01.3,0,.35.07.07.09,0,.27.04.38.07.19.17.38.3.52.12.12.32.18.48.26-.1.15-.2.3-.31.44-.81,1.02-2.01.65-3.04.81-.93.14-1.9.04-2.84.16-1.11.13-.4,1.05-.55,1.59-.15.52.35,1.16-.27,1.63-.02.02.06.2.06.2.87-.21.25.54.48.74-.21.02-.44,0-.64.06-.13.04-.24.17-.33.28-.1.12-.15.33-.28.39-.1.05-.29-.04-.43-.07.03-.15.06-.3.09-.45.01-.07.03-.15.04-.22-.12,0-.24.01-.36.02-.21.01-.42.06-.61.01-.05-.02-.03-.33-.04-.5,0-.07.01-.18-.02-.19-1.25-.6-.65-1.75-.67-2.63-.02-.69-.27-.73-.73-.73-.67,0-1.34.09-2,.07-1.23-.04-2.07-.62-2.27-1.59-.05-.24.24-.75.44-.79,1.05-.2,2.13-.28,3.25-.41Z"/><path d="m39.67,59.23c-1.63-.04-3.03.11-3.94-1.07-.65-.84-1.28-1.77-1.6-2.77-.29-.9-.28-1.96-.16-2.92.12-.96.43-1.94.89-2.79.18-.32,1.02-.48,1.51-.4,1.37.22,2.84.36,4.04.99.86.45,1.48,1.57,1.96,2.51.76,1.49.18,3.09-.15,4.58-.14.62-1.06,1.11-1.68,1.57-.32.23-.77.27-.87.3Zm-3.17-4c.45.64.9,1.38,1.48,2,.1.1.8-.25,1.13-.51.21-.17.22-.57.36-.85.67-1.32.18-2.6-.27-3.8-.13-.36-.92-.53-1.43-.66-.14-.03-.5.36-.57.61-.26.98-.44,1.97-.7,3.22Z"/><path d="m86.37,57.9c-.35-1.11-.78-2.2-1.04-3.33-.29-1.3-.48-2.62-.6-3.95-.02-.21.46-.6.78-.7,1.14-.37,2.31-.67,3.47-.97,1.08-.28,2.15-.71,3.25-.76.84-.04,1.74.33,2.52.7.64.3.44,1.31-.32,1.66-.5.23-1.04.38-1.58.49-1.58.32-3.18.6-4.76.92-.12.02-.29.31-.26.42.31,1.07.7,2.11.97,3.18.17.69.18,1.43.25,2.15.02.24.04.48.04.72,0,.35.04.98-.04,1-.59.12-1.32.34-1.78.1-.5-.26-.76-.99-1.12-1.51.07-.04.15-.08.22-.12Zm-.32-5.55c-.07.09-.12.15-.16.2.1.06.19.13.29.17.02,0,.13-.14.12-.14-.07-.08-.15-.14-.25-.23Z"/><path d="m18.08,26.66c-.35-1.11-.78-2.2-1.04-3.33-.29-1.3-.48-2.62-.6-3.95-.02-.21.46-.6.78-.7,1.14-.37,2.31-.67,3.47-.97,1.08-.28,2.15-.71,3.25-.76.84-.04,1.74.33,2.52.7.64.3.44,1.31-.32,1.66-.5.23-1.04.38-1.58.49-1.58.32-3.18.6-4.76.92-.12.02-.29.31-.26.42.31,1.07.7,2.11.97,3.18.17.69.18,1.43.25,2.15.02.24.04.48.04.72,0,.35.04.98-.04,1-.59.12-1.32.34-1.78.1-.5-.26-.76-.99-1.12-1.51.07-.04.15-.08.22-.12Zm-.32-5.55c-.07.09-.12.15-.16.2.1.06.19.13.29.17.02,0,.13-.14.12-.14-.07-.08-.15-.14-.25-.23Z"/><path d="m209.27,30.03c-.75,1.7-1.37,3.54-2.37,5.14-.5.79-1.67,1.3-2.83,1-.17-.04-.38-.3-.39-.47-.1-1.36.69-2.31,1.54-3.23.16-.17.19-.48.25-.73.05-.22.03-.45.06-.67.15-.88.41-1.76.45-2.64.02-.46-.37-.94-.52-1.42-.08-.24-.04-.52-.06-.78.26.02.57-.04.77.08.72.44,1.53.83,2.07,1.44.48.55.64,1.37,1.03,2.29Z"/><path d="m82.68,27.43c.2,2.11-.84,3.48-1.64,4.92-.41.73-.9,1.44-1.45,2.07-.56.66-1.05.44-1.63-.2-1.16-1.27-.33-2.24.28-3.32.46-.82.87-1.67,1.25-2.53.18-.4.16-.89.36-1.26.1-.18.51-.21.79-.27.06-.01.16.13.23.2.07.07.14.15.21.22.03-.11.07-.22.08-.33.03-.26.05-.52.07-.78.26.12.59.19.78.38.32.33.56.75.66.9Z"/><g><path d="m63.4,86.14c.19.78.48,1.69.62,2.63.07.48-.12.99-.17,1.49-.01.14.08.3.13.44.05.17.16.34.15.51,0,.08-.21.15-.33.22-.1.06-.21.11-.31.17.08.09.19.17.24.28.12.28.33.59.29.86-.02.16-.45.25-.68.4-.17.1-.32.23-.46.36-.05.05-.07.14-.1.21-.07-.05-.13-.12-.21-.16-.12-.07-.3-.22-.37-.19-.52.27-1.14-.11-1.24-.78-.22-1.47-.44-2.93-.67-4.4-.16-1.01-.49-2.02-.49-3.03,0-.52.46-1.18.91-1.49.32-.22,1.01-.06,1.46.12.96.38,1.59,1.04,1.23,2.38Z"/><path d="m63.37,77.37c-.15.86-1.66,2.09-2.36,1.72-.54-.29-1.35-.66-1.13-1.62.05-.25.07-.52.03-.76-.16-.93.45-1.45,1.14-1.7.86-.31,1.5.19,1.84,1.01.18.44.33.9.5,1.36Z"/></g><g><path d="m48.76,20.72c-.12,1.09-.26,2.03-.32,2.98-.03.42.17.86.15,1.28-.05,1.06-.15,2.11-.26,3.16-.01.11-.32.29-.45.26-.71-.18-1.96-2.19-1.93-2.95.11-2.38.15-4.77.33-7.15.02-.32.62-.69,1.03-.84.16-.06.65.38.76.67.3.88.49,1.79.69,2.59Z"/><path d="m46.88,9.45c.72,0,1.99,1.16,2.2,1.98.25.96-.27,1.47-1.03,1.85-.11.06-.24.1-.36.09-.57-.06-2.01-1.93-1.94-2.51.13-1.14.35-1.42,1.13-1.41Z"/></g><path d="m64.23,22.63c-.46,1.74-1.52,3.37-3.54,4.22-1.19.5-2.38.97-3.57,1.46-.69.28-1.14-.05-1.15-.79,0-.16-.19-.31-.27-.49-.21-.5-.47-.99-.54-1.51-.02-.11.66-.41,1.04-.47,1.82-.3,3.34-1.21,4.77-2.31.14-.11.22-.31.32-.47-.17-.08-.33-.2-.5-.23-1.08-.2-2.15-.44-3.24-.55-.84-.08-1.71.1-2.55.02-.4-.04-.8-.4-1.12-.7-.25-.23-.31-.66-.55-.9-.94-.92-.26-1.72.23-2.43.79-1.14,1.68-2.22,2.59-3.27.12-.14.7-.12.83.03.4.45,1.06,1.1.95,1.49-.2.76-.86,1.39-1.33,2.07-.13.19-.28.36-.43.54.21.08.41.2.63.23,1.8.3,3.61.54,5.4.88,1.3.25,2.1,1.46,2.02,3.17Z"/></g></g></svg>