<?xml version="1.0" encoding="UTF-8"?><svg id="Layer_2" xmlns="http://www.w3.org/2000/svg" viewBox="0 0 46.48 34.49"><defs><style>.cls-1{fill:#f5e055;}</style></defs><g id="icon-fill"><polygon class="cls-1" points="5.03 3.54 5.03 30.36 42.87 29.05 40.95 3.54 5.03 3.54"/></g><g id="icon-line"><path d="m45.89.52c.36,1.32-.15,2.15-1.11,2.58,1.22,4.54,1.57,9.07,1.66,13.63.04,2.3.09,4.61-.01,6.91-.07,1.65-.39,3.29-.6,4.93-.08.63-.2,1.27-.21,1.91-.01,1.04-.54,1.43-1.52,1.52-.68.06-1.35.31-2.03.45-.27.06-.56.05-.83.06-1.11.04-2.23.11-3.34.12-1.7.02-3.4-.02-5.09.01-2.01.04-4.03.13-6.04.2-.32.01-.65.07-.96.01-3.45-.64-6.87-.29-10.25.48-2.8.64-5.59.22-8.39.2-.8,0-1.95-.52-2.2.94,0,.03-.94.05-1.32-.15-2.03-1.08-2.85-2.74-3.04-5.11-.23-2.8.15-5.52.23-8.28.04-1.1-.08-2.25-.4-3.31C-.32,15.07.16,12.48.06,9.9c-.07-1.73.53-3.2,1.47-4.58.27-.41.66-.74.91-1.16.43-.72.21-1.12-.66-1.19-.35-.03-.68-.24-1.01-.36.17-.33.31-.69.52-.99C1.95.68,2.89.47,4.03.32c3.17-.42,6.31-.13,9.46.03,2.37.12,4.76.06,7.13,0,2.23-.06,4.45-.26,6.67-.34.99-.03,1.98.13,2.97.15,1.81.02,3.61-.04,5.42,0,3.37.09,6.75.23,10.19.36Zm-13.26,15.77l-.44.06c-.11.8-.42,1.24-1.29,1-.29-.08-.71.11-1,.29-1.03.63-2.13,1.2-3.01,2.01-1.02.94-2.09,1.01-3.12.4-1.3-.76-2.48-1.74-3.66-2.69-.48-.38-.92-.73-1.32-.1-1.83,2.85-4.7,5.02-5.58,8.5-.05.2-.18.38-.29.57-1.27,2.21-1.15,2.18,1.29,2.43,1.29.14,2.61-.08,3.92-.1,1.49-.03,2.99.06,4.46-.07,3.69-.34,7.36-.83,11.01.3.69.21,1.49.21,2.22.14.36-.03.77-.37,1-.69.36-.51.45-1.35.91-1.62.78-.47.43-.77.13-1.24-.93-1.44-1.89-2.87-2.74-4.36-.9-1.57-1.69-3.2-2.52-4.81Zm6.02-11.38c-2.08.05-3.82-.15-5.55.37-.46.14-.97.14-1.45.15-2.16.03-4.33-.02-6.49.06-2.05.07-4.1.39-6.15.39-2.59,0-5.18-.22-7.77-.34-.44-.02-.88-.05-1.31-.08-.06.11-.11.21-.17.32,1.11.84,2.2,1.7,3.32,2.51,3.05,2.2,6.14,4.35,9.17,6.58,1.82,1.34,2.77,1.54,4.71.31,1.79-1.14,3.51-2.42,5.14-3.78,1.82-1.52,3.51-3.2,5.24-4.83.42-.4.73-.91,1.31-1.65ZM6.76,9.77c-.1,6.31-.44,12.37-.05,18.43.11.03.23.07.34.1,3.14-4.38,6.28-8.76,9.43-13.14-3.14-1.74-6.34-3.52-9.72-5.39Zm33.22,12.76c.06,0,.11-.01.17-.02-.13-4.45-.25-8.9-.38-13.42-1.54,1.4-3.03,2.74-4.51,4.09-.79.72-.74,1.12.11,1.75.53.39,1.11.81,1.45,1.35,1.15,1.84,1.48,4.12,3.05,5.75.1.1.08.32.11.49Zm-.19,5.58c-1.41-.5-1.77-.3-1.76.87.57-.28,1.1-.54,1.76-.87Z"/></g></svg>