<?xml version="1.0" encoding="UTF-8"?><svg id="Layer_2" xmlns="http://www.w3.org/2000/svg" viewBox="0 0 39.13 35.05"><defs><style>.cls-1{fill:#caa4ff;}</style></defs><g id="icon-fill"><path class="cls-1" d="m6.05,4.48S1.97,26.71,3.39,30.53c1.43,3.82,28.38-.62,28.38-.62,0,0,8.64-25.26,2.9-25.6-5.74-.34-28.62.17-28.62.17Z"/></g><g id="icon-line"><g><path d="m.64,27.38c-.09-.71-.14-1.42-.29-2.12-.54-2.55-.3-5.12-.25-7.68.03-1.46.05-2.93.2-4.39.12-1.24.3-2.5.68-3.69.37-1.18,1.03-2.29,1.56-3.43.08-.17.27-.32.28-.49.1-1.34,1.27-1.97,2.2-2.82.79-.72,1.85-.85,2.75-1.3.29-.15.78.05,1.17,0,.79-.08,1.58-.23,2.37-.32,1.66-.2,3.33-.43,5-.56,1.57-.12,3.16-.13,4.74-.21,1.96-.1,3.92-.15,5.86-.34,1.81-.18,3.53.27,5.26.54.94.14,1.88.47,2.72.89.89.45,1.69,1.06,2.46,1.67.63.5,1.23,1.05,1.68,1.67.22.3.06.82.03,1.24-.14,2.04-.33,4.08-.44,6.12-.1,1.78.05,3.59-.2,5.35-.22,1.56-.82,3.07-1.26,4.6-.1.34-.19.68-.32,1.01-.62,1.52-1.2,3.05-1.9,4.53-.78,1.67-1.99,3.06-3.8,3.99-1,.52-1.95,1.13-2.96,1.62-1.09.53-2.15,1.04-3.53.97-1.03-.06-2.1.29-3.13.53-1.61.38-3.19.37-4.81-.03-.61-.15-1.32-.02-1.98,0-.72.03-1.45.17-2.16.1-.87-.1-1.71-.39-2.58-.55-.23-.04-.72-.37-.74.24,0,0-.22.03-.33.02-.5-.06-.99-.15-1.49-.2-.36-.04-.71-.03-.47-.5.04-.07-.03-.25-.08-.27-.11-.02-.27,0-.35.06-.37.29-.54.2-.84-.15-.25-.28-.77-.4-1.2-.52-.39-.12-.93-.03-1.21-.24-.74-.54-1.55-1.04-1.79-1.98-.29-1.12-.68-2.22-1.03-3.34.07-.01.14-.03.2-.04Zm4.83-16c-.08.04-.09.22-.11.34-.14,1.01-.27,2.03-.42,3.04-.06.37-.32.78-.22,1.11.31.95.12,1.85,0,2.78-.27,2.06-.48,4.13-.62,6.2-.04.56.2,1.15.38,1.7.13.39.37.75.58,1.11.26.44.43.98.83,1.29,1.31,1.02,2.46,2.11,4.07,2.03,2.98-.14,5.96.06,8.94-.37,2.67-.39,5.43-.36,8.14-.58,1.13-.09,2.21-.4,2.98-1.22.61-.64,1.21-1.29,1.86-1.9.4-.38.81-.7.65-1.3-.04-.17.1-.37.18-.56.22-.49.5-.96.67-1.47.31-.92.55-1.85.85-2.77.12-.36.4-.69.47-1.06.24-1.18.41-2.37.67-3.94-.08-.74-.22-1.84-.32-2.95-.07-.72-.12-1.45-.11-2.17,0-.76-.54-1.05-.49-1.81.01-.2.02-.4.09-.58.49-1.19.05-2.33-1.18-2.98-1.66-.89-3.85-.01-5.64-.52-.12-.04-.28.01-.41.02-.46.03-.93.08-1.39.1-1.68.06-3.86-.55-5.53-.43-.95.07-1.87.41-2.82.48-2.09.16-4.19.24-6.28.33-.95.04-1.15.56-2.06.73-1.66.3-1.79.27-2.87,1.44-.42.46-.64,1.07-.9,1.62m15.31,23.05c.21-.12.4-.23.58-.34-.09-.03-.18-.09-.25-.08-.24.04-.47.12-.71.18.11.07.22.13.38.23Zm-6.47-.29c-.21-.06-.29-.12-.37-.11-.11.01-.21.07-.31.11.08.04.16.12.24.12.11,0,.21-.06.44-.12ZM1.11,23.3c-.15-.07-.22-.13-.31-.14-.04,0-.09.08-.14.13.06.04.13.1.2.11.06,0,.12-.04.25-.1Zm3.54-6.01c-.07-.06-.11-.11-.14-.11-.06,0-.1.05-.15.08.03.03.06.09.09.09.05,0,.11-.03.2-.06Z"/><path d="m26.29,19.54c-.07,1.19-.35,2.29-1.12,3.26-.6.76-1,1.67-1.65,2.37-.63.69-1.47,1.2-2.21,1.8-.02.02-.06.03-.09.04-.77.17-1.55.33-2.32.51-.16.04-.28.24-.45.29-.22.07-.47.08-.71.08-.37,0-.77.05-1.12-.06-.69-.22-1.38-.48-2.01-.82-.67-.37-1.34-.79-1.87-1.31-.37-.36-.52-.94-.76-1.43-.02-.03,0-.12.03-.13.82-.35-.03-.41-.12-.48-.86-.65-.6-1.58-.67-2.42-.02-.27-.04-.54,0-.81.04-.34.17-.67.17-1.01,0-.36-.14-.72-.13-1.07,0-.2.17-.41.29-.61.1-.17.29-.29.36-.47.9-2.14,2.19-4.05,4.71-4.41,2.3-.33,4.69-.34,6.49,1.61.44.48.97.91,1.51,1.3.87.64,1.12,1.61,1.47,2.52.15.38.14.82.2,1.24Zm-11.95.66c-.08,1.45.74,2.27,1.71,3.04.6.47,1.19.5,1.93.37,1.14-.2,1.89-.94,2.78-1.51.14-.09.33-.11.5-.16-.02.12-.06.25-.07.37,0,.13-.02.31.06.37.1.09.28.1.44.11.03,0,.13-.17.11-.21-.25-.42.12-.45.35-.63.17-.13.33-.57.26-.64-.52-.51-.53-.66.06-1.18.05-.04.07-.12.11-.18-.07-.03-.16-.09-.21-.07-.56.21-.54-.17-.56-.5-.01-.36.03-.72-.01-1.07-.02-.18-.15-.39-.29-.52-.4-.37-.83-.71-1.24-1.06-.03-.02,0-.1,0-.14-.02-.07-.05-.19-.1-.2-.64-.1-1.27-.24-1.91-.27-.43-.02-.86.13-1.29.19-.95.14-1.21.99-1.7,1.58-.58.71-.95,1.51-.93,2.33Zm5.37,3.92c-.36-.18-.58-.32-.81-.41-.06-.02-.17.08-.26.12.22.16.44.34.68.48.04.02.16-.07.4-.19Zm.79-.9c-.26-.1-.36-.17-.41-.15-.21.1-.4.23-.6.35.07.03.16.09.22.07.21-.06.42-.14.79-.27Zm-7.43-6.07c.12-.06.21-.11.29-.15-.09-.08-.17-.21-.26-.22-.09-.01-.2.1-.3.16.08.07.17.13.27.22Zm10.23,4.48c-.11-.1-.18-.19-.21-.18-.11.04-.2.12-.3.18.04.05.09.14.13.14.11-.01.21-.07.38-.13Zm-1.79,2.63c.05.14.1.28.16.42.03-.05.1-.11.09-.16-.03-.18-.08-.36-.13-.54-.03.09-.07.17-.12.29Zm-8.04,1.19c-.14-.1-.21-.19-.31-.22-.05-.02-.13.07-.19.11.08.06.15.14.24.18.05.02.13-.03.26-.07Zm-1.85-6.82c.06-.15.12-.24.13-.33,0-.05-.08-.11-.12-.16-.06.09-.13.18-.16.28-.01.04.07.1.16.21Zm6.47,5.74c-.05-.04-.11-.11-.12-.1-.08.06-.16.12-.22.19-.01.02.08.11.12.16.06-.07.13-.15.22-.25Zm6.5-1.69c.04-.1.08-.16.07-.2-.02-.06-.09-.12-.13-.17-.04.05-.11.11-.1.15.01.06.08.12.17.22Zm-10.48,3.5s-.04-.08-.06-.11c-.01,0-.05.01-.08.02.01.04.02.08.04.11,0,0,.05-.01.1-.02Zm4.56.47s-.08.08-.08.11c0,.03.05.06.08.09.03-.03.08-.06.08-.09,0-.03-.04-.07-.07-.12Z"/><path d="m25.32,9.89c-.05-.62.22-1.06.72-1.39.54-.35,1.04-.77,1.61-1.06.34-.17.8-.2,1.2-.2,1.06,0,1.54.82,2.05,1.5,1.05,1.38.55,2.21-.6,3.5-.65.73-1.55.74-2.45.26-.62-.33-1.25-.62-1.87-.95-.12-.06-.27-.18-.31-.29-.14-.45-.25-.91-.37-1.37Zm3.59,2.43c-.16.08-.32.16-.49.25.07.04.14.12.19.1.2-.06.39-.15.59-.23-.09-.03-.17-.07-.3-.12Z"/></g></g></svg>