<?xml version="1.0" encoding="UTF-8"?><svg id="Layer_2" xmlns="http://www.w3.org/2000/svg" viewBox="0 0 40.02 36.36"><defs><style>.cls-1{fill:#009dff;}</style></defs><g id="icon-fill"><path class="cls-1" d="m6.02,5.78S1.73,27.13,3.22,31.2c1.48,4.07,31.44-1.06,31.44-1.06,0,0,7.24-25.05,1.38-26.21-8.44-1.67-30.02,1.85-30.02,1.85Z"/></g><g id="icon-line"><g><path d="m39.38,8.14c.09.73.14,1.46.29,2.18.54,2.63.3,5.28.25,7.92-.03,1.51-.05,3.02-.2,4.52-.12,1.28-.3,2.58-.68,3.81-.37,1.22-1.03,2.36-1.56,3.53-.08.17-.27.33-.28.5-.1,1.38-1.27,2.04-2.2,2.91-.79.75-1.85.87-2.75,1.34-.29.15-.78-.05-1.17-.01-.79.08-1.58.24-2.37.33-1.66.21-3.33.44-5,.58-1.57.13-3.16.13-4.74.21-1.96.1-3.92.15-5.86.35-1.81.18-3.53-.28-5.26-.55-.94-.15-1.88-.49-2.72-.92-.89-.46-1.69-1.09-2.46-1.72-.63-.51-1.23-1.08-1.68-1.72-.22-.31-.06-.85-.03-1.28C1.11,28.03-.1,25.7,0,23.59c.1-1.84-.05-3.7.2-5.51.22-1.6.82-3.16,1.26-4.74.1-.35.19-.7.32-1.04.62-1.56,1.2-3.14,1.9-4.67.78-1.72,1.99-3.15,3.8-4.11,1-.53,1.95-1.17,2.96-1.67,1.09-.54,2.15-1.08,3.53-1,1.03.06,2.1-.3,3.13-.55,1.61-.39,3.19-.39,4.81.03.61.16,1.32.03,1.98,0,.72-.03,1.45-.18,2.16-.1.87.1,1.71.4,2.58.56.23.04,2.12.61,2.14-.02,0-.01.22-.03.33-.02.5.06.99.15,1.49.2.36.04.71.03.47.51-.04.07.03.26.08.27.11.03.27,0,.35-.06.37-.3.54-.2.84.15.25.29.77.41,1.2.54.39.12.93.03,1.21.25.74.56,1.55,1.07,1.79,2.04.29,1.16.68,2.29,1.03,3.44-.07.01-.14.03-.2.04Zm-4.83,16.49c.08-.04.09-.23.11-.35.14-1.05.27-2.09.42-3.14.06-.39.32-.81.22-1.14-.31-.98-.12-1.9,0-2.86.27-2.12.48-4.26.62-6.39.04-.58-.2-1.18-.38-1.76-.13-.4-.37-.77-.58-1.15-.26-.46-.43-1.01-.83-1.33-1.31-1.05-3.86-2.4-5.47-2.32-2.98.15-5.96-.06-8.94.38-2.67.4-6.09,1.31-8.8,1.54-1.13.09-2.21.42-2.98,1.26-.61.66-.71.68-1.36,1.3-.4.39-.14-.21.01.41.04-1.15-1.44,3.34-.5.6-.22.51-.18.97-.35,1.49-.31.94.16,1.95-.14,2.89-.12.38-.91,1.37-.98,1.74-.24,1.21-.41,2.44-.67,4.06.08.76.22,1.9.32,3.04.07.75.12,1.49.11,2.24,0,.79.54,1.08.49,1.86-.01.2-.02.41-.09.6-.49,1.22.64,2.59,1.88,3.27,1.66.91,3.85.01,5.64.54.12.04.28-.01.41-.02.46-.03.93-.09,1.39-.1,1.68-.06,3.86.57,5.53.44.95-.07,1.87-.42,2.82-.5,2.09-.17,4.19-.25,6.28-.34.95-.04,1.15-.58,2.06-.75,1.66-.31,1.79-.28,2.87-1.48.42-.47.64-1.1.9-1.67M17.86,2.99c-.21.13-.4.24-.58.35.09.03.18.09.25.08.24-.05.47-.12.71-.18-.11-.07-.22-.14-.38-.24Zm6.47.3c.21.07.29.12.37.11.11-.01.21-.07.31-.11-.08-.05-.16-.13-.24-.13-.11,0-.21.06-.44.13Zm14.58,9.05c.15.07.22.13.31.14.04,0,.09-.08.14-.13-.06-.04-.13-.1-.2-.12-.06,0-.12.05-.25.1Zm-3.54,6.19c.07.06.11.12.14.11.06-.01.1-.05.15-.08-.03-.03-.06-.09-.09-.09-.05,0-.11.03-.2.06Z"/><g><path d="m29.75,28.23c-.52-.06-.96-.15-1.39-.14-.31,0-.59-.03-.89-.09-.53-.11-.75-.35-.7-.9.06-.64.11-1.27.04-1.91-.03-.27.03-.54.02-.81,0-.26-.06-.52-.06-.78,0-.43.03-.86.03-1.28,0-.09-.07-.19-.1-.29-.02-.05-.02-.11-.02-.17,0-.06.04-.15,0-.18-.17-.2-.04-.41-.01-.61,0-.07.11-.13.16-.2.03-.04.05-.08.07-.12-.04,0-.1-.02-.13,0-.2.12-.3.03-.37-.16-.11-.3-.22-.6-.36-.88-.04-.08-.17-.13-.27-.17-.13-.05-.28-.07-.41-.09-.34-.06-.59.13-.85.29-.09.06-.18.13-.27.16-.37.11-.45.48-.64.74-.19.27-.36.56-.5.86-.12.25-.14.56-.27.8-.32.58-.36,1.23-.53,1.85-.13.48-.3.95-.38,1.46-.08.46-.07.92-.12,1.37-.05.39-.16.77-.3,1.14-.04.1-.26.16-.41.2-.27.06-.56.1-.84.11-.26,0-.52-.02-.78-.06-.17-.02-.33-.11-.5-.12-.31-.01-.54-.15-.72-.39-.01-.02-.02-.04-.04-.05-.72-.5-.63-1.24-.59-1.98.02-.32.01-.64,0-.96-.02-.57-.05-1.13-.08-1.7,0-.06-.05-.12-.07-.17-.03-.07-.09-.15-.09-.21.03-.3.09-.61.13-.91.02-.15,0-.3.03-.45.03-.2.07-.39.11-.58,0-.03.03-.07.02-.1-.06-.44-.21-.88-.16-1.3.1-.81.04-1.64.35-2.44.15-.41.3-.69.74-.8.11-.03.2-.14.29-.22.14-.12.26-.18.37.04.07.13.13.14.18-.02.05-.17.18-.24.36-.22.49.06,1.02.06,1.4.38.39.33.67.77.71,1.32.01.21.14.28.31.16.18-.13.37-.26.51-.42.3-.36.71-.51,1.1-.72.37-.2.74-.43,1.14-.58.34-.13.67-.27,1.09-.16.27.07.62-.05.91-.14.58-.17,1.19-.15,1.73.02.38.12.84.34,1.01.76.14.34.42.52.63.78.09.11.12.26.15.4.05.22.09.45.1.67.02.34,0,.69,0,1.03,0,.07-.01.15.02.2.15.21.13.43.11.68-.04.55-.02,1.11,0,1.67.02.47.07.94.08,1.41,0,.12-.13.24-.14.37-.02.38,0,.75,0,1.13,0,.36.02.72.02,1.09,0,.09-.1.17-.12.27-.04.18-.05.36-.07.54-.02.22-.04.44-.07.67,0,.04-.03.09-.02.12.08.23.11.43-.16.56-.18.09-.37.17-.5.24Z"/><path d="m11.45,27.12c-.02-.28-.05-.55-.05-.83,0-.14.05-.28.08-.41,0-.03.03-.07.03-.1-.04-.31-.08-.63-.12-.94-.02-.15-.06-.3-.03-.44.15-.69.08-1.36-.07-2.04-.02-.11,0-.24,0-.35.05-.39.12-.77.16-1.16.01-.1-.06-.22-.08-.33-.02-.12-.07-.27-.03-.38.28-.69.04-1.41.11-2.11.02-.23.02-.47.07-.7.2-.82.83-.95,1.54-.99.39-.02.79-.05,1.18-.11.44-.07.62.09.69.53.11.66.01,1.31-.01,1.96,0,.2-.07.41-.09.61-.06.75.13,1.49.18,2.24.01.21,0,.43,0,.64,0,.69,0,1.38,0,2.06,0,.35.04.72-.06,1.04-.13.41-.06.82-.12,1.22-.02.11-.18.2-.28.3-.11.11-.21.21-.32.32-.02.02-.03.06-.05.07-.29.16-.37.42-.39.73-.02.2-.54.47-.81.46-.32-.01-.65-.02-.97,0-.28.01-.5.03-.49-.37,0-.3-.09-.6-.14-.9.02,0,.04,0,.05,0Z"/><path d="m12.52,14.05c-.35.03-.63-.12-.85-.37-.31-.36-.69-.67-.84-1.14-.09-.26-.23-.52-.26-.79-.03-.28.07-.57.1-.85.03-.22.08-.44.08-.67,0-.36.02-.7.25-1.01.16-.22.39-.21.59-.29.13-.05.27-.09.41-.12.61-.17,1.22-.37,1.84-.49.51-.1.9.22,1.23.57.19.2.31.48.49.7.28.36.24.74.17,1.16-.07.38-.06.77-.14,1.14-.05.2-.2.39-.34.55-.22.24-.48.45-.73.67-.31.28-.59.63-.95.82-.3.15-.7.1-1.05.13Z"/></g></g></g></svg>