<?xml version="1.0" encoding="UTF-8"?><svg id="Layer_2" xmlns="http://www.w3.org/2000/svg" viewBox="0 0 145.82 188.68"><g id="Layer_1-2"><g><path d="m100.51,136.38c-.89,1.79-2.64,1.29-4,1.83-.72.28-1.4.68-2.13.93-.61.21-1.27.27-1.9.43-1.01.26-2,.61-3.02.82-1.28.26-2.58.43-3.87.63-.56.09-1.13.17-1.69.21-.61.04-1.24-.05-1.83.06-.78.14-1.54.41-2.3.64-.26.08-.51.32-.76.32-1.51,0-3.03-.12-4.54-.06-1.3.06-2.59.3-3.88.48-.14.02-.27.15-.4.15-2.33-.01-4.7.18-7-.12-2.72-.36-5.4-1.12-8.08-1.75-2.17-.51-4.34-1.04-6.5-1.61-1.16-.3-1.3-.25-1.33.98-.16,5.68-.37,11.37-.46,17.05-.06,3.87.01,7.75.09,11.63.05,2.27.29,4.53.34,6.79.03,1.58-.14,3.16-.18,4.74-.03,1.1-.03,2.2.02,3.29.08,1.64-.55,2.17-2.19,1.94-.83-.12-1.7-.1-2.55-.02-4.18.38-8.35.9-12.53,1.14-1.58.09-3.21-.37-4.8-.67-.92-.17-1.85-.44-2.71-.81-.76-.33-1.27-.92-.93-1.88.55-1.55.74-1.68,2.05-1.6,1.95.12,3.87.25,5.81-.4.98-.33,2.12-.15,3.18-.26,2.81-.29,5.62-.59,8.42-.95.28-.04.7-.54.71-.83.05-2.59.43-5.25-.06-7.74-.85-4.3-.38-8.57-.42-12.85-.03-3.02-.26-6.05-.23-9.07.02-2.55.31-5.09.41-7.64.05-1.27.05-2.56-.11-3.82-.06-.5-.52-1.12-.97-1.38-1.65-.95-3.34-1.85-5.08-2.62-1.65-.73-3.38-1.3-5.08-1.9-2.66-.94-4.66-2.84-6.75-4.6-2.44-2.04-4.8-4.18-7.12-6.37-.82-.78-1.42-1.8-2.08-2.74-.9-1.29-1.81-2.58-2.61-3.93-.46-.79-.73-1.7-1.06-2.56-.1-.26-.06-.61-.23-.8-2.02-2.29-2.94-5.09-3.95-7.89-.7-1.94-1.86-3.71-2.78-5.57-.22-.44-.32-.93-.51-1.39-.13-.31-.22-.71-.46-.89-.46-.34-.58-.63-.3-1.16.11-.2,0-.57-.09-.83-.27-.78-.68-1.52-.86-2.32-.24-1.1-.31-2.23-.46-3.35-.03-.21-.13-.43-.1-.63.42-3.36-.87-6.65-.24-10.05.27-1.46-.22-3.06-.28-4.59-.07-1.66-.09-3.33-.07-4.99.01-.85.2-1.69.25-2.55.17-3.17.2-6.35.52-9.5.15-1.49.93-2.91,1.24-4.4.75-3.59,2.54-6.74,4.11-9.98.68-1.39,1.71-2.6,2.53-3.94,1.38-2.26,2.72-4.54,4.07-6.82.81-1.37,1.62-2.76,2.42-4.13.22-.37.53-.71.63-1.11.47-1.94,1.99-3.08,3.34-4.31,1.96-1.79,3.96-3.55,6.03-5.2,1.31-1.04,2.81-1.86,4.22-2.78.06-.04.15-.04.19-.09,1.77-1.85,4.33-1.95,6.49-2.92,2.28-1.02,4.57-2.04,6.85-3.06,2.59-1.15,5.17-2.33,7.77-3.44.74-.32,1.58-.41,2.36-.66,1.91-.61,3.8-1.31,5.73-1.87.98-.29,2.02-.41,3.05-.5,2.22-.19,4.45-.35,6.68-.45,1.99-.09,3.98-.11,5.97-.08,2.27.03,4.53.11,6.8.22,2.3.11,4.6.28,6.9.43,2.92.19,5.87.23,8.76.65,1.54.22,3.02,1.02,4.47,1.68,2.06.94,4.01,2.12,6.1,2.99,4.62,1.94,7.72,5.86,11.65,8.71,2.27,1.65,4.38,3.51,6.53,5.31.54.45,1,1.01,1.42,1.58,1.87,2.58,3.85,5.1,5.52,7.81,1.08,1.76,1.7,3.81,2.52,5.73.5,1.16.94,2.35,1.47,3.5.91,1.96,1.85,3.92,2.85,5.84.22.42.79.65,1.1,1.04.49.61,1.01,1.24,1.32,1.95.28.64.25,1.4.42,2.09.81,3.19,1.7,6.37,2.44,9.57.27,1.16.25,2.4.31,3.6.13,2.52.21,5.04.37,7.56.09,1.41.36,2.82.4,4.23.03.98-.15,1.97-.28,2.96-.24,1.79-.43,3.59-.77,5.36-.64,3.27-1.31,6.53-2.12,9.76-.57,2.26-1.23,4.53-2.15,6.67-.73,1.7-1.9,3.22-2.91,4.8-.53.83-.98,1.78-1.72,2.36-.92.72-1.22,1.78-1.9,2.61-1.37,1.67-2.65,3.42-3.93,5.16-1.01,1.37-2.07,2.72-2.92,4.18-.99,1.71-2.4,2.85-4.05,3.81-.44.26-.81.7-1.11,1.12-1.3,1.82-2.8,3.38-4.93,4.24-.2.08-.42.15-.56.29-2.58,2.51-5.91,3.9-8.86,5.87-.95.63-1.02,1.17-1.1,2.05-.16,1.75-.57,3.49-.65,5.24-.12,2.54-.7,5.05-.11,7.63.31,1.36.13,2.83.15,4.25.06,3.38.14,6.76.14,10.14,0,2.51-.18,5.01-.21,7.52-.04,2.41,0,4.83.02,7.24.03,2.55.07,5.1.16,7.65.01.39.33.76.5,1.14.56,1.25.22,1.87-1.12,1.86-4.62-.03-9.23.3-13.85-.12-1.85-.17-3.76.12-5.62.37-1.93.25-3.93-1.76-3.25-4.11.23-.8,1.64-2.05,2.47-2.08,1.06-.05,2.14.03,3.2-.06,2.12-.17,4.29-.19,6.34-.67,1.89-.45,3.66-.16,5.45.14,1.13.19,1.72-.17,1.75-1.33.07-2.79.18-5.58.2-8.38.01-1.1-.18-2.2-.24-3.3-.21-4.26-.39-8.51-.6-12.77-.02-.46-.11-.92-.25-1.36-.72-2.33-.32-4.64.06-6.95.03-.21.13-.42.13-.63-.09-3.43-.2-6.85-.31-10.28,0-.06-.08-.11-.13-.16-.07-.11-.13-.23-.2-.34ZM28.1,23.05c-.05-.08-.11-.16-.16-.23-.34.13-.73.2-1,.41-1.25.99-2.57,1.92-3.68,3.05-2.36,2.42-4.48,5.04-5.92,8.16-.29.63-.84,1.14-1.25,1.72-.62.89-1.32,1.76-1.81,2.72-1.69,3.33-2.12,7.05-3.1,10.59-.33,1.19-.47,2.45-.84,3.63-1.01,3.23-1.38,6.54-1.43,9.89-.06,3.81-.17,7.59-.79,11.37-.29,1.8-.1,3.81.38,5.59,1.05,3.87,2.43,7.65,3.67,11.47,1,3.07,1.79,6.24,3.08,9.2,1.43,3.28,3.25,6.4,5.01,9.53.74,1.32,1.6,2.66,2.69,3.69,2.17,2.05,4.54,3.89,6.83,5.81.41.34.81.73,1.28.95,4.17,1.91,8.21,4.07,12.61,5.49,3.5,1.13,6.92,2.04,10.67,2.23,4.93.25,9.88.76,14.74,1.91,2.16.51,4.44.54,6.58,1.09,1.95.5,3.87.86,5.87.82.45-.01.94-.09,1.32-.3.7-.39.55-1.01-.05-1.48-.35-.28-.41-.94-.6-1.42.4-.02.81-.09,1.19-.03.26.04.51.25.72.44,1.74,1.57,3.71,1.92,5.9,1.16.94-.32,1.85-.73,2.79-1.03,1.96-.6,3.97-1.07,5.9-1.75,2.7-.96,5.33-2.12,8.03-3.08,3.42-1.22,6.65-2.8,9.72-4.73.53-.33,1.08-.72,1.44-1.22,1.03-1.39,1.8-3.01,2.98-4.26,1.68-1.8,2.65-3.95,3.61-6.12,2.01-4.56,3.9-9.17,5.97-13.7,1.92-4.21,2.72-8.68,3.09-13.22.28-3.39.07-6.82.12-10.22.03-1.95.01-3.92.23-5.86.49-4.39.29-8.73-.76-13.02-.29-1.17-.86-2.31-.94-3.48-.15-2.14-1.02-4.01-1.97-5.81-1.05-2-2.5-3.8-3.7-5.73-2.81-4.52-5.97-8.75-10.02-12.25-2.22-1.92-4.4-3.92-6.69-5.75-1.07-.86-2.49-1.28-3.54-2.15-2.57-2.14-5.64-3.3-8.62-4.6-2.72-1.19-5.59-2.04-8.41-3.01-.94-.32-1.98-.41-2.85-.84-2.86-1.41-5.92-1.41-8.97-1.37-4.12.06-8.23.26-12.35.4-.25,0-.5.02-.74.06-1.99.33-3.98.71-5.98.98-3.83.53-7.6,1.24-10.88,3.46-1.91,1.29-3.77,2.65-5.7,3.91-1.91,1.24-3.92,2.3-5.81,3.57-2.3,1.55-4.55,3.17-6.73,4.87-1.84,1.44-3.65,2.94-5.29,4.6-1.47,1.48-2.65,3.24-4.02,4.82-.31.36-.86.51-1.29.76-.11-.14-.22-.29-.33-.43,2.8-4.13,5.81-8.08,9.81-11.22Zm.05,97.72c-.11.12-.23.24-.34.36,1.3,1.66,2.42,3.52,3.95,4.93,1.63,1.5,3.68,2.51,5.88,3.14,2.55.73,5.08,1.55,7.61,2.36,2.68.86,5.4,1.65,8.21,1.69,4.47.06,8.94-.11,13.41-.24,2.09-.06,4.18-.25,6.27-.38-1.45-.73-3-.57-4.53-.56-.51,0-1.03-.09-1.53-.19-.92-.19-1.82-.55-2.75-.63-2.08-.18-4.16-.24-6.25-.35-.1,0-.2-.09-.3-.1-1.11-.13-2.23-.29-3.35-.38-.48-.04-1.11-.09-1.43.17-.6.49-.98.52-1.51-.03-.19-.2-.58-.22-.89-.29-1.42-.3-2.88-.47-4.26-.9-1.84-.58-3.64-1.34-5.43-2.07-1.73-.71-3.46-1.43-5.12-2.28-2.04-1.03-4.02-2.2-6.03-3.31-.54-.3-1.07-.63-1.6-.94ZM121.86,23.96c-.08.08-.16.16-.24.23.24.29.52.55.73.86,1.35,1.95,2.79,3.84,4.01,5.87,1.53,2.52,2.81,5.19,4.32,7.73,1.31,2.19,2.8,4.28,4.18,6.43.7,1.08,1.34,2.21,2.01,3.31.08-.03.17-.05.25-.08-.32-1.13-.59-2.29-.98-3.4-.54-1.5-1.14-2.98-1.77-4.45-.91-2.12-1.73-4.29-2.82-6.31-1.96-3.62-4.92-6.4-8.11-8.95-.52-.41-1.04-.83-1.55-1.25ZM29.38,124.47c-.31-.37-.61-.75-.93-1.11-1.16-1.25-2.53-2.36-3.44-3.76-2.21-3.38-5.26-5.94-8.04-8.77-1.55-1.58-2.84-3.42-4.25-5.14-.14-.17-.34-.28-.52-.42-.08.24-.3.54-.22.71.32.79.62,1.61,1.1,2.29,2.23,3.13,4.58,6.16,6.76,9.32,2.37,3.44,5.98,5.09,9.56,6.88Zm25.4,13.68l-.05.47c1.72.49,3.43,1.02,5.17,1.44.66.16,1.38.03,2.07.05.23,0,.46.09.69.16.59.16,1.19.5,1.77.48,3.9-.17,7.8-.37,11.7-.66,1.37-.1,2.71-.49,4.07-.75-.01-.09-.03-.19-.04-.28-.27,0-.53,0-.8,0-1.58,0-3.16-.1-4.73.02-2.32.18-4.66-.9-6.97.08-.08.03-.2-.05-.36-.1.11-.2.21-.39.32-.57-.01-.14-.02-.29-.03-.44-1.64,1.06-3.17.45-4.72.09-.03,0-.07.03-.1.03-1.45,0-2.91,0-4.36,0-1.21,0-2.42,0-3.63,0ZM15.65,105.8c-.21-.4-.45-.79-.63-1.2-.7-1.58-1.43-3.15-2.06-4.75-.59-1.48-1.07-3.01-1.6-4.52-.34-.97-.71-1.93-1.01-2.91-.6-2-1.11-4.02-1.73-6.01-.45-1.44-1.01-2.85-1.54-4.27-.08-.2-.28-.35-.54-.66-.65,6,5.55,22.04,9.11,24.32Zm108.64,7c5.22-5.08,7.37-11.89,10.31-18.28-.66.59-1.12,1.4-2.21.87-2.72,5.86-5.41,11.63-8.1,17.41ZM96.02,5.49c.43.36.66.64.94.77,2.41,1.12,4.83,2.19,7.24,3.31,1.83.85,3.78,1.54,5.43,2.66,4.2,2.85,8.27,5.9,12.39,8.88.92.66,1.8,1.37,2.7,2.06-3.76-5.79-21.63-16.74-28.71-17.68Zm38.86,87.91c1.99-7.09,3.66-14.21,2.17-21.66-.74,7.22-2.21,14.36-2.17,21.66Zm-36.27,39.71c-1.41-.5-1.41-.5-2.4-.01-.73.36-1.44.9-2.2,1-2.16.27-4.35.29-6.5.55-1.54.19-3.06.61-4.58.92.23.25.43.32.62.29,4.5-.6,8.99-1.18,13.48-1.84.56-.08,1.06-.6,1.59-.91Zm40.44-39.37c.04-.24.06-.75.23-1.19.42-1.07,1.03-2.08,1.37-3.18.6-1.92,1.08-3.89,1.56-5.84.14-.59.13-1.21.19-1.82-.12-.02-.23-.05-.35-.07-.79,6.1-4.38,11.25-5.57,17.22.54-.99.92-2.05,1.38-3.07.3-.66.72-1.27,1.18-2.07ZM6.02,74.64c.63-2.54,1.15-5.09.58-7.71-.96,2.51-.7,5.11-.58,7.71Zm98.42,56.1c.51.16.95.45,1.15.33,1.05-.61,2.04-1.31,3.04-2.01.18-.12.24-.4.43-.75-1.54.81-2.89,1.52-4.61,2.43ZM7.33,47.89c.1.04.2.08.3.12.97-.68,1.59-2.79.85-3.6-.41,1.23-.78,2.36-1.15,3.48Zm135.43,28.85c.19.02.37.05.56.07.11-1.04.22-2.08.33-3.13-.11-.01-.22-.02-.33-.03-.19,1.03-.37,2.06-.56,3.09Zm-4.62-11.51c.14,0,.27.01.41.02.07-1.12.14-2.23.21-3.35-.12,0-.24-.01-.36-.02-.08,1.11-.17,2.23-.25,3.34Zm-2.2-9.81c-.14.01-.29.03-.43.04.15.88.3,1.76.45,2.64.1-.01.2-.03.3-.04-.1-.88-.21-1.76-.31-2.63Zm-86.98,81.7l-.02.34c.82.09,1.65.19,2.47.28.01-.11.02-.22.04-.34-.83-.09-1.66-.18-2.49-.28Z"/><path d="m39.39,80.44c.33-.03.67-.06.96-.09.17-.66.18-1.48.57-2,.38-.5,1.15-.71,1.84-1.09.47,3.37,2.66,4.83,5.39,5.86,1.79.67,3.47,1.64,5.28,2.24,2.05.67,4.18,1.11,6.28,1.59,1.51.34,3.04.66,4.58.84,1.11.13,2.27.13,3.39-.02,2.77-.37,5.57-.7,8.28-1.36,1.64-.4,3.13-1.38,4.69-2.11.1-.04.17-.15.27-.16,2.89-.52,4.68-2.56,6.42-4.66.98-1.18,1.37-1.24,2.39-.75.85.41,1.09,2.37.62,3.21-.59,1.04-1.26,2.05-2.02,2.97-.97,1.17-2.09,2.22-3.09,3.36-1.12,1.28-2.65,1.77-4.17,2.2-3,.87-6.02,1.74-9.08,2.34-1.79.35-3.69.26-5.53.19-3.02-.11-6.08-.08-9.03-.65-2.69-.52-5.53-1.03-7.71-3.05-.37-.35-.92-.56-1.42-.71-2.97-.85-4.93-2.77-6.25-5.53-.77-1.61-1.3-1.92-2.64-2.61Z"/><path d="m87.97,53.62c.02,3.65-1.79,5.82-5.09,6.39-.38.07-.77.16-1.12.32-1.53.69-2.91.33-3.73-1.08-1.33-2.29-1.21-4.65-.03-6.93,1.19-2.31,3.12-3.72,5.77-3.76,1.08-.01,2.04.35,2.87,1.44.94,1.23,1.44,2.39,1.34,3.62Z"/><path d="m50.75,52.1c-.3.97-.62,2.75-1.42,4.29-.39.74-1.62,1.29-2.55,1.45-2.01.36-3.84-.52-5.49-1.57-2.36-1.51-2.42-6.48.66-7.8,1.16-.5,2.25-1.22,3.46-1.52.87-.22,1.9,0,2.81.19,1.77.38,2.53,2.11,2.53,4.96Z"/></g></g></svg>